%TF.GenerationSoftware,KiCad,Pcbnew,4.0.7*%
%TF.CreationDate,2018-09-29T23:18:57-06:00*%
%TF.ProjectId,valve_testing,76616C76655F74657374696E672E6B69,rev?*%
%TF.FileFunction,Legend,Bot*%
%FSLAX46Y46*%
G04 Gerber Fmt 4.6, Leading zero omitted, Abs format (unit mm)*
G04 Created by KiCad (PCBNEW 4.0.7) date Saturday, September 29, 2018 'PMt' 11:18:57 PM*
%MOMM*%
%LPD*%
G01*
G04 APERTURE LIST*
%ADD10C,0.150000*%
%ADD11C,0.100000*%
%ADD12C,0.120000*%
%ADD13C,0.160000*%
G04 APERTURE END LIST*
D10*
D11*
X129285904Y-102116000D02*
X129381142Y-102068381D01*
X129523999Y-102068381D01*
X129666857Y-102116000D01*
X129762095Y-102211238D01*
X129809714Y-102306476D01*
X129857333Y-102496952D01*
X129857333Y-102639810D01*
X129809714Y-102830286D01*
X129762095Y-102925524D01*
X129666857Y-103020762D01*
X129523999Y-103068381D01*
X129428761Y-103068381D01*
X129285904Y-103020762D01*
X129238285Y-102973143D01*
X129238285Y-102639810D01*
X129428761Y-102639810D01*
X128809714Y-103068381D02*
X128809714Y-102068381D01*
X128238285Y-103068381D01*
X128238285Y-102068381D01*
X127762095Y-103068381D02*
X127762095Y-102068381D01*
X127524000Y-102068381D01*
X127381142Y-102116000D01*
X127285904Y-102211238D01*
X127238285Y-102306476D01*
X127190666Y-102496952D01*
X127190666Y-102639810D01*
X127238285Y-102830286D01*
X127285904Y-102925524D01*
X127381142Y-103020762D01*
X127524000Y-103068381D01*
X127762095Y-103068381D01*
X126174476Y-102068381D02*
X126650667Y-102068381D01*
X126698286Y-102544571D01*
X126650667Y-102496952D01*
X126555429Y-102449333D01*
X126317333Y-102449333D01*
X126222095Y-102496952D01*
X126174476Y-102544571D01*
X126126857Y-102639810D01*
X126126857Y-102877905D01*
X126174476Y-102973143D01*
X126222095Y-103020762D01*
X126317333Y-103068381D01*
X126555429Y-103068381D01*
X126650667Y-103020762D01*
X126698286Y-102973143D01*
X125841143Y-102068381D02*
X125507810Y-103068381D01*
X125174476Y-102068381D01*
D10*
X157480000Y-51435000D02*
X157480000Y-50165000D01*
X83820000Y-51435000D02*
X83820000Y-50165000D01*
X83820000Y-100965000D02*
X83820000Y-102235000D01*
X157480000Y-101092000D02*
X157480000Y-102235000D01*
X83820000Y-51435000D02*
X83820000Y-100965000D01*
X157480000Y-51435000D02*
X157480000Y-101092000D01*
X83820000Y-102235000D02*
G75*
G03X85725000Y-104140000I1905000J0D01*
G01*
X85725000Y-48260000D02*
G75*
G03X83820000Y-50165000I0J-1905000D01*
G01*
X157480000Y-50165000D02*
G75*
G03X155575000Y-48260000I-1905000J0D01*
G01*
X155575000Y-104140000D02*
G75*
G03X157480000Y-102235000I0J1905000D01*
G01*
X155575000Y-48260000D02*
X85725000Y-48260000D01*
X85725000Y-104140000D02*
X155575000Y-104140000D01*
D12*
X115000000Y-88578000D02*
X115910000Y-88578000D01*
X112700000Y-88578000D02*
X113600000Y-88578000D01*
X112690000Y-85503000D02*
X112690000Y-88578000D01*
X115910000Y-86428000D02*
X115910000Y-88578000D01*
D10*
X130542000Y-67148000D02*
X130542000Y-65948000D01*
X128792000Y-65948000D02*
X128792000Y-67148000D01*
X115175000Y-67148000D02*
X115175000Y-65948000D01*
X113425000Y-65948000D02*
X113425000Y-67148000D01*
X117715000Y-67148000D02*
X117715000Y-65948000D01*
X115965000Y-65948000D02*
X115965000Y-67148000D01*
X120255000Y-67148000D02*
X120255000Y-65948000D01*
X118505000Y-65948000D02*
X118505000Y-67148000D01*
X122795000Y-67148000D02*
X122795000Y-65948000D01*
X121045000Y-65948000D02*
X121045000Y-67148000D01*
X125335000Y-67148000D02*
X125335000Y-65948000D01*
X123585000Y-65948000D02*
X123585000Y-67148000D01*
X127875000Y-67148000D02*
X127875000Y-65948000D01*
X126125000Y-65948000D02*
X126125000Y-67148000D01*
D12*
X147865000Y-86648000D02*
X153365000Y-86648000D01*
X147865000Y-84548000D02*
X153365000Y-84548000D01*
X147865000Y-86648000D02*
X147865000Y-84548000D01*
D10*
X132955000Y-67148000D02*
X132955000Y-65948000D01*
X131205000Y-65948000D02*
X131205000Y-67148000D01*
D12*
X106990000Y-91438000D02*
X106060000Y-91438000D01*
X103830000Y-91438000D02*
X104760000Y-91438000D01*
X103830000Y-91438000D02*
X103830000Y-88278000D01*
X106990000Y-91438000D02*
X106990000Y-89978000D01*
X118420000Y-91438000D02*
X117490000Y-91438000D01*
X115260000Y-91438000D02*
X116190000Y-91438000D01*
X115260000Y-91438000D02*
X115260000Y-88278000D01*
X118420000Y-91438000D02*
X118420000Y-89978000D01*
X129850000Y-91438000D02*
X128920000Y-91438000D01*
X126690000Y-91438000D02*
X127620000Y-91438000D01*
X126690000Y-91438000D02*
X126690000Y-88278000D01*
X129850000Y-91438000D02*
X129850000Y-89978000D01*
X141280000Y-91438000D02*
X140350000Y-91438000D01*
X138120000Y-91438000D02*
X139050000Y-91438000D01*
X138120000Y-91438000D02*
X138120000Y-88278000D01*
X141280000Y-91438000D02*
X141280000Y-89978000D01*
X103570000Y-88578000D02*
X104480000Y-88578000D01*
X101270000Y-88578000D02*
X102170000Y-88578000D01*
X101260000Y-85503000D02*
X101260000Y-88578000D01*
X104480000Y-86428000D02*
X104480000Y-88578000D01*
X108650000Y-88578000D02*
X109560000Y-88578000D01*
X106350000Y-88578000D02*
X107250000Y-88578000D01*
X106340000Y-85503000D02*
X106340000Y-88578000D01*
X109560000Y-86428000D02*
X109560000Y-88578000D01*
X120080000Y-88578000D02*
X120990000Y-88578000D01*
X117780000Y-88578000D02*
X118680000Y-88578000D01*
X117770000Y-85503000D02*
X117770000Y-88578000D01*
X120990000Y-86428000D02*
X120990000Y-88578000D01*
X126430000Y-88578000D02*
X127340000Y-88578000D01*
X124130000Y-88578000D02*
X125030000Y-88578000D01*
X124120000Y-85503000D02*
X124120000Y-88578000D01*
X127340000Y-86428000D02*
X127340000Y-88578000D01*
X131510000Y-88578000D02*
X132420000Y-88578000D01*
X129210000Y-88578000D02*
X130110000Y-88578000D01*
X129200000Y-85503000D02*
X129200000Y-88578000D01*
X132420000Y-86428000D02*
X132420000Y-88578000D01*
X137860000Y-88578000D02*
X138770000Y-88578000D01*
X135560000Y-88578000D02*
X136460000Y-88578000D01*
X135550000Y-85503000D02*
X135550000Y-88578000D01*
X138770000Y-86428000D02*
X138770000Y-88578000D01*
X142940000Y-88578000D02*
X143850000Y-88578000D01*
X140640000Y-88578000D02*
X141540000Y-88578000D01*
X140630000Y-85503000D02*
X140630000Y-88578000D01*
X143850000Y-86428000D02*
X143850000Y-88578000D01*
D10*
X103470000Y-81548000D02*
X102270000Y-81548000D01*
X102270000Y-83298000D02*
X103470000Y-83298000D01*
X107350000Y-83298000D02*
X108550000Y-83298000D01*
X108550000Y-81548000D02*
X107350000Y-81548000D01*
X114900000Y-81548000D02*
X113700000Y-81548000D01*
X113700000Y-83298000D02*
X114900000Y-83298000D01*
X118780000Y-83298000D02*
X119980000Y-83298000D01*
X119980000Y-81548000D02*
X118780000Y-81548000D01*
X126330000Y-81548000D02*
X125130000Y-81548000D01*
X125130000Y-83298000D02*
X126330000Y-83298000D01*
X130210000Y-83298000D02*
X131410000Y-83298000D01*
X131410000Y-81548000D02*
X130210000Y-81548000D01*
X137760000Y-81548000D02*
X136560000Y-81548000D01*
X136560000Y-83298000D02*
X137760000Y-83298000D01*
X141640000Y-83298000D02*
X142840000Y-83298000D01*
X142840000Y-81548000D02*
X141640000Y-81548000D01*
D13*
X112347619Y-86772762D02*
X112300000Y-86677524D01*
X112204762Y-86582286D01*
X112061905Y-86439429D01*
X112014286Y-86344190D01*
X112014286Y-86248952D01*
X112252381Y-86296571D02*
X112204762Y-86201333D01*
X112109524Y-86106095D01*
X111919048Y-86058476D01*
X111585714Y-86058476D01*
X111395238Y-86106095D01*
X111300000Y-86201333D01*
X111252381Y-86296571D01*
X111252381Y-86487048D01*
X111300000Y-86582286D01*
X111395238Y-86677524D01*
X111585714Y-86725143D01*
X111919048Y-86725143D01*
X112109524Y-86677524D01*
X112204762Y-86582286D01*
X112252381Y-86487048D01*
X112252381Y-86296571D01*
X111252381Y-87058476D02*
X111252381Y-87677524D01*
X111633333Y-87344190D01*
X111633333Y-87487048D01*
X111680952Y-87582286D01*
X111728571Y-87629905D01*
X111823810Y-87677524D01*
X112061905Y-87677524D01*
X112157143Y-87629905D01*
X112204762Y-87582286D01*
X112252381Y-87487048D01*
X112252381Y-87201333D01*
X112204762Y-87106095D01*
X112157143Y-87058476D01*
X129924381Y-69080143D02*
X129448190Y-68746809D01*
X129924381Y-68508714D02*
X128924381Y-68508714D01*
X128924381Y-68889667D01*
X128972000Y-68984905D01*
X129019619Y-69032524D01*
X129114857Y-69080143D01*
X129257714Y-69080143D01*
X129352952Y-69032524D01*
X129400571Y-68984905D01*
X129448190Y-68889667D01*
X129448190Y-68508714D01*
X129924381Y-70032524D02*
X129924381Y-69461095D01*
X129924381Y-69746809D02*
X128924381Y-69746809D01*
X129067238Y-69651571D01*
X129162476Y-69556333D01*
X129210095Y-69461095D01*
X128924381Y-70365857D02*
X128924381Y-70984905D01*
X129305333Y-70651571D01*
X129305333Y-70794429D01*
X129352952Y-70889667D01*
X129400571Y-70937286D01*
X129495810Y-70984905D01*
X129733905Y-70984905D01*
X129829143Y-70937286D01*
X129876762Y-70889667D01*
X129924381Y-70794429D01*
X129924381Y-70508714D01*
X129876762Y-70413476D01*
X129829143Y-70365857D01*
X114557381Y-69556334D02*
X114081190Y-69223000D01*
X114557381Y-68984905D02*
X113557381Y-68984905D01*
X113557381Y-69365858D01*
X113605000Y-69461096D01*
X113652619Y-69508715D01*
X113747857Y-69556334D01*
X113890714Y-69556334D01*
X113985952Y-69508715D01*
X114033571Y-69461096D01*
X114081190Y-69365858D01*
X114081190Y-68984905D01*
X114557381Y-70508715D02*
X114557381Y-69937286D01*
X114557381Y-70223000D02*
X113557381Y-70223000D01*
X113700238Y-70127762D01*
X113795476Y-70032524D01*
X113843095Y-69937286D01*
X117097381Y-69556334D02*
X116621190Y-69223000D01*
X117097381Y-68984905D02*
X116097381Y-68984905D01*
X116097381Y-69365858D01*
X116145000Y-69461096D01*
X116192619Y-69508715D01*
X116287857Y-69556334D01*
X116430714Y-69556334D01*
X116525952Y-69508715D01*
X116573571Y-69461096D01*
X116621190Y-69365858D01*
X116621190Y-68984905D01*
X116192619Y-69937286D02*
X116145000Y-69984905D01*
X116097381Y-70080143D01*
X116097381Y-70318239D01*
X116145000Y-70413477D01*
X116192619Y-70461096D01*
X116287857Y-70508715D01*
X116383095Y-70508715D01*
X116525952Y-70461096D01*
X117097381Y-69889667D01*
X117097381Y-70508715D01*
X119637381Y-69556334D02*
X119161190Y-69223000D01*
X119637381Y-68984905D02*
X118637381Y-68984905D01*
X118637381Y-69365858D01*
X118685000Y-69461096D01*
X118732619Y-69508715D01*
X118827857Y-69556334D01*
X118970714Y-69556334D01*
X119065952Y-69508715D01*
X119113571Y-69461096D01*
X119161190Y-69365858D01*
X119161190Y-68984905D01*
X118637381Y-70461096D02*
X118637381Y-69984905D01*
X119113571Y-69937286D01*
X119065952Y-69984905D01*
X119018333Y-70080143D01*
X119018333Y-70318239D01*
X119065952Y-70413477D01*
X119113571Y-70461096D01*
X119208810Y-70508715D01*
X119446905Y-70508715D01*
X119542143Y-70461096D01*
X119589762Y-70413477D01*
X119637381Y-70318239D01*
X119637381Y-70080143D01*
X119589762Y-69984905D01*
X119542143Y-69937286D01*
X122177381Y-69556334D02*
X121701190Y-69223000D01*
X122177381Y-68984905D02*
X121177381Y-68984905D01*
X121177381Y-69365858D01*
X121225000Y-69461096D01*
X121272619Y-69508715D01*
X121367857Y-69556334D01*
X121510714Y-69556334D01*
X121605952Y-69508715D01*
X121653571Y-69461096D01*
X121701190Y-69365858D01*
X121701190Y-68984905D01*
X121177381Y-70413477D02*
X121177381Y-70223000D01*
X121225000Y-70127762D01*
X121272619Y-70080143D01*
X121415476Y-69984905D01*
X121605952Y-69937286D01*
X121986905Y-69937286D01*
X122082143Y-69984905D01*
X122129762Y-70032524D01*
X122177381Y-70127762D01*
X122177381Y-70318239D01*
X122129762Y-70413477D01*
X122082143Y-70461096D01*
X121986905Y-70508715D01*
X121748810Y-70508715D01*
X121653571Y-70461096D01*
X121605952Y-70413477D01*
X121558333Y-70318239D01*
X121558333Y-70127762D01*
X121605952Y-70032524D01*
X121653571Y-69984905D01*
X121748810Y-69937286D01*
X124717381Y-69556334D02*
X124241190Y-69223000D01*
X124717381Y-68984905D02*
X123717381Y-68984905D01*
X123717381Y-69365858D01*
X123765000Y-69461096D01*
X123812619Y-69508715D01*
X123907857Y-69556334D01*
X124050714Y-69556334D01*
X124145952Y-69508715D01*
X124193571Y-69461096D01*
X124241190Y-69365858D01*
X124241190Y-68984905D01*
X124717381Y-70032524D02*
X124717381Y-70223000D01*
X124669762Y-70318239D01*
X124622143Y-70365858D01*
X124479286Y-70461096D01*
X124288810Y-70508715D01*
X123907857Y-70508715D01*
X123812619Y-70461096D01*
X123765000Y-70413477D01*
X123717381Y-70318239D01*
X123717381Y-70127762D01*
X123765000Y-70032524D01*
X123812619Y-69984905D01*
X123907857Y-69937286D01*
X124145952Y-69937286D01*
X124241190Y-69984905D01*
X124288810Y-70032524D01*
X124336429Y-70127762D01*
X124336429Y-70318239D01*
X124288810Y-70413477D01*
X124241190Y-70461096D01*
X124145952Y-70508715D01*
X127257381Y-69080143D02*
X126781190Y-68746809D01*
X127257381Y-68508714D02*
X126257381Y-68508714D01*
X126257381Y-68889667D01*
X126305000Y-68984905D01*
X126352619Y-69032524D01*
X126447857Y-69080143D01*
X126590714Y-69080143D01*
X126685952Y-69032524D01*
X126733571Y-68984905D01*
X126781190Y-68889667D01*
X126781190Y-68508714D01*
X127257381Y-70032524D02*
X127257381Y-69461095D01*
X127257381Y-69746809D02*
X126257381Y-69746809D01*
X126400238Y-69651571D01*
X126495476Y-69556333D01*
X126543095Y-69461095D01*
X126257381Y-70651571D02*
X126257381Y-70746810D01*
X126305000Y-70842048D01*
X126352619Y-70889667D01*
X126447857Y-70937286D01*
X126638333Y-70984905D01*
X126876429Y-70984905D01*
X127066905Y-70937286D01*
X127162143Y-70889667D01*
X127209762Y-70842048D01*
X127257381Y-70746810D01*
X127257381Y-70651571D01*
X127209762Y-70556333D01*
X127162143Y-70508714D01*
X127066905Y-70461095D01*
X126876429Y-70413476D01*
X126638333Y-70413476D01*
X126447857Y-70461095D01*
X126352619Y-70508714D01*
X126305000Y-70556333D01*
X126257381Y-70651571D01*
X151931666Y-88505143D02*
X151979285Y-88552762D01*
X152122142Y-88600381D01*
X152217380Y-88600381D01*
X152360238Y-88552762D01*
X152455476Y-88457524D01*
X152503095Y-88362286D01*
X152550714Y-88171810D01*
X152550714Y-88028952D01*
X152503095Y-87838476D01*
X152455476Y-87743238D01*
X152360238Y-87648000D01*
X152217380Y-87600381D01*
X152122142Y-87600381D01*
X151979285Y-87648000D01*
X151931666Y-87695619D01*
X150979285Y-88600381D02*
X151550714Y-88600381D01*
X151265000Y-88600381D02*
X151265000Y-87600381D01*
X151360238Y-87743238D01*
X151455476Y-87838476D01*
X151550714Y-87886095D01*
X132337381Y-69080143D02*
X131861190Y-68746809D01*
X132337381Y-68508714D02*
X131337381Y-68508714D01*
X131337381Y-68889667D01*
X131385000Y-68984905D01*
X131432619Y-69032524D01*
X131527857Y-69080143D01*
X131670714Y-69080143D01*
X131765952Y-69032524D01*
X131813571Y-68984905D01*
X131861190Y-68889667D01*
X131861190Y-68508714D01*
X132337381Y-70032524D02*
X132337381Y-69461095D01*
X132337381Y-69746809D02*
X131337381Y-69746809D01*
X131480238Y-69651571D01*
X131575476Y-69556333D01*
X131623095Y-69461095D01*
X131670714Y-70889667D02*
X132337381Y-70889667D01*
X131289762Y-70651571D02*
X132004048Y-70413476D01*
X132004048Y-71032524D01*
X103957381Y-91209905D02*
X102957381Y-91209905D01*
X102957381Y-91448000D01*
X103005000Y-91590858D01*
X103100238Y-91686096D01*
X103195476Y-91733715D01*
X103385952Y-91781334D01*
X103528810Y-91781334D01*
X103719286Y-91733715D01*
X103814524Y-91686096D01*
X103909762Y-91590858D01*
X103957381Y-91448000D01*
X103957381Y-91209905D01*
X103957381Y-92733715D02*
X103957381Y-92162286D01*
X103957381Y-92448000D02*
X102957381Y-92448000D01*
X103100238Y-92352762D01*
X103195476Y-92257524D01*
X103243095Y-92162286D01*
X115427381Y-91209905D02*
X114427381Y-91209905D01*
X114427381Y-91448000D01*
X114475000Y-91590858D01*
X114570238Y-91686096D01*
X114665476Y-91733715D01*
X114855952Y-91781334D01*
X114998810Y-91781334D01*
X115189286Y-91733715D01*
X115284524Y-91686096D01*
X115379762Y-91590858D01*
X115427381Y-91448000D01*
X115427381Y-91209905D01*
X114522619Y-92162286D02*
X114475000Y-92209905D01*
X114427381Y-92305143D01*
X114427381Y-92543239D01*
X114475000Y-92638477D01*
X114522619Y-92686096D01*
X114617857Y-92733715D01*
X114713095Y-92733715D01*
X114855952Y-92686096D01*
X115427381Y-92114667D01*
X115427381Y-92733715D01*
X126857381Y-91209905D02*
X125857381Y-91209905D01*
X125857381Y-91448000D01*
X125905000Y-91590858D01*
X126000238Y-91686096D01*
X126095476Y-91733715D01*
X126285952Y-91781334D01*
X126428810Y-91781334D01*
X126619286Y-91733715D01*
X126714524Y-91686096D01*
X126809762Y-91590858D01*
X126857381Y-91448000D01*
X126857381Y-91209905D01*
X125857381Y-92114667D02*
X125857381Y-92733715D01*
X126238333Y-92400381D01*
X126238333Y-92543239D01*
X126285952Y-92638477D01*
X126333571Y-92686096D01*
X126428810Y-92733715D01*
X126666905Y-92733715D01*
X126762143Y-92686096D01*
X126809762Y-92638477D01*
X126857381Y-92543239D01*
X126857381Y-92257524D01*
X126809762Y-92162286D01*
X126762143Y-92114667D01*
X138287381Y-91209905D02*
X137287381Y-91209905D01*
X137287381Y-91448000D01*
X137335000Y-91590858D01*
X137430238Y-91686096D01*
X137525476Y-91733715D01*
X137715952Y-91781334D01*
X137858810Y-91781334D01*
X138049286Y-91733715D01*
X138144524Y-91686096D01*
X138239762Y-91590858D01*
X138287381Y-91448000D01*
X138287381Y-91209905D01*
X137620714Y-92638477D02*
X138287381Y-92638477D01*
X137239762Y-92400381D02*
X137954048Y-92162286D01*
X137954048Y-92781334D01*
X100877619Y-86772762D02*
X100830000Y-86677524D01*
X100734762Y-86582286D01*
X100591905Y-86439429D01*
X100544286Y-86344190D01*
X100544286Y-86248952D01*
X100782381Y-86296571D02*
X100734762Y-86201333D01*
X100639524Y-86106095D01*
X100449048Y-86058476D01*
X100115714Y-86058476D01*
X99925238Y-86106095D01*
X99830000Y-86201333D01*
X99782381Y-86296571D01*
X99782381Y-86487048D01*
X99830000Y-86582286D01*
X99925238Y-86677524D01*
X100115714Y-86725143D01*
X100449048Y-86725143D01*
X100639524Y-86677524D01*
X100734762Y-86582286D01*
X100782381Y-86487048D01*
X100782381Y-86296571D01*
X100782381Y-87677524D02*
X100782381Y-87106095D01*
X100782381Y-87391809D02*
X99782381Y-87391809D01*
X99925238Y-87296571D01*
X100020476Y-87201333D01*
X100068095Y-87106095D01*
X105957619Y-86772762D02*
X105910000Y-86677524D01*
X105814762Y-86582286D01*
X105671905Y-86439429D01*
X105624286Y-86344190D01*
X105624286Y-86248952D01*
X105862381Y-86296571D02*
X105814762Y-86201333D01*
X105719524Y-86106095D01*
X105529048Y-86058476D01*
X105195714Y-86058476D01*
X105005238Y-86106095D01*
X104910000Y-86201333D01*
X104862381Y-86296571D01*
X104862381Y-86487048D01*
X104910000Y-86582286D01*
X105005238Y-86677524D01*
X105195714Y-86725143D01*
X105529048Y-86725143D01*
X105719524Y-86677524D01*
X105814762Y-86582286D01*
X105862381Y-86487048D01*
X105862381Y-86296571D01*
X104957619Y-87106095D02*
X104910000Y-87153714D01*
X104862381Y-87248952D01*
X104862381Y-87487048D01*
X104910000Y-87582286D01*
X104957619Y-87629905D01*
X105052857Y-87677524D01*
X105148095Y-87677524D01*
X105290952Y-87629905D01*
X105862381Y-87058476D01*
X105862381Y-87677524D01*
X117427619Y-86772762D02*
X117380000Y-86677524D01*
X117284762Y-86582286D01*
X117141905Y-86439429D01*
X117094286Y-86344190D01*
X117094286Y-86248952D01*
X117332381Y-86296571D02*
X117284762Y-86201333D01*
X117189524Y-86106095D01*
X116999048Y-86058476D01*
X116665714Y-86058476D01*
X116475238Y-86106095D01*
X116380000Y-86201333D01*
X116332381Y-86296571D01*
X116332381Y-86487048D01*
X116380000Y-86582286D01*
X116475238Y-86677524D01*
X116665714Y-86725143D01*
X116999048Y-86725143D01*
X117189524Y-86677524D01*
X117284762Y-86582286D01*
X117332381Y-86487048D01*
X117332381Y-86296571D01*
X116665714Y-87582286D02*
X117332381Y-87582286D01*
X116284762Y-87344190D02*
X116999048Y-87106095D01*
X116999048Y-87725143D01*
X123777619Y-86772762D02*
X123730000Y-86677524D01*
X123634762Y-86582286D01*
X123491905Y-86439429D01*
X123444286Y-86344190D01*
X123444286Y-86248952D01*
X123682381Y-86296571D02*
X123634762Y-86201333D01*
X123539524Y-86106095D01*
X123349048Y-86058476D01*
X123015714Y-86058476D01*
X122825238Y-86106095D01*
X122730000Y-86201333D01*
X122682381Y-86296571D01*
X122682381Y-86487048D01*
X122730000Y-86582286D01*
X122825238Y-86677524D01*
X123015714Y-86725143D01*
X123349048Y-86725143D01*
X123539524Y-86677524D01*
X123634762Y-86582286D01*
X123682381Y-86487048D01*
X123682381Y-86296571D01*
X122682381Y-87629905D02*
X122682381Y-87153714D01*
X123158571Y-87106095D01*
X123110952Y-87153714D01*
X123063333Y-87248952D01*
X123063333Y-87487048D01*
X123110952Y-87582286D01*
X123158571Y-87629905D01*
X123253810Y-87677524D01*
X123491905Y-87677524D01*
X123587143Y-87629905D01*
X123634762Y-87582286D01*
X123682381Y-87487048D01*
X123682381Y-87248952D01*
X123634762Y-87153714D01*
X123587143Y-87106095D01*
X128857619Y-86772762D02*
X128810000Y-86677524D01*
X128714762Y-86582286D01*
X128571905Y-86439429D01*
X128524286Y-86344190D01*
X128524286Y-86248952D01*
X128762381Y-86296571D02*
X128714762Y-86201333D01*
X128619524Y-86106095D01*
X128429048Y-86058476D01*
X128095714Y-86058476D01*
X127905238Y-86106095D01*
X127810000Y-86201333D01*
X127762381Y-86296571D01*
X127762381Y-86487048D01*
X127810000Y-86582286D01*
X127905238Y-86677524D01*
X128095714Y-86725143D01*
X128429048Y-86725143D01*
X128619524Y-86677524D01*
X128714762Y-86582286D01*
X128762381Y-86487048D01*
X128762381Y-86296571D01*
X127762381Y-87582286D02*
X127762381Y-87391809D01*
X127810000Y-87296571D01*
X127857619Y-87248952D01*
X128000476Y-87153714D01*
X128190952Y-87106095D01*
X128571905Y-87106095D01*
X128667143Y-87153714D01*
X128714762Y-87201333D01*
X128762381Y-87296571D01*
X128762381Y-87487048D01*
X128714762Y-87582286D01*
X128667143Y-87629905D01*
X128571905Y-87677524D01*
X128333810Y-87677524D01*
X128238571Y-87629905D01*
X128190952Y-87582286D01*
X128143333Y-87487048D01*
X128143333Y-87296571D01*
X128190952Y-87201333D01*
X128238571Y-87153714D01*
X128333810Y-87106095D01*
X135207619Y-86772762D02*
X135160000Y-86677524D01*
X135064762Y-86582286D01*
X134921905Y-86439429D01*
X134874286Y-86344190D01*
X134874286Y-86248952D01*
X135112381Y-86296571D02*
X135064762Y-86201333D01*
X134969524Y-86106095D01*
X134779048Y-86058476D01*
X134445714Y-86058476D01*
X134255238Y-86106095D01*
X134160000Y-86201333D01*
X134112381Y-86296571D01*
X134112381Y-86487048D01*
X134160000Y-86582286D01*
X134255238Y-86677524D01*
X134445714Y-86725143D01*
X134779048Y-86725143D01*
X134969524Y-86677524D01*
X135064762Y-86582286D01*
X135112381Y-86487048D01*
X135112381Y-86296571D01*
X134112381Y-87058476D02*
X134112381Y-87725143D01*
X135112381Y-87296571D01*
X140287619Y-86772762D02*
X140240000Y-86677524D01*
X140144762Y-86582286D01*
X140001905Y-86439429D01*
X139954286Y-86344190D01*
X139954286Y-86248952D01*
X140192381Y-86296571D02*
X140144762Y-86201333D01*
X140049524Y-86106095D01*
X139859048Y-86058476D01*
X139525714Y-86058476D01*
X139335238Y-86106095D01*
X139240000Y-86201333D01*
X139192381Y-86296571D01*
X139192381Y-86487048D01*
X139240000Y-86582286D01*
X139335238Y-86677524D01*
X139525714Y-86725143D01*
X139859048Y-86725143D01*
X140049524Y-86677524D01*
X140144762Y-86582286D01*
X140192381Y-86487048D01*
X140192381Y-86296571D01*
X139620952Y-87296571D02*
X139573333Y-87201333D01*
X139525714Y-87153714D01*
X139430476Y-87106095D01*
X139382857Y-87106095D01*
X139287619Y-87153714D01*
X139240000Y-87201333D01*
X139192381Y-87296571D01*
X139192381Y-87487048D01*
X139240000Y-87582286D01*
X139287619Y-87629905D01*
X139382857Y-87677524D01*
X139430476Y-87677524D01*
X139525714Y-87629905D01*
X139573333Y-87582286D01*
X139620952Y-87487048D01*
X139620952Y-87296571D01*
X139668571Y-87201333D01*
X139716190Y-87153714D01*
X139811429Y-87106095D01*
X140001905Y-87106095D01*
X140097143Y-87153714D01*
X140144762Y-87201333D01*
X140192381Y-87296571D01*
X140192381Y-87487048D01*
X140144762Y-87582286D01*
X140097143Y-87629905D01*
X140001905Y-87677524D01*
X139811429Y-87677524D01*
X139716190Y-87629905D01*
X139668571Y-87582286D01*
X139620952Y-87487048D01*
X103036666Y-84340381D02*
X103370000Y-83864190D01*
X103608095Y-84340381D02*
X103608095Y-83340381D01*
X103227142Y-83340381D01*
X103131904Y-83388000D01*
X103084285Y-83435619D01*
X103036666Y-83530857D01*
X103036666Y-83673714D01*
X103084285Y-83768952D01*
X103131904Y-83816571D01*
X103227142Y-83864190D01*
X103608095Y-83864190D01*
X102703333Y-83340381D02*
X102084285Y-83340381D01*
X102417619Y-83721333D01*
X102274761Y-83721333D01*
X102179523Y-83768952D01*
X102131904Y-83816571D01*
X102084285Y-83911810D01*
X102084285Y-84149905D01*
X102131904Y-84245143D01*
X102179523Y-84292762D01*
X102274761Y-84340381D01*
X102560476Y-84340381D01*
X102655714Y-84292762D01*
X102703333Y-84245143D01*
X108116666Y-84331381D02*
X108450000Y-83855190D01*
X108688095Y-84331381D02*
X108688095Y-83331381D01*
X108307142Y-83331381D01*
X108211904Y-83379000D01*
X108164285Y-83426619D01*
X108116666Y-83521857D01*
X108116666Y-83664714D01*
X108164285Y-83759952D01*
X108211904Y-83807571D01*
X108307142Y-83855190D01*
X108688095Y-83855190D01*
X107259523Y-83664714D02*
X107259523Y-84331381D01*
X107497619Y-83283762D02*
X107735714Y-83998048D01*
X107116666Y-83998048D01*
X114466666Y-84340381D02*
X114800000Y-83864190D01*
X115038095Y-84340381D02*
X115038095Y-83340381D01*
X114657142Y-83340381D01*
X114561904Y-83388000D01*
X114514285Y-83435619D01*
X114466666Y-83530857D01*
X114466666Y-83673714D01*
X114514285Y-83768952D01*
X114561904Y-83816571D01*
X114657142Y-83864190D01*
X115038095Y-83864190D01*
X114133333Y-83340381D02*
X113466666Y-83340381D01*
X113895238Y-84340381D01*
X119546666Y-84331381D02*
X119880000Y-83855190D01*
X120118095Y-84331381D02*
X120118095Y-83331381D01*
X119737142Y-83331381D01*
X119641904Y-83379000D01*
X119594285Y-83426619D01*
X119546666Y-83521857D01*
X119546666Y-83664714D01*
X119594285Y-83759952D01*
X119641904Y-83807571D01*
X119737142Y-83855190D01*
X120118095Y-83855190D01*
X118975238Y-83759952D02*
X119070476Y-83712333D01*
X119118095Y-83664714D01*
X119165714Y-83569476D01*
X119165714Y-83521857D01*
X119118095Y-83426619D01*
X119070476Y-83379000D01*
X118975238Y-83331381D01*
X118784761Y-83331381D01*
X118689523Y-83379000D01*
X118641904Y-83426619D01*
X118594285Y-83521857D01*
X118594285Y-83569476D01*
X118641904Y-83664714D01*
X118689523Y-83712333D01*
X118784761Y-83759952D01*
X118975238Y-83759952D01*
X119070476Y-83807571D01*
X119118095Y-83855190D01*
X119165714Y-83950429D01*
X119165714Y-84140905D01*
X119118095Y-84236143D01*
X119070476Y-84283762D01*
X118975238Y-84331381D01*
X118784761Y-84331381D01*
X118689523Y-84283762D01*
X118641904Y-84236143D01*
X118594285Y-84140905D01*
X118594285Y-83950429D01*
X118641904Y-83855190D01*
X118689523Y-83807571D01*
X118784761Y-83759952D01*
X126372857Y-84340381D02*
X126706191Y-83864190D01*
X126944286Y-84340381D02*
X126944286Y-83340381D01*
X126563333Y-83340381D01*
X126468095Y-83388000D01*
X126420476Y-83435619D01*
X126372857Y-83530857D01*
X126372857Y-83673714D01*
X126420476Y-83768952D01*
X126468095Y-83816571D01*
X126563333Y-83864190D01*
X126944286Y-83864190D01*
X125420476Y-84340381D02*
X125991905Y-84340381D01*
X125706191Y-84340381D02*
X125706191Y-83340381D01*
X125801429Y-83483238D01*
X125896667Y-83578476D01*
X125991905Y-83626095D01*
X124468095Y-84340381D02*
X125039524Y-84340381D01*
X124753810Y-84340381D02*
X124753810Y-83340381D01*
X124849048Y-83483238D01*
X124944286Y-83578476D01*
X125039524Y-83626095D01*
X131452857Y-84331381D02*
X131786191Y-83855190D01*
X132024286Y-84331381D02*
X132024286Y-83331381D01*
X131643333Y-83331381D01*
X131548095Y-83379000D01*
X131500476Y-83426619D01*
X131452857Y-83521857D01*
X131452857Y-83664714D01*
X131500476Y-83759952D01*
X131548095Y-83807571D01*
X131643333Y-83855190D01*
X132024286Y-83855190D01*
X130500476Y-84331381D02*
X131071905Y-84331381D01*
X130786191Y-84331381D02*
X130786191Y-83331381D01*
X130881429Y-83474238D01*
X130976667Y-83569476D01*
X131071905Y-83617095D01*
X130119524Y-83426619D02*
X130071905Y-83379000D01*
X129976667Y-83331381D01*
X129738571Y-83331381D01*
X129643333Y-83379000D01*
X129595714Y-83426619D01*
X129548095Y-83521857D01*
X129548095Y-83617095D01*
X129595714Y-83759952D01*
X130167143Y-84331381D01*
X129548095Y-84331381D01*
X137802857Y-84340381D02*
X138136191Y-83864190D01*
X138374286Y-84340381D02*
X138374286Y-83340381D01*
X137993333Y-83340381D01*
X137898095Y-83388000D01*
X137850476Y-83435619D01*
X137802857Y-83530857D01*
X137802857Y-83673714D01*
X137850476Y-83768952D01*
X137898095Y-83816571D01*
X137993333Y-83864190D01*
X138374286Y-83864190D01*
X136850476Y-84340381D02*
X137421905Y-84340381D01*
X137136191Y-84340381D02*
X137136191Y-83340381D01*
X137231429Y-83483238D01*
X137326667Y-83578476D01*
X137421905Y-83626095D01*
X135945714Y-83340381D02*
X136421905Y-83340381D01*
X136469524Y-83816571D01*
X136421905Y-83768952D01*
X136326667Y-83721333D01*
X136088571Y-83721333D01*
X135993333Y-83768952D01*
X135945714Y-83816571D01*
X135898095Y-83911810D01*
X135898095Y-84149905D01*
X135945714Y-84245143D01*
X135993333Y-84292762D01*
X136088571Y-84340381D01*
X136326667Y-84340381D01*
X136421905Y-84292762D01*
X136469524Y-84245143D01*
X142882857Y-84331381D02*
X143216191Y-83855190D01*
X143454286Y-84331381D02*
X143454286Y-83331381D01*
X143073333Y-83331381D01*
X142978095Y-83379000D01*
X142930476Y-83426619D01*
X142882857Y-83521857D01*
X142882857Y-83664714D01*
X142930476Y-83759952D01*
X142978095Y-83807571D01*
X143073333Y-83855190D01*
X143454286Y-83855190D01*
X141930476Y-84331381D02*
X142501905Y-84331381D01*
X142216191Y-84331381D02*
X142216191Y-83331381D01*
X142311429Y-83474238D01*
X142406667Y-83569476D01*
X142501905Y-83617095D01*
X141073333Y-83331381D02*
X141263810Y-83331381D01*
X141359048Y-83379000D01*
X141406667Y-83426619D01*
X141501905Y-83569476D01*
X141549524Y-83759952D01*
X141549524Y-84140905D01*
X141501905Y-84236143D01*
X141454286Y-84283762D01*
X141359048Y-84331381D01*
X141168571Y-84331381D01*
X141073333Y-84283762D01*
X141025714Y-84236143D01*
X140978095Y-84140905D01*
X140978095Y-83902810D01*
X141025714Y-83807571D01*
X141073333Y-83759952D01*
X141168571Y-83712333D01*
X141359048Y-83712333D01*
X141454286Y-83759952D01*
X141501905Y-83807571D01*
X141549524Y-83902810D01*
M02*
