%TF.GenerationSoftware,KiCad,Pcbnew,4.0.7*%
%TF.CreationDate,2018-08-09T22:01:20-06:00*%
%TF.ProjectId,valve_testing,76616C76655F74657374696E672E6B69,rev?*%
%TF.FileFunction,Copper,L1,Top,Signal*%
%FSLAX46Y46*%
G04 Gerber Fmt 4.6, Leading zero omitted, Abs format (unit mm)*
G04 Created by KiCad (PCBNEW 4.0.7) date Thursday, August 09, 2018 'PMt' 10:01:20 PM*
%MOMM*%
%LPD*%
G01*
G04 APERTURE LIST*
%ADD10C,0.150000*%
%ADD11O,1.727200X1.727200*%
%ADD12O,1.600000X1.600000*%
%ADD13R,1.600000X1.600000*%
%ADD14C,5.000000*%
%ADD15R,1.350000X1.350000*%
%ADD16C,1.350000*%
%ADD17R,1.700000X1.700000*%
%ADD18O,1.700000X1.700000*%
%ADD19R,3.500120X3.500120*%
%ADD20C,0.600000*%
%ADD21C,2.540000*%
%ADD22C,0.508000*%
%ADD23C,0.304800*%
G04 APERTURE END LIST*
D10*
X157480000Y-51435000D02*
X157480000Y-50165000D01*
X83820000Y-51435000D02*
X83820000Y-50165000D01*
X83820000Y-100965000D02*
X83820000Y-102235000D01*
X157480000Y-101092000D02*
X157480000Y-102235000D01*
X83820000Y-51435000D02*
X83820000Y-100965000D01*
X157480000Y-51435000D02*
X157480000Y-101092000D01*
X83820000Y-102235000D02*
G75*
G03X85725000Y-104140000I1905000J0D01*
G01*
X85725000Y-48260000D02*
G75*
G03X83820000Y-50165000I0J-1905000D01*
G01*
X157480000Y-50165000D02*
G75*
G03X155575000Y-48260000I-1905000J0D01*
G01*
X155575000Y-104140000D02*
G75*
G03X157480000Y-102235000I0J1905000D01*
G01*
X155575000Y-48260000D02*
X85725000Y-48260000D01*
X85725000Y-104140000D02*
X155575000Y-104140000D01*
D11*
X138684000Y-100330000D03*
X133604000Y-100330000D03*
X131064000Y-100330000D03*
X128524000Y-100330000D03*
X125984000Y-100330000D03*
X123444000Y-100330000D03*
X120904000Y-100330000D03*
X118364000Y-100330000D03*
X151384000Y-52070000D03*
X148844000Y-52070000D03*
X146304000Y-52070000D03*
X143764000Y-52070000D03*
X141224000Y-52070000D03*
X138684000Y-52070000D03*
X136144000Y-52070000D03*
X133604000Y-52070000D03*
X114300000Y-52070000D03*
X129540000Y-52070000D03*
X127000000Y-52070000D03*
X124460000Y-52070000D03*
X106680000Y-52070000D03*
X109220000Y-52070000D03*
X111760000Y-52070000D03*
X116840000Y-52070000D03*
X119380000Y-52070000D03*
X121920000Y-52070000D03*
X115824000Y-100330000D03*
X141224000Y-100330000D03*
X143764000Y-100330000D03*
X146304000Y-100330000D03*
X148844000Y-100330000D03*
X151384000Y-100330000D03*
D12*
X114300000Y-62738000D03*
X116840000Y-62738000D03*
X119380000Y-62738000D03*
X121920000Y-62738000D03*
X124460000Y-62738000D03*
X127000000Y-62738000D03*
X129540000Y-62738000D03*
X132080000Y-62738000D03*
X132080000Y-55118000D03*
X129540000Y-55118000D03*
X127000000Y-55118000D03*
X124460000Y-55118000D03*
X121920000Y-55118000D03*
X119380000Y-55118000D03*
X116840000Y-55118000D03*
X114300000Y-55118000D03*
D13*
X109220000Y-72263000D03*
D12*
X101600000Y-79883000D03*
X106680000Y-72263000D03*
X104140000Y-79883000D03*
X104140000Y-72263000D03*
X106680000Y-79883000D03*
X101600000Y-72263000D03*
X109220000Y-79883000D03*
D13*
X120650000Y-72263000D03*
D12*
X113030000Y-79883000D03*
X118110000Y-72263000D03*
X115570000Y-79883000D03*
X115570000Y-72263000D03*
X118110000Y-79883000D03*
X113030000Y-72263000D03*
X120650000Y-79883000D03*
D13*
X132080000Y-72263000D03*
D12*
X124460000Y-79883000D03*
X129540000Y-72263000D03*
X127000000Y-79883000D03*
X127000000Y-72263000D03*
X129540000Y-79883000D03*
X124460000Y-72263000D03*
X132080000Y-79883000D03*
D13*
X143510000Y-72263000D03*
D12*
X135890000Y-79883000D03*
X140970000Y-72263000D03*
X138430000Y-79883000D03*
X138430000Y-72263000D03*
X140970000Y-79883000D03*
X135890000Y-72263000D03*
X143510000Y-79883000D03*
D14*
X88265000Y-87503000D03*
D15*
X137795000Y-95123000D03*
D16*
X139795000Y-95123000D03*
D17*
X150495000Y-83058000D03*
D18*
X153035000Y-83058000D03*
D15*
X147320000Y-58293000D03*
D16*
X147320000Y-60293000D03*
D15*
X88900000Y-95123000D03*
D16*
X90900000Y-95123000D03*
D15*
X95885000Y-95123000D03*
D16*
X97885000Y-95123000D03*
D15*
X102870000Y-95123000D03*
D16*
X104870000Y-95123000D03*
D15*
X109855000Y-95123000D03*
D16*
X111855000Y-95123000D03*
D15*
X116840000Y-95123000D03*
D16*
X118840000Y-95123000D03*
D15*
X123825000Y-95123000D03*
D16*
X125825000Y-95123000D03*
D15*
X130810000Y-95123000D03*
D16*
X132810000Y-95123000D03*
D17*
X91440000Y-64135000D03*
D18*
X91440000Y-66675000D03*
X91440000Y-69215000D03*
D17*
X88900000Y-64135000D03*
D18*
X88900000Y-66675000D03*
X88900000Y-69215000D03*
D19*
X92560140Y-76835000D03*
X86560660Y-76835000D03*
X89560400Y-81534000D03*
D20*
X139700000Y-85598000D03*
X116840000Y-85598000D03*
X128270000Y-85598000D03*
X133985000Y-85598000D03*
X105410000Y-85598000D03*
X111125000Y-85598000D03*
X109855000Y-88773000D03*
X111760000Y-88773000D03*
X121285000Y-88773000D03*
X123190000Y-88773000D03*
X132715000Y-89408000D03*
X144145000Y-89408000D03*
D21*
X88265000Y-63500000D02*
X88265000Y-69850000D01*
X86360000Y-71755000D02*
X88265000Y-69850000D01*
X86360000Y-81915000D02*
X93345000Y-81915000D01*
X86360000Y-81915000D02*
X86360000Y-71755000D01*
X93853000Y-76835000D02*
X94996000Y-75692000D01*
X94996000Y-67056000D02*
X92560140Y-64620140D01*
X94996000Y-75692000D02*
X94996000Y-67056000D01*
X92560140Y-76835000D02*
X92560140Y-64620140D01*
X92560140Y-64620140D02*
X92075000Y-64135000D01*
D22*
X133985000Y-85598000D02*
X139700000Y-85598000D01*
X111125000Y-85598000D02*
X116840000Y-85598000D01*
X133985000Y-85598000D02*
X128270000Y-85598000D01*
X111125000Y-85598000D02*
X105410000Y-85598000D01*
D23*
X150495000Y-83058000D02*
X150495000Y-74422000D01*
X114300000Y-57531000D02*
X114300000Y-55118000D01*
X116840000Y-60071000D02*
X114300000Y-57531000D01*
X136144000Y-60071000D02*
X116840000Y-60071000D01*
X150495000Y-74422000D02*
X136144000Y-60071000D01*
D22*
X95885000Y-93218000D02*
X95885000Y-95123000D01*
X101600000Y-87503000D02*
X95885000Y-93218000D01*
X108585000Y-87503000D02*
X101600000Y-87503000D01*
X109855000Y-88773000D02*
X108585000Y-87503000D01*
X102870000Y-93218000D02*
X102870000Y-95123000D01*
X106045000Y-90043000D02*
X102870000Y-93218000D01*
X110490000Y-90043000D02*
X106045000Y-90043000D01*
X111760000Y-88773000D02*
X110490000Y-90043000D01*
X109855000Y-93218000D02*
X109855000Y-95123000D01*
X114300000Y-88773000D02*
X109855000Y-93218000D01*
X121285000Y-88773000D02*
X114300000Y-88773000D01*
X116840000Y-93218000D02*
X116840000Y-95123000D01*
X119380000Y-90678000D02*
X116840000Y-93218000D01*
X121285000Y-90678000D02*
X119380000Y-90678000D01*
X123190000Y-88773000D02*
X121285000Y-90678000D01*
X123825000Y-95123000D02*
X123825000Y-92583000D01*
X125730000Y-90678000D02*
X123825000Y-92583000D01*
X131445000Y-90678000D02*
X125730000Y-90678000D01*
X132715000Y-89408000D02*
X131445000Y-90678000D01*
X137795000Y-95123000D02*
X137795000Y-92583000D01*
X139700000Y-90678000D02*
X137795000Y-92583000D01*
X142875000Y-90678000D02*
X139700000Y-90678000D01*
X144145000Y-89408000D02*
X142875000Y-90678000D01*
D23*
G36*
X97637600Y-76708000D02*
X97649607Y-76767292D01*
X97683736Y-76817242D01*
X97734609Y-76849977D01*
X97790000Y-76860400D01*
X145897600Y-76860400D01*
X145897600Y-96875600D01*
X84555400Y-96875600D01*
X84555400Y-94448000D01*
X87551662Y-94448000D01*
X87551662Y-95798000D01*
X87597711Y-96042730D01*
X87742346Y-96267499D01*
X87963034Y-96418288D01*
X88225000Y-96471338D01*
X89575000Y-96471338D01*
X89819730Y-96425289D01*
X90044499Y-96280654D01*
X90149211Y-96127402D01*
X90184122Y-96281175D01*
X90681829Y-96466969D01*
X91212751Y-96448156D01*
X91615878Y-96281175D01*
X91671128Y-96037812D01*
X90900000Y-95266684D01*
X90885858Y-95280827D01*
X90742174Y-95137143D01*
X90756316Y-95123000D01*
X91043684Y-95123000D01*
X91814812Y-95894128D01*
X92058175Y-95838878D01*
X92243969Y-95341171D01*
X92225156Y-94810249D01*
X92075108Y-94448000D01*
X94536662Y-94448000D01*
X94536662Y-95798000D01*
X94582711Y-96042730D01*
X94727346Y-96267499D01*
X94948034Y-96418288D01*
X95210000Y-96471338D01*
X96560000Y-96471338D01*
X96804730Y-96425289D01*
X97029499Y-96280654D01*
X97134211Y-96127402D01*
X97169122Y-96281175D01*
X97666829Y-96466969D01*
X98197751Y-96448156D01*
X98600878Y-96281175D01*
X98656128Y-96037812D01*
X97885000Y-95266684D01*
X97870858Y-95280827D01*
X97727174Y-95137143D01*
X97741316Y-95123000D01*
X98028684Y-95123000D01*
X98799812Y-95894128D01*
X99043175Y-95838878D01*
X99228969Y-95341171D01*
X99210156Y-94810249D01*
X99043175Y-94407122D01*
X98799812Y-94351872D01*
X98028684Y-95123000D01*
X97741316Y-95123000D01*
X97727174Y-95108858D01*
X97870858Y-94965174D01*
X97885000Y-94979316D01*
X98656128Y-94208188D01*
X98600878Y-93964825D01*
X98103171Y-93779031D01*
X97572249Y-93797844D01*
X97169122Y-93964825D01*
X97133844Y-94120215D01*
X97042654Y-93978501D01*
X96821966Y-93827712D01*
X96799400Y-93823142D01*
X96799400Y-93596756D01*
X101978757Y-88417400D01*
X108206244Y-88417400D01*
X108917443Y-89128600D01*
X106045000Y-89128600D01*
X105695074Y-89198205D01*
X105398422Y-89396422D01*
X102223422Y-92571422D01*
X102025205Y-92868074D01*
X101955600Y-93218000D01*
X101955600Y-93819708D01*
X101950270Y-93820711D01*
X101725501Y-93965346D01*
X101574712Y-94186034D01*
X101521662Y-94448000D01*
X101521662Y-95798000D01*
X101567711Y-96042730D01*
X101712346Y-96267499D01*
X101933034Y-96418288D01*
X102195000Y-96471338D01*
X103545000Y-96471338D01*
X103789730Y-96425289D01*
X104014499Y-96280654D01*
X104119211Y-96127402D01*
X104154122Y-96281175D01*
X104651829Y-96466969D01*
X105182751Y-96448156D01*
X105585878Y-96281175D01*
X105641128Y-96037812D01*
X104870000Y-95266684D01*
X104855858Y-95280827D01*
X104712174Y-95137143D01*
X104726316Y-95123000D01*
X105013684Y-95123000D01*
X105784812Y-95894128D01*
X106028175Y-95838878D01*
X106213969Y-95341171D01*
X106195156Y-94810249D01*
X106028175Y-94407122D01*
X105784812Y-94351872D01*
X105013684Y-95123000D01*
X104726316Y-95123000D01*
X104712174Y-95108858D01*
X104855858Y-94965174D01*
X104870000Y-94979316D01*
X105641128Y-94208188D01*
X105585878Y-93964825D01*
X105088171Y-93779031D01*
X104557249Y-93797844D01*
X104154122Y-93964825D01*
X104118844Y-94120215D01*
X104027654Y-93978501D01*
X103806966Y-93827712D01*
X103784400Y-93823142D01*
X103784400Y-93596756D01*
X106423756Y-90957400D01*
X110490000Y-90957400D01*
X110839926Y-90887795D01*
X110997007Y-90782837D01*
X109208422Y-92571422D01*
X109010205Y-92868074D01*
X108940600Y-93218000D01*
X108940600Y-93819708D01*
X108935270Y-93820711D01*
X108710501Y-93965346D01*
X108559712Y-94186034D01*
X108506662Y-94448000D01*
X108506662Y-95798000D01*
X108552711Y-96042730D01*
X108697346Y-96267499D01*
X108918034Y-96418288D01*
X109180000Y-96471338D01*
X110530000Y-96471338D01*
X110774730Y-96425289D01*
X110999499Y-96280654D01*
X111104211Y-96127402D01*
X111139122Y-96281175D01*
X111636829Y-96466969D01*
X112167751Y-96448156D01*
X112570878Y-96281175D01*
X112626128Y-96037812D01*
X111855000Y-95266684D01*
X111840858Y-95280827D01*
X111697174Y-95137143D01*
X111711316Y-95123000D01*
X111998684Y-95123000D01*
X112769812Y-95894128D01*
X113013175Y-95838878D01*
X113198969Y-95341171D01*
X113180156Y-94810249D01*
X113013175Y-94407122D01*
X112769812Y-94351872D01*
X111998684Y-95123000D01*
X111711316Y-95123000D01*
X111697174Y-95108858D01*
X111840858Y-94965174D01*
X111855000Y-94979316D01*
X112626128Y-94208188D01*
X112570878Y-93964825D01*
X112073171Y-93779031D01*
X111542249Y-93797844D01*
X111139122Y-93964825D01*
X111103844Y-94120215D01*
X111012654Y-93978501D01*
X110791966Y-93827712D01*
X110769400Y-93823142D01*
X110769400Y-93596756D01*
X114678757Y-89687400D01*
X120982444Y-89687400D01*
X120906244Y-89763600D01*
X119380000Y-89763600D01*
X119030074Y-89833205D01*
X118733421Y-90031422D01*
X116193422Y-92571422D01*
X115995205Y-92868074D01*
X115925600Y-93218000D01*
X115925600Y-93819708D01*
X115920270Y-93820711D01*
X115695501Y-93965346D01*
X115544712Y-94186034D01*
X115491662Y-94448000D01*
X115491662Y-95798000D01*
X115537711Y-96042730D01*
X115682346Y-96267499D01*
X115903034Y-96418288D01*
X116165000Y-96471338D01*
X117515000Y-96471338D01*
X117759730Y-96425289D01*
X117984499Y-96280654D01*
X118089211Y-96127402D01*
X118124122Y-96281175D01*
X118621829Y-96466969D01*
X119152751Y-96448156D01*
X119555878Y-96281175D01*
X119611128Y-96037812D01*
X118840000Y-95266684D01*
X118825858Y-95280827D01*
X118682174Y-95137143D01*
X118696316Y-95123000D01*
X118983684Y-95123000D01*
X119754812Y-95894128D01*
X119998175Y-95838878D01*
X120183969Y-95341171D01*
X120165156Y-94810249D01*
X120015108Y-94448000D01*
X122476662Y-94448000D01*
X122476662Y-95798000D01*
X122522711Y-96042730D01*
X122667346Y-96267499D01*
X122888034Y-96418288D01*
X123150000Y-96471338D01*
X124500000Y-96471338D01*
X124744730Y-96425289D01*
X124969499Y-96280654D01*
X125074211Y-96127402D01*
X125109122Y-96281175D01*
X125606829Y-96466969D01*
X126137751Y-96448156D01*
X126540878Y-96281175D01*
X126596128Y-96037812D01*
X125825000Y-95266684D01*
X125810858Y-95280827D01*
X125667174Y-95137143D01*
X125681316Y-95123000D01*
X125968684Y-95123000D01*
X126739812Y-95894128D01*
X126983175Y-95838878D01*
X127168969Y-95341171D01*
X127150156Y-94810249D01*
X127000108Y-94448000D01*
X129461662Y-94448000D01*
X129461662Y-95798000D01*
X129507711Y-96042730D01*
X129652346Y-96267499D01*
X129873034Y-96418288D01*
X130135000Y-96471338D01*
X131485000Y-96471338D01*
X131729730Y-96425289D01*
X131954499Y-96280654D01*
X132059211Y-96127402D01*
X132094122Y-96281175D01*
X132591829Y-96466969D01*
X133122751Y-96448156D01*
X133525878Y-96281175D01*
X133581128Y-96037812D01*
X132810000Y-95266684D01*
X132795858Y-95280827D01*
X132652174Y-95137143D01*
X132666316Y-95123000D01*
X132953684Y-95123000D01*
X133724812Y-95894128D01*
X133968175Y-95838878D01*
X134153969Y-95341171D01*
X134135156Y-94810249D01*
X133985108Y-94448000D01*
X136446662Y-94448000D01*
X136446662Y-95798000D01*
X136492711Y-96042730D01*
X136637346Y-96267499D01*
X136858034Y-96418288D01*
X137120000Y-96471338D01*
X138470000Y-96471338D01*
X138714730Y-96425289D01*
X138939499Y-96280654D01*
X139044211Y-96127402D01*
X139079122Y-96281175D01*
X139576829Y-96466969D01*
X140107751Y-96448156D01*
X140510878Y-96281175D01*
X140566128Y-96037812D01*
X139795000Y-95266684D01*
X139780858Y-95280827D01*
X139637174Y-95137143D01*
X139651316Y-95123000D01*
X139938684Y-95123000D01*
X140709812Y-95894128D01*
X140953175Y-95838878D01*
X141138969Y-95341171D01*
X141120156Y-94810249D01*
X140953175Y-94407122D01*
X140709812Y-94351872D01*
X139938684Y-95123000D01*
X139651316Y-95123000D01*
X139637174Y-95108858D01*
X139780858Y-94965174D01*
X139795000Y-94979316D01*
X140566128Y-94208188D01*
X140510878Y-93964825D01*
X140013171Y-93779031D01*
X139482249Y-93797844D01*
X139079122Y-93964825D01*
X139043844Y-94120215D01*
X138952654Y-93978501D01*
X138731966Y-93827712D01*
X138709400Y-93823142D01*
X138709400Y-92961756D01*
X140078757Y-91592400D01*
X142875000Y-91592400D01*
X143224926Y-91522795D01*
X143521578Y-91324578D01*
X144577855Y-90268302D01*
X144688312Y-90222662D01*
X144958712Y-89952733D01*
X145105233Y-89599873D01*
X145105566Y-89217803D01*
X144959662Y-88864688D01*
X144689733Y-88594288D01*
X144336873Y-88447767D01*
X143954803Y-88447434D01*
X143601688Y-88593338D01*
X143331288Y-88863267D01*
X143284927Y-88974916D01*
X142496244Y-89763600D01*
X139700000Y-89763600D01*
X139350074Y-89833205D01*
X139231252Y-89912599D01*
X139053422Y-90031421D01*
X137148422Y-91936422D01*
X136950205Y-92233074D01*
X136880600Y-92583000D01*
X136880600Y-93819708D01*
X136875270Y-93820711D01*
X136650501Y-93965346D01*
X136499712Y-94186034D01*
X136446662Y-94448000D01*
X133985108Y-94448000D01*
X133968175Y-94407122D01*
X133724812Y-94351872D01*
X132953684Y-95123000D01*
X132666316Y-95123000D01*
X132652174Y-95108858D01*
X132795858Y-94965174D01*
X132810000Y-94979316D01*
X133581128Y-94208188D01*
X133525878Y-93964825D01*
X133028171Y-93779031D01*
X132497249Y-93797844D01*
X132094122Y-93964825D01*
X132058844Y-94120215D01*
X131967654Y-93978501D01*
X131746966Y-93827712D01*
X131485000Y-93774662D01*
X130135000Y-93774662D01*
X129890270Y-93820711D01*
X129665501Y-93965346D01*
X129514712Y-94186034D01*
X129461662Y-94448000D01*
X127000108Y-94448000D01*
X126983175Y-94407122D01*
X126739812Y-94351872D01*
X125968684Y-95123000D01*
X125681316Y-95123000D01*
X125667174Y-95108858D01*
X125810858Y-94965174D01*
X125825000Y-94979316D01*
X126596128Y-94208188D01*
X126540878Y-93964825D01*
X126043171Y-93779031D01*
X125512249Y-93797844D01*
X125109122Y-93964825D01*
X125073844Y-94120215D01*
X124982654Y-93978501D01*
X124761966Y-93827712D01*
X124739400Y-93823142D01*
X124739400Y-92961756D01*
X126108757Y-91592400D01*
X131445000Y-91592400D01*
X131794926Y-91522795D01*
X132091578Y-91324578D01*
X133147855Y-90268302D01*
X133258312Y-90222662D01*
X133528712Y-89952733D01*
X133675233Y-89599873D01*
X133675566Y-89217803D01*
X133529662Y-88864688D01*
X133259733Y-88594288D01*
X132906873Y-88447767D01*
X132524803Y-88447434D01*
X132171688Y-88593338D01*
X131901288Y-88863267D01*
X131854927Y-88974916D01*
X131066244Y-89763600D01*
X125730000Y-89763600D01*
X125380074Y-89833205D01*
X125261252Y-89912599D01*
X125083422Y-90031421D01*
X123178422Y-91936422D01*
X122980205Y-92233074D01*
X122910600Y-92583000D01*
X122910600Y-93819708D01*
X122905270Y-93820711D01*
X122680501Y-93965346D01*
X122529712Y-94186034D01*
X122476662Y-94448000D01*
X120015108Y-94448000D01*
X119998175Y-94407122D01*
X119754812Y-94351872D01*
X118983684Y-95123000D01*
X118696316Y-95123000D01*
X118682174Y-95108858D01*
X118825858Y-94965174D01*
X118840000Y-94979316D01*
X119611128Y-94208188D01*
X119555878Y-93964825D01*
X119058171Y-93779031D01*
X118527249Y-93797844D01*
X118124122Y-93964825D01*
X118088844Y-94120215D01*
X117997654Y-93978501D01*
X117776966Y-93827712D01*
X117754400Y-93823142D01*
X117754400Y-93596756D01*
X119758757Y-91592400D01*
X121285000Y-91592400D01*
X121634926Y-91522795D01*
X121931578Y-91324578D01*
X123622855Y-89633302D01*
X123733312Y-89587662D01*
X124003712Y-89317733D01*
X124150233Y-88964873D01*
X124150566Y-88582803D01*
X124004662Y-88229688D01*
X123734733Y-87959288D01*
X123381873Y-87812767D01*
X122999803Y-87812434D01*
X122646688Y-87958338D01*
X122376288Y-88228267D01*
X122329927Y-88339916D01*
X122199216Y-88470627D01*
X122099662Y-88229688D01*
X121829733Y-87959288D01*
X121476873Y-87812767D01*
X121094803Y-87812434D01*
X120983073Y-87858600D01*
X114300000Y-87858600D01*
X113950074Y-87928205D01*
X113801748Y-88027314D01*
X113653421Y-88126422D01*
X112652960Y-89126883D01*
X112720233Y-88964873D01*
X112720566Y-88582803D01*
X112574662Y-88229688D01*
X112304733Y-87959288D01*
X111951873Y-87812767D01*
X111569803Y-87812434D01*
X111216688Y-87958338D01*
X110946288Y-88228267D01*
X110899927Y-88339916D01*
X110769216Y-88470627D01*
X110669662Y-88229688D01*
X110399733Y-87959288D01*
X110288084Y-87912927D01*
X109231578Y-86856422D01*
X109231577Y-86856421D01*
X108934926Y-86658205D01*
X108585000Y-86588600D01*
X101600000Y-86588600D01*
X101250075Y-86658204D01*
X100953422Y-86856421D01*
X95238422Y-92571422D01*
X95040205Y-92868074D01*
X94970600Y-93218000D01*
X94970600Y-93819708D01*
X94965270Y-93820711D01*
X94740501Y-93965346D01*
X94589712Y-94186034D01*
X94536662Y-94448000D01*
X92075108Y-94448000D01*
X92058175Y-94407122D01*
X91814812Y-94351872D01*
X91043684Y-95123000D01*
X90756316Y-95123000D01*
X90742174Y-95108858D01*
X90885858Y-94965174D01*
X90900000Y-94979316D01*
X91671128Y-94208188D01*
X91615878Y-93964825D01*
X91118171Y-93779031D01*
X90587249Y-93797844D01*
X90184122Y-93964825D01*
X90148844Y-94120215D01*
X90057654Y-93978501D01*
X89836966Y-93827712D01*
X89575000Y-93774662D01*
X88225000Y-93774662D01*
X87980270Y-93820711D01*
X87755501Y-93965346D01*
X87604712Y-94186034D01*
X87551662Y-94448000D01*
X84555400Y-94448000D01*
X84555400Y-88128884D01*
X85104053Y-88128884D01*
X85584181Y-89290884D01*
X86472440Y-90180695D01*
X87633600Y-90662850D01*
X88890884Y-90663947D01*
X90052884Y-90183819D01*
X90942695Y-89295560D01*
X91424850Y-88134400D01*
X91425947Y-86877116D01*
X90976016Y-85788197D01*
X104449434Y-85788197D01*
X104595338Y-86141312D01*
X104865267Y-86411712D01*
X105218127Y-86558233D01*
X105600197Y-86558566D01*
X105711927Y-86512400D01*
X110822749Y-86512400D01*
X110933127Y-86558233D01*
X111315197Y-86558566D01*
X111426927Y-86512400D01*
X116537749Y-86512400D01*
X116648127Y-86558233D01*
X117030197Y-86558566D01*
X117383312Y-86412662D01*
X117653712Y-86142733D01*
X117800233Y-85789873D01*
X117800234Y-85788197D01*
X127309434Y-85788197D01*
X127455338Y-86141312D01*
X127725267Y-86411712D01*
X128078127Y-86558233D01*
X128460197Y-86558566D01*
X128571927Y-86512400D01*
X133682749Y-86512400D01*
X133793127Y-86558233D01*
X134175197Y-86558566D01*
X134286927Y-86512400D01*
X139397749Y-86512400D01*
X139508127Y-86558233D01*
X139890197Y-86558566D01*
X140243312Y-86412662D01*
X140513712Y-86142733D01*
X140660233Y-85789873D01*
X140660566Y-85407803D01*
X140514662Y-85054688D01*
X140244733Y-84784288D01*
X139891873Y-84637767D01*
X139509803Y-84637434D01*
X139398073Y-84683600D01*
X134287251Y-84683600D01*
X134176873Y-84637767D01*
X133794803Y-84637434D01*
X133683073Y-84683600D01*
X128572251Y-84683600D01*
X128461873Y-84637767D01*
X128079803Y-84637434D01*
X127726688Y-84783338D01*
X127456288Y-85053267D01*
X127309767Y-85406127D01*
X127309434Y-85788197D01*
X117800234Y-85788197D01*
X117800566Y-85407803D01*
X117654662Y-85054688D01*
X117384733Y-84784288D01*
X117031873Y-84637767D01*
X116649803Y-84637434D01*
X116538073Y-84683600D01*
X111427251Y-84683600D01*
X111316873Y-84637767D01*
X110934803Y-84637434D01*
X110823073Y-84683600D01*
X105712251Y-84683600D01*
X105601873Y-84637767D01*
X105219803Y-84637434D01*
X104866688Y-84783338D01*
X104596288Y-85053267D01*
X104449767Y-85406127D01*
X104449434Y-85788197D01*
X90976016Y-85788197D01*
X90945819Y-85715116D01*
X90057560Y-84825305D01*
X88896400Y-84343150D01*
X87639116Y-84342053D01*
X86477116Y-84822181D01*
X85587305Y-85710440D01*
X85105150Y-86871600D01*
X85104053Y-88128884D01*
X84555400Y-88128884D01*
X84555400Y-81800700D01*
X87149940Y-81800700D01*
X87149940Y-83415421D01*
X87250480Y-83658146D01*
X87436253Y-83843920D01*
X87678978Y-83944460D01*
X89293700Y-83944460D01*
X89458800Y-83779360D01*
X89458800Y-81635600D01*
X89662000Y-81635600D01*
X89662000Y-83779360D01*
X89827100Y-83944460D01*
X91441822Y-83944460D01*
X91684547Y-83843920D01*
X91870320Y-83658146D01*
X91970860Y-83415421D01*
X91970860Y-81800700D01*
X91805760Y-81635600D01*
X89662000Y-81635600D01*
X89458800Y-81635600D01*
X87315040Y-81635600D01*
X87149940Y-81800700D01*
X84555400Y-81800700D01*
X84555400Y-79194165D01*
X84679238Y-79245460D01*
X86293960Y-79245460D01*
X86459060Y-79080360D01*
X86459060Y-76936600D01*
X86662260Y-76936600D01*
X86662260Y-79080360D01*
X86827360Y-79245460D01*
X87414873Y-79245460D01*
X87250480Y-79409854D01*
X87149940Y-79652579D01*
X87149940Y-81267300D01*
X87315040Y-81432400D01*
X89458800Y-81432400D01*
X89458800Y-79288640D01*
X89293700Y-79123540D01*
X88706187Y-79123540D01*
X88870580Y-78959146D01*
X88971120Y-78716421D01*
X88971120Y-77101700D01*
X88806020Y-76936600D01*
X86662260Y-76936600D01*
X86459060Y-76936600D01*
X86439060Y-76936600D01*
X86439060Y-76733400D01*
X86459060Y-76733400D01*
X86459060Y-74589640D01*
X86662260Y-74589640D01*
X86662260Y-76733400D01*
X88806020Y-76733400D01*
X88971120Y-76568300D01*
X88971120Y-74953579D01*
X88870580Y-74710854D01*
X88684807Y-74525080D01*
X88442082Y-74424540D01*
X86827360Y-74424540D01*
X86662260Y-74589640D01*
X86459060Y-74589640D01*
X86293960Y-74424540D01*
X84679238Y-74424540D01*
X84555400Y-74475835D01*
X84555400Y-69551093D01*
X87427468Y-69551093D01*
X87621103Y-70018589D01*
X88025973Y-70446832D01*
X88563906Y-70687540D01*
X88798400Y-70556887D01*
X88798400Y-69316600D01*
X87558542Y-69316600D01*
X87427468Y-69551093D01*
X84555400Y-69551093D01*
X84555400Y-67011093D01*
X87427468Y-67011093D01*
X87621103Y-67478589D01*
X88025973Y-67906832D01*
X88111271Y-67945000D01*
X88025973Y-67983168D01*
X87621103Y-68411411D01*
X87427468Y-68878907D01*
X87558542Y-69113400D01*
X88798400Y-69113400D01*
X88798400Y-66776600D01*
X87558542Y-66776600D01*
X87427468Y-67011093D01*
X84555400Y-67011093D01*
X84555400Y-64401700D01*
X87389600Y-64401700D01*
X87389600Y-65116361D01*
X87490140Y-65359086D01*
X87675913Y-65544860D01*
X87858377Y-65620439D01*
X87621103Y-65871411D01*
X87427468Y-66338907D01*
X87558542Y-66573400D01*
X88798400Y-66573400D01*
X88798400Y-64236600D01*
X87554700Y-64236600D01*
X87389600Y-64401700D01*
X84555400Y-64401700D01*
X84555400Y-63153639D01*
X87389600Y-63153639D01*
X87389600Y-63868300D01*
X87554700Y-64033400D01*
X88798400Y-64033400D01*
X88798400Y-62789700D01*
X89001600Y-62789700D01*
X89001600Y-64033400D01*
X89021600Y-64033400D01*
X89021600Y-64236600D01*
X89001600Y-64236600D01*
X89001600Y-66573400D01*
X89021600Y-66573400D01*
X89021600Y-66776600D01*
X89001600Y-66776600D01*
X89001600Y-69113400D01*
X89021600Y-69113400D01*
X89021600Y-69316600D01*
X89001600Y-69316600D01*
X89001600Y-70556887D01*
X89236094Y-70687540D01*
X89774027Y-70446832D01*
X90171172Y-70026760D01*
X90342396Y-70283014D01*
X90629740Y-70475011D01*
X90629740Y-74445535D01*
X90565350Y-74457651D01*
X90340581Y-74602286D01*
X90189792Y-74822974D01*
X90136742Y-75084940D01*
X90136742Y-78585060D01*
X90182791Y-78829790D01*
X90327426Y-79054559D01*
X90428383Y-79123540D01*
X89827100Y-79123540D01*
X89662000Y-79288640D01*
X89662000Y-81432400D01*
X91805760Y-81432400D01*
X91970860Y-81267300D01*
X91970860Y-80211254D01*
X100176961Y-80211254D01*
X100410901Y-80730841D01*
X100825870Y-81121351D01*
X101271747Y-81306032D01*
X101498400Y-81174309D01*
X101498400Y-79984600D01*
X100308231Y-79984600D01*
X100176961Y-80211254D01*
X91970860Y-80211254D01*
X91970860Y-79652579D01*
X91930337Y-79554746D01*
X100176961Y-79554746D01*
X100308231Y-79781400D01*
X101498400Y-79781400D01*
X101498400Y-78591691D01*
X101701600Y-78591691D01*
X101701600Y-79781400D01*
X101721600Y-79781400D01*
X101721600Y-79984600D01*
X101701600Y-79984600D01*
X101701600Y-81174309D01*
X101928253Y-81306032D01*
X102374130Y-81121351D01*
X102789099Y-80730841D01*
X102859804Y-80573804D01*
X103107341Y-80944270D01*
X103581129Y-81260845D01*
X104140000Y-81372011D01*
X104698871Y-81260845D01*
X105172659Y-80944270D01*
X105410000Y-80589064D01*
X105647341Y-80944270D01*
X106121129Y-81260845D01*
X106680000Y-81372011D01*
X107238871Y-81260845D01*
X107712659Y-80944270D01*
X107950000Y-80589064D01*
X108187341Y-80944270D01*
X108661129Y-81260845D01*
X109220000Y-81372011D01*
X109778871Y-81260845D01*
X110252659Y-80944270D01*
X110569234Y-80470482D01*
X110620797Y-80211254D01*
X111606961Y-80211254D01*
X111840901Y-80730841D01*
X112255870Y-81121351D01*
X112701747Y-81306032D01*
X112928400Y-81174309D01*
X112928400Y-79984600D01*
X111738231Y-79984600D01*
X111606961Y-80211254D01*
X110620797Y-80211254D01*
X110680400Y-79911611D01*
X110680400Y-79854389D01*
X110620798Y-79554746D01*
X111606961Y-79554746D01*
X111738231Y-79781400D01*
X112928400Y-79781400D01*
X112928400Y-78591691D01*
X113131600Y-78591691D01*
X113131600Y-79781400D01*
X113151600Y-79781400D01*
X113151600Y-79984600D01*
X113131600Y-79984600D01*
X113131600Y-81174309D01*
X113358253Y-81306032D01*
X113804130Y-81121351D01*
X114219099Y-80730841D01*
X114289804Y-80573804D01*
X114537341Y-80944270D01*
X115011129Y-81260845D01*
X115570000Y-81372011D01*
X116128871Y-81260845D01*
X116602659Y-80944270D01*
X116840000Y-80589064D01*
X117077341Y-80944270D01*
X117551129Y-81260845D01*
X118110000Y-81372011D01*
X118668871Y-81260845D01*
X119142659Y-80944270D01*
X119380000Y-80589064D01*
X119617341Y-80944270D01*
X120091129Y-81260845D01*
X120650000Y-81372011D01*
X121208871Y-81260845D01*
X121682659Y-80944270D01*
X121999234Y-80470482D01*
X122050797Y-80211254D01*
X123036961Y-80211254D01*
X123270901Y-80730841D01*
X123685870Y-81121351D01*
X124131747Y-81306032D01*
X124358400Y-81174309D01*
X124358400Y-79984600D01*
X123168231Y-79984600D01*
X123036961Y-80211254D01*
X122050797Y-80211254D01*
X122110400Y-79911611D01*
X122110400Y-79854389D01*
X122050798Y-79554746D01*
X123036961Y-79554746D01*
X123168231Y-79781400D01*
X124358400Y-79781400D01*
X124358400Y-78591691D01*
X124561600Y-78591691D01*
X124561600Y-79781400D01*
X124581600Y-79781400D01*
X124581600Y-79984600D01*
X124561600Y-79984600D01*
X124561600Y-81174309D01*
X124788253Y-81306032D01*
X125234130Y-81121351D01*
X125649099Y-80730841D01*
X125719804Y-80573804D01*
X125967341Y-80944270D01*
X126441129Y-81260845D01*
X127000000Y-81372011D01*
X127558871Y-81260845D01*
X128032659Y-80944270D01*
X128270000Y-80589064D01*
X128507341Y-80944270D01*
X128981129Y-81260845D01*
X129540000Y-81372011D01*
X130098871Y-81260845D01*
X130572659Y-80944270D01*
X130810000Y-80589064D01*
X131047341Y-80944270D01*
X131521129Y-81260845D01*
X132080000Y-81372011D01*
X132638871Y-81260845D01*
X133112659Y-80944270D01*
X133429234Y-80470482D01*
X133480797Y-80211254D01*
X134466961Y-80211254D01*
X134700901Y-80730841D01*
X135115870Y-81121351D01*
X135561747Y-81306032D01*
X135788400Y-81174309D01*
X135788400Y-79984600D01*
X134598231Y-79984600D01*
X134466961Y-80211254D01*
X133480797Y-80211254D01*
X133540400Y-79911611D01*
X133540400Y-79854389D01*
X133480798Y-79554746D01*
X134466961Y-79554746D01*
X134598231Y-79781400D01*
X135788400Y-79781400D01*
X135788400Y-78591691D01*
X135991600Y-78591691D01*
X135991600Y-79781400D01*
X136011600Y-79781400D01*
X136011600Y-79984600D01*
X135991600Y-79984600D01*
X135991600Y-81174309D01*
X136218253Y-81306032D01*
X136664130Y-81121351D01*
X137079099Y-80730841D01*
X137149804Y-80573804D01*
X137397341Y-80944270D01*
X137871129Y-81260845D01*
X138430000Y-81372011D01*
X138988871Y-81260845D01*
X139462659Y-80944270D01*
X139700000Y-80589064D01*
X139937341Y-80944270D01*
X140411129Y-81260845D01*
X140970000Y-81372011D01*
X141528871Y-81260845D01*
X142002659Y-80944270D01*
X142240000Y-80589064D01*
X142477341Y-80944270D01*
X142951129Y-81260845D01*
X143510000Y-81372011D01*
X144068871Y-81260845D01*
X144542659Y-80944270D01*
X144859234Y-80470482D01*
X144970400Y-79911611D01*
X144970400Y-79854389D01*
X144859234Y-79295518D01*
X144542659Y-78821730D01*
X144068871Y-78505155D01*
X143510000Y-78393989D01*
X142951129Y-78505155D01*
X142477341Y-78821730D01*
X142240000Y-79176936D01*
X142002659Y-78821730D01*
X141528871Y-78505155D01*
X140970000Y-78393989D01*
X140411129Y-78505155D01*
X139937341Y-78821730D01*
X139700000Y-79176936D01*
X139462659Y-78821730D01*
X138988871Y-78505155D01*
X138430000Y-78393989D01*
X137871129Y-78505155D01*
X137397341Y-78821730D01*
X137149804Y-79192196D01*
X137079099Y-79035159D01*
X136664130Y-78644649D01*
X136218253Y-78459968D01*
X135991600Y-78591691D01*
X135788400Y-78591691D01*
X135561747Y-78459968D01*
X135115870Y-78644649D01*
X134700901Y-79035159D01*
X134466961Y-79554746D01*
X133480798Y-79554746D01*
X133429234Y-79295518D01*
X133112659Y-78821730D01*
X132638871Y-78505155D01*
X132080000Y-78393989D01*
X131521129Y-78505155D01*
X131047341Y-78821730D01*
X130810000Y-79176936D01*
X130572659Y-78821730D01*
X130098871Y-78505155D01*
X129540000Y-78393989D01*
X128981129Y-78505155D01*
X128507341Y-78821730D01*
X128270000Y-79176936D01*
X128032659Y-78821730D01*
X127558871Y-78505155D01*
X127000000Y-78393989D01*
X126441129Y-78505155D01*
X125967341Y-78821730D01*
X125719804Y-79192196D01*
X125649099Y-79035159D01*
X125234130Y-78644649D01*
X124788253Y-78459968D01*
X124561600Y-78591691D01*
X124358400Y-78591691D01*
X124131747Y-78459968D01*
X123685870Y-78644649D01*
X123270901Y-79035159D01*
X123036961Y-79554746D01*
X122050798Y-79554746D01*
X121999234Y-79295518D01*
X121682659Y-78821730D01*
X121208871Y-78505155D01*
X120650000Y-78393989D01*
X120091129Y-78505155D01*
X119617341Y-78821730D01*
X119380000Y-79176936D01*
X119142659Y-78821730D01*
X118668871Y-78505155D01*
X118110000Y-78393989D01*
X117551129Y-78505155D01*
X117077341Y-78821730D01*
X116840000Y-79176936D01*
X116602659Y-78821730D01*
X116128871Y-78505155D01*
X115570000Y-78393989D01*
X115011129Y-78505155D01*
X114537341Y-78821730D01*
X114289804Y-79192196D01*
X114219099Y-79035159D01*
X113804130Y-78644649D01*
X113358253Y-78459968D01*
X113131600Y-78591691D01*
X112928400Y-78591691D01*
X112701747Y-78459968D01*
X112255870Y-78644649D01*
X111840901Y-79035159D01*
X111606961Y-79554746D01*
X110620798Y-79554746D01*
X110569234Y-79295518D01*
X110252659Y-78821730D01*
X109778871Y-78505155D01*
X109220000Y-78393989D01*
X108661129Y-78505155D01*
X108187341Y-78821730D01*
X107950000Y-79176936D01*
X107712659Y-78821730D01*
X107238871Y-78505155D01*
X106680000Y-78393989D01*
X106121129Y-78505155D01*
X105647341Y-78821730D01*
X105410000Y-79176936D01*
X105172659Y-78821730D01*
X104698871Y-78505155D01*
X104140000Y-78393989D01*
X103581129Y-78505155D01*
X103107341Y-78821730D01*
X102859804Y-79192196D01*
X102789099Y-79035159D01*
X102374130Y-78644649D01*
X101928253Y-78459968D01*
X101701600Y-78591691D01*
X101498400Y-78591691D01*
X101271747Y-78459968D01*
X100825870Y-78644649D01*
X100410901Y-79035159D01*
X100176961Y-79554746D01*
X91930337Y-79554746D01*
X91870320Y-79409854D01*
X91718865Y-79258398D01*
X94310200Y-79258398D01*
X94554930Y-79212349D01*
X94779699Y-79067714D01*
X94930488Y-78847026D01*
X94983538Y-78585060D01*
X94983538Y-78356661D01*
X95217999Y-78199999D01*
X96360999Y-77056999D01*
X96779457Y-76430732D01*
X96926400Y-75692000D01*
X96926400Y-67056000D01*
X96779457Y-66317268D01*
X96360999Y-65691001D01*
X93439999Y-62770001D01*
X92813732Y-62351543D01*
X92075000Y-62204600D01*
X91336268Y-62351543D01*
X90946972Y-62611662D01*
X90590000Y-62611662D01*
X90345270Y-62657711D01*
X90169660Y-62770713D01*
X90124087Y-62725140D01*
X89881362Y-62624600D01*
X89166700Y-62624600D01*
X89001600Y-62789700D01*
X88798400Y-62789700D01*
X88633300Y-62624600D01*
X87918638Y-62624600D01*
X87675913Y-62725140D01*
X87490140Y-62910914D01*
X87389600Y-63153639D01*
X84555400Y-63153639D01*
X84555400Y-50237432D01*
X84657741Y-49722926D01*
X84908156Y-49348156D01*
X85282926Y-49097741D01*
X85797432Y-48995400D01*
X97637600Y-48995400D01*
X97637600Y-76708000D01*
X97637600Y-76708000D01*
G37*
X97637600Y-76708000D02*
X97649607Y-76767292D01*
X97683736Y-76817242D01*
X97734609Y-76849977D01*
X97790000Y-76860400D01*
X145897600Y-76860400D01*
X145897600Y-96875600D01*
X84555400Y-96875600D01*
X84555400Y-94448000D01*
X87551662Y-94448000D01*
X87551662Y-95798000D01*
X87597711Y-96042730D01*
X87742346Y-96267499D01*
X87963034Y-96418288D01*
X88225000Y-96471338D01*
X89575000Y-96471338D01*
X89819730Y-96425289D01*
X90044499Y-96280654D01*
X90149211Y-96127402D01*
X90184122Y-96281175D01*
X90681829Y-96466969D01*
X91212751Y-96448156D01*
X91615878Y-96281175D01*
X91671128Y-96037812D01*
X90900000Y-95266684D01*
X90885858Y-95280827D01*
X90742174Y-95137143D01*
X90756316Y-95123000D01*
X91043684Y-95123000D01*
X91814812Y-95894128D01*
X92058175Y-95838878D01*
X92243969Y-95341171D01*
X92225156Y-94810249D01*
X92075108Y-94448000D01*
X94536662Y-94448000D01*
X94536662Y-95798000D01*
X94582711Y-96042730D01*
X94727346Y-96267499D01*
X94948034Y-96418288D01*
X95210000Y-96471338D01*
X96560000Y-96471338D01*
X96804730Y-96425289D01*
X97029499Y-96280654D01*
X97134211Y-96127402D01*
X97169122Y-96281175D01*
X97666829Y-96466969D01*
X98197751Y-96448156D01*
X98600878Y-96281175D01*
X98656128Y-96037812D01*
X97885000Y-95266684D01*
X97870858Y-95280827D01*
X97727174Y-95137143D01*
X97741316Y-95123000D01*
X98028684Y-95123000D01*
X98799812Y-95894128D01*
X99043175Y-95838878D01*
X99228969Y-95341171D01*
X99210156Y-94810249D01*
X99043175Y-94407122D01*
X98799812Y-94351872D01*
X98028684Y-95123000D01*
X97741316Y-95123000D01*
X97727174Y-95108858D01*
X97870858Y-94965174D01*
X97885000Y-94979316D01*
X98656128Y-94208188D01*
X98600878Y-93964825D01*
X98103171Y-93779031D01*
X97572249Y-93797844D01*
X97169122Y-93964825D01*
X97133844Y-94120215D01*
X97042654Y-93978501D01*
X96821966Y-93827712D01*
X96799400Y-93823142D01*
X96799400Y-93596756D01*
X101978757Y-88417400D01*
X108206244Y-88417400D01*
X108917443Y-89128600D01*
X106045000Y-89128600D01*
X105695074Y-89198205D01*
X105398422Y-89396422D01*
X102223422Y-92571422D01*
X102025205Y-92868074D01*
X101955600Y-93218000D01*
X101955600Y-93819708D01*
X101950270Y-93820711D01*
X101725501Y-93965346D01*
X101574712Y-94186034D01*
X101521662Y-94448000D01*
X101521662Y-95798000D01*
X101567711Y-96042730D01*
X101712346Y-96267499D01*
X101933034Y-96418288D01*
X102195000Y-96471338D01*
X103545000Y-96471338D01*
X103789730Y-96425289D01*
X104014499Y-96280654D01*
X104119211Y-96127402D01*
X104154122Y-96281175D01*
X104651829Y-96466969D01*
X105182751Y-96448156D01*
X105585878Y-96281175D01*
X105641128Y-96037812D01*
X104870000Y-95266684D01*
X104855858Y-95280827D01*
X104712174Y-95137143D01*
X104726316Y-95123000D01*
X105013684Y-95123000D01*
X105784812Y-95894128D01*
X106028175Y-95838878D01*
X106213969Y-95341171D01*
X106195156Y-94810249D01*
X106028175Y-94407122D01*
X105784812Y-94351872D01*
X105013684Y-95123000D01*
X104726316Y-95123000D01*
X104712174Y-95108858D01*
X104855858Y-94965174D01*
X104870000Y-94979316D01*
X105641128Y-94208188D01*
X105585878Y-93964825D01*
X105088171Y-93779031D01*
X104557249Y-93797844D01*
X104154122Y-93964825D01*
X104118844Y-94120215D01*
X104027654Y-93978501D01*
X103806966Y-93827712D01*
X103784400Y-93823142D01*
X103784400Y-93596756D01*
X106423756Y-90957400D01*
X110490000Y-90957400D01*
X110839926Y-90887795D01*
X110997007Y-90782837D01*
X109208422Y-92571422D01*
X109010205Y-92868074D01*
X108940600Y-93218000D01*
X108940600Y-93819708D01*
X108935270Y-93820711D01*
X108710501Y-93965346D01*
X108559712Y-94186034D01*
X108506662Y-94448000D01*
X108506662Y-95798000D01*
X108552711Y-96042730D01*
X108697346Y-96267499D01*
X108918034Y-96418288D01*
X109180000Y-96471338D01*
X110530000Y-96471338D01*
X110774730Y-96425289D01*
X110999499Y-96280654D01*
X111104211Y-96127402D01*
X111139122Y-96281175D01*
X111636829Y-96466969D01*
X112167751Y-96448156D01*
X112570878Y-96281175D01*
X112626128Y-96037812D01*
X111855000Y-95266684D01*
X111840858Y-95280827D01*
X111697174Y-95137143D01*
X111711316Y-95123000D01*
X111998684Y-95123000D01*
X112769812Y-95894128D01*
X113013175Y-95838878D01*
X113198969Y-95341171D01*
X113180156Y-94810249D01*
X113013175Y-94407122D01*
X112769812Y-94351872D01*
X111998684Y-95123000D01*
X111711316Y-95123000D01*
X111697174Y-95108858D01*
X111840858Y-94965174D01*
X111855000Y-94979316D01*
X112626128Y-94208188D01*
X112570878Y-93964825D01*
X112073171Y-93779031D01*
X111542249Y-93797844D01*
X111139122Y-93964825D01*
X111103844Y-94120215D01*
X111012654Y-93978501D01*
X110791966Y-93827712D01*
X110769400Y-93823142D01*
X110769400Y-93596756D01*
X114678757Y-89687400D01*
X120982444Y-89687400D01*
X120906244Y-89763600D01*
X119380000Y-89763600D01*
X119030074Y-89833205D01*
X118733421Y-90031422D01*
X116193422Y-92571422D01*
X115995205Y-92868074D01*
X115925600Y-93218000D01*
X115925600Y-93819708D01*
X115920270Y-93820711D01*
X115695501Y-93965346D01*
X115544712Y-94186034D01*
X115491662Y-94448000D01*
X115491662Y-95798000D01*
X115537711Y-96042730D01*
X115682346Y-96267499D01*
X115903034Y-96418288D01*
X116165000Y-96471338D01*
X117515000Y-96471338D01*
X117759730Y-96425289D01*
X117984499Y-96280654D01*
X118089211Y-96127402D01*
X118124122Y-96281175D01*
X118621829Y-96466969D01*
X119152751Y-96448156D01*
X119555878Y-96281175D01*
X119611128Y-96037812D01*
X118840000Y-95266684D01*
X118825858Y-95280827D01*
X118682174Y-95137143D01*
X118696316Y-95123000D01*
X118983684Y-95123000D01*
X119754812Y-95894128D01*
X119998175Y-95838878D01*
X120183969Y-95341171D01*
X120165156Y-94810249D01*
X120015108Y-94448000D01*
X122476662Y-94448000D01*
X122476662Y-95798000D01*
X122522711Y-96042730D01*
X122667346Y-96267499D01*
X122888034Y-96418288D01*
X123150000Y-96471338D01*
X124500000Y-96471338D01*
X124744730Y-96425289D01*
X124969499Y-96280654D01*
X125074211Y-96127402D01*
X125109122Y-96281175D01*
X125606829Y-96466969D01*
X126137751Y-96448156D01*
X126540878Y-96281175D01*
X126596128Y-96037812D01*
X125825000Y-95266684D01*
X125810858Y-95280827D01*
X125667174Y-95137143D01*
X125681316Y-95123000D01*
X125968684Y-95123000D01*
X126739812Y-95894128D01*
X126983175Y-95838878D01*
X127168969Y-95341171D01*
X127150156Y-94810249D01*
X127000108Y-94448000D01*
X129461662Y-94448000D01*
X129461662Y-95798000D01*
X129507711Y-96042730D01*
X129652346Y-96267499D01*
X129873034Y-96418288D01*
X130135000Y-96471338D01*
X131485000Y-96471338D01*
X131729730Y-96425289D01*
X131954499Y-96280654D01*
X132059211Y-96127402D01*
X132094122Y-96281175D01*
X132591829Y-96466969D01*
X133122751Y-96448156D01*
X133525878Y-96281175D01*
X133581128Y-96037812D01*
X132810000Y-95266684D01*
X132795858Y-95280827D01*
X132652174Y-95137143D01*
X132666316Y-95123000D01*
X132953684Y-95123000D01*
X133724812Y-95894128D01*
X133968175Y-95838878D01*
X134153969Y-95341171D01*
X134135156Y-94810249D01*
X133985108Y-94448000D01*
X136446662Y-94448000D01*
X136446662Y-95798000D01*
X136492711Y-96042730D01*
X136637346Y-96267499D01*
X136858034Y-96418288D01*
X137120000Y-96471338D01*
X138470000Y-96471338D01*
X138714730Y-96425289D01*
X138939499Y-96280654D01*
X139044211Y-96127402D01*
X139079122Y-96281175D01*
X139576829Y-96466969D01*
X140107751Y-96448156D01*
X140510878Y-96281175D01*
X140566128Y-96037812D01*
X139795000Y-95266684D01*
X139780858Y-95280827D01*
X139637174Y-95137143D01*
X139651316Y-95123000D01*
X139938684Y-95123000D01*
X140709812Y-95894128D01*
X140953175Y-95838878D01*
X141138969Y-95341171D01*
X141120156Y-94810249D01*
X140953175Y-94407122D01*
X140709812Y-94351872D01*
X139938684Y-95123000D01*
X139651316Y-95123000D01*
X139637174Y-95108858D01*
X139780858Y-94965174D01*
X139795000Y-94979316D01*
X140566128Y-94208188D01*
X140510878Y-93964825D01*
X140013171Y-93779031D01*
X139482249Y-93797844D01*
X139079122Y-93964825D01*
X139043844Y-94120215D01*
X138952654Y-93978501D01*
X138731966Y-93827712D01*
X138709400Y-93823142D01*
X138709400Y-92961756D01*
X140078757Y-91592400D01*
X142875000Y-91592400D01*
X143224926Y-91522795D01*
X143521578Y-91324578D01*
X144577855Y-90268302D01*
X144688312Y-90222662D01*
X144958712Y-89952733D01*
X145105233Y-89599873D01*
X145105566Y-89217803D01*
X144959662Y-88864688D01*
X144689733Y-88594288D01*
X144336873Y-88447767D01*
X143954803Y-88447434D01*
X143601688Y-88593338D01*
X143331288Y-88863267D01*
X143284927Y-88974916D01*
X142496244Y-89763600D01*
X139700000Y-89763600D01*
X139350074Y-89833205D01*
X139231252Y-89912599D01*
X139053422Y-90031421D01*
X137148422Y-91936422D01*
X136950205Y-92233074D01*
X136880600Y-92583000D01*
X136880600Y-93819708D01*
X136875270Y-93820711D01*
X136650501Y-93965346D01*
X136499712Y-94186034D01*
X136446662Y-94448000D01*
X133985108Y-94448000D01*
X133968175Y-94407122D01*
X133724812Y-94351872D01*
X132953684Y-95123000D01*
X132666316Y-95123000D01*
X132652174Y-95108858D01*
X132795858Y-94965174D01*
X132810000Y-94979316D01*
X133581128Y-94208188D01*
X133525878Y-93964825D01*
X133028171Y-93779031D01*
X132497249Y-93797844D01*
X132094122Y-93964825D01*
X132058844Y-94120215D01*
X131967654Y-93978501D01*
X131746966Y-93827712D01*
X131485000Y-93774662D01*
X130135000Y-93774662D01*
X129890270Y-93820711D01*
X129665501Y-93965346D01*
X129514712Y-94186034D01*
X129461662Y-94448000D01*
X127000108Y-94448000D01*
X126983175Y-94407122D01*
X126739812Y-94351872D01*
X125968684Y-95123000D01*
X125681316Y-95123000D01*
X125667174Y-95108858D01*
X125810858Y-94965174D01*
X125825000Y-94979316D01*
X126596128Y-94208188D01*
X126540878Y-93964825D01*
X126043171Y-93779031D01*
X125512249Y-93797844D01*
X125109122Y-93964825D01*
X125073844Y-94120215D01*
X124982654Y-93978501D01*
X124761966Y-93827712D01*
X124739400Y-93823142D01*
X124739400Y-92961756D01*
X126108757Y-91592400D01*
X131445000Y-91592400D01*
X131794926Y-91522795D01*
X132091578Y-91324578D01*
X133147855Y-90268302D01*
X133258312Y-90222662D01*
X133528712Y-89952733D01*
X133675233Y-89599873D01*
X133675566Y-89217803D01*
X133529662Y-88864688D01*
X133259733Y-88594288D01*
X132906873Y-88447767D01*
X132524803Y-88447434D01*
X132171688Y-88593338D01*
X131901288Y-88863267D01*
X131854927Y-88974916D01*
X131066244Y-89763600D01*
X125730000Y-89763600D01*
X125380074Y-89833205D01*
X125261252Y-89912599D01*
X125083422Y-90031421D01*
X123178422Y-91936422D01*
X122980205Y-92233074D01*
X122910600Y-92583000D01*
X122910600Y-93819708D01*
X122905270Y-93820711D01*
X122680501Y-93965346D01*
X122529712Y-94186034D01*
X122476662Y-94448000D01*
X120015108Y-94448000D01*
X119998175Y-94407122D01*
X119754812Y-94351872D01*
X118983684Y-95123000D01*
X118696316Y-95123000D01*
X118682174Y-95108858D01*
X118825858Y-94965174D01*
X118840000Y-94979316D01*
X119611128Y-94208188D01*
X119555878Y-93964825D01*
X119058171Y-93779031D01*
X118527249Y-93797844D01*
X118124122Y-93964825D01*
X118088844Y-94120215D01*
X117997654Y-93978501D01*
X117776966Y-93827712D01*
X117754400Y-93823142D01*
X117754400Y-93596756D01*
X119758757Y-91592400D01*
X121285000Y-91592400D01*
X121634926Y-91522795D01*
X121931578Y-91324578D01*
X123622855Y-89633302D01*
X123733312Y-89587662D01*
X124003712Y-89317733D01*
X124150233Y-88964873D01*
X124150566Y-88582803D01*
X124004662Y-88229688D01*
X123734733Y-87959288D01*
X123381873Y-87812767D01*
X122999803Y-87812434D01*
X122646688Y-87958338D01*
X122376288Y-88228267D01*
X122329927Y-88339916D01*
X122199216Y-88470627D01*
X122099662Y-88229688D01*
X121829733Y-87959288D01*
X121476873Y-87812767D01*
X121094803Y-87812434D01*
X120983073Y-87858600D01*
X114300000Y-87858600D01*
X113950074Y-87928205D01*
X113801748Y-88027314D01*
X113653421Y-88126422D01*
X112652960Y-89126883D01*
X112720233Y-88964873D01*
X112720566Y-88582803D01*
X112574662Y-88229688D01*
X112304733Y-87959288D01*
X111951873Y-87812767D01*
X111569803Y-87812434D01*
X111216688Y-87958338D01*
X110946288Y-88228267D01*
X110899927Y-88339916D01*
X110769216Y-88470627D01*
X110669662Y-88229688D01*
X110399733Y-87959288D01*
X110288084Y-87912927D01*
X109231578Y-86856422D01*
X109231577Y-86856421D01*
X108934926Y-86658205D01*
X108585000Y-86588600D01*
X101600000Y-86588600D01*
X101250075Y-86658204D01*
X100953422Y-86856421D01*
X95238422Y-92571422D01*
X95040205Y-92868074D01*
X94970600Y-93218000D01*
X94970600Y-93819708D01*
X94965270Y-93820711D01*
X94740501Y-93965346D01*
X94589712Y-94186034D01*
X94536662Y-94448000D01*
X92075108Y-94448000D01*
X92058175Y-94407122D01*
X91814812Y-94351872D01*
X91043684Y-95123000D01*
X90756316Y-95123000D01*
X90742174Y-95108858D01*
X90885858Y-94965174D01*
X90900000Y-94979316D01*
X91671128Y-94208188D01*
X91615878Y-93964825D01*
X91118171Y-93779031D01*
X90587249Y-93797844D01*
X90184122Y-93964825D01*
X90148844Y-94120215D01*
X90057654Y-93978501D01*
X89836966Y-93827712D01*
X89575000Y-93774662D01*
X88225000Y-93774662D01*
X87980270Y-93820711D01*
X87755501Y-93965346D01*
X87604712Y-94186034D01*
X87551662Y-94448000D01*
X84555400Y-94448000D01*
X84555400Y-88128884D01*
X85104053Y-88128884D01*
X85584181Y-89290884D01*
X86472440Y-90180695D01*
X87633600Y-90662850D01*
X88890884Y-90663947D01*
X90052884Y-90183819D01*
X90942695Y-89295560D01*
X91424850Y-88134400D01*
X91425947Y-86877116D01*
X90976016Y-85788197D01*
X104449434Y-85788197D01*
X104595338Y-86141312D01*
X104865267Y-86411712D01*
X105218127Y-86558233D01*
X105600197Y-86558566D01*
X105711927Y-86512400D01*
X110822749Y-86512400D01*
X110933127Y-86558233D01*
X111315197Y-86558566D01*
X111426927Y-86512400D01*
X116537749Y-86512400D01*
X116648127Y-86558233D01*
X117030197Y-86558566D01*
X117383312Y-86412662D01*
X117653712Y-86142733D01*
X117800233Y-85789873D01*
X117800234Y-85788197D01*
X127309434Y-85788197D01*
X127455338Y-86141312D01*
X127725267Y-86411712D01*
X128078127Y-86558233D01*
X128460197Y-86558566D01*
X128571927Y-86512400D01*
X133682749Y-86512400D01*
X133793127Y-86558233D01*
X134175197Y-86558566D01*
X134286927Y-86512400D01*
X139397749Y-86512400D01*
X139508127Y-86558233D01*
X139890197Y-86558566D01*
X140243312Y-86412662D01*
X140513712Y-86142733D01*
X140660233Y-85789873D01*
X140660566Y-85407803D01*
X140514662Y-85054688D01*
X140244733Y-84784288D01*
X139891873Y-84637767D01*
X139509803Y-84637434D01*
X139398073Y-84683600D01*
X134287251Y-84683600D01*
X134176873Y-84637767D01*
X133794803Y-84637434D01*
X133683073Y-84683600D01*
X128572251Y-84683600D01*
X128461873Y-84637767D01*
X128079803Y-84637434D01*
X127726688Y-84783338D01*
X127456288Y-85053267D01*
X127309767Y-85406127D01*
X127309434Y-85788197D01*
X117800234Y-85788197D01*
X117800566Y-85407803D01*
X117654662Y-85054688D01*
X117384733Y-84784288D01*
X117031873Y-84637767D01*
X116649803Y-84637434D01*
X116538073Y-84683600D01*
X111427251Y-84683600D01*
X111316873Y-84637767D01*
X110934803Y-84637434D01*
X110823073Y-84683600D01*
X105712251Y-84683600D01*
X105601873Y-84637767D01*
X105219803Y-84637434D01*
X104866688Y-84783338D01*
X104596288Y-85053267D01*
X104449767Y-85406127D01*
X104449434Y-85788197D01*
X90976016Y-85788197D01*
X90945819Y-85715116D01*
X90057560Y-84825305D01*
X88896400Y-84343150D01*
X87639116Y-84342053D01*
X86477116Y-84822181D01*
X85587305Y-85710440D01*
X85105150Y-86871600D01*
X85104053Y-88128884D01*
X84555400Y-88128884D01*
X84555400Y-81800700D01*
X87149940Y-81800700D01*
X87149940Y-83415421D01*
X87250480Y-83658146D01*
X87436253Y-83843920D01*
X87678978Y-83944460D01*
X89293700Y-83944460D01*
X89458800Y-83779360D01*
X89458800Y-81635600D01*
X89662000Y-81635600D01*
X89662000Y-83779360D01*
X89827100Y-83944460D01*
X91441822Y-83944460D01*
X91684547Y-83843920D01*
X91870320Y-83658146D01*
X91970860Y-83415421D01*
X91970860Y-81800700D01*
X91805760Y-81635600D01*
X89662000Y-81635600D01*
X89458800Y-81635600D01*
X87315040Y-81635600D01*
X87149940Y-81800700D01*
X84555400Y-81800700D01*
X84555400Y-79194165D01*
X84679238Y-79245460D01*
X86293960Y-79245460D01*
X86459060Y-79080360D01*
X86459060Y-76936600D01*
X86662260Y-76936600D01*
X86662260Y-79080360D01*
X86827360Y-79245460D01*
X87414873Y-79245460D01*
X87250480Y-79409854D01*
X87149940Y-79652579D01*
X87149940Y-81267300D01*
X87315040Y-81432400D01*
X89458800Y-81432400D01*
X89458800Y-79288640D01*
X89293700Y-79123540D01*
X88706187Y-79123540D01*
X88870580Y-78959146D01*
X88971120Y-78716421D01*
X88971120Y-77101700D01*
X88806020Y-76936600D01*
X86662260Y-76936600D01*
X86459060Y-76936600D01*
X86439060Y-76936600D01*
X86439060Y-76733400D01*
X86459060Y-76733400D01*
X86459060Y-74589640D01*
X86662260Y-74589640D01*
X86662260Y-76733400D01*
X88806020Y-76733400D01*
X88971120Y-76568300D01*
X88971120Y-74953579D01*
X88870580Y-74710854D01*
X88684807Y-74525080D01*
X88442082Y-74424540D01*
X86827360Y-74424540D01*
X86662260Y-74589640D01*
X86459060Y-74589640D01*
X86293960Y-74424540D01*
X84679238Y-74424540D01*
X84555400Y-74475835D01*
X84555400Y-69551093D01*
X87427468Y-69551093D01*
X87621103Y-70018589D01*
X88025973Y-70446832D01*
X88563906Y-70687540D01*
X88798400Y-70556887D01*
X88798400Y-69316600D01*
X87558542Y-69316600D01*
X87427468Y-69551093D01*
X84555400Y-69551093D01*
X84555400Y-67011093D01*
X87427468Y-67011093D01*
X87621103Y-67478589D01*
X88025973Y-67906832D01*
X88111271Y-67945000D01*
X88025973Y-67983168D01*
X87621103Y-68411411D01*
X87427468Y-68878907D01*
X87558542Y-69113400D01*
X88798400Y-69113400D01*
X88798400Y-66776600D01*
X87558542Y-66776600D01*
X87427468Y-67011093D01*
X84555400Y-67011093D01*
X84555400Y-64401700D01*
X87389600Y-64401700D01*
X87389600Y-65116361D01*
X87490140Y-65359086D01*
X87675913Y-65544860D01*
X87858377Y-65620439D01*
X87621103Y-65871411D01*
X87427468Y-66338907D01*
X87558542Y-66573400D01*
X88798400Y-66573400D01*
X88798400Y-64236600D01*
X87554700Y-64236600D01*
X87389600Y-64401700D01*
X84555400Y-64401700D01*
X84555400Y-63153639D01*
X87389600Y-63153639D01*
X87389600Y-63868300D01*
X87554700Y-64033400D01*
X88798400Y-64033400D01*
X88798400Y-62789700D01*
X89001600Y-62789700D01*
X89001600Y-64033400D01*
X89021600Y-64033400D01*
X89021600Y-64236600D01*
X89001600Y-64236600D01*
X89001600Y-66573400D01*
X89021600Y-66573400D01*
X89021600Y-66776600D01*
X89001600Y-66776600D01*
X89001600Y-69113400D01*
X89021600Y-69113400D01*
X89021600Y-69316600D01*
X89001600Y-69316600D01*
X89001600Y-70556887D01*
X89236094Y-70687540D01*
X89774027Y-70446832D01*
X90171172Y-70026760D01*
X90342396Y-70283014D01*
X90629740Y-70475011D01*
X90629740Y-74445535D01*
X90565350Y-74457651D01*
X90340581Y-74602286D01*
X90189792Y-74822974D01*
X90136742Y-75084940D01*
X90136742Y-78585060D01*
X90182791Y-78829790D01*
X90327426Y-79054559D01*
X90428383Y-79123540D01*
X89827100Y-79123540D01*
X89662000Y-79288640D01*
X89662000Y-81432400D01*
X91805760Y-81432400D01*
X91970860Y-81267300D01*
X91970860Y-80211254D01*
X100176961Y-80211254D01*
X100410901Y-80730841D01*
X100825870Y-81121351D01*
X101271747Y-81306032D01*
X101498400Y-81174309D01*
X101498400Y-79984600D01*
X100308231Y-79984600D01*
X100176961Y-80211254D01*
X91970860Y-80211254D01*
X91970860Y-79652579D01*
X91930337Y-79554746D01*
X100176961Y-79554746D01*
X100308231Y-79781400D01*
X101498400Y-79781400D01*
X101498400Y-78591691D01*
X101701600Y-78591691D01*
X101701600Y-79781400D01*
X101721600Y-79781400D01*
X101721600Y-79984600D01*
X101701600Y-79984600D01*
X101701600Y-81174309D01*
X101928253Y-81306032D01*
X102374130Y-81121351D01*
X102789099Y-80730841D01*
X102859804Y-80573804D01*
X103107341Y-80944270D01*
X103581129Y-81260845D01*
X104140000Y-81372011D01*
X104698871Y-81260845D01*
X105172659Y-80944270D01*
X105410000Y-80589064D01*
X105647341Y-80944270D01*
X106121129Y-81260845D01*
X106680000Y-81372011D01*
X107238871Y-81260845D01*
X107712659Y-80944270D01*
X107950000Y-80589064D01*
X108187341Y-80944270D01*
X108661129Y-81260845D01*
X109220000Y-81372011D01*
X109778871Y-81260845D01*
X110252659Y-80944270D01*
X110569234Y-80470482D01*
X110620797Y-80211254D01*
X111606961Y-80211254D01*
X111840901Y-80730841D01*
X112255870Y-81121351D01*
X112701747Y-81306032D01*
X112928400Y-81174309D01*
X112928400Y-79984600D01*
X111738231Y-79984600D01*
X111606961Y-80211254D01*
X110620797Y-80211254D01*
X110680400Y-79911611D01*
X110680400Y-79854389D01*
X110620798Y-79554746D01*
X111606961Y-79554746D01*
X111738231Y-79781400D01*
X112928400Y-79781400D01*
X112928400Y-78591691D01*
X113131600Y-78591691D01*
X113131600Y-79781400D01*
X113151600Y-79781400D01*
X113151600Y-79984600D01*
X113131600Y-79984600D01*
X113131600Y-81174309D01*
X113358253Y-81306032D01*
X113804130Y-81121351D01*
X114219099Y-80730841D01*
X114289804Y-80573804D01*
X114537341Y-80944270D01*
X115011129Y-81260845D01*
X115570000Y-81372011D01*
X116128871Y-81260845D01*
X116602659Y-80944270D01*
X116840000Y-80589064D01*
X117077341Y-80944270D01*
X117551129Y-81260845D01*
X118110000Y-81372011D01*
X118668871Y-81260845D01*
X119142659Y-80944270D01*
X119380000Y-80589064D01*
X119617341Y-80944270D01*
X120091129Y-81260845D01*
X120650000Y-81372011D01*
X121208871Y-81260845D01*
X121682659Y-80944270D01*
X121999234Y-80470482D01*
X122050797Y-80211254D01*
X123036961Y-80211254D01*
X123270901Y-80730841D01*
X123685870Y-81121351D01*
X124131747Y-81306032D01*
X124358400Y-81174309D01*
X124358400Y-79984600D01*
X123168231Y-79984600D01*
X123036961Y-80211254D01*
X122050797Y-80211254D01*
X122110400Y-79911611D01*
X122110400Y-79854389D01*
X122050798Y-79554746D01*
X123036961Y-79554746D01*
X123168231Y-79781400D01*
X124358400Y-79781400D01*
X124358400Y-78591691D01*
X124561600Y-78591691D01*
X124561600Y-79781400D01*
X124581600Y-79781400D01*
X124581600Y-79984600D01*
X124561600Y-79984600D01*
X124561600Y-81174309D01*
X124788253Y-81306032D01*
X125234130Y-81121351D01*
X125649099Y-80730841D01*
X125719804Y-80573804D01*
X125967341Y-80944270D01*
X126441129Y-81260845D01*
X127000000Y-81372011D01*
X127558871Y-81260845D01*
X128032659Y-80944270D01*
X128270000Y-80589064D01*
X128507341Y-80944270D01*
X128981129Y-81260845D01*
X129540000Y-81372011D01*
X130098871Y-81260845D01*
X130572659Y-80944270D01*
X130810000Y-80589064D01*
X131047341Y-80944270D01*
X131521129Y-81260845D01*
X132080000Y-81372011D01*
X132638871Y-81260845D01*
X133112659Y-80944270D01*
X133429234Y-80470482D01*
X133480797Y-80211254D01*
X134466961Y-80211254D01*
X134700901Y-80730841D01*
X135115870Y-81121351D01*
X135561747Y-81306032D01*
X135788400Y-81174309D01*
X135788400Y-79984600D01*
X134598231Y-79984600D01*
X134466961Y-80211254D01*
X133480797Y-80211254D01*
X133540400Y-79911611D01*
X133540400Y-79854389D01*
X133480798Y-79554746D01*
X134466961Y-79554746D01*
X134598231Y-79781400D01*
X135788400Y-79781400D01*
X135788400Y-78591691D01*
X135991600Y-78591691D01*
X135991600Y-79781400D01*
X136011600Y-79781400D01*
X136011600Y-79984600D01*
X135991600Y-79984600D01*
X135991600Y-81174309D01*
X136218253Y-81306032D01*
X136664130Y-81121351D01*
X137079099Y-80730841D01*
X137149804Y-80573804D01*
X137397341Y-80944270D01*
X137871129Y-81260845D01*
X138430000Y-81372011D01*
X138988871Y-81260845D01*
X139462659Y-80944270D01*
X139700000Y-80589064D01*
X139937341Y-80944270D01*
X140411129Y-81260845D01*
X140970000Y-81372011D01*
X141528871Y-81260845D01*
X142002659Y-80944270D01*
X142240000Y-80589064D01*
X142477341Y-80944270D01*
X142951129Y-81260845D01*
X143510000Y-81372011D01*
X144068871Y-81260845D01*
X144542659Y-80944270D01*
X144859234Y-80470482D01*
X144970400Y-79911611D01*
X144970400Y-79854389D01*
X144859234Y-79295518D01*
X144542659Y-78821730D01*
X144068871Y-78505155D01*
X143510000Y-78393989D01*
X142951129Y-78505155D01*
X142477341Y-78821730D01*
X142240000Y-79176936D01*
X142002659Y-78821730D01*
X141528871Y-78505155D01*
X140970000Y-78393989D01*
X140411129Y-78505155D01*
X139937341Y-78821730D01*
X139700000Y-79176936D01*
X139462659Y-78821730D01*
X138988871Y-78505155D01*
X138430000Y-78393989D01*
X137871129Y-78505155D01*
X137397341Y-78821730D01*
X137149804Y-79192196D01*
X137079099Y-79035159D01*
X136664130Y-78644649D01*
X136218253Y-78459968D01*
X135991600Y-78591691D01*
X135788400Y-78591691D01*
X135561747Y-78459968D01*
X135115870Y-78644649D01*
X134700901Y-79035159D01*
X134466961Y-79554746D01*
X133480798Y-79554746D01*
X133429234Y-79295518D01*
X133112659Y-78821730D01*
X132638871Y-78505155D01*
X132080000Y-78393989D01*
X131521129Y-78505155D01*
X131047341Y-78821730D01*
X130810000Y-79176936D01*
X130572659Y-78821730D01*
X130098871Y-78505155D01*
X129540000Y-78393989D01*
X128981129Y-78505155D01*
X128507341Y-78821730D01*
X128270000Y-79176936D01*
X128032659Y-78821730D01*
X127558871Y-78505155D01*
X127000000Y-78393989D01*
X126441129Y-78505155D01*
X125967341Y-78821730D01*
X125719804Y-79192196D01*
X125649099Y-79035159D01*
X125234130Y-78644649D01*
X124788253Y-78459968D01*
X124561600Y-78591691D01*
X124358400Y-78591691D01*
X124131747Y-78459968D01*
X123685870Y-78644649D01*
X123270901Y-79035159D01*
X123036961Y-79554746D01*
X122050798Y-79554746D01*
X121999234Y-79295518D01*
X121682659Y-78821730D01*
X121208871Y-78505155D01*
X120650000Y-78393989D01*
X120091129Y-78505155D01*
X119617341Y-78821730D01*
X119380000Y-79176936D01*
X119142659Y-78821730D01*
X118668871Y-78505155D01*
X118110000Y-78393989D01*
X117551129Y-78505155D01*
X117077341Y-78821730D01*
X116840000Y-79176936D01*
X116602659Y-78821730D01*
X116128871Y-78505155D01*
X115570000Y-78393989D01*
X115011129Y-78505155D01*
X114537341Y-78821730D01*
X114289804Y-79192196D01*
X114219099Y-79035159D01*
X113804130Y-78644649D01*
X113358253Y-78459968D01*
X113131600Y-78591691D01*
X112928400Y-78591691D01*
X112701747Y-78459968D01*
X112255870Y-78644649D01*
X111840901Y-79035159D01*
X111606961Y-79554746D01*
X110620798Y-79554746D01*
X110569234Y-79295518D01*
X110252659Y-78821730D01*
X109778871Y-78505155D01*
X109220000Y-78393989D01*
X108661129Y-78505155D01*
X108187341Y-78821730D01*
X107950000Y-79176936D01*
X107712659Y-78821730D01*
X107238871Y-78505155D01*
X106680000Y-78393989D01*
X106121129Y-78505155D01*
X105647341Y-78821730D01*
X105410000Y-79176936D01*
X105172659Y-78821730D01*
X104698871Y-78505155D01*
X104140000Y-78393989D01*
X103581129Y-78505155D01*
X103107341Y-78821730D01*
X102859804Y-79192196D01*
X102789099Y-79035159D01*
X102374130Y-78644649D01*
X101928253Y-78459968D01*
X101701600Y-78591691D01*
X101498400Y-78591691D01*
X101271747Y-78459968D01*
X100825870Y-78644649D01*
X100410901Y-79035159D01*
X100176961Y-79554746D01*
X91930337Y-79554746D01*
X91870320Y-79409854D01*
X91718865Y-79258398D01*
X94310200Y-79258398D01*
X94554930Y-79212349D01*
X94779699Y-79067714D01*
X94930488Y-78847026D01*
X94983538Y-78585060D01*
X94983538Y-78356661D01*
X95217999Y-78199999D01*
X96360999Y-77056999D01*
X96779457Y-76430732D01*
X96926400Y-75692000D01*
X96926400Y-67056000D01*
X96779457Y-66317268D01*
X96360999Y-65691001D01*
X93439999Y-62770001D01*
X92813732Y-62351543D01*
X92075000Y-62204600D01*
X91336268Y-62351543D01*
X90946972Y-62611662D01*
X90590000Y-62611662D01*
X90345270Y-62657711D01*
X90169660Y-62770713D01*
X90124087Y-62725140D01*
X89881362Y-62624600D01*
X89166700Y-62624600D01*
X89001600Y-62789700D01*
X88798400Y-62789700D01*
X88633300Y-62624600D01*
X87918638Y-62624600D01*
X87675913Y-62725140D01*
X87490140Y-62910914D01*
X87389600Y-63153639D01*
X84555400Y-63153639D01*
X84555400Y-50237432D01*
X84657741Y-49722926D01*
X84908156Y-49348156D01*
X85282926Y-49097741D01*
X85797432Y-48995400D01*
X97637600Y-48995400D01*
X97637600Y-76708000D01*
G36*
X156017074Y-49097741D02*
X156391844Y-49348156D01*
X156642259Y-49722926D01*
X156744600Y-50237432D01*
X156744600Y-102162568D01*
X156642259Y-102677074D01*
X156391844Y-103051844D01*
X156017074Y-103302259D01*
X155502568Y-103404600D01*
X85797432Y-103404600D01*
X85282926Y-103302259D01*
X84908156Y-103051844D01*
X84657741Y-102677074D01*
X84555400Y-102162568D01*
X84555400Y-100330000D01*
X114270143Y-100330000D01*
X114386151Y-100913210D01*
X114716512Y-101407631D01*
X115210933Y-101737992D01*
X115794143Y-101854000D01*
X115853857Y-101854000D01*
X116437067Y-101737992D01*
X116931488Y-101407631D01*
X117094000Y-101164414D01*
X117256512Y-101407631D01*
X117750933Y-101737992D01*
X118334143Y-101854000D01*
X118393857Y-101854000D01*
X118977067Y-101737992D01*
X119471488Y-101407631D01*
X119634000Y-101164414D01*
X119796512Y-101407631D01*
X120290933Y-101737992D01*
X120874143Y-101854000D01*
X120933857Y-101854000D01*
X121517067Y-101737992D01*
X122011488Y-101407631D01*
X122174000Y-101164414D01*
X122336512Y-101407631D01*
X122830933Y-101737992D01*
X123414143Y-101854000D01*
X123473857Y-101854000D01*
X124057067Y-101737992D01*
X124551488Y-101407631D01*
X124714000Y-101164414D01*
X124876512Y-101407631D01*
X125370933Y-101737992D01*
X125954143Y-101854000D01*
X126013857Y-101854000D01*
X126597067Y-101737992D01*
X127091488Y-101407631D01*
X127254692Y-101163379D01*
X127642852Y-101573453D01*
X128185774Y-101816002D01*
X128422400Y-101685517D01*
X128422400Y-100431600D01*
X128625600Y-100431600D01*
X128625600Y-101685517D01*
X128862226Y-101816002D01*
X129405148Y-101573453D01*
X129794000Y-101162648D01*
X130182852Y-101573453D01*
X130725774Y-101816002D01*
X130962400Y-101685517D01*
X130962400Y-100431600D01*
X128625600Y-100431600D01*
X128422400Y-100431600D01*
X128402400Y-100431600D01*
X128402400Y-100228400D01*
X128422400Y-100228400D01*
X128422400Y-98974483D01*
X128625600Y-98974483D01*
X128625600Y-100228400D01*
X130962400Y-100228400D01*
X130962400Y-98974483D01*
X131165600Y-98974483D01*
X131165600Y-100228400D01*
X131185600Y-100228400D01*
X131185600Y-100431600D01*
X131165600Y-100431600D01*
X131165600Y-101685517D01*
X131402226Y-101816002D01*
X131945148Y-101573453D01*
X132333308Y-101163379D01*
X132496512Y-101407631D01*
X132990933Y-101737992D01*
X133574143Y-101854000D01*
X133633857Y-101854000D01*
X134217067Y-101737992D01*
X134711488Y-101407631D01*
X135041849Y-100913210D01*
X135157857Y-100330000D01*
X137130143Y-100330000D01*
X137246151Y-100913210D01*
X137576512Y-101407631D01*
X138070933Y-101737992D01*
X138654143Y-101854000D01*
X138713857Y-101854000D01*
X139297067Y-101737992D01*
X139791488Y-101407631D01*
X139954000Y-101164414D01*
X140116512Y-101407631D01*
X140610933Y-101737992D01*
X141194143Y-101854000D01*
X141253857Y-101854000D01*
X141837067Y-101737992D01*
X142331488Y-101407631D01*
X142494000Y-101164414D01*
X142656512Y-101407631D01*
X143150933Y-101737992D01*
X143734143Y-101854000D01*
X143793857Y-101854000D01*
X144377067Y-101737992D01*
X144871488Y-101407631D01*
X145034000Y-101164414D01*
X145196512Y-101407631D01*
X145690933Y-101737992D01*
X146274143Y-101854000D01*
X146333857Y-101854000D01*
X146917067Y-101737992D01*
X147411488Y-101407631D01*
X147574000Y-101164414D01*
X147736512Y-101407631D01*
X148230933Y-101737992D01*
X148814143Y-101854000D01*
X148873857Y-101854000D01*
X149457067Y-101737992D01*
X149951488Y-101407631D01*
X150114000Y-101164414D01*
X150276512Y-101407631D01*
X150770933Y-101737992D01*
X151354143Y-101854000D01*
X151413857Y-101854000D01*
X151997067Y-101737992D01*
X152491488Y-101407631D01*
X152821849Y-100913210D01*
X152937857Y-100330000D01*
X152821849Y-99746790D01*
X152491488Y-99252369D01*
X151997067Y-98922008D01*
X151413857Y-98806000D01*
X151354143Y-98806000D01*
X150770933Y-98922008D01*
X150276512Y-99252369D01*
X150114000Y-99495586D01*
X149951488Y-99252369D01*
X149457067Y-98922008D01*
X148873857Y-98806000D01*
X148814143Y-98806000D01*
X148230933Y-98922008D01*
X147736512Y-99252369D01*
X147574000Y-99495586D01*
X147411488Y-99252369D01*
X146917067Y-98922008D01*
X146333857Y-98806000D01*
X146274143Y-98806000D01*
X145690933Y-98922008D01*
X145196512Y-99252369D01*
X145034000Y-99495586D01*
X144871488Y-99252369D01*
X144377067Y-98922008D01*
X143793857Y-98806000D01*
X143734143Y-98806000D01*
X143150933Y-98922008D01*
X142656512Y-99252369D01*
X142494000Y-99495586D01*
X142331488Y-99252369D01*
X141837067Y-98922008D01*
X141253857Y-98806000D01*
X141194143Y-98806000D01*
X140610933Y-98922008D01*
X140116512Y-99252369D01*
X139954000Y-99495586D01*
X139791488Y-99252369D01*
X139297067Y-98922008D01*
X138713857Y-98806000D01*
X138654143Y-98806000D01*
X138070933Y-98922008D01*
X137576512Y-99252369D01*
X137246151Y-99746790D01*
X137130143Y-100330000D01*
X135157857Y-100330000D01*
X135041849Y-99746790D01*
X134711488Y-99252369D01*
X134217067Y-98922008D01*
X133633857Y-98806000D01*
X133574143Y-98806000D01*
X132990933Y-98922008D01*
X132496512Y-99252369D01*
X132333308Y-99496621D01*
X131945148Y-99086547D01*
X131402226Y-98843998D01*
X131165600Y-98974483D01*
X130962400Y-98974483D01*
X130725774Y-98843998D01*
X130182852Y-99086547D01*
X129794000Y-99497352D01*
X129405148Y-99086547D01*
X128862226Y-98843998D01*
X128625600Y-98974483D01*
X128422400Y-98974483D01*
X128185774Y-98843998D01*
X127642852Y-99086547D01*
X127254692Y-99496621D01*
X127091488Y-99252369D01*
X126597067Y-98922008D01*
X126013857Y-98806000D01*
X125954143Y-98806000D01*
X125370933Y-98922008D01*
X124876512Y-99252369D01*
X124714000Y-99495586D01*
X124551488Y-99252369D01*
X124057067Y-98922008D01*
X123473857Y-98806000D01*
X123414143Y-98806000D01*
X122830933Y-98922008D01*
X122336512Y-99252369D01*
X122174000Y-99495586D01*
X122011488Y-99252369D01*
X121517067Y-98922008D01*
X120933857Y-98806000D01*
X120874143Y-98806000D01*
X120290933Y-98922008D01*
X119796512Y-99252369D01*
X119634000Y-99495586D01*
X119471488Y-99252369D01*
X118977067Y-98922008D01*
X118393857Y-98806000D01*
X118334143Y-98806000D01*
X117750933Y-98922008D01*
X117256512Y-99252369D01*
X117094000Y-99495586D01*
X116931488Y-99252369D01*
X116437067Y-98922008D01*
X115853857Y-98806000D01*
X115794143Y-98806000D01*
X115210933Y-98922008D01*
X114716512Y-99252369D01*
X114386151Y-99746790D01*
X114270143Y-100330000D01*
X84555400Y-100330000D01*
X84555400Y-98450400D01*
X147320000Y-98450400D01*
X147379292Y-98438393D01*
X147429242Y-98404264D01*
X147461977Y-98353391D01*
X147472400Y-98298000D01*
X147472400Y-95697649D01*
X151663208Y-95697649D01*
X152006609Y-96528741D01*
X152641914Y-97165157D01*
X153472406Y-97510007D01*
X154371649Y-97510792D01*
X155202741Y-97167391D01*
X155839157Y-96532086D01*
X156184007Y-95701594D01*
X156184792Y-94802351D01*
X155841391Y-93971259D01*
X155206086Y-93334843D01*
X154375594Y-92989993D01*
X153476351Y-92989208D01*
X152645259Y-93332609D01*
X152008843Y-93967914D01*
X151663993Y-94798406D01*
X151663208Y-95697649D01*
X147472400Y-95697649D01*
X147472400Y-75438000D01*
X147460393Y-75378708D01*
X147426264Y-75328758D01*
X147375391Y-75296023D01*
X147320000Y-75285600D01*
X99212400Y-75285600D01*
X99212400Y-72234389D01*
X100139600Y-72234389D01*
X100139600Y-72291611D01*
X100250766Y-72850482D01*
X100567341Y-73324270D01*
X101041129Y-73640845D01*
X101600000Y-73752011D01*
X102158871Y-73640845D01*
X102632659Y-73324270D01*
X102880196Y-72953804D01*
X102950901Y-73110841D01*
X103365870Y-73501351D01*
X103811747Y-73686032D01*
X104038400Y-73554309D01*
X104038400Y-72364600D01*
X104241600Y-72364600D01*
X104241600Y-73554309D01*
X104468253Y-73686032D01*
X104914130Y-73501351D01*
X105329099Y-73110841D01*
X105410000Y-72931158D01*
X105490901Y-73110841D01*
X105905870Y-73501351D01*
X106351747Y-73686032D01*
X106578400Y-73554309D01*
X106578400Y-72364600D01*
X104241600Y-72364600D01*
X104038400Y-72364600D01*
X104018400Y-72364600D01*
X104018400Y-72161400D01*
X104038400Y-72161400D01*
X104038400Y-70971691D01*
X104241600Y-70971691D01*
X104241600Y-72161400D01*
X106578400Y-72161400D01*
X106578400Y-70971691D01*
X106781600Y-70971691D01*
X106781600Y-72161400D01*
X106801600Y-72161400D01*
X106801600Y-72364600D01*
X106781600Y-72364600D01*
X106781600Y-73554309D01*
X107008253Y-73686032D01*
X107454130Y-73501351D01*
X107772728Y-73201531D01*
X107792711Y-73307730D01*
X107937346Y-73532499D01*
X108158034Y-73683288D01*
X108420000Y-73736338D01*
X110020000Y-73736338D01*
X110264730Y-73690289D01*
X110489499Y-73545654D01*
X110640288Y-73324966D01*
X110693338Y-73063000D01*
X110693338Y-72234389D01*
X111569600Y-72234389D01*
X111569600Y-72291611D01*
X111680766Y-72850482D01*
X111997341Y-73324270D01*
X112471129Y-73640845D01*
X113030000Y-73752011D01*
X113588871Y-73640845D01*
X114062659Y-73324270D01*
X114310196Y-72953804D01*
X114380901Y-73110841D01*
X114795870Y-73501351D01*
X115241747Y-73686032D01*
X115468400Y-73554309D01*
X115468400Y-72364600D01*
X115671600Y-72364600D01*
X115671600Y-73554309D01*
X115898253Y-73686032D01*
X116344130Y-73501351D01*
X116759099Y-73110841D01*
X116840000Y-72931158D01*
X116920901Y-73110841D01*
X117335870Y-73501351D01*
X117781747Y-73686032D01*
X118008400Y-73554309D01*
X118008400Y-72364600D01*
X115671600Y-72364600D01*
X115468400Y-72364600D01*
X115448400Y-72364600D01*
X115448400Y-72161400D01*
X115468400Y-72161400D01*
X115468400Y-70971691D01*
X115671600Y-70971691D01*
X115671600Y-72161400D01*
X118008400Y-72161400D01*
X118008400Y-70971691D01*
X118211600Y-70971691D01*
X118211600Y-72161400D01*
X118231600Y-72161400D01*
X118231600Y-72364600D01*
X118211600Y-72364600D01*
X118211600Y-73554309D01*
X118438253Y-73686032D01*
X118884130Y-73501351D01*
X119202728Y-73201531D01*
X119222711Y-73307730D01*
X119367346Y-73532499D01*
X119588034Y-73683288D01*
X119850000Y-73736338D01*
X121450000Y-73736338D01*
X121694730Y-73690289D01*
X121919499Y-73545654D01*
X122070288Y-73324966D01*
X122123338Y-73063000D01*
X122123338Y-72234389D01*
X122999600Y-72234389D01*
X122999600Y-72291611D01*
X123110766Y-72850482D01*
X123427341Y-73324270D01*
X123901129Y-73640845D01*
X124460000Y-73752011D01*
X125018871Y-73640845D01*
X125492659Y-73324270D01*
X125740196Y-72953804D01*
X125810901Y-73110841D01*
X126225870Y-73501351D01*
X126671747Y-73686032D01*
X126898400Y-73554309D01*
X126898400Y-72364600D01*
X127101600Y-72364600D01*
X127101600Y-73554309D01*
X127328253Y-73686032D01*
X127774130Y-73501351D01*
X128189099Y-73110841D01*
X128270000Y-72931158D01*
X128350901Y-73110841D01*
X128765870Y-73501351D01*
X129211747Y-73686032D01*
X129438400Y-73554309D01*
X129438400Y-72364600D01*
X127101600Y-72364600D01*
X126898400Y-72364600D01*
X126878400Y-72364600D01*
X126878400Y-72161400D01*
X126898400Y-72161400D01*
X126898400Y-70971691D01*
X127101600Y-70971691D01*
X127101600Y-72161400D01*
X129438400Y-72161400D01*
X129438400Y-70971691D01*
X129641600Y-70971691D01*
X129641600Y-72161400D01*
X129661600Y-72161400D01*
X129661600Y-72364600D01*
X129641600Y-72364600D01*
X129641600Y-73554309D01*
X129868253Y-73686032D01*
X130314130Y-73501351D01*
X130632728Y-73201531D01*
X130652711Y-73307730D01*
X130797346Y-73532499D01*
X131018034Y-73683288D01*
X131280000Y-73736338D01*
X132880000Y-73736338D01*
X133124730Y-73690289D01*
X133349499Y-73545654D01*
X133500288Y-73324966D01*
X133553338Y-73063000D01*
X133553338Y-72234389D01*
X134429600Y-72234389D01*
X134429600Y-72291611D01*
X134540766Y-72850482D01*
X134857341Y-73324270D01*
X135331129Y-73640845D01*
X135890000Y-73752011D01*
X136448871Y-73640845D01*
X136922659Y-73324270D01*
X137170196Y-72953804D01*
X137240901Y-73110841D01*
X137655870Y-73501351D01*
X138101747Y-73686032D01*
X138328400Y-73554309D01*
X138328400Y-72364600D01*
X138531600Y-72364600D01*
X138531600Y-73554309D01*
X138758253Y-73686032D01*
X139204130Y-73501351D01*
X139619099Y-73110841D01*
X139700000Y-72931158D01*
X139780901Y-73110841D01*
X140195870Y-73501351D01*
X140641747Y-73686032D01*
X140868400Y-73554309D01*
X140868400Y-72364600D01*
X138531600Y-72364600D01*
X138328400Y-72364600D01*
X138308400Y-72364600D01*
X138308400Y-72161400D01*
X138328400Y-72161400D01*
X138328400Y-70971691D01*
X138531600Y-70971691D01*
X138531600Y-72161400D01*
X140868400Y-72161400D01*
X140868400Y-70971691D01*
X141071600Y-70971691D01*
X141071600Y-72161400D01*
X141091600Y-72161400D01*
X141091600Y-72364600D01*
X141071600Y-72364600D01*
X141071600Y-73554309D01*
X141298253Y-73686032D01*
X141744130Y-73501351D01*
X142062728Y-73201531D01*
X142082711Y-73307730D01*
X142227346Y-73532499D01*
X142448034Y-73683288D01*
X142710000Y-73736338D01*
X144310000Y-73736338D01*
X144554730Y-73690289D01*
X144779499Y-73545654D01*
X144930288Y-73324966D01*
X144983338Y-73063000D01*
X144983338Y-71463000D01*
X144937289Y-71218270D01*
X144792654Y-70993501D01*
X144571966Y-70842712D01*
X144310000Y-70789662D01*
X142710000Y-70789662D01*
X142465270Y-70835711D01*
X142240501Y-70980346D01*
X142089712Y-71201034D01*
X142064398Y-71326039D01*
X141744130Y-71024649D01*
X141298253Y-70839968D01*
X141071600Y-70971691D01*
X140868400Y-70971691D01*
X140641747Y-70839968D01*
X140195870Y-71024649D01*
X139780901Y-71415159D01*
X139700000Y-71594842D01*
X139619099Y-71415159D01*
X139204130Y-71024649D01*
X138758253Y-70839968D01*
X138531600Y-70971691D01*
X138328400Y-70971691D01*
X138101747Y-70839968D01*
X137655870Y-71024649D01*
X137240901Y-71415159D01*
X137170196Y-71572196D01*
X136922659Y-71201730D01*
X136448871Y-70885155D01*
X135890000Y-70773989D01*
X135331129Y-70885155D01*
X134857341Y-71201730D01*
X134540766Y-71675518D01*
X134429600Y-72234389D01*
X133553338Y-72234389D01*
X133553338Y-71463000D01*
X133507289Y-71218270D01*
X133362654Y-70993501D01*
X133141966Y-70842712D01*
X132880000Y-70789662D01*
X131280000Y-70789662D01*
X131035270Y-70835711D01*
X130810501Y-70980346D01*
X130659712Y-71201034D01*
X130634398Y-71326039D01*
X130314130Y-71024649D01*
X129868253Y-70839968D01*
X129641600Y-70971691D01*
X129438400Y-70971691D01*
X129211747Y-70839968D01*
X128765870Y-71024649D01*
X128350901Y-71415159D01*
X128270000Y-71594842D01*
X128189099Y-71415159D01*
X127774130Y-71024649D01*
X127328253Y-70839968D01*
X127101600Y-70971691D01*
X126898400Y-70971691D01*
X126671747Y-70839968D01*
X126225870Y-71024649D01*
X125810901Y-71415159D01*
X125740196Y-71572196D01*
X125492659Y-71201730D01*
X125018871Y-70885155D01*
X124460000Y-70773989D01*
X123901129Y-70885155D01*
X123427341Y-71201730D01*
X123110766Y-71675518D01*
X122999600Y-72234389D01*
X122123338Y-72234389D01*
X122123338Y-71463000D01*
X122077289Y-71218270D01*
X121932654Y-70993501D01*
X121711966Y-70842712D01*
X121450000Y-70789662D01*
X119850000Y-70789662D01*
X119605270Y-70835711D01*
X119380501Y-70980346D01*
X119229712Y-71201034D01*
X119204398Y-71326039D01*
X118884130Y-71024649D01*
X118438253Y-70839968D01*
X118211600Y-70971691D01*
X118008400Y-70971691D01*
X117781747Y-70839968D01*
X117335870Y-71024649D01*
X116920901Y-71415159D01*
X116840000Y-71594842D01*
X116759099Y-71415159D01*
X116344130Y-71024649D01*
X115898253Y-70839968D01*
X115671600Y-70971691D01*
X115468400Y-70971691D01*
X115241747Y-70839968D01*
X114795870Y-71024649D01*
X114380901Y-71415159D01*
X114310196Y-71572196D01*
X114062659Y-71201730D01*
X113588871Y-70885155D01*
X113030000Y-70773989D01*
X112471129Y-70885155D01*
X111997341Y-71201730D01*
X111680766Y-71675518D01*
X111569600Y-72234389D01*
X110693338Y-72234389D01*
X110693338Y-71463000D01*
X110647289Y-71218270D01*
X110502654Y-70993501D01*
X110281966Y-70842712D01*
X110020000Y-70789662D01*
X108420000Y-70789662D01*
X108175270Y-70835711D01*
X107950501Y-70980346D01*
X107799712Y-71201034D01*
X107774398Y-71326039D01*
X107454130Y-71024649D01*
X107008253Y-70839968D01*
X106781600Y-70971691D01*
X106578400Y-70971691D01*
X106351747Y-70839968D01*
X105905870Y-71024649D01*
X105490901Y-71415159D01*
X105410000Y-71594842D01*
X105329099Y-71415159D01*
X104914130Y-71024649D01*
X104468253Y-70839968D01*
X104241600Y-70971691D01*
X104038400Y-70971691D01*
X103811747Y-70839968D01*
X103365870Y-71024649D01*
X102950901Y-71415159D01*
X102880196Y-71572196D01*
X102632659Y-71201730D01*
X102158871Y-70885155D01*
X101600000Y-70773989D01*
X101041129Y-70885155D01*
X100567341Y-71201730D01*
X100250766Y-71675518D01*
X100139600Y-72234389D01*
X99212400Y-72234389D01*
X99212400Y-62709389D01*
X112839600Y-62709389D01*
X112839600Y-62766611D01*
X112950766Y-63325482D01*
X113267341Y-63799270D01*
X113741129Y-64115845D01*
X114300000Y-64227011D01*
X114858871Y-64115845D01*
X115332659Y-63799270D01*
X115570000Y-63444064D01*
X115807341Y-63799270D01*
X116281129Y-64115845D01*
X116840000Y-64227011D01*
X117398871Y-64115845D01*
X117872659Y-63799270D01*
X118110000Y-63444064D01*
X118347341Y-63799270D01*
X118821129Y-64115845D01*
X119380000Y-64227011D01*
X119938871Y-64115845D01*
X120412659Y-63799270D01*
X120650000Y-63444064D01*
X120887341Y-63799270D01*
X121361129Y-64115845D01*
X121920000Y-64227011D01*
X122478871Y-64115845D01*
X122952659Y-63799270D01*
X123190000Y-63444064D01*
X123427341Y-63799270D01*
X123901129Y-64115845D01*
X124460000Y-64227011D01*
X125018871Y-64115845D01*
X125492659Y-63799270D01*
X125730000Y-63444064D01*
X125967341Y-63799270D01*
X126441129Y-64115845D01*
X127000000Y-64227011D01*
X127558871Y-64115845D01*
X128032659Y-63799270D01*
X128270000Y-63444064D01*
X128507341Y-63799270D01*
X128981129Y-64115845D01*
X129540000Y-64227011D01*
X130098871Y-64115845D01*
X130572659Y-63799270D01*
X130820196Y-63428804D01*
X130890901Y-63585841D01*
X131305870Y-63976351D01*
X131751747Y-64161032D01*
X131978400Y-64029309D01*
X131978400Y-62839600D01*
X132181600Y-62839600D01*
X132181600Y-64029309D01*
X132408253Y-64161032D01*
X132854130Y-63976351D01*
X133269099Y-63585841D01*
X133503039Y-63066254D01*
X133371769Y-62839600D01*
X132181600Y-62839600D01*
X131978400Y-62839600D01*
X131958400Y-62839600D01*
X131958400Y-62636400D01*
X131978400Y-62636400D01*
X131978400Y-61446691D01*
X132181600Y-61446691D01*
X132181600Y-62636400D01*
X133371769Y-62636400D01*
X133503039Y-62409746D01*
X133269099Y-61890159D01*
X132854130Y-61499649D01*
X132408253Y-61314968D01*
X132181600Y-61446691D01*
X131978400Y-61446691D01*
X131751747Y-61314968D01*
X131305870Y-61499649D01*
X130890901Y-61890159D01*
X130820196Y-62047196D01*
X130572659Y-61676730D01*
X130098871Y-61360155D01*
X129540000Y-61248989D01*
X128981129Y-61360155D01*
X128507341Y-61676730D01*
X128270000Y-62031936D01*
X128032659Y-61676730D01*
X127558871Y-61360155D01*
X127000000Y-61248989D01*
X126441129Y-61360155D01*
X125967341Y-61676730D01*
X125730000Y-62031936D01*
X125492659Y-61676730D01*
X125018871Y-61360155D01*
X124460000Y-61248989D01*
X123901129Y-61360155D01*
X123427341Y-61676730D01*
X123190000Y-62031936D01*
X122952659Y-61676730D01*
X122478871Y-61360155D01*
X121920000Y-61248989D01*
X121361129Y-61360155D01*
X120887341Y-61676730D01*
X120650000Y-62031936D01*
X120412659Y-61676730D01*
X119938871Y-61360155D01*
X119380000Y-61248989D01*
X118821129Y-61360155D01*
X118347341Y-61676730D01*
X118110000Y-62031936D01*
X117872659Y-61676730D01*
X117398871Y-61360155D01*
X116840000Y-61248989D01*
X116281129Y-61360155D01*
X115807341Y-61676730D01*
X115570000Y-62031936D01*
X115332659Y-61676730D01*
X114858871Y-61360155D01*
X114300000Y-61248989D01*
X113741129Y-61360155D01*
X113267341Y-61676730D01*
X112950766Y-62150518D01*
X112839600Y-62709389D01*
X99212400Y-62709389D01*
X99212400Y-55089389D01*
X112839600Y-55089389D01*
X112839600Y-55146611D01*
X112950766Y-55705482D01*
X113267341Y-56179270D01*
X113487200Y-56326175D01*
X113487200Y-57531000D01*
X113549071Y-57842045D01*
X113725264Y-58105736D01*
X116265263Y-60645736D01*
X116528955Y-60821929D01*
X116840000Y-60883800D01*
X135807328Y-60883800D01*
X149682200Y-74758673D01*
X149682200Y-81534662D01*
X149645000Y-81534662D01*
X149400270Y-81580711D01*
X149175501Y-81725346D01*
X149024712Y-81946034D01*
X148971662Y-82208000D01*
X148971662Y-83908000D01*
X149017711Y-84152730D01*
X149162346Y-84377499D01*
X149383034Y-84528288D01*
X149645000Y-84581338D01*
X151345000Y-84581338D01*
X151589730Y-84535289D01*
X151814499Y-84390654D01*
X151965288Y-84169966D01*
X151979679Y-84098904D01*
X152231411Y-84336897D01*
X152698907Y-84530532D01*
X152933400Y-84399458D01*
X152933400Y-83159600D01*
X153136600Y-83159600D01*
X153136600Y-84399458D01*
X153371093Y-84530532D01*
X153838589Y-84336897D01*
X154266832Y-83932027D01*
X154507540Y-83394094D01*
X154376887Y-83159600D01*
X153136600Y-83159600D01*
X152933400Y-83159600D01*
X152913400Y-83159600D01*
X152913400Y-82956400D01*
X152933400Y-82956400D01*
X152933400Y-81716542D01*
X153136600Y-81716542D01*
X153136600Y-82956400D01*
X154376887Y-82956400D01*
X154507540Y-82721906D01*
X154266832Y-82183973D01*
X153838589Y-81779103D01*
X153371093Y-81585468D01*
X153136600Y-81716542D01*
X152933400Y-81716542D01*
X152698907Y-81585468D01*
X152231411Y-81779103D01*
X151982003Y-82014898D01*
X151972289Y-81963270D01*
X151827654Y-81738501D01*
X151606966Y-81587712D01*
X151345000Y-81534662D01*
X151307800Y-81534662D01*
X151307800Y-74422000D01*
X151245929Y-74110955D01*
X151200237Y-74042572D01*
X151069737Y-73847264D01*
X144980122Y-67757649D01*
X151663208Y-67757649D01*
X152006609Y-68588741D01*
X152641914Y-69225157D01*
X153472406Y-69570007D01*
X154371649Y-69570792D01*
X155202741Y-69227391D01*
X155839157Y-68592086D01*
X156184007Y-67761594D01*
X156184792Y-66862351D01*
X155841391Y-66031259D01*
X155206086Y-65394843D01*
X154375594Y-65049993D01*
X153476351Y-65049208D01*
X152645259Y-65392609D01*
X152008843Y-66027914D01*
X151663993Y-66858406D01*
X151663208Y-67757649D01*
X144980122Y-67757649D01*
X136718736Y-59496264D01*
X136455045Y-59320071D01*
X136144000Y-59258200D01*
X117176673Y-59258200D01*
X115536473Y-57618000D01*
X145971662Y-57618000D01*
X145971662Y-58968000D01*
X146017711Y-59212730D01*
X146162346Y-59437499D01*
X146236232Y-59487983D01*
X146188563Y-59535569D01*
X145984832Y-60026207D01*
X145984369Y-60557462D01*
X146187243Y-61048455D01*
X146562569Y-61424437D01*
X147053207Y-61628168D01*
X147584462Y-61628631D01*
X148075455Y-61425757D01*
X148451437Y-61050431D01*
X148655168Y-60559793D01*
X148655631Y-60028538D01*
X148452757Y-59537545D01*
X148404536Y-59489239D01*
X148464499Y-59450654D01*
X148615288Y-59229966D01*
X148668338Y-58968000D01*
X148668338Y-57618000D01*
X148622289Y-57373270D01*
X148477654Y-57148501D01*
X148256966Y-56997712D01*
X147995000Y-56944662D01*
X146645000Y-56944662D01*
X146400270Y-56990711D01*
X146175501Y-57135346D01*
X146024712Y-57356034D01*
X145971662Y-57618000D01*
X115536473Y-57618000D01*
X115112800Y-57194328D01*
X115112800Y-56326175D01*
X115332659Y-56179270D01*
X115570000Y-55824064D01*
X115807341Y-56179270D01*
X116281129Y-56495845D01*
X116840000Y-56607011D01*
X117398871Y-56495845D01*
X117872659Y-56179270D01*
X118110000Y-55824064D01*
X118347341Y-56179270D01*
X118821129Y-56495845D01*
X119380000Y-56607011D01*
X119938871Y-56495845D01*
X120412659Y-56179270D01*
X120660196Y-55808804D01*
X120730901Y-55965841D01*
X121145870Y-56356351D01*
X121591747Y-56541032D01*
X121818400Y-56409309D01*
X121818400Y-55219600D01*
X121798400Y-55219600D01*
X121798400Y-55016400D01*
X121818400Y-55016400D01*
X121818400Y-53826691D01*
X122021600Y-53826691D01*
X122021600Y-55016400D01*
X122041600Y-55016400D01*
X122041600Y-55219600D01*
X122021600Y-55219600D01*
X122021600Y-56409309D01*
X122248253Y-56541032D01*
X122694130Y-56356351D01*
X123109099Y-55965841D01*
X123179804Y-55808804D01*
X123427341Y-56179270D01*
X123901129Y-56495845D01*
X124460000Y-56607011D01*
X125018871Y-56495845D01*
X125492659Y-56179270D01*
X125730000Y-55824064D01*
X125967341Y-56179270D01*
X126441129Y-56495845D01*
X127000000Y-56607011D01*
X127558871Y-56495845D01*
X128032659Y-56179270D01*
X128270000Y-55824064D01*
X128507341Y-56179270D01*
X128981129Y-56495845D01*
X129540000Y-56607011D01*
X130098871Y-56495845D01*
X130572659Y-56179270D01*
X130810000Y-55824064D01*
X131047341Y-56179270D01*
X131521129Y-56495845D01*
X132080000Y-56607011D01*
X132638871Y-56495845D01*
X133112659Y-56179270D01*
X133429234Y-55705482D01*
X133540400Y-55146611D01*
X133540400Y-55089389D01*
X133429234Y-54530518D01*
X133112659Y-54056730D01*
X132638871Y-53740155D01*
X132080000Y-53628989D01*
X131521129Y-53740155D01*
X131047341Y-54056730D01*
X130810000Y-54411936D01*
X130572659Y-54056730D01*
X130098871Y-53740155D01*
X129540000Y-53628989D01*
X128981129Y-53740155D01*
X128507341Y-54056730D01*
X128270000Y-54411936D01*
X128032659Y-54056730D01*
X127558871Y-53740155D01*
X127000000Y-53628989D01*
X126441129Y-53740155D01*
X125967341Y-54056730D01*
X125730000Y-54411936D01*
X125492659Y-54056730D01*
X125018871Y-53740155D01*
X124460000Y-53628989D01*
X123901129Y-53740155D01*
X123427341Y-54056730D01*
X123179804Y-54427196D01*
X123109099Y-54270159D01*
X122694130Y-53879649D01*
X122248253Y-53694968D01*
X122021600Y-53826691D01*
X121818400Y-53826691D01*
X121591747Y-53694968D01*
X121145870Y-53879649D01*
X120730901Y-54270159D01*
X120660196Y-54427196D01*
X120412659Y-54056730D01*
X119938871Y-53740155D01*
X119380000Y-53628989D01*
X118821129Y-53740155D01*
X118347341Y-54056730D01*
X118110000Y-54411936D01*
X117872659Y-54056730D01*
X117398871Y-53740155D01*
X116840000Y-53628989D01*
X116281129Y-53740155D01*
X115807341Y-54056730D01*
X115570000Y-54411936D01*
X115332659Y-54056730D01*
X114858871Y-53740155D01*
X114300000Y-53628989D01*
X113741129Y-53740155D01*
X113267341Y-54056730D01*
X112950766Y-54530518D01*
X112839600Y-55089389D01*
X99212400Y-55089389D01*
X99212400Y-52517649D01*
X100863208Y-52517649D01*
X101206609Y-53348741D01*
X101841914Y-53985157D01*
X102672406Y-54330007D01*
X103571649Y-54330792D01*
X104402741Y-53987391D01*
X105039157Y-53352086D01*
X105295933Y-52733700D01*
X105572512Y-53147631D01*
X106066933Y-53477992D01*
X106650143Y-53594000D01*
X106709857Y-53594000D01*
X107293067Y-53477992D01*
X107787488Y-53147631D01*
X107950000Y-52904414D01*
X108112512Y-53147631D01*
X108606933Y-53477992D01*
X109190143Y-53594000D01*
X109249857Y-53594000D01*
X109833067Y-53477992D01*
X110327488Y-53147631D01*
X110490000Y-52904414D01*
X110652512Y-53147631D01*
X111146933Y-53477992D01*
X111730143Y-53594000D01*
X111789857Y-53594000D01*
X112373067Y-53477992D01*
X112867488Y-53147631D01*
X113030692Y-52903379D01*
X113418852Y-53313453D01*
X113961774Y-53556002D01*
X114198400Y-53425517D01*
X114198400Y-52171600D01*
X114178400Y-52171600D01*
X114178400Y-51968400D01*
X114198400Y-51968400D01*
X114198400Y-50714483D01*
X114401600Y-50714483D01*
X114401600Y-51968400D01*
X114421600Y-51968400D01*
X114421600Y-52171600D01*
X114401600Y-52171600D01*
X114401600Y-53425517D01*
X114638226Y-53556002D01*
X115181148Y-53313453D01*
X115569308Y-52903379D01*
X115732512Y-53147631D01*
X116226933Y-53477992D01*
X116810143Y-53594000D01*
X116869857Y-53594000D01*
X117453067Y-53477992D01*
X117947488Y-53147631D01*
X118110000Y-52904414D01*
X118272512Y-53147631D01*
X118766933Y-53477992D01*
X119350143Y-53594000D01*
X119409857Y-53594000D01*
X119993067Y-53477992D01*
X120487488Y-53147631D01*
X120650000Y-52904414D01*
X120812512Y-53147631D01*
X121306933Y-53477992D01*
X121890143Y-53594000D01*
X121949857Y-53594000D01*
X122533067Y-53477992D01*
X123027488Y-53147631D01*
X123190000Y-52904414D01*
X123352512Y-53147631D01*
X123846933Y-53477992D01*
X124430143Y-53594000D01*
X124489857Y-53594000D01*
X125073067Y-53477992D01*
X125567488Y-53147631D01*
X125730000Y-52904414D01*
X125892512Y-53147631D01*
X126386933Y-53477992D01*
X126970143Y-53594000D01*
X127029857Y-53594000D01*
X127613067Y-53477992D01*
X128107488Y-53147631D01*
X128270000Y-52904414D01*
X128432512Y-53147631D01*
X128926933Y-53477992D01*
X129510143Y-53594000D01*
X129569857Y-53594000D01*
X130153067Y-53477992D01*
X130647488Y-53147631D01*
X130977849Y-52653210D01*
X131093857Y-52070000D01*
X132050143Y-52070000D01*
X132166151Y-52653210D01*
X132496512Y-53147631D01*
X132990933Y-53477992D01*
X133574143Y-53594000D01*
X133633857Y-53594000D01*
X134217067Y-53477992D01*
X134711488Y-53147631D01*
X134874000Y-52904414D01*
X135036512Y-53147631D01*
X135530933Y-53477992D01*
X136114143Y-53594000D01*
X136173857Y-53594000D01*
X136757067Y-53477992D01*
X137251488Y-53147631D01*
X137414000Y-52904414D01*
X137576512Y-53147631D01*
X138070933Y-53477992D01*
X138654143Y-53594000D01*
X138713857Y-53594000D01*
X139297067Y-53477992D01*
X139791488Y-53147631D01*
X139954000Y-52904414D01*
X140116512Y-53147631D01*
X140610933Y-53477992D01*
X141194143Y-53594000D01*
X141253857Y-53594000D01*
X141837067Y-53477992D01*
X142331488Y-53147631D01*
X142494000Y-52904414D01*
X142656512Y-53147631D01*
X143150933Y-53477992D01*
X143734143Y-53594000D01*
X143793857Y-53594000D01*
X144377067Y-53477992D01*
X144871488Y-53147631D01*
X145034000Y-52904414D01*
X145196512Y-53147631D01*
X145690933Y-53477992D01*
X146274143Y-53594000D01*
X146333857Y-53594000D01*
X146917067Y-53477992D01*
X147411488Y-53147631D01*
X147574000Y-52904414D01*
X147736512Y-53147631D01*
X148230933Y-53477992D01*
X148814143Y-53594000D01*
X148873857Y-53594000D01*
X149457067Y-53477992D01*
X149951488Y-53147631D01*
X150114000Y-52904414D01*
X150276512Y-53147631D01*
X150770933Y-53477992D01*
X151354143Y-53594000D01*
X151413857Y-53594000D01*
X151997067Y-53477992D01*
X152491488Y-53147631D01*
X152821849Y-52653210D01*
X152937857Y-52070000D01*
X152821849Y-51486790D01*
X152491488Y-50992369D01*
X151997067Y-50662008D01*
X151413857Y-50546000D01*
X151354143Y-50546000D01*
X150770933Y-50662008D01*
X150276512Y-50992369D01*
X150114000Y-51235586D01*
X149951488Y-50992369D01*
X149457067Y-50662008D01*
X148873857Y-50546000D01*
X148814143Y-50546000D01*
X148230933Y-50662008D01*
X147736512Y-50992369D01*
X147574000Y-51235586D01*
X147411488Y-50992369D01*
X146917067Y-50662008D01*
X146333857Y-50546000D01*
X146274143Y-50546000D01*
X145690933Y-50662008D01*
X145196512Y-50992369D01*
X145034000Y-51235586D01*
X144871488Y-50992369D01*
X144377067Y-50662008D01*
X143793857Y-50546000D01*
X143734143Y-50546000D01*
X143150933Y-50662008D01*
X142656512Y-50992369D01*
X142494000Y-51235586D01*
X142331488Y-50992369D01*
X141837067Y-50662008D01*
X141253857Y-50546000D01*
X141194143Y-50546000D01*
X140610933Y-50662008D01*
X140116512Y-50992369D01*
X139954000Y-51235586D01*
X139791488Y-50992369D01*
X139297067Y-50662008D01*
X138713857Y-50546000D01*
X138654143Y-50546000D01*
X138070933Y-50662008D01*
X137576512Y-50992369D01*
X137414000Y-51235586D01*
X137251488Y-50992369D01*
X136757067Y-50662008D01*
X136173857Y-50546000D01*
X136114143Y-50546000D01*
X135530933Y-50662008D01*
X135036512Y-50992369D01*
X134874000Y-51235586D01*
X134711488Y-50992369D01*
X134217067Y-50662008D01*
X133633857Y-50546000D01*
X133574143Y-50546000D01*
X132990933Y-50662008D01*
X132496512Y-50992369D01*
X132166151Y-51486790D01*
X132050143Y-52070000D01*
X131093857Y-52070000D01*
X130977849Y-51486790D01*
X130647488Y-50992369D01*
X130153067Y-50662008D01*
X129569857Y-50546000D01*
X129510143Y-50546000D01*
X128926933Y-50662008D01*
X128432512Y-50992369D01*
X128270000Y-51235586D01*
X128107488Y-50992369D01*
X127613067Y-50662008D01*
X127029857Y-50546000D01*
X126970143Y-50546000D01*
X126386933Y-50662008D01*
X125892512Y-50992369D01*
X125730000Y-51235586D01*
X125567488Y-50992369D01*
X125073067Y-50662008D01*
X124489857Y-50546000D01*
X124430143Y-50546000D01*
X123846933Y-50662008D01*
X123352512Y-50992369D01*
X123190000Y-51235586D01*
X123027488Y-50992369D01*
X122533067Y-50662008D01*
X121949857Y-50546000D01*
X121890143Y-50546000D01*
X121306933Y-50662008D01*
X120812512Y-50992369D01*
X120650000Y-51235586D01*
X120487488Y-50992369D01*
X119993067Y-50662008D01*
X119409857Y-50546000D01*
X119350143Y-50546000D01*
X118766933Y-50662008D01*
X118272512Y-50992369D01*
X118110000Y-51235586D01*
X117947488Y-50992369D01*
X117453067Y-50662008D01*
X116869857Y-50546000D01*
X116810143Y-50546000D01*
X116226933Y-50662008D01*
X115732512Y-50992369D01*
X115569308Y-51236621D01*
X115181148Y-50826547D01*
X114638226Y-50583998D01*
X114401600Y-50714483D01*
X114198400Y-50714483D01*
X113961774Y-50583998D01*
X113418852Y-50826547D01*
X113030692Y-51236621D01*
X112867488Y-50992369D01*
X112373067Y-50662008D01*
X111789857Y-50546000D01*
X111730143Y-50546000D01*
X111146933Y-50662008D01*
X110652512Y-50992369D01*
X110490000Y-51235586D01*
X110327488Y-50992369D01*
X109833067Y-50662008D01*
X109249857Y-50546000D01*
X109190143Y-50546000D01*
X108606933Y-50662008D01*
X108112512Y-50992369D01*
X107950000Y-51235586D01*
X107787488Y-50992369D01*
X107293067Y-50662008D01*
X106709857Y-50546000D01*
X106650143Y-50546000D01*
X106066933Y-50662008D01*
X105572512Y-50992369D01*
X105295678Y-51406680D01*
X105041391Y-50791259D01*
X104406086Y-50154843D01*
X103575594Y-49809993D01*
X102676351Y-49809208D01*
X101845259Y-50152609D01*
X101208843Y-50787914D01*
X100863993Y-51618406D01*
X100863208Y-52517649D01*
X99212400Y-52517649D01*
X99212400Y-48995400D01*
X155502568Y-48995400D01*
X156017074Y-49097741D01*
X156017074Y-49097741D01*
G37*
X156017074Y-49097741D02*
X156391844Y-49348156D01*
X156642259Y-49722926D01*
X156744600Y-50237432D01*
X156744600Y-102162568D01*
X156642259Y-102677074D01*
X156391844Y-103051844D01*
X156017074Y-103302259D01*
X155502568Y-103404600D01*
X85797432Y-103404600D01*
X85282926Y-103302259D01*
X84908156Y-103051844D01*
X84657741Y-102677074D01*
X84555400Y-102162568D01*
X84555400Y-100330000D01*
X114270143Y-100330000D01*
X114386151Y-100913210D01*
X114716512Y-101407631D01*
X115210933Y-101737992D01*
X115794143Y-101854000D01*
X115853857Y-101854000D01*
X116437067Y-101737992D01*
X116931488Y-101407631D01*
X117094000Y-101164414D01*
X117256512Y-101407631D01*
X117750933Y-101737992D01*
X118334143Y-101854000D01*
X118393857Y-101854000D01*
X118977067Y-101737992D01*
X119471488Y-101407631D01*
X119634000Y-101164414D01*
X119796512Y-101407631D01*
X120290933Y-101737992D01*
X120874143Y-101854000D01*
X120933857Y-101854000D01*
X121517067Y-101737992D01*
X122011488Y-101407631D01*
X122174000Y-101164414D01*
X122336512Y-101407631D01*
X122830933Y-101737992D01*
X123414143Y-101854000D01*
X123473857Y-101854000D01*
X124057067Y-101737992D01*
X124551488Y-101407631D01*
X124714000Y-101164414D01*
X124876512Y-101407631D01*
X125370933Y-101737992D01*
X125954143Y-101854000D01*
X126013857Y-101854000D01*
X126597067Y-101737992D01*
X127091488Y-101407631D01*
X127254692Y-101163379D01*
X127642852Y-101573453D01*
X128185774Y-101816002D01*
X128422400Y-101685517D01*
X128422400Y-100431600D01*
X128625600Y-100431600D01*
X128625600Y-101685517D01*
X128862226Y-101816002D01*
X129405148Y-101573453D01*
X129794000Y-101162648D01*
X130182852Y-101573453D01*
X130725774Y-101816002D01*
X130962400Y-101685517D01*
X130962400Y-100431600D01*
X128625600Y-100431600D01*
X128422400Y-100431600D01*
X128402400Y-100431600D01*
X128402400Y-100228400D01*
X128422400Y-100228400D01*
X128422400Y-98974483D01*
X128625600Y-98974483D01*
X128625600Y-100228400D01*
X130962400Y-100228400D01*
X130962400Y-98974483D01*
X131165600Y-98974483D01*
X131165600Y-100228400D01*
X131185600Y-100228400D01*
X131185600Y-100431600D01*
X131165600Y-100431600D01*
X131165600Y-101685517D01*
X131402226Y-101816002D01*
X131945148Y-101573453D01*
X132333308Y-101163379D01*
X132496512Y-101407631D01*
X132990933Y-101737992D01*
X133574143Y-101854000D01*
X133633857Y-101854000D01*
X134217067Y-101737992D01*
X134711488Y-101407631D01*
X135041849Y-100913210D01*
X135157857Y-100330000D01*
X137130143Y-100330000D01*
X137246151Y-100913210D01*
X137576512Y-101407631D01*
X138070933Y-101737992D01*
X138654143Y-101854000D01*
X138713857Y-101854000D01*
X139297067Y-101737992D01*
X139791488Y-101407631D01*
X139954000Y-101164414D01*
X140116512Y-101407631D01*
X140610933Y-101737992D01*
X141194143Y-101854000D01*
X141253857Y-101854000D01*
X141837067Y-101737992D01*
X142331488Y-101407631D01*
X142494000Y-101164414D01*
X142656512Y-101407631D01*
X143150933Y-101737992D01*
X143734143Y-101854000D01*
X143793857Y-101854000D01*
X144377067Y-101737992D01*
X144871488Y-101407631D01*
X145034000Y-101164414D01*
X145196512Y-101407631D01*
X145690933Y-101737992D01*
X146274143Y-101854000D01*
X146333857Y-101854000D01*
X146917067Y-101737992D01*
X147411488Y-101407631D01*
X147574000Y-101164414D01*
X147736512Y-101407631D01*
X148230933Y-101737992D01*
X148814143Y-101854000D01*
X148873857Y-101854000D01*
X149457067Y-101737992D01*
X149951488Y-101407631D01*
X150114000Y-101164414D01*
X150276512Y-101407631D01*
X150770933Y-101737992D01*
X151354143Y-101854000D01*
X151413857Y-101854000D01*
X151997067Y-101737992D01*
X152491488Y-101407631D01*
X152821849Y-100913210D01*
X152937857Y-100330000D01*
X152821849Y-99746790D01*
X152491488Y-99252369D01*
X151997067Y-98922008D01*
X151413857Y-98806000D01*
X151354143Y-98806000D01*
X150770933Y-98922008D01*
X150276512Y-99252369D01*
X150114000Y-99495586D01*
X149951488Y-99252369D01*
X149457067Y-98922008D01*
X148873857Y-98806000D01*
X148814143Y-98806000D01*
X148230933Y-98922008D01*
X147736512Y-99252369D01*
X147574000Y-99495586D01*
X147411488Y-99252369D01*
X146917067Y-98922008D01*
X146333857Y-98806000D01*
X146274143Y-98806000D01*
X145690933Y-98922008D01*
X145196512Y-99252369D01*
X145034000Y-99495586D01*
X144871488Y-99252369D01*
X144377067Y-98922008D01*
X143793857Y-98806000D01*
X143734143Y-98806000D01*
X143150933Y-98922008D01*
X142656512Y-99252369D01*
X142494000Y-99495586D01*
X142331488Y-99252369D01*
X141837067Y-98922008D01*
X141253857Y-98806000D01*
X141194143Y-98806000D01*
X140610933Y-98922008D01*
X140116512Y-99252369D01*
X139954000Y-99495586D01*
X139791488Y-99252369D01*
X139297067Y-98922008D01*
X138713857Y-98806000D01*
X138654143Y-98806000D01*
X138070933Y-98922008D01*
X137576512Y-99252369D01*
X137246151Y-99746790D01*
X137130143Y-100330000D01*
X135157857Y-100330000D01*
X135041849Y-99746790D01*
X134711488Y-99252369D01*
X134217067Y-98922008D01*
X133633857Y-98806000D01*
X133574143Y-98806000D01*
X132990933Y-98922008D01*
X132496512Y-99252369D01*
X132333308Y-99496621D01*
X131945148Y-99086547D01*
X131402226Y-98843998D01*
X131165600Y-98974483D01*
X130962400Y-98974483D01*
X130725774Y-98843998D01*
X130182852Y-99086547D01*
X129794000Y-99497352D01*
X129405148Y-99086547D01*
X128862226Y-98843998D01*
X128625600Y-98974483D01*
X128422400Y-98974483D01*
X128185774Y-98843998D01*
X127642852Y-99086547D01*
X127254692Y-99496621D01*
X127091488Y-99252369D01*
X126597067Y-98922008D01*
X126013857Y-98806000D01*
X125954143Y-98806000D01*
X125370933Y-98922008D01*
X124876512Y-99252369D01*
X124714000Y-99495586D01*
X124551488Y-99252369D01*
X124057067Y-98922008D01*
X123473857Y-98806000D01*
X123414143Y-98806000D01*
X122830933Y-98922008D01*
X122336512Y-99252369D01*
X122174000Y-99495586D01*
X122011488Y-99252369D01*
X121517067Y-98922008D01*
X120933857Y-98806000D01*
X120874143Y-98806000D01*
X120290933Y-98922008D01*
X119796512Y-99252369D01*
X119634000Y-99495586D01*
X119471488Y-99252369D01*
X118977067Y-98922008D01*
X118393857Y-98806000D01*
X118334143Y-98806000D01*
X117750933Y-98922008D01*
X117256512Y-99252369D01*
X117094000Y-99495586D01*
X116931488Y-99252369D01*
X116437067Y-98922008D01*
X115853857Y-98806000D01*
X115794143Y-98806000D01*
X115210933Y-98922008D01*
X114716512Y-99252369D01*
X114386151Y-99746790D01*
X114270143Y-100330000D01*
X84555400Y-100330000D01*
X84555400Y-98450400D01*
X147320000Y-98450400D01*
X147379292Y-98438393D01*
X147429242Y-98404264D01*
X147461977Y-98353391D01*
X147472400Y-98298000D01*
X147472400Y-95697649D01*
X151663208Y-95697649D01*
X152006609Y-96528741D01*
X152641914Y-97165157D01*
X153472406Y-97510007D01*
X154371649Y-97510792D01*
X155202741Y-97167391D01*
X155839157Y-96532086D01*
X156184007Y-95701594D01*
X156184792Y-94802351D01*
X155841391Y-93971259D01*
X155206086Y-93334843D01*
X154375594Y-92989993D01*
X153476351Y-92989208D01*
X152645259Y-93332609D01*
X152008843Y-93967914D01*
X151663993Y-94798406D01*
X151663208Y-95697649D01*
X147472400Y-95697649D01*
X147472400Y-75438000D01*
X147460393Y-75378708D01*
X147426264Y-75328758D01*
X147375391Y-75296023D01*
X147320000Y-75285600D01*
X99212400Y-75285600D01*
X99212400Y-72234389D01*
X100139600Y-72234389D01*
X100139600Y-72291611D01*
X100250766Y-72850482D01*
X100567341Y-73324270D01*
X101041129Y-73640845D01*
X101600000Y-73752011D01*
X102158871Y-73640845D01*
X102632659Y-73324270D01*
X102880196Y-72953804D01*
X102950901Y-73110841D01*
X103365870Y-73501351D01*
X103811747Y-73686032D01*
X104038400Y-73554309D01*
X104038400Y-72364600D01*
X104241600Y-72364600D01*
X104241600Y-73554309D01*
X104468253Y-73686032D01*
X104914130Y-73501351D01*
X105329099Y-73110841D01*
X105410000Y-72931158D01*
X105490901Y-73110841D01*
X105905870Y-73501351D01*
X106351747Y-73686032D01*
X106578400Y-73554309D01*
X106578400Y-72364600D01*
X104241600Y-72364600D01*
X104038400Y-72364600D01*
X104018400Y-72364600D01*
X104018400Y-72161400D01*
X104038400Y-72161400D01*
X104038400Y-70971691D01*
X104241600Y-70971691D01*
X104241600Y-72161400D01*
X106578400Y-72161400D01*
X106578400Y-70971691D01*
X106781600Y-70971691D01*
X106781600Y-72161400D01*
X106801600Y-72161400D01*
X106801600Y-72364600D01*
X106781600Y-72364600D01*
X106781600Y-73554309D01*
X107008253Y-73686032D01*
X107454130Y-73501351D01*
X107772728Y-73201531D01*
X107792711Y-73307730D01*
X107937346Y-73532499D01*
X108158034Y-73683288D01*
X108420000Y-73736338D01*
X110020000Y-73736338D01*
X110264730Y-73690289D01*
X110489499Y-73545654D01*
X110640288Y-73324966D01*
X110693338Y-73063000D01*
X110693338Y-72234389D01*
X111569600Y-72234389D01*
X111569600Y-72291611D01*
X111680766Y-72850482D01*
X111997341Y-73324270D01*
X112471129Y-73640845D01*
X113030000Y-73752011D01*
X113588871Y-73640845D01*
X114062659Y-73324270D01*
X114310196Y-72953804D01*
X114380901Y-73110841D01*
X114795870Y-73501351D01*
X115241747Y-73686032D01*
X115468400Y-73554309D01*
X115468400Y-72364600D01*
X115671600Y-72364600D01*
X115671600Y-73554309D01*
X115898253Y-73686032D01*
X116344130Y-73501351D01*
X116759099Y-73110841D01*
X116840000Y-72931158D01*
X116920901Y-73110841D01*
X117335870Y-73501351D01*
X117781747Y-73686032D01*
X118008400Y-73554309D01*
X118008400Y-72364600D01*
X115671600Y-72364600D01*
X115468400Y-72364600D01*
X115448400Y-72364600D01*
X115448400Y-72161400D01*
X115468400Y-72161400D01*
X115468400Y-70971691D01*
X115671600Y-70971691D01*
X115671600Y-72161400D01*
X118008400Y-72161400D01*
X118008400Y-70971691D01*
X118211600Y-70971691D01*
X118211600Y-72161400D01*
X118231600Y-72161400D01*
X118231600Y-72364600D01*
X118211600Y-72364600D01*
X118211600Y-73554309D01*
X118438253Y-73686032D01*
X118884130Y-73501351D01*
X119202728Y-73201531D01*
X119222711Y-73307730D01*
X119367346Y-73532499D01*
X119588034Y-73683288D01*
X119850000Y-73736338D01*
X121450000Y-73736338D01*
X121694730Y-73690289D01*
X121919499Y-73545654D01*
X122070288Y-73324966D01*
X122123338Y-73063000D01*
X122123338Y-72234389D01*
X122999600Y-72234389D01*
X122999600Y-72291611D01*
X123110766Y-72850482D01*
X123427341Y-73324270D01*
X123901129Y-73640845D01*
X124460000Y-73752011D01*
X125018871Y-73640845D01*
X125492659Y-73324270D01*
X125740196Y-72953804D01*
X125810901Y-73110841D01*
X126225870Y-73501351D01*
X126671747Y-73686032D01*
X126898400Y-73554309D01*
X126898400Y-72364600D01*
X127101600Y-72364600D01*
X127101600Y-73554309D01*
X127328253Y-73686032D01*
X127774130Y-73501351D01*
X128189099Y-73110841D01*
X128270000Y-72931158D01*
X128350901Y-73110841D01*
X128765870Y-73501351D01*
X129211747Y-73686032D01*
X129438400Y-73554309D01*
X129438400Y-72364600D01*
X127101600Y-72364600D01*
X126898400Y-72364600D01*
X126878400Y-72364600D01*
X126878400Y-72161400D01*
X126898400Y-72161400D01*
X126898400Y-70971691D01*
X127101600Y-70971691D01*
X127101600Y-72161400D01*
X129438400Y-72161400D01*
X129438400Y-70971691D01*
X129641600Y-70971691D01*
X129641600Y-72161400D01*
X129661600Y-72161400D01*
X129661600Y-72364600D01*
X129641600Y-72364600D01*
X129641600Y-73554309D01*
X129868253Y-73686032D01*
X130314130Y-73501351D01*
X130632728Y-73201531D01*
X130652711Y-73307730D01*
X130797346Y-73532499D01*
X131018034Y-73683288D01*
X131280000Y-73736338D01*
X132880000Y-73736338D01*
X133124730Y-73690289D01*
X133349499Y-73545654D01*
X133500288Y-73324966D01*
X133553338Y-73063000D01*
X133553338Y-72234389D01*
X134429600Y-72234389D01*
X134429600Y-72291611D01*
X134540766Y-72850482D01*
X134857341Y-73324270D01*
X135331129Y-73640845D01*
X135890000Y-73752011D01*
X136448871Y-73640845D01*
X136922659Y-73324270D01*
X137170196Y-72953804D01*
X137240901Y-73110841D01*
X137655870Y-73501351D01*
X138101747Y-73686032D01*
X138328400Y-73554309D01*
X138328400Y-72364600D01*
X138531600Y-72364600D01*
X138531600Y-73554309D01*
X138758253Y-73686032D01*
X139204130Y-73501351D01*
X139619099Y-73110841D01*
X139700000Y-72931158D01*
X139780901Y-73110841D01*
X140195870Y-73501351D01*
X140641747Y-73686032D01*
X140868400Y-73554309D01*
X140868400Y-72364600D01*
X138531600Y-72364600D01*
X138328400Y-72364600D01*
X138308400Y-72364600D01*
X138308400Y-72161400D01*
X138328400Y-72161400D01*
X138328400Y-70971691D01*
X138531600Y-70971691D01*
X138531600Y-72161400D01*
X140868400Y-72161400D01*
X140868400Y-70971691D01*
X141071600Y-70971691D01*
X141071600Y-72161400D01*
X141091600Y-72161400D01*
X141091600Y-72364600D01*
X141071600Y-72364600D01*
X141071600Y-73554309D01*
X141298253Y-73686032D01*
X141744130Y-73501351D01*
X142062728Y-73201531D01*
X142082711Y-73307730D01*
X142227346Y-73532499D01*
X142448034Y-73683288D01*
X142710000Y-73736338D01*
X144310000Y-73736338D01*
X144554730Y-73690289D01*
X144779499Y-73545654D01*
X144930288Y-73324966D01*
X144983338Y-73063000D01*
X144983338Y-71463000D01*
X144937289Y-71218270D01*
X144792654Y-70993501D01*
X144571966Y-70842712D01*
X144310000Y-70789662D01*
X142710000Y-70789662D01*
X142465270Y-70835711D01*
X142240501Y-70980346D01*
X142089712Y-71201034D01*
X142064398Y-71326039D01*
X141744130Y-71024649D01*
X141298253Y-70839968D01*
X141071600Y-70971691D01*
X140868400Y-70971691D01*
X140641747Y-70839968D01*
X140195870Y-71024649D01*
X139780901Y-71415159D01*
X139700000Y-71594842D01*
X139619099Y-71415159D01*
X139204130Y-71024649D01*
X138758253Y-70839968D01*
X138531600Y-70971691D01*
X138328400Y-70971691D01*
X138101747Y-70839968D01*
X137655870Y-71024649D01*
X137240901Y-71415159D01*
X137170196Y-71572196D01*
X136922659Y-71201730D01*
X136448871Y-70885155D01*
X135890000Y-70773989D01*
X135331129Y-70885155D01*
X134857341Y-71201730D01*
X134540766Y-71675518D01*
X134429600Y-72234389D01*
X133553338Y-72234389D01*
X133553338Y-71463000D01*
X133507289Y-71218270D01*
X133362654Y-70993501D01*
X133141966Y-70842712D01*
X132880000Y-70789662D01*
X131280000Y-70789662D01*
X131035270Y-70835711D01*
X130810501Y-70980346D01*
X130659712Y-71201034D01*
X130634398Y-71326039D01*
X130314130Y-71024649D01*
X129868253Y-70839968D01*
X129641600Y-70971691D01*
X129438400Y-70971691D01*
X129211747Y-70839968D01*
X128765870Y-71024649D01*
X128350901Y-71415159D01*
X128270000Y-71594842D01*
X128189099Y-71415159D01*
X127774130Y-71024649D01*
X127328253Y-70839968D01*
X127101600Y-70971691D01*
X126898400Y-70971691D01*
X126671747Y-70839968D01*
X126225870Y-71024649D01*
X125810901Y-71415159D01*
X125740196Y-71572196D01*
X125492659Y-71201730D01*
X125018871Y-70885155D01*
X124460000Y-70773989D01*
X123901129Y-70885155D01*
X123427341Y-71201730D01*
X123110766Y-71675518D01*
X122999600Y-72234389D01*
X122123338Y-72234389D01*
X122123338Y-71463000D01*
X122077289Y-71218270D01*
X121932654Y-70993501D01*
X121711966Y-70842712D01*
X121450000Y-70789662D01*
X119850000Y-70789662D01*
X119605270Y-70835711D01*
X119380501Y-70980346D01*
X119229712Y-71201034D01*
X119204398Y-71326039D01*
X118884130Y-71024649D01*
X118438253Y-70839968D01*
X118211600Y-70971691D01*
X118008400Y-70971691D01*
X117781747Y-70839968D01*
X117335870Y-71024649D01*
X116920901Y-71415159D01*
X116840000Y-71594842D01*
X116759099Y-71415159D01*
X116344130Y-71024649D01*
X115898253Y-70839968D01*
X115671600Y-70971691D01*
X115468400Y-70971691D01*
X115241747Y-70839968D01*
X114795870Y-71024649D01*
X114380901Y-71415159D01*
X114310196Y-71572196D01*
X114062659Y-71201730D01*
X113588871Y-70885155D01*
X113030000Y-70773989D01*
X112471129Y-70885155D01*
X111997341Y-71201730D01*
X111680766Y-71675518D01*
X111569600Y-72234389D01*
X110693338Y-72234389D01*
X110693338Y-71463000D01*
X110647289Y-71218270D01*
X110502654Y-70993501D01*
X110281966Y-70842712D01*
X110020000Y-70789662D01*
X108420000Y-70789662D01*
X108175270Y-70835711D01*
X107950501Y-70980346D01*
X107799712Y-71201034D01*
X107774398Y-71326039D01*
X107454130Y-71024649D01*
X107008253Y-70839968D01*
X106781600Y-70971691D01*
X106578400Y-70971691D01*
X106351747Y-70839968D01*
X105905870Y-71024649D01*
X105490901Y-71415159D01*
X105410000Y-71594842D01*
X105329099Y-71415159D01*
X104914130Y-71024649D01*
X104468253Y-70839968D01*
X104241600Y-70971691D01*
X104038400Y-70971691D01*
X103811747Y-70839968D01*
X103365870Y-71024649D01*
X102950901Y-71415159D01*
X102880196Y-71572196D01*
X102632659Y-71201730D01*
X102158871Y-70885155D01*
X101600000Y-70773989D01*
X101041129Y-70885155D01*
X100567341Y-71201730D01*
X100250766Y-71675518D01*
X100139600Y-72234389D01*
X99212400Y-72234389D01*
X99212400Y-62709389D01*
X112839600Y-62709389D01*
X112839600Y-62766611D01*
X112950766Y-63325482D01*
X113267341Y-63799270D01*
X113741129Y-64115845D01*
X114300000Y-64227011D01*
X114858871Y-64115845D01*
X115332659Y-63799270D01*
X115570000Y-63444064D01*
X115807341Y-63799270D01*
X116281129Y-64115845D01*
X116840000Y-64227011D01*
X117398871Y-64115845D01*
X117872659Y-63799270D01*
X118110000Y-63444064D01*
X118347341Y-63799270D01*
X118821129Y-64115845D01*
X119380000Y-64227011D01*
X119938871Y-64115845D01*
X120412659Y-63799270D01*
X120650000Y-63444064D01*
X120887341Y-63799270D01*
X121361129Y-64115845D01*
X121920000Y-64227011D01*
X122478871Y-64115845D01*
X122952659Y-63799270D01*
X123190000Y-63444064D01*
X123427341Y-63799270D01*
X123901129Y-64115845D01*
X124460000Y-64227011D01*
X125018871Y-64115845D01*
X125492659Y-63799270D01*
X125730000Y-63444064D01*
X125967341Y-63799270D01*
X126441129Y-64115845D01*
X127000000Y-64227011D01*
X127558871Y-64115845D01*
X128032659Y-63799270D01*
X128270000Y-63444064D01*
X128507341Y-63799270D01*
X128981129Y-64115845D01*
X129540000Y-64227011D01*
X130098871Y-64115845D01*
X130572659Y-63799270D01*
X130820196Y-63428804D01*
X130890901Y-63585841D01*
X131305870Y-63976351D01*
X131751747Y-64161032D01*
X131978400Y-64029309D01*
X131978400Y-62839600D01*
X132181600Y-62839600D01*
X132181600Y-64029309D01*
X132408253Y-64161032D01*
X132854130Y-63976351D01*
X133269099Y-63585841D01*
X133503039Y-63066254D01*
X133371769Y-62839600D01*
X132181600Y-62839600D01*
X131978400Y-62839600D01*
X131958400Y-62839600D01*
X131958400Y-62636400D01*
X131978400Y-62636400D01*
X131978400Y-61446691D01*
X132181600Y-61446691D01*
X132181600Y-62636400D01*
X133371769Y-62636400D01*
X133503039Y-62409746D01*
X133269099Y-61890159D01*
X132854130Y-61499649D01*
X132408253Y-61314968D01*
X132181600Y-61446691D01*
X131978400Y-61446691D01*
X131751747Y-61314968D01*
X131305870Y-61499649D01*
X130890901Y-61890159D01*
X130820196Y-62047196D01*
X130572659Y-61676730D01*
X130098871Y-61360155D01*
X129540000Y-61248989D01*
X128981129Y-61360155D01*
X128507341Y-61676730D01*
X128270000Y-62031936D01*
X128032659Y-61676730D01*
X127558871Y-61360155D01*
X127000000Y-61248989D01*
X126441129Y-61360155D01*
X125967341Y-61676730D01*
X125730000Y-62031936D01*
X125492659Y-61676730D01*
X125018871Y-61360155D01*
X124460000Y-61248989D01*
X123901129Y-61360155D01*
X123427341Y-61676730D01*
X123190000Y-62031936D01*
X122952659Y-61676730D01*
X122478871Y-61360155D01*
X121920000Y-61248989D01*
X121361129Y-61360155D01*
X120887341Y-61676730D01*
X120650000Y-62031936D01*
X120412659Y-61676730D01*
X119938871Y-61360155D01*
X119380000Y-61248989D01*
X118821129Y-61360155D01*
X118347341Y-61676730D01*
X118110000Y-62031936D01*
X117872659Y-61676730D01*
X117398871Y-61360155D01*
X116840000Y-61248989D01*
X116281129Y-61360155D01*
X115807341Y-61676730D01*
X115570000Y-62031936D01*
X115332659Y-61676730D01*
X114858871Y-61360155D01*
X114300000Y-61248989D01*
X113741129Y-61360155D01*
X113267341Y-61676730D01*
X112950766Y-62150518D01*
X112839600Y-62709389D01*
X99212400Y-62709389D01*
X99212400Y-55089389D01*
X112839600Y-55089389D01*
X112839600Y-55146611D01*
X112950766Y-55705482D01*
X113267341Y-56179270D01*
X113487200Y-56326175D01*
X113487200Y-57531000D01*
X113549071Y-57842045D01*
X113725264Y-58105736D01*
X116265263Y-60645736D01*
X116528955Y-60821929D01*
X116840000Y-60883800D01*
X135807328Y-60883800D01*
X149682200Y-74758673D01*
X149682200Y-81534662D01*
X149645000Y-81534662D01*
X149400270Y-81580711D01*
X149175501Y-81725346D01*
X149024712Y-81946034D01*
X148971662Y-82208000D01*
X148971662Y-83908000D01*
X149017711Y-84152730D01*
X149162346Y-84377499D01*
X149383034Y-84528288D01*
X149645000Y-84581338D01*
X151345000Y-84581338D01*
X151589730Y-84535289D01*
X151814499Y-84390654D01*
X151965288Y-84169966D01*
X151979679Y-84098904D01*
X152231411Y-84336897D01*
X152698907Y-84530532D01*
X152933400Y-84399458D01*
X152933400Y-83159600D01*
X153136600Y-83159600D01*
X153136600Y-84399458D01*
X153371093Y-84530532D01*
X153838589Y-84336897D01*
X154266832Y-83932027D01*
X154507540Y-83394094D01*
X154376887Y-83159600D01*
X153136600Y-83159600D01*
X152933400Y-83159600D01*
X152913400Y-83159600D01*
X152913400Y-82956400D01*
X152933400Y-82956400D01*
X152933400Y-81716542D01*
X153136600Y-81716542D01*
X153136600Y-82956400D01*
X154376887Y-82956400D01*
X154507540Y-82721906D01*
X154266832Y-82183973D01*
X153838589Y-81779103D01*
X153371093Y-81585468D01*
X153136600Y-81716542D01*
X152933400Y-81716542D01*
X152698907Y-81585468D01*
X152231411Y-81779103D01*
X151982003Y-82014898D01*
X151972289Y-81963270D01*
X151827654Y-81738501D01*
X151606966Y-81587712D01*
X151345000Y-81534662D01*
X151307800Y-81534662D01*
X151307800Y-74422000D01*
X151245929Y-74110955D01*
X151200237Y-74042572D01*
X151069737Y-73847264D01*
X144980122Y-67757649D01*
X151663208Y-67757649D01*
X152006609Y-68588741D01*
X152641914Y-69225157D01*
X153472406Y-69570007D01*
X154371649Y-69570792D01*
X155202741Y-69227391D01*
X155839157Y-68592086D01*
X156184007Y-67761594D01*
X156184792Y-66862351D01*
X155841391Y-66031259D01*
X155206086Y-65394843D01*
X154375594Y-65049993D01*
X153476351Y-65049208D01*
X152645259Y-65392609D01*
X152008843Y-66027914D01*
X151663993Y-66858406D01*
X151663208Y-67757649D01*
X144980122Y-67757649D01*
X136718736Y-59496264D01*
X136455045Y-59320071D01*
X136144000Y-59258200D01*
X117176673Y-59258200D01*
X115536473Y-57618000D01*
X145971662Y-57618000D01*
X145971662Y-58968000D01*
X146017711Y-59212730D01*
X146162346Y-59437499D01*
X146236232Y-59487983D01*
X146188563Y-59535569D01*
X145984832Y-60026207D01*
X145984369Y-60557462D01*
X146187243Y-61048455D01*
X146562569Y-61424437D01*
X147053207Y-61628168D01*
X147584462Y-61628631D01*
X148075455Y-61425757D01*
X148451437Y-61050431D01*
X148655168Y-60559793D01*
X148655631Y-60028538D01*
X148452757Y-59537545D01*
X148404536Y-59489239D01*
X148464499Y-59450654D01*
X148615288Y-59229966D01*
X148668338Y-58968000D01*
X148668338Y-57618000D01*
X148622289Y-57373270D01*
X148477654Y-57148501D01*
X148256966Y-56997712D01*
X147995000Y-56944662D01*
X146645000Y-56944662D01*
X146400270Y-56990711D01*
X146175501Y-57135346D01*
X146024712Y-57356034D01*
X145971662Y-57618000D01*
X115536473Y-57618000D01*
X115112800Y-57194328D01*
X115112800Y-56326175D01*
X115332659Y-56179270D01*
X115570000Y-55824064D01*
X115807341Y-56179270D01*
X116281129Y-56495845D01*
X116840000Y-56607011D01*
X117398871Y-56495845D01*
X117872659Y-56179270D01*
X118110000Y-55824064D01*
X118347341Y-56179270D01*
X118821129Y-56495845D01*
X119380000Y-56607011D01*
X119938871Y-56495845D01*
X120412659Y-56179270D01*
X120660196Y-55808804D01*
X120730901Y-55965841D01*
X121145870Y-56356351D01*
X121591747Y-56541032D01*
X121818400Y-56409309D01*
X121818400Y-55219600D01*
X121798400Y-55219600D01*
X121798400Y-55016400D01*
X121818400Y-55016400D01*
X121818400Y-53826691D01*
X122021600Y-53826691D01*
X122021600Y-55016400D01*
X122041600Y-55016400D01*
X122041600Y-55219600D01*
X122021600Y-55219600D01*
X122021600Y-56409309D01*
X122248253Y-56541032D01*
X122694130Y-56356351D01*
X123109099Y-55965841D01*
X123179804Y-55808804D01*
X123427341Y-56179270D01*
X123901129Y-56495845D01*
X124460000Y-56607011D01*
X125018871Y-56495845D01*
X125492659Y-56179270D01*
X125730000Y-55824064D01*
X125967341Y-56179270D01*
X126441129Y-56495845D01*
X127000000Y-56607011D01*
X127558871Y-56495845D01*
X128032659Y-56179270D01*
X128270000Y-55824064D01*
X128507341Y-56179270D01*
X128981129Y-56495845D01*
X129540000Y-56607011D01*
X130098871Y-56495845D01*
X130572659Y-56179270D01*
X130810000Y-55824064D01*
X131047341Y-56179270D01*
X131521129Y-56495845D01*
X132080000Y-56607011D01*
X132638871Y-56495845D01*
X133112659Y-56179270D01*
X133429234Y-55705482D01*
X133540400Y-55146611D01*
X133540400Y-55089389D01*
X133429234Y-54530518D01*
X133112659Y-54056730D01*
X132638871Y-53740155D01*
X132080000Y-53628989D01*
X131521129Y-53740155D01*
X131047341Y-54056730D01*
X130810000Y-54411936D01*
X130572659Y-54056730D01*
X130098871Y-53740155D01*
X129540000Y-53628989D01*
X128981129Y-53740155D01*
X128507341Y-54056730D01*
X128270000Y-54411936D01*
X128032659Y-54056730D01*
X127558871Y-53740155D01*
X127000000Y-53628989D01*
X126441129Y-53740155D01*
X125967341Y-54056730D01*
X125730000Y-54411936D01*
X125492659Y-54056730D01*
X125018871Y-53740155D01*
X124460000Y-53628989D01*
X123901129Y-53740155D01*
X123427341Y-54056730D01*
X123179804Y-54427196D01*
X123109099Y-54270159D01*
X122694130Y-53879649D01*
X122248253Y-53694968D01*
X122021600Y-53826691D01*
X121818400Y-53826691D01*
X121591747Y-53694968D01*
X121145870Y-53879649D01*
X120730901Y-54270159D01*
X120660196Y-54427196D01*
X120412659Y-54056730D01*
X119938871Y-53740155D01*
X119380000Y-53628989D01*
X118821129Y-53740155D01*
X118347341Y-54056730D01*
X118110000Y-54411936D01*
X117872659Y-54056730D01*
X117398871Y-53740155D01*
X116840000Y-53628989D01*
X116281129Y-53740155D01*
X115807341Y-54056730D01*
X115570000Y-54411936D01*
X115332659Y-54056730D01*
X114858871Y-53740155D01*
X114300000Y-53628989D01*
X113741129Y-53740155D01*
X113267341Y-54056730D01*
X112950766Y-54530518D01*
X112839600Y-55089389D01*
X99212400Y-55089389D01*
X99212400Y-52517649D01*
X100863208Y-52517649D01*
X101206609Y-53348741D01*
X101841914Y-53985157D01*
X102672406Y-54330007D01*
X103571649Y-54330792D01*
X104402741Y-53987391D01*
X105039157Y-53352086D01*
X105295933Y-52733700D01*
X105572512Y-53147631D01*
X106066933Y-53477992D01*
X106650143Y-53594000D01*
X106709857Y-53594000D01*
X107293067Y-53477992D01*
X107787488Y-53147631D01*
X107950000Y-52904414D01*
X108112512Y-53147631D01*
X108606933Y-53477992D01*
X109190143Y-53594000D01*
X109249857Y-53594000D01*
X109833067Y-53477992D01*
X110327488Y-53147631D01*
X110490000Y-52904414D01*
X110652512Y-53147631D01*
X111146933Y-53477992D01*
X111730143Y-53594000D01*
X111789857Y-53594000D01*
X112373067Y-53477992D01*
X112867488Y-53147631D01*
X113030692Y-52903379D01*
X113418852Y-53313453D01*
X113961774Y-53556002D01*
X114198400Y-53425517D01*
X114198400Y-52171600D01*
X114178400Y-52171600D01*
X114178400Y-51968400D01*
X114198400Y-51968400D01*
X114198400Y-50714483D01*
X114401600Y-50714483D01*
X114401600Y-51968400D01*
X114421600Y-51968400D01*
X114421600Y-52171600D01*
X114401600Y-52171600D01*
X114401600Y-53425517D01*
X114638226Y-53556002D01*
X115181148Y-53313453D01*
X115569308Y-52903379D01*
X115732512Y-53147631D01*
X116226933Y-53477992D01*
X116810143Y-53594000D01*
X116869857Y-53594000D01*
X117453067Y-53477992D01*
X117947488Y-53147631D01*
X118110000Y-52904414D01*
X118272512Y-53147631D01*
X118766933Y-53477992D01*
X119350143Y-53594000D01*
X119409857Y-53594000D01*
X119993067Y-53477992D01*
X120487488Y-53147631D01*
X120650000Y-52904414D01*
X120812512Y-53147631D01*
X121306933Y-53477992D01*
X121890143Y-53594000D01*
X121949857Y-53594000D01*
X122533067Y-53477992D01*
X123027488Y-53147631D01*
X123190000Y-52904414D01*
X123352512Y-53147631D01*
X123846933Y-53477992D01*
X124430143Y-53594000D01*
X124489857Y-53594000D01*
X125073067Y-53477992D01*
X125567488Y-53147631D01*
X125730000Y-52904414D01*
X125892512Y-53147631D01*
X126386933Y-53477992D01*
X126970143Y-53594000D01*
X127029857Y-53594000D01*
X127613067Y-53477992D01*
X128107488Y-53147631D01*
X128270000Y-52904414D01*
X128432512Y-53147631D01*
X128926933Y-53477992D01*
X129510143Y-53594000D01*
X129569857Y-53594000D01*
X130153067Y-53477992D01*
X130647488Y-53147631D01*
X130977849Y-52653210D01*
X131093857Y-52070000D01*
X132050143Y-52070000D01*
X132166151Y-52653210D01*
X132496512Y-53147631D01*
X132990933Y-53477992D01*
X133574143Y-53594000D01*
X133633857Y-53594000D01*
X134217067Y-53477992D01*
X134711488Y-53147631D01*
X134874000Y-52904414D01*
X135036512Y-53147631D01*
X135530933Y-53477992D01*
X136114143Y-53594000D01*
X136173857Y-53594000D01*
X136757067Y-53477992D01*
X137251488Y-53147631D01*
X137414000Y-52904414D01*
X137576512Y-53147631D01*
X138070933Y-53477992D01*
X138654143Y-53594000D01*
X138713857Y-53594000D01*
X139297067Y-53477992D01*
X139791488Y-53147631D01*
X139954000Y-52904414D01*
X140116512Y-53147631D01*
X140610933Y-53477992D01*
X141194143Y-53594000D01*
X141253857Y-53594000D01*
X141837067Y-53477992D01*
X142331488Y-53147631D01*
X142494000Y-52904414D01*
X142656512Y-53147631D01*
X143150933Y-53477992D01*
X143734143Y-53594000D01*
X143793857Y-53594000D01*
X144377067Y-53477992D01*
X144871488Y-53147631D01*
X145034000Y-52904414D01*
X145196512Y-53147631D01*
X145690933Y-53477992D01*
X146274143Y-53594000D01*
X146333857Y-53594000D01*
X146917067Y-53477992D01*
X147411488Y-53147631D01*
X147574000Y-52904414D01*
X147736512Y-53147631D01*
X148230933Y-53477992D01*
X148814143Y-53594000D01*
X148873857Y-53594000D01*
X149457067Y-53477992D01*
X149951488Y-53147631D01*
X150114000Y-52904414D01*
X150276512Y-53147631D01*
X150770933Y-53477992D01*
X151354143Y-53594000D01*
X151413857Y-53594000D01*
X151997067Y-53477992D01*
X152491488Y-53147631D01*
X152821849Y-52653210D01*
X152937857Y-52070000D01*
X152821849Y-51486790D01*
X152491488Y-50992369D01*
X151997067Y-50662008D01*
X151413857Y-50546000D01*
X151354143Y-50546000D01*
X150770933Y-50662008D01*
X150276512Y-50992369D01*
X150114000Y-51235586D01*
X149951488Y-50992369D01*
X149457067Y-50662008D01*
X148873857Y-50546000D01*
X148814143Y-50546000D01*
X148230933Y-50662008D01*
X147736512Y-50992369D01*
X147574000Y-51235586D01*
X147411488Y-50992369D01*
X146917067Y-50662008D01*
X146333857Y-50546000D01*
X146274143Y-50546000D01*
X145690933Y-50662008D01*
X145196512Y-50992369D01*
X145034000Y-51235586D01*
X144871488Y-50992369D01*
X144377067Y-50662008D01*
X143793857Y-50546000D01*
X143734143Y-50546000D01*
X143150933Y-50662008D01*
X142656512Y-50992369D01*
X142494000Y-51235586D01*
X142331488Y-50992369D01*
X141837067Y-50662008D01*
X141253857Y-50546000D01*
X141194143Y-50546000D01*
X140610933Y-50662008D01*
X140116512Y-50992369D01*
X139954000Y-51235586D01*
X139791488Y-50992369D01*
X139297067Y-50662008D01*
X138713857Y-50546000D01*
X138654143Y-50546000D01*
X138070933Y-50662008D01*
X137576512Y-50992369D01*
X137414000Y-51235586D01*
X137251488Y-50992369D01*
X136757067Y-50662008D01*
X136173857Y-50546000D01*
X136114143Y-50546000D01*
X135530933Y-50662008D01*
X135036512Y-50992369D01*
X134874000Y-51235586D01*
X134711488Y-50992369D01*
X134217067Y-50662008D01*
X133633857Y-50546000D01*
X133574143Y-50546000D01*
X132990933Y-50662008D01*
X132496512Y-50992369D01*
X132166151Y-51486790D01*
X132050143Y-52070000D01*
X131093857Y-52070000D01*
X130977849Y-51486790D01*
X130647488Y-50992369D01*
X130153067Y-50662008D01*
X129569857Y-50546000D01*
X129510143Y-50546000D01*
X128926933Y-50662008D01*
X128432512Y-50992369D01*
X128270000Y-51235586D01*
X128107488Y-50992369D01*
X127613067Y-50662008D01*
X127029857Y-50546000D01*
X126970143Y-50546000D01*
X126386933Y-50662008D01*
X125892512Y-50992369D01*
X125730000Y-51235586D01*
X125567488Y-50992369D01*
X125073067Y-50662008D01*
X124489857Y-50546000D01*
X124430143Y-50546000D01*
X123846933Y-50662008D01*
X123352512Y-50992369D01*
X123190000Y-51235586D01*
X123027488Y-50992369D01*
X122533067Y-50662008D01*
X121949857Y-50546000D01*
X121890143Y-50546000D01*
X121306933Y-50662008D01*
X120812512Y-50992369D01*
X120650000Y-51235586D01*
X120487488Y-50992369D01*
X119993067Y-50662008D01*
X119409857Y-50546000D01*
X119350143Y-50546000D01*
X118766933Y-50662008D01*
X118272512Y-50992369D01*
X118110000Y-51235586D01*
X117947488Y-50992369D01*
X117453067Y-50662008D01*
X116869857Y-50546000D01*
X116810143Y-50546000D01*
X116226933Y-50662008D01*
X115732512Y-50992369D01*
X115569308Y-51236621D01*
X115181148Y-50826547D01*
X114638226Y-50583998D01*
X114401600Y-50714483D01*
X114198400Y-50714483D01*
X113961774Y-50583998D01*
X113418852Y-50826547D01*
X113030692Y-51236621D01*
X112867488Y-50992369D01*
X112373067Y-50662008D01*
X111789857Y-50546000D01*
X111730143Y-50546000D01*
X111146933Y-50662008D01*
X110652512Y-50992369D01*
X110490000Y-51235586D01*
X110327488Y-50992369D01*
X109833067Y-50662008D01*
X109249857Y-50546000D01*
X109190143Y-50546000D01*
X108606933Y-50662008D01*
X108112512Y-50992369D01*
X107950000Y-51235586D01*
X107787488Y-50992369D01*
X107293067Y-50662008D01*
X106709857Y-50546000D01*
X106650143Y-50546000D01*
X106066933Y-50662008D01*
X105572512Y-50992369D01*
X105295678Y-51406680D01*
X105041391Y-50791259D01*
X104406086Y-50154843D01*
X103575594Y-49809993D01*
X102676351Y-49809208D01*
X101845259Y-50152609D01*
X101208843Y-50787914D01*
X100863993Y-51618406D01*
X100863208Y-52517649D01*
X99212400Y-52517649D01*
X99212400Y-48995400D01*
X155502568Y-48995400D01*
X156017074Y-49097741D01*
M02*
