%TF.GenerationSoftware,KiCad,Pcbnew,4.0.7*%
%TF.CreationDate,2018-09-29T23:18:57-06:00*%
%TF.ProjectId,valve_testing,76616C76655F74657374696E672E6B69,rev?*%
%TF.FileFunction,Soldermask,Top*%
%FSLAX46Y46*%
G04 Gerber Fmt 4.6, Leading zero omitted, Abs format (unit mm)*
G04 Created by KiCad (PCBNEW 4.0.7) date Saturday, September 29, 2018 'PMt' 11:18:57 PM*
%MOMM*%
%LPD*%
G01*
G04 APERTURE LIST*
%ADD10C,0.150000*%
%ADD11O,2.127200X2.127200*%
%ADD12C,3.600000*%
%ADD13O,2.000000X2.000000*%
%ADD14R,2.000000X2.000000*%
%ADD15C,5.400000*%
%ADD16R,1.750000X1.750000*%
%ADD17C,1.750000*%
%ADD18R,2.100000X2.100000*%
%ADD19O,2.100000X2.100000*%
%ADD20R,3.900120X3.900120*%
G04 APERTURE END LIST*
D10*
X157480000Y-51435000D02*
X157480000Y-50165000D01*
X83820000Y-51435000D02*
X83820000Y-50165000D01*
X83820000Y-100965000D02*
X83820000Y-102235000D01*
X157480000Y-101092000D02*
X157480000Y-102235000D01*
X83820000Y-51435000D02*
X83820000Y-100965000D01*
X157480000Y-51435000D02*
X157480000Y-101092000D01*
X83820000Y-102235000D02*
G75*
G03X85725000Y-104140000I1905000J0D01*
G01*
X85725000Y-48260000D02*
G75*
G03X83820000Y-50165000I0J-1905000D01*
G01*
X157480000Y-50165000D02*
G75*
G03X155575000Y-48260000I-1905000J0D01*
G01*
X155575000Y-104140000D02*
G75*
G03X157480000Y-102235000I0J1905000D01*
G01*
X155575000Y-48260000D02*
X85725000Y-48260000D01*
X85725000Y-104140000D02*
X155575000Y-104140000D01*
D11*
X138684000Y-100330000D03*
X133604000Y-100330000D03*
X131064000Y-100330000D03*
X128524000Y-100330000D03*
X125984000Y-100330000D03*
X123444000Y-100330000D03*
X120904000Y-100330000D03*
X118364000Y-100330000D03*
X151384000Y-52070000D03*
X148844000Y-52070000D03*
X146304000Y-52070000D03*
X143764000Y-52070000D03*
X141224000Y-52070000D03*
X138684000Y-52070000D03*
X136144000Y-52070000D03*
X133604000Y-52070000D03*
X114300000Y-52070000D03*
X129540000Y-52070000D03*
X127000000Y-52070000D03*
X124460000Y-52070000D03*
D12*
X153924000Y-95250000D03*
X153924000Y-67310000D03*
X103124000Y-52070000D03*
D11*
X106680000Y-52070000D03*
X109220000Y-52070000D03*
X111760000Y-52070000D03*
X116840000Y-52070000D03*
X119380000Y-52070000D03*
X121920000Y-52070000D03*
X115824000Y-100330000D03*
X141224000Y-100330000D03*
X143764000Y-100330000D03*
X146304000Y-100330000D03*
X148844000Y-100330000D03*
X151384000Y-100330000D03*
D13*
X114300000Y-62738000D03*
X116840000Y-62738000D03*
X119380000Y-62738000D03*
X121920000Y-62738000D03*
X124460000Y-62738000D03*
X127000000Y-62738000D03*
X129540000Y-62738000D03*
X132080000Y-62738000D03*
X132080000Y-55118000D03*
X129540000Y-55118000D03*
X127000000Y-55118000D03*
X124460000Y-55118000D03*
X121920000Y-55118000D03*
X119380000Y-55118000D03*
X116840000Y-55118000D03*
X114300000Y-55118000D03*
D14*
X109220000Y-72263000D03*
D13*
X101600000Y-79883000D03*
X106680000Y-72263000D03*
X104140000Y-79883000D03*
X104140000Y-72263000D03*
X106680000Y-79883000D03*
X101600000Y-72263000D03*
X109220000Y-79883000D03*
D14*
X120650000Y-72263000D03*
D13*
X113030000Y-79883000D03*
X118110000Y-72263000D03*
X115570000Y-79883000D03*
X115570000Y-72263000D03*
X118110000Y-79883000D03*
X113030000Y-72263000D03*
X120650000Y-79883000D03*
D14*
X132080000Y-72263000D03*
D13*
X124460000Y-79883000D03*
X129540000Y-72263000D03*
X127000000Y-79883000D03*
X127000000Y-72263000D03*
X129540000Y-79883000D03*
X124460000Y-72263000D03*
X132080000Y-79883000D03*
D14*
X143510000Y-72263000D03*
D13*
X135890000Y-79883000D03*
X140970000Y-72263000D03*
X138430000Y-79883000D03*
X138430000Y-72263000D03*
X140970000Y-79883000D03*
X135890000Y-72263000D03*
X143510000Y-79883000D03*
D15*
X88265000Y-87503000D03*
D16*
X137795000Y-95123000D03*
D17*
X139795000Y-95123000D03*
D18*
X150495000Y-83058000D03*
D19*
X153035000Y-83058000D03*
D16*
X147320000Y-58293000D03*
D17*
X147320000Y-60293000D03*
D16*
X88900000Y-95123000D03*
D17*
X90900000Y-95123000D03*
D16*
X95885000Y-95123000D03*
D17*
X97885000Y-95123000D03*
D16*
X102870000Y-95123000D03*
D17*
X104870000Y-95123000D03*
D16*
X109855000Y-95123000D03*
D17*
X111855000Y-95123000D03*
D16*
X116840000Y-95123000D03*
D17*
X118840000Y-95123000D03*
D16*
X123825000Y-95123000D03*
D17*
X125825000Y-95123000D03*
D16*
X130810000Y-95123000D03*
D17*
X132810000Y-95123000D03*
D18*
X90170000Y-54610000D03*
D19*
X92710000Y-54610000D03*
X95250000Y-54610000D03*
D18*
X90170000Y-52070000D03*
D19*
X92710000Y-52070000D03*
X95250000Y-52070000D03*
D20*
X92560140Y-76835000D03*
X86560660Y-76835000D03*
X89560400Y-81534000D03*
M02*
