%TF.GenerationSoftware,KiCad,Pcbnew,4.0.7*%
%TF.CreationDate,2018-08-09T22:01:20-06:00*%
%TF.ProjectId,valve_testing,76616C76655F74657374696E672E6B69,rev?*%
%TF.FileFunction,Paste,Bot*%
%FSLAX46Y46*%
G04 Gerber Fmt 4.6, Leading zero omitted, Abs format (unit mm)*
G04 Created by KiCad (PCBNEW 4.0.7) date Thursday, August 09, 2018 'PMt' 10:01:20 PM*
%MOMM*%
%LPD*%
G01*
G04 APERTURE LIST*
%ADD10C,0.150000*%
%ADD11R,0.700000X2.000000*%
%ADD12R,1.300000X1.500000*%
%ADD13R,3.200000X1.500000*%
%ADD14R,0.800000X1.900000*%
%ADD15R,1.500000X1.300000*%
G04 APERTURE END LIST*
D10*
X157480000Y-51435000D02*
X157480000Y-50165000D01*
X83820000Y-51435000D02*
X83820000Y-50165000D01*
X83820000Y-100965000D02*
X83820000Y-102235000D01*
X157480000Y-101092000D02*
X157480000Y-102235000D01*
X83820000Y-51435000D02*
X83820000Y-100965000D01*
X157480000Y-51435000D02*
X157480000Y-101092000D01*
X83820000Y-102235000D02*
G75*
G03X85725000Y-104140000I1905000J0D01*
G01*
X85725000Y-48260000D02*
G75*
G03X83820000Y-50165000I0J-1905000D01*
G01*
X157480000Y-50165000D02*
G75*
G03X155575000Y-48260000I-1905000J0D01*
G01*
X155575000Y-104140000D02*
G75*
G03X157480000Y-102235000I0J1905000D01*
G01*
X155575000Y-48260000D02*
X85725000Y-48260000D01*
X85725000Y-104140000D02*
X155575000Y-104140000D01*
D11*
X113350000Y-85803000D03*
X115250000Y-85803000D03*
X114300000Y-89203000D03*
D12*
X129667000Y-65198000D03*
X129667000Y-67898000D03*
X114300000Y-65198000D03*
X114300000Y-67898000D03*
X116840000Y-65198000D03*
X116840000Y-67898000D03*
X119380000Y-65198000D03*
X119380000Y-67898000D03*
X121920000Y-65198000D03*
X121920000Y-67898000D03*
X124460000Y-65198000D03*
X124460000Y-67898000D03*
X127000000Y-65198000D03*
X127000000Y-67898000D03*
D13*
X149765000Y-85598000D03*
X153765000Y-85598000D03*
D12*
X132080000Y-65198000D03*
X132080000Y-67898000D03*
D14*
X104460000Y-89178000D03*
X106360000Y-89178000D03*
X105410000Y-92178000D03*
X115890000Y-89178000D03*
X117790000Y-89178000D03*
X116840000Y-92178000D03*
X127320000Y-89178000D03*
X129220000Y-89178000D03*
X128270000Y-92178000D03*
X138750000Y-89178000D03*
X140650000Y-89178000D03*
X139700000Y-92178000D03*
D11*
X101920000Y-85803000D03*
X103820000Y-85803000D03*
X102870000Y-89203000D03*
X107000000Y-85803000D03*
X108900000Y-85803000D03*
X107950000Y-89203000D03*
X118430000Y-85803000D03*
X120330000Y-85803000D03*
X119380000Y-89203000D03*
X124780000Y-85803000D03*
X126680000Y-85803000D03*
X125730000Y-89203000D03*
X129860000Y-85803000D03*
X131760000Y-85803000D03*
X130810000Y-89203000D03*
X136210000Y-85803000D03*
X138110000Y-85803000D03*
X137160000Y-89203000D03*
X141290000Y-85803000D03*
X143190000Y-85803000D03*
X142240000Y-89203000D03*
D15*
X101520000Y-82423000D03*
X104220000Y-82423000D03*
X109300000Y-82423000D03*
X106600000Y-82423000D03*
X112950000Y-82423000D03*
X115650000Y-82423000D03*
X120730000Y-82423000D03*
X118030000Y-82423000D03*
X124380000Y-82423000D03*
X127080000Y-82423000D03*
X132160000Y-82423000D03*
X129460000Y-82423000D03*
X135810000Y-82423000D03*
X138510000Y-82423000D03*
X143590000Y-82423000D03*
X140890000Y-82423000D03*
M02*
