M48
;DRILL file {KiCad 4.0.7} date Saturday, September 29, 2018 'PMt' 11:19:02 PM
;FORMAT={-:-/ absolute / inch / decimal}
FMAT,2
INCH,TZ
T1C0.012
T2C0.031
T3C0.039
T4C0.039
T5C0.040
T6C0.138
%
G90
G05
M72
T1
X4.15Y-3.37
X4.325Y-3.495
X4.375Y-3.37
X4.4Y-3.495
X4.6Y-3.37
X4.775Y-3.495
X4.85Y-3.495
X5.05Y-3.37
X5.225Y-3.52
X5.275Y-3.37
X5.5Y-3.37
X5.675Y-3.52
T2
X3.5Y-3.745
X3.5787Y-3.745
X3.775Y-3.745
X3.8537Y-3.745
X4.Y-2.845
X4.Y-3.145
X4.05Y-3.745
X4.1Y-2.845
X4.1Y-3.145
X4.1287Y-3.745
X4.2Y-2.845
X4.2Y-3.145
X4.3Y-2.845
X4.3Y-3.145
X4.325Y-3.745
X4.4037Y-3.745
X4.45Y-2.845
X4.45Y-3.145
X4.5Y-2.17
X4.5Y-2.47
X4.55Y-2.845
X4.55Y-3.145
X4.6Y-2.17
X4.6Y-2.47
X4.6Y-3.745
X4.65Y-2.845
X4.65Y-3.145
X4.6787Y-3.745
X4.7Y-2.17
X4.7Y-2.47
X4.75Y-2.845
X4.75Y-3.145
X4.8Y-2.17
X4.8Y-2.47
X4.875Y-3.745
X4.9Y-2.17
X4.9Y-2.47
X4.9Y-2.845
X4.9Y-3.145
X4.9537Y-3.745
X5.Y-2.17
X5.Y-2.47
X5.Y-2.845
X5.Y-3.145
X5.1Y-2.17
X5.1Y-2.47
X5.1Y-2.845
X5.1Y-3.145
X5.15Y-3.745
X5.2Y-2.17
X5.2Y-2.47
X5.2Y-2.845
X5.2Y-3.145
X5.2287Y-3.745
X5.35Y-2.845
X5.35Y-3.145
X5.425Y-3.745
X5.45Y-2.845
X5.45Y-3.145
X5.5037Y-3.745
X5.55Y-2.845
X5.55Y-3.145
X5.65Y-2.845
X5.65Y-3.145
X5.8Y-2.295
X5.8Y-2.3737
T3
X3.55Y-2.05
X3.55Y-2.15
X3.65Y-2.05
X3.65Y-2.15
X3.75Y-2.05
X3.75Y-2.15
X5.925Y-3.27
X6.025Y-3.27
T5
X4.2Y-2.05
X4.3Y-2.05
X4.4Y-2.05
X4.5Y-2.05
X4.56Y-3.95
X4.6Y-2.05
X4.66Y-3.95
X4.7Y-2.05
X4.76Y-3.95
X4.8Y-2.05
X4.86Y-3.95
X4.9Y-2.05
X4.96Y-3.95
X5.Y-2.05
X5.06Y-3.95
X5.1Y-2.05
X5.16Y-3.95
X5.26Y-2.05
X5.26Y-3.95
X5.36Y-2.05
X5.46Y-2.05
X5.46Y-3.95
X5.56Y-2.05
X5.56Y-3.95
X5.66Y-2.05
X5.66Y-3.95
X5.76Y-2.05
X5.76Y-3.95
X5.86Y-2.05
X5.86Y-3.95
X5.96Y-2.05
X5.96Y-3.95
T6
X3.475Y-3.445
T4
X3.4079Y-2.9857G85X3.4079Y-3.0644
G05
X3.4867Y-3.21G85X3.5654Y-3.21
G05
X3.6441Y-2.9857G85X3.6441Y-3.0644
G05
T0
M30
