%TF.GenerationSoftware,KiCad,Pcbnew,4.0.7*%
%TF.CreationDate,2018-07-13T11:03:56-06:00*%
%TF.ProjectId,valve_testing,76616C76655F74657374696E672E6B69,rev?*%
%TF.FileFunction,Copper,L2,Bot,Signal*%
%FSLAX46Y46*%
G04 Gerber Fmt 4.6, Leading zero omitted, Abs format (unit mm)*
G04 Created by KiCad (PCBNEW 4.0.7) date Friday, July 13, 2018 'AMt' 11:03:56 AM*
%MOMM*%
%LPD*%
G01*
G04 APERTURE LIST*
%ADD10C,0.150000*%
%ADD11O,1.727200X1.727200*%
%ADD12O,1.600000X1.600000*%
%ADD13R,0.700000X2.000000*%
%ADD14R,1.600000X1.600000*%
%ADD15C,4.000500*%
%ADD16R,1.300000X1.500000*%
%ADD17R,3.200000X1.500000*%
%ADD18R,0.800000X1.900000*%
%ADD19R,1.500000X1.300000*%
%ADD20C,5.000000*%
%ADD21R,1.350000X1.350000*%
%ADD22C,1.350000*%
%ADD23R,1.700000X1.700000*%
%ADD24O,1.700000X1.700000*%
%ADD25C,0.600000*%
%ADD26C,3.810000*%
%ADD27C,2.540000*%
%ADD28C,0.508000*%
%ADD29C,0.304800*%
G04 APERTURE END LIST*
D10*
X157480000Y-51435000D02*
X157480000Y-50165000D01*
X83820000Y-51435000D02*
X83820000Y-50165000D01*
X83820000Y-100965000D02*
X83820000Y-102235000D01*
X157480000Y-101092000D02*
X157480000Y-102235000D01*
X83820000Y-51435000D02*
X83820000Y-100965000D01*
X157480000Y-51435000D02*
X157480000Y-101092000D01*
X83820000Y-102235000D02*
G75*
G03X85725000Y-104140000I1905000J0D01*
G01*
X85725000Y-48260000D02*
G75*
G03X83820000Y-50165000I0J-1905000D01*
G01*
X157480000Y-50165000D02*
G75*
G03X155575000Y-48260000I-1905000J0D01*
G01*
X155575000Y-104140000D02*
G75*
G03X157480000Y-102235000I0J1905000D01*
G01*
X155575000Y-48260000D02*
X85725000Y-48260000D01*
X85725000Y-104140000D02*
X155575000Y-104140000D01*
D11*
X138684000Y-100330000D03*
X133604000Y-100330000D03*
X131064000Y-100330000D03*
X128524000Y-100330000D03*
X125984000Y-100330000D03*
X123444000Y-100330000D03*
X120904000Y-100330000D03*
X118364000Y-100330000D03*
X151384000Y-52070000D03*
X148844000Y-52070000D03*
X146304000Y-52070000D03*
X143764000Y-52070000D03*
X141224000Y-52070000D03*
X138684000Y-52070000D03*
X136144000Y-52070000D03*
X133604000Y-52070000D03*
X114300000Y-52070000D03*
X129540000Y-52070000D03*
X127000000Y-52070000D03*
X124460000Y-52070000D03*
X106680000Y-52070000D03*
X109220000Y-52070000D03*
X111760000Y-52070000D03*
X116840000Y-52070000D03*
X119380000Y-52070000D03*
X121920000Y-52070000D03*
X115824000Y-100330000D03*
X141224000Y-100330000D03*
X143764000Y-100330000D03*
X146304000Y-100330000D03*
X148844000Y-100330000D03*
X151384000Y-100330000D03*
D12*
X114300000Y-62738000D03*
X116840000Y-62738000D03*
X119380000Y-62738000D03*
X121920000Y-62738000D03*
X124460000Y-62738000D03*
X127000000Y-62738000D03*
X129540000Y-62738000D03*
X132080000Y-62738000D03*
X132080000Y-55118000D03*
X129540000Y-55118000D03*
X127000000Y-55118000D03*
X124460000Y-55118000D03*
X121920000Y-55118000D03*
X119380000Y-55118000D03*
X116840000Y-55118000D03*
X114300000Y-55118000D03*
D13*
X113350000Y-85803000D03*
X115250000Y-85803000D03*
X114300000Y-89203000D03*
D14*
X109220000Y-72263000D03*
D12*
X101600000Y-79883000D03*
X106680000Y-72263000D03*
X104140000Y-79883000D03*
X104140000Y-72263000D03*
X106680000Y-79883000D03*
X101600000Y-72263000D03*
X109220000Y-79883000D03*
D15*
X93980000Y-67818000D03*
X93980000Y-60198000D03*
D16*
X129667000Y-65198000D03*
X129667000Y-67898000D03*
X114300000Y-65198000D03*
X114300000Y-67898000D03*
X116840000Y-65198000D03*
X116840000Y-67898000D03*
X119380000Y-65198000D03*
X119380000Y-67898000D03*
X121920000Y-65198000D03*
X121920000Y-67898000D03*
X124460000Y-65198000D03*
X124460000Y-67898000D03*
X127000000Y-65198000D03*
X127000000Y-67898000D03*
D17*
X145320000Y-65405000D03*
X149320000Y-65405000D03*
D16*
X132080000Y-65198000D03*
X132080000Y-67898000D03*
D14*
X120650000Y-72263000D03*
D12*
X113030000Y-79883000D03*
X118110000Y-72263000D03*
X115570000Y-79883000D03*
X115570000Y-72263000D03*
X118110000Y-79883000D03*
X113030000Y-72263000D03*
X120650000Y-79883000D03*
D14*
X132080000Y-72263000D03*
D12*
X124460000Y-79883000D03*
X129540000Y-72263000D03*
X127000000Y-79883000D03*
X127000000Y-72263000D03*
X129540000Y-79883000D03*
X124460000Y-72263000D03*
X132080000Y-79883000D03*
D14*
X143510000Y-72263000D03*
D12*
X135890000Y-79883000D03*
X140970000Y-72263000D03*
X138430000Y-79883000D03*
X138430000Y-72263000D03*
X140970000Y-79883000D03*
X135890000Y-72263000D03*
X143510000Y-79883000D03*
D18*
X104460000Y-89178000D03*
X106360000Y-89178000D03*
X105410000Y-92178000D03*
X115890000Y-89178000D03*
X117790000Y-89178000D03*
X116840000Y-92178000D03*
X127320000Y-89178000D03*
X129220000Y-89178000D03*
X128270000Y-92178000D03*
X138750000Y-89178000D03*
X140650000Y-89178000D03*
X139700000Y-92178000D03*
D13*
X101920000Y-85803000D03*
X103820000Y-85803000D03*
X102870000Y-89203000D03*
X107000000Y-85803000D03*
X108900000Y-85803000D03*
X107950000Y-89203000D03*
X118430000Y-85803000D03*
X120330000Y-85803000D03*
X119380000Y-89203000D03*
X124780000Y-85803000D03*
X126680000Y-85803000D03*
X125730000Y-89203000D03*
X129860000Y-85803000D03*
X131760000Y-85803000D03*
X130810000Y-89203000D03*
X136210000Y-85803000D03*
X138110000Y-85803000D03*
X137160000Y-89203000D03*
X141290000Y-85803000D03*
X143190000Y-85803000D03*
X142240000Y-89203000D03*
D19*
X101520000Y-82423000D03*
X104220000Y-82423000D03*
X109300000Y-82423000D03*
X106600000Y-82423000D03*
X112950000Y-82423000D03*
X115650000Y-82423000D03*
X120730000Y-82423000D03*
X118030000Y-82423000D03*
X124380000Y-82423000D03*
X127080000Y-82423000D03*
X132160000Y-82423000D03*
X129460000Y-82423000D03*
X135810000Y-82423000D03*
X138510000Y-82423000D03*
X143590000Y-82423000D03*
X140890000Y-82423000D03*
D20*
X88265000Y-87503000D03*
D21*
X137795000Y-95123000D03*
D22*
X139795000Y-95123000D03*
D23*
X146050000Y-62738000D03*
D24*
X148590000Y-62738000D03*
D21*
X140335000Y-55118000D03*
D22*
X140335000Y-57118000D03*
D21*
X88900000Y-95123000D03*
D22*
X90900000Y-95123000D03*
D21*
X95885000Y-95123000D03*
D22*
X97885000Y-95123000D03*
D21*
X102870000Y-95123000D03*
D22*
X104870000Y-95123000D03*
D21*
X109855000Y-95123000D03*
D22*
X111855000Y-95123000D03*
D21*
X116840000Y-95123000D03*
D22*
X118840000Y-95123000D03*
D21*
X123825000Y-95123000D03*
D22*
X125825000Y-95123000D03*
D21*
X130810000Y-95123000D03*
D22*
X132810000Y-95123000D03*
D23*
X95250000Y-72898000D03*
D24*
X95250000Y-75438000D03*
X95250000Y-77978000D03*
D23*
X88265000Y-72898000D03*
D24*
X88265000Y-75438000D03*
X88265000Y-77978000D03*
D25*
X139700000Y-85598000D03*
X116840000Y-85598000D03*
X128270000Y-85598000D03*
X133985000Y-85598000D03*
X105410000Y-85598000D03*
X111125000Y-85598000D03*
X138430000Y-61468000D03*
X109855000Y-88773000D03*
X111760000Y-88773000D03*
X121285000Y-88773000D03*
X123190000Y-88773000D03*
X132715000Y-89408000D03*
X144145000Y-89408000D03*
D26*
X88265000Y-77978000D02*
X88265000Y-72898000D01*
D27*
X96393000Y-60198000D02*
X96393000Y-61722000D01*
X96393000Y-61722000D02*
X95250000Y-62865000D01*
X93980000Y-60198000D02*
X93980000Y-62484000D01*
X96393000Y-60198000D02*
X93980000Y-60198000D01*
X96520000Y-60071000D02*
X96393000Y-60198000D01*
X96520000Y-59690000D02*
X96520000Y-60071000D01*
X94234000Y-57404000D02*
X96520000Y-59690000D01*
X91694000Y-59944000D02*
X94234000Y-57404000D01*
X91694000Y-60198000D02*
X91694000Y-59944000D01*
X93980000Y-62484000D02*
X91694000Y-60198000D01*
X93980000Y-67818000D02*
X92710000Y-69088000D01*
X92710000Y-69088000D02*
X92710000Y-75438000D01*
X92710000Y-75438000D02*
X95250000Y-77978000D01*
X95250000Y-69088000D02*
X95250000Y-72898000D01*
X95250000Y-72898000D02*
X95250000Y-75438000D01*
X95250000Y-75438000D02*
X95250000Y-77978000D01*
D28*
X95250000Y-77978000D02*
X95250000Y-81153000D01*
X96520000Y-82423000D02*
X101520000Y-82423000D01*
X95250000Y-81153000D02*
X96520000Y-82423000D01*
X95250000Y-77978000D02*
X108585000Y-77978000D01*
X139495000Y-85803000D02*
X138110000Y-85803000D01*
X139700000Y-85598000D02*
X139495000Y-85803000D01*
X116635000Y-85803000D02*
X115250000Y-85803000D01*
X116840000Y-85598000D02*
X116635000Y-85803000D01*
X120330000Y-85803000D02*
X120330000Y-82823000D01*
X131760000Y-85803000D02*
X133780000Y-85803000D01*
X128065000Y-85803000D02*
X126680000Y-85803000D01*
X128270000Y-85598000D02*
X128065000Y-85803000D01*
X133780000Y-85803000D02*
X133985000Y-85598000D01*
X143190000Y-85803000D02*
X143190000Y-82823000D01*
X143190000Y-82823000D02*
X143590000Y-82423000D01*
X131760000Y-85803000D02*
X131760000Y-82823000D01*
X131760000Y-82823000D02*
X132160000Y-82423000D01*
X120330000Y-82823000D02*
X120730000Y-82423000D01*
X108900000Y-85803000D02*
X110920000Y-85803000D01*
X105205000Y-85803000D02*
X103820000Y-85803000D01*
X105410000Y-85598000D02*
X105205000Y-85803000D01*
X110920000Y-85803000D02*
X111125000Y-85598000D01*
X108900000Y-85803000D02*
X108900000Y-82823000D01*
X108900000Y-82823000D02*
X109300000Y-82423000D01*
X143510000Y-79883000D02*
X143510000Y-82343000D01*
X143510000Y-82343000D02*
X143590000Y-82423000D01*
X132080000Y-79883000D02*
X132080000Y-82343000D01*
X132080000Y-82343000D02*
X132160000Y-82423000D01*
X132160000Y-82423000D02*
X135810000Y-82423000D01*
X120730000Y-82423000D02*
X124380000Y-82423000D01*
X120650000Y-79883000D02*
X120650000Y-82343000D01*
X120650000Y-82343000D02*
X120730000Y-82423000D01*
X131445000Y-77978000D02*
X142875000Y-77978000D01*
X143510000Y-78613000D02*
X143510000Y-79883000D01*
X142875000Y-77978000D02*
X143510000Y-78613000D01*
X120015000Y-77978000D02*
X131445000Y-77978000D01*
X132080000Y-78613000D02*
X132080000Y-79883000D01*
X131445000Y-77978000D02*
X132080000Y-78613000D01*
X108585000Y-77978000D02*
X120015000Y-77978000D01*
X120650000Y-78613000D02*
X120650000Y-79883000D01*
X120015000Y-77978000D02*
X120650000Y-78613000D01*
X109300000Y-82423000D02*
X112950000Y-82423000D01*
X109220000Y-79883000D02*
X109220000Y-82343000D01*
X109220000Y-82343000D02*
X109300000Y-82423000D01*
X109220000Y-78613000D02*
X109220000Y-79883000D01*
X108585000Y-77978000D02*
X109220000Y-78613000D01*
D29*
X114300000Y-65198000D02*
X112950000Y-65198000D01*
X111760000Y-60198000D02*
X116840000Y-55118000D01*
X111760000Y-64008000D02*
X111760000Y-60198000D01*
X112950000Y-65198000D02*
X111760000Y-64008000D01*
X114300000Y-67898000D02*
X104060000Y-67898000D01*
X104060000Y-67898000D02*
X101600000Y-70358000D01*
X101600000Y-70358000D02*
X101600000Y-72263000D01*
X114300000Y-62738000D02*
X114380000Y-62738000D01*
X114380000Y-62738000D02*
X116840000Y-65198000D01*
X111760000Y-69723000D02*
X109220000Y-72263000D01*
X114935000Y-69723000D02*
X111760000Y-69723000D01*
X116840000Y-67898000D02*
X116760000Y-67898000D01*
X116760000Y-67898000D02*
X114935000Y-69723000D01*
X116840000Y-62738000D02*
X116920000Y-62738000D01*
X116920000Y-62738000D02*
X119380000Y-65198000D01*
X119380000Y-67898000D02*
X119300000Y-67898000D01*
X119300000Y-67898000D02*
X116840000Y-70358000D01*
X116840000Y-70358000D02*
X114300000Y-70358000D01*
X114300000Y-70358000D02*
X113030000Y-71628000D01*
X113030000Y-71628000D02*
X113030000Y-72263000D01*
X119380000Y-62738000D02*
X119460000Y-62738000D01*
X119460000Y-62738000D02*
X121920000Y-65198000D01*
X121920000Y-70993000D02*
X120650000Y-72263000D01*
X121920000Y-67898000D02*
X121920000Y-70993000D01*
X121920000Y-62738000D02*
X122000000Y-62738000D01*
X122000000Y-62738000D02*
X124460000Y-65198000D01*
X124460000Y-67898000D02*
X124460000Y-72263000D01*
X124460000Y-62738000D02*
X124540000Y-62738000D01*
X124540000Y-62738000D02*
X127000000Y-65198000D01*
X130810000Y-70358000D02*
X132080000Y-71628000D01*
X132080000Y-71628000D02*
X132080000Y-72263000D01*
X128905000Y-70358000D02*
X130810000Y-70358000D01*
X127000000Y-67898000D02*
X127000000Y-68453000D01*
X127000000Y-68453000D02*
X128905000Y-70358000D01*
X127000000Y-62738000D02*
X127207000Y-62738000D01*
X127207000Y-62738000D02*
X129667000Y-65198000D01*
X129667000Y-67898000D02*
X129667000Y-67945000D01*
X129667000Y-67945000D02*
X131445000Y-69723000D01*
X131445000Y-69723000D02*
X133350000Y-69723000D01*
X133350000Y-69723000D02*
X135890000Y-72263000D01*
X129540000Y-62738000D02*
X129620000Y-62738000D01*
X129620000Y-62738000D02*
X132080000Y-65198000D01*
X143510000Y-70358000D02*
X143510000Y-72263000D01*
X141050000Y-67898000D02*
X143510000Y-70358000D01*
X132080000Y-67898000D02*
X141050000Y-67898000D01*
X145320000Y-65405000D02*
X142367000Y-65405000D01*
X142367000Y-65405000D02*
X138430000Y-61468000D01*
X146050000Y-62865000D02*
X146050000Y-64675000D01*
X146050000Y-64675000D02*
X145320000Y-65405000D01*
X151130000Y-90043000D02*
X151130000Y-71215000D01*
X151130000Y-96139000D02*
X151130000Y-90043000D01*
X148717000Y-98552000D02*
X151130000Y-96139000D01*
X127254000Y-98552000D02*
X148717000Y-98552000D01*
X125984000Y-99822000D02*
X127254000Y-98552000D01*
X151130000Y-71215000D02*
X145320000Y-65405000D01*
X125984000Y-100330000D02*
X125984000Y-99822000D01*
X145320000Y-65405000D02*
X145320000Y-65500000D01*
X127000000Y-55118000D02*
X127000000Y-52070000D01*
X124460000Y-55118000D02*
X124460000Y-52070000D01*
X140335000Y-57118000D02*
X121380000Y-57118000D01*
X121380000Y-57118000D02*
X119380000Y-55118000D01*
X119380000Y-55118000D02*
X119380000Y-52070000D01*
X129540000Y-52070000D02*
X129540000Y-55118000D01*
D28*
X104435000Y-89203000D02*
X104460000Y-89178000D01*
X102870000Y-89203000D02*
X92915000Y-89203000D01*
X102870000Y-89203000D02*
X104435000Y-89203000D01*
X88900000Y-93218000D02*
X88900000Y-95123000D01*
X92915000Y-89203000D02*
X88900000Y-93218000D01*
X109425000Y-89203000D02*
X109855000Y-88773000D01*
X107950000Y-89203000D02*
X109425000Y-89203000D01*
X107950000Y-89203000D02*
X106385000Y-89203000D01*
X106385000Y-89203000D02*
X106360000Y-89178000D01*
X115865000Y-89203000D02*
X115890000Y-89178000D01*
X112190000Y-89203000D02*
X111760000Y-88773000D01*
X114300000Y-89203000D02*
X112190000Y-89203000D01*
X114300000Y-89203000D02*
X115865000Y-89203000D01*
X120855000Y-89203000D02*
X121285000Y-88773000D01*
X119380000Y-89203000D02*
X120855000Y-89203000D01*
X119355000Y-89178000D02*
X119380000Y-89203000D01*
X117790000Y-89178000D02*
X119355000Y-89178000D01*
X127295000Y-89203000D02*
X127320000Y-89178000D01*
X123620000Y-89203000D02*
X123190000Y-88773000D01*
X125730000Y-89203000D02*
X123620000Y-89203000D01*
X125730000Y-89203000D02*
X127295000Y-89203000D01*
X132510000Y-89203000D02*
X132715000Y-89408000D01*
X132510000Y-89203000D02*
X130810000Y-89203000D01*
X130785000Y-89178000D02*
X130810000Y-89203000D01*
X129220000Y-89178000D02*
X130785000Y-89178000D01*
X138725000Y-89203000D02*
X138750000Y-89178000D01*
X130810000Y-93853000D02*
X130810000Y-95123000D01*
X135460000Y-89203000D02*
X130810000Y-93853000D01*
X137160000Y-89203000D02*
X135460000Y-89203000D01*
X137160000Y-89203000D02*
X137160000Y-89408000D01*
X137160000Y-89203000D02*
X138725000Y-89203000D01*
X143940000Y-89203000D02*
X142240000Y-89203000D01*
X142215000Y-89178000D02*
X142240000Y-89203000D01*
X143940000Y-89203000D02*
X144145000Y-89408000D01*
X140650000Y-89178000D02*
X142215000Y-89178000D01*
X101920000Y-84643000D02*
X101920000Y-85803000D01*
X104220000Y-82423000D02*
X104140000Y-82423000D01*
X104140000Y-82423000D02*
X101920000Y-84643000D01*
X104140000Y-82343000D02*
X104220000Y-82423000D01*
X104220000Y-82296000D02*
X104220000Y-82343000D01*
X104140000Y-79883000D02*
X104140000Y-82343000D01*
X106680000Y-79883000D02*
X106680000Y-82343000D01*
X106680000Y-82343000D02*
X107000000Y-82663000D01*
X107000000Y-82663000D02*
X107000000Y-85803000D01*
X113350000Y-84563000D02*
X113350000Y-85803000D01*
X115570000Y-82343000D02*
X113350000Y-84563000D01*
X115570000Y-79883000D02*
X115570000Y-82343000D01*
X118110000Y-79883000D02*
X118110000Y-82343000D01*
X118110000Y-82343000D02*
X118430000Y-82663000D01*
X118430000Y-82663000D02*
X118430000Y-85803000D01*
X124780000Y-84563000D02*
X124780000Y-85803000D01*
X127000000Y-82343000D02*
X124780000Y-84563000D01*
X127000000Y-79883000D02*
X127000000Y-82343000D01*
X129540000Y-79883000D02*
X129540000Y-82343000D01*
X129540000Y-82343000D02*
X129860000Y-82663000D01*
X129860000Y-82663000D02*
X129860000Y-85803000D01*
X136210000Y-84563000D02*
X136210000Y-85803000D01*
X138430000Y-82343000D02*
X136210000Y-84563000D01*
X138430000Y-79883000D02*
X138430000Y-82343000D01*
X140970000Y-79883000D02*
X140970000Y-82343000D01*
X140970000Y-82343000D02*
X141290000Y-82663000D01*
X141290000Y-82663000D02*
X141290000Y-85803000D01*
D29*
X140335000Y-55118000D02*
X132080000Y-55118000D01*
G36*
X97637600Y-76708000D02*
X97649607Y-76767292D01*
X97683736Y-76817242D01*
X97734609Y-76849977D01*
X97790000Y-76860400D01*
X145897600Y-76860400D01*
X145897600Y-96875600D01*
X84555400Y-96875600D01*
X84555400Y-94448000D01*
X87551662Y-94448000D01*
X87551662Y-95798000D01*
X87597711Y-96042730D01*
X87742346Y-96267499D01*
X87963034Y-96418288D01*
X88225000Y-96471338D01*
X89575000Y-96471338D01*
X89819730Y-96425289D01*
X90044499Y-96280654D01*
X90149211Y-96127402D01*
X90184122Y-96281175D01*
X90681829Y-96466969D01*
X91212751Y-96448156D01*
X91615878Y-96281175D01*
X91671128Y-96037812D01*
X90900000Y-95266684D01*
X90885858Y-95280827D01*
X90742174Y-95137143D01*
X90756316Y-95123000D01*
X91043684Y-95123000D01*
X91814812Y-95894128D01*
X92058175Y-95838878D01*
X92243969Y-95341171D01*
X92225156Y-94810249D01*
X92075108Y-94448000D01*
X94536662Y-94448000D01*
X94536662Y-95798000D01*
X94582711Y-96042730D01*
X94727346Y-96267499D01*
X94948034Y-96418288D01*
X95210000Y-96471338D01*
X96560000Y-96471338D01*
X96804730Y-96425289D01*
X97029499Y-96280654D01*
X97134211Y-96127402D01*
X97169122Y-96281175D01*
X97666829Y-96466969D01*
X98197751Y-96448156D01*
X98600878Y-96281175D01*
X98656128Y-96037812D01*
X97885000Y-95266684D01*
X97870858Y-95280827D01*
X97727174Y-95137143D01*
X97741316Y-95123000D01*
X98028684Y-95123000D01*
X98799812Y-95894128D01*
X99043175Y-95838878D01*
X99228969Y-95341171D01*
X99210156Y-94810249D01*
X99060108Y-94448000D01*
X101521662Y-94448000D01*
X101521662Y-95798000D01*
X101567711Y-96042730D01*
X101712346Y-96267499D01*
X101933034Y-96418288D01*
X102195000Y-96471338D01*
X103545000Y-96471338D01*
X103789730Y-96425289D01*
X104014499Y-96280654D01*
X104119211Y-96127402D01*
X104154122Y-96281175D01*
X104651829Y-96466969D01*
X105182751Y-96448156D01*
X105585878Y-96281175D01*
X105641128Y-96037812D01*
X104870000Y-95266684D01*
X104855858Y-95280827D01*
X104712174Y-95137143D01*
X104726316Y-95123000D01*
X105013684Y-95123000D01*
X105784812Y-95894128D01*
X106028175Y-95838878D01*
X106213969Y-95341171D01*
X106195156Y-94810249D01*
X106045108Y-94448000D01*
X108506662Y-94448000D01*
X108506662Y-95798000D01*
X108552711Y-96042730D01*
X108697346Y-96267499D01*
X108918034Y-96418288D01*
X109180000Y-96471338D01*
X110530000Y-96471338D01*
X110774730Y-96425289D01*
X110999499Y-96280654D01*
X111104211Y-96127402D01*
X111139122Y-96281175D01*
X111636829Y-96466969D01*
X112167751Y-96448156D01*
X112570878Y-96281175D01*
X112626128Y-96037812D01*
X111855000Y-95266684D01*
X111840858Y-95280827D01*
X111697174Y-95137143D01*
X111711316Y-95123000D01*
X111998684Y-95123000D01*
X112769812Y-95894128D01*
X113013175Y-95838878D01*
X113198969Y-95341171D01*
X113180156Y-94810249D01*
X113030108Y-94448000D01*
X115491662Y-94448000D01*
X115491662Y-95798000D01*
X115537711Y-96042730D01*
X115682346Y-96267499D01*
X115903034Y-96418288D01*
X116165000Y-96471338D01*
X117515000Y-96471338D01*
X117759730Y-96425289D01*
X117984499Y-96280654D01*
X118089211Y-96127402D01*
X118124122Y-96281175D01*
X118621829Y-96466969D01*
X119152751Y-96448156D01*
X119555878Y-96281175D01*
X119611128Y-96037812D01*
X118840000Y-95266684D01*
X118825858Y-95280827D01*
X118682174Y-95137143D01*
X118696316Y-95123000D01*
X118983684Y-95123000D01*
X119754812Y-95894128D01*
X119998175Y-95838878D01*
X120183969Y-95341171D01*
X120165156Y-94810249D01*
X120015108Y-94448000D01*
X122476662Y-94448000D01*
X122476662Y-95798000D01*
X122522711Y-96042730D01*
X122667346Y-96267499D01*
X122888034Y-96418288D01*
X123150000Y-96471338D01*
X124500000Y-96471338D01*
X124744730Y-96425289D01*
X124969499Y-96280654D01*
X125074211Y-96127402D01*
X125109122Y-96281175D01*
X125606829Y-96466969D01*
X126137751Y-96448156D01*
X126540878Y-96281175D01*
X126596128Y-96037812D01*
X125825000Y-95266684D01*
X125810858Y-95280827D01*
X125667174Y-95137143D01*
X125681316Y-95123000D01*
X125968684Y-95123000D01*
X126739812Y-95894128D01*
X126983175Y-95838878D01*
X127168969Y-95341171D01*
X127150156Y-94810249D01*
X126983175Y-94407122D01*
X126739812Y-94351872D01*
X125968684Y-95123000D01*
X125681316Y-95123000D01*
X125667174Y-95108858D01*
X125810858Y-94965174D01*
X125825000Y-94979316D01*
X126596128Y-94208188D01*
X126540878Y-93964825D01*
X126043171Y-93779031D01*
X125512249Y-93797844D01*
X125109122Y-93964825D01*
X125073844Y-94120215D01*
X124982654Y-93978501D01*
X124761966Y-93827712D01*
X124500000Y-93774662D01*
X123150000Y-93774662D01*
X122905270Y-93820711D01*
X122680501Y-93965346D01*
X122529712Y-94186034D01*
X122476662Y-94448000D01*
X120015108Y-94448000D01*
X119998175Y-94407122D01*
X119754812Y-94351872D01*
X118983684Y-95123000D01*
X118696316Y-95123000D01*
X118682174Y-95108858D01*
X118825858Y-94965174D01*
X118840000Y-94979316D01*
X119611128Y-94208188D01*
X119555878Y-93964825D01*
X119058171Y-93779031D01*
X118527249Y-93797844D01*
X118124122Y-93964825D01*
X118088844Y-94120215D01*
X117997654Y-93978501D01*
X117776966Y-93827712D01*
X117515000Y-93774662D01*
X117404527Y-93774662D01*
X117614086Y-93687860D01*
X117799860Y-93502087D01*
X117900400Y-93259362D01*
X117900400Y-92444700D01*
X127209600Y-92444700D01*
X127209600Y-93259362D01*
X127310140Y-93502087D01*
X127495914Y-93687860D01*
X127738639Y-93788400D01*
X128003300Y-93788400D01*
X128168400Y-93623300D01*
X128168400Y-92279600D01*
X128371600Y-92279600D01*
X128371600Y-93623300D01*
X128536700Y-93788400D01*
X128801361Y-93788400D01*
X129044086Y-93687860D01*
X129229860Y-93502087D01*
X129330400Y-93259362D01*
X129330400Y-92444700D01*
X129165300Y-92279600D01*
X128371600Y-92279600D01*
X128168400Y-92279600D01*
X127374700Y-92279600D01*
X127209600Y-92444700D01*
X117900400Y-92444700D01*
X117735300Y-92279600D01*
X116941600Y-92279600D01*
X116941600Y-92299600D01*
X116738400Y-92299600D01*
X116738400Y-92279600D01*
X115944700Y-92279600D01*
X115779600Y-92444700D01*
X115779600Y-93259362D01*
X115880140Y-93502087D01*
X116065914Y-93687860D01*
X116275473Y-93774662D01*
X116165000Y-93774662D01*
X115920270Y-93820711D01*
X115695501Y-93965346D01*
X115544712Y-94186034D01*
X115491662Y-94448000D01*
X113030108Y-94448000D01*
X113013175Y-94407122D01*
X112769812Y-94351872D01*
X111998684Y-95123000D01*
X111711316Y-95123000D01*
X111697174Y-95108858D01*
X111840858Y-94965174D01*
X111855000Y-94979316D01*
X112626128Y-94208188D01*
X112570878Y-93964825D01*
X112073171Y-93779031D01*
X111542249Y-93797844D01*
X111139122Y-93964825D01*
X111103844Y-94120215D01*
X111012654Y-93978501D01*
X110791966Y-93827712D01*
X110530000Y-93774662D01*
X109180000Y-93774662D01*
X108935270Y-93820711D01*
X108710501Y-93965346D01*
X108559712Y-94186034D01*
X108506662Y-94448000D01*
X106045108Y-94448000D01*
X106028175Y-94407122D01*
X105784812Y-94351872D01*
X105013684Y-95123000D01*
X104726316Y-95123000D01*
X104712174Y-95108858D01*
X104855858Y-94965174D01*
X104870000Y-94979316D01*
X105641128Y-94208188D01*
X105585878Y-93964825D01*
X105113269Y-93788400D01*
X105143300Y-93788400D01*
X105308400Y-93623300D01*
X105308400Y-92279600D01*
X105511600Y-92279600D01*
X105511600Y-93623300D01*
X105676700Y-93788400D01*
X105941361Y-93788400D01*
X106184086Y-93687860D01*
X106369860Y-93502087D01*
X106470400Y-93259362D01*
X106470400Y-92444700D01*
X106305300Y-92279600D01*
X105511600Y-92279600D01*
X105308400Y-92279600D01*
X104514700Y-92279600D01*
X104349600Y-92444700D01*
X104349600Y-93259362D01*
X104450140Y-93502087D01*
X104635914Y-93687860D01*
X104874315Y-93786609D01*
X104557249Y-93797844D01*
X104154122Y-93964825D01*
X104118844Y-94120215D01*
X104027654Y-93978501D01*
X103806966Y-93827712D01*
X103545000Y-93774662D01*
X102195000Y-93774662D01*
X101950270Y-93820711D01*
X101725501Y-93965346D01*
X101574712Y-94186034D01*
X101521662Y-94448000D01*
X99060108Y-94448000D01*
X99043175Y-94407122D01*
X98799812Y-94351872D01*
X98028684Y-95123000D01*
X97741316Y-95123000D01*
X97727174Y-95108858D01*
X97870858Y-94965174D01*
X97885000Y-94979316D01*
X98656128Y-94208188D01*
X98600878Y-93964825D01*
X98103171Y-93779031D01*
X97572249Y-93797844D01*
X97169122Y-93964825D01*
X97133844Y-94120215D01*
X97042654Y-93978501D01*
X96821966Y-93827712D01*
X96560000Y-93774662D01*
X95210000Y-93774662D01*
X94965270Y-93820711D01*
X94740501Y-93965346D01*
X94589712Y-94186034D01*
X94536662Y-94448000D01*
X92075108Y-94448000D01*
X92058175Y-94407122D01*
X91814812Y-94351872D01*
X91043684Y-95123000D01*
X90756316Y-95123000D01*
X90742174Y-95108858D01*
X90885858Y-94965174D01*
X90900000Y-94979316D01*
X91671128Y-94208188D01*
X91615878Y-93964825D01*
X91118171Y-93779031D01*
X90587249Y-93797844D01*
X90184122Y-93964825D01*
X90148844Y-94120215D01*
X90057654Y-93978501D01*
X89836966Y-93827712D01*
X89814400Y-93823142D01*
X89814400Y-93596756D01*
X93293757Y-90117400D01*
X101846662Y-90117400D01*
X101846662Y-90203000D01*
X101892711Y-90447730D01*
X102037346Y-90672499D01*
X102258034Y-90823288D01*
X102520000Y-90876338D01*
X103220000Y-90876338D01*
X103464730Y-90830289D01*
X103689499Y-90685654D01*
X103694867Y-90677797D01*
X103798034Y-90748288D01*
X104060000Y-90801338D01*
X104502715Y-90801338D01*
X104450140Y-90853913D01*
X104349600Y-91096638D01*
X104349600Y-91911300D01*
X104514700Y-92076400D01*
X105308400Y-92076400D01*
X105308400Y-90732700D01*
X105242400Y-90666700D01*
X105329499Y-90610654D01*
X105409999Y-90492838D01*
X105477346Y-90597499D01*
X105578016Y-90666284D01*
X105511600Y-90732700D01*
X105511600Y-92076400D01*
X106305300Y-92076400D01*
X106470400Y-91911300D01*
X106470400Y-91096638D01*
X106369860Y-90853913D01*
X106317285Y-90801338D01*
X106760000Y-90801338D01*
X107004730Y-90755289D01*
X107125127Y-90677816D01*
X107338034Y-90823288D01*
X107600000Y-90876338D01*
X108300000Y-90876338D01*
X108544730Y-90830289D01*
X108769499Y-90685654D01*
X108920288Y-90464966D01*
X108973338Y-90203000D01*
X108973338Y-90117400D01*
X109425000Y-90117400D01*
X109774926Y-90047795D01*
X110071578Y-89849578D01*
X110287854Y-89633302D01*
X110398312Y-89587662D01*
X110668712Y-89317733D01*
X110807661Y-88983108D01*
X110945338Y-89316312D01*
X111215267Y-89586712D01*
X111326917Y-89633073D01*
X111543422Y-89849579D01*
X111695677Y-89951312D01*
X111840074Y-90047795D01*
X112190000Y-90117400D01*
X113276662Y-90117400D01*
X113276662Y-90203000D01*
X113322711Y-90447730D01*
X113467346Y-90672499D01*
X113688034Y-90823288D01*
X113950000Y-90876338D01*
X114650000Y-90876338D01*
X114894730Y-90830289D01*
X115119499Y-90685654D01*
X115124867Y-90677797D01*
X115228034Y-90748288D01*
X115490000Y-90801338D01*
X115932715Y-90801338D01*
X115880140Y-90853913D01*
X115779600Y-91096638D01*
X115779600Y-91911300D01*
X115944700Y-92076400D01*
X116738400Y-92076400D01*
X116738400Y-90732700D01*
X116672400Y-90666700D01*
X116759499Y-90610654D01*
X116839999Y-90492838D01*
X116907346Y-90597499D01*
X117008016Y-90666284D01*
X116941600Y-90732700D01*
X116941600Y-92076400D01*
X117735300Y-92076400D01*
X117900400Y-91911300D01*
X117900400Y-91096638D01*
X117799860Y-90853913D01*
X117747285Y-90801338D01*
X118190000Y-90801338D01*
X118434730Y-90755289D01*
X118555127Y-90677816D01*
X118768034Y-90823288D01*
X119030000Y-90876338D01*
X119730000Y-90876338D01*
X119974730Y-90830289D01*
X120199499Y-90685654D01*
X120350288Y-90464966D01*
X120403338Y-90203000D01*
X120403338Y-90117400D01*
X120855000Y-90117400D01*
X121204926Y-90047795D01*
X121501578Y-89849578D01*
X121717854Y-89633302D01*
X121828312Y-89587662D01*
X122098712Y-89317733D01*
X122237661Y-88983108D01*
X122375338Y-89316312D01*
X122645267Y-89586712D01*
X122756917Y-89633073D01*
X122973422Y-89849579D01*
X123125677Y-89951312D01*
X123270074Y-90047795D01*
X123620000Y-90117400D01*
X124706662Y-90117400D01*
X124706662Y-90203000D01*
X124752711Y-90447730D01*
X124897346Y-90672499D01*
X125118034Y-90823288D01*
X125380000Y-90876338D01*
X126080000Y-90876338D01*
X126324730Y-90830289D01*
X126549499Y-90685654D01*
X126554867Y-90677797D01*
X126658034Y-90748288D01*
X126920000Y-90801338D01*
X127362715Y-90801338D01*
X127310140Y-90853913D01*
X127209600Y-91096638D01*
X127209600Y-91911300D01*
X127374700Y-92076400D01*
X128168400Y-92076400D01*
X128168400Y-90732700D01*
X128102400Y-90666700D01*
X128189499Y-90610654D01*
X128269999Y-90492838D01*
X128337346Y-90597499D01*
X128438016Y-90666284D01*
X128371600Y-90732700D01*
X128371600Y-92076400D01*
X129165300Y-92076400D01*
X129330400Y-91911300D01*
X129330400Y-91096638D01*
X129229860Y-90853913D01*
X129177285Y-90801338D01*
X129620000Y-90801338D01*
X129864730Y-90755289D01*
X129985127Y-90677816D01*
X130198034Y-90823288D01*
X130460000Y-90876338D01*
X131160000Y-90876338D01*
X131404730Y-90830289D01*
X131629499Y-90685654D01*
X131780288Y-90464966D01*
X131833338Y-90203000D01*
X131833338Y-90117400D01*
X132066137Y-90117400D01*
X132170267Y-90221712D01*
X132523127Y-90368233D01*
X132905197Y-90368566D01*
X133068932Y-90300912D01*
X130163422Y-93206422D01*
X129965205Y-93503074D01*
X129902480Y-93818414D01*
X129890270Y-93820711D01*
X129665501Y-93965346D01*
X129514712Y-94186034D01*
X129461662Y-94448000D01*
X129461662Y-95798000D01*
X129507711Y-96042730D01*
X129652346Y-96267499D01*
X129873034Y-96418288D01*
X130135000Y-96471338D01*
X131485000Y-96471338D01*
X131729730Y-96425289D01*
X131954499Y-96280654D01*
X132059211Y-96127402D01*
X132094122Y-96281175D01*
X132591829Y-96466969D01*
X133122751Y-96448156D01*
X133525878Y-96281175D01*
X133581128Y-96037812D01*
X132810000Y-95266684D01*
X132795858Y-95280827D01*
X132652174Y-95137143D01*
X132666316Y-95123000D01*
X132953684Y-95123000D01*
X133724812Y-95894128D01*
X133968175Y-95838878D01*
X134153969Y-95341171D01*
X134135156Y-94810249D01*
X133985108Y-94448000D01*
X136446662Y-94448000D01*
X136446662Y-95798000D01*
X136492711Y-96042730D01*
X136637346Y-96267499D01*
X136858034Y-96418288D01*
X137120000Y-96471338D01*
X138470000Y-96471338D01*
X138714730Y-96425289D01*
X138939499Y-96280654D01*
X139044211Y-96127402D01*
X139079122Y-96281175D01*
X139576829Y-96466969D01*
X140107751Y-96448156D01*
X140510878Y-96281175D01*
X140566128Y-96037812D01*
X139795000Y-95266684D01*
X139780858Y-95280827D01*
X139637174Y-95137143D01*
X139651316Y-95123000D01*
X139938684Y-95123000D01*
X140709812Y-95894128D01*
X140953175Y-95838878D01*
X141138969Y-95341171D01*
X141120156Y-94810249D01*
X140953175Y-94407122D01*
X140709812Y-94351872D01*
X139938684Y-95123000D01*
X139651316Y-95123000D01*
X139637174Y-95108858D01*
X139780858Y-94965174D01*
X139795000Y-94979316D01*
X140566128Y-94208188D01*
X140510878Y-93964825D01*
X140038269Y-93788400D01*
X140231361Y-93788400D01*
X140474086Y-93687860D01*
X140659860Y-93502087D01*
X140760400Y-93259362D01*
X140760400Y-92444700D01*
X140595300Y-92279600D01*
X139801600Y-92279600D01*
X139801600Y-93623300D01*
X139959242Y-93780942D01*
X139482249Y-93797844D01*
X139079122Y-93964825D01*
X139043844Y-94120215D01*
X138952654Y-93978501D01*
X138731966Y-93827712D01*
X138470000Y-93774662D01*
X137120000Y-93774662D01*
X136875270Y-93820711D01*
X136650501Y-93965346D01*
X136499712Y-94186034D01*
X136446662Y-94448000D01*
X133985108Y-94448000D01*
X133968175Y-94407122D01*
X133724812Y-94351872D01*
X132953684Y-95123000D01*
X132666316Y-95123000D01*
X132652174Y-95108858D01*
X132795858Y-94965174D01*
X132810000Y-94979316D01*
X133581128Y-94208188D01*
X133525878Y-93964825D01*
X133028171Y-93779031D01*
X132497249Y-93797844D01*
X132094122Y-93964825D01*
X132058844Y-94120215D01*
X131971570Y-93984586D01*
X133511456Y-92444700D01*
X138639600Y-92444700D01*
X138639600Y-93259362D01*
X138740140Y-93502087D01*
X138925914Y-93687860D01*
X139168639Y-93788400D01*
X139433300Y-93788400D01*
X139598400Y-93623300D01*
X139598400Y-92279600D01*
X138804700Y-92279600D01*
X138639600Y-92444700D01*
X133511456Y-92444700D01*
X135838756Y-90117400D01*
X136136662Y-90117400D01*
X136136662Y-90203000D01*
X136182711Y-90447730D01*
X136327346Y-90672499D01*
X136548034Y-90823288D01*
X136810000Y-90876338D01*
X137510000Y-90876338D01*
X137754730Y-90830289D01*
X137979499Y-90685654D01*
X137984867Y-90677797D01*
X138088034Y-90748288D01*
X138350000Y-90801338D01*
X138792715Y-90801338D01*
X138740140Y-90853913D01*
X138639600Y-91096638D01*
X138639600Y-91911300D01*
X138804700Y-92076400D01*
X139598400Y-92076400D01*
X139598400Y-90732700D01*
X139532400Y-90666700D01*
X139619499Y-90610654D01*
X139699999Y-90492838D01*
X139767346Y-90597499D01*
X139868016Y-90666284D01*
X139801600Y-90732700D01*
X139801600Y-92076400D01*
X140595300Y-92076400D01*
X140760400Y-91911300D01*
X140760400Y-91096638D01*
X140659860Y-90853913D01*
X140607285Y-90801338D01*
X141050000Y-90801338D01*
X141294730Y-90755289D01*
X141415127Y-90677816D01*
X141628034Y-90823288D01*
X141890000Y-90876338D01*
X142590000Y-90876338D01*
X142834730Y-90830289D01*
X143059499Y-90685654D01*
X143210288Y-90464966D01*
X143263338Y-90203000D01*
X143263338Y-90117400D01*
X143496137Y-90117400D01*
X143600267Y-90221712D01*
X143953127Y-90368233D01*
X144335197Y-90368566D01*
X144688312Y-90222662D01*
X144958712Y-89952733D01*
X145105233Y-89599873D01*
X145105566Y-89217803D01*
X144959662Y-88864688D01*
X144689733Y-88594288D01*
X144566937Y-88543299D01*
X144549163Y-88531422D01*
X144289926Y-88358205D01*
X143940000Y-88288600D01*
X143263338Y-88288600D01*
X143263338Y-88203000D01*
X143217289Y-87958270D01*
X143072654Y-87733501D01*
X142851966Y-87582712D01*
X142590000Y-87529662D01*
X141890000Y-87529662D01*
X141645270Y-87575711D01*
X141449501Y-87701685D01*
X141311966Y-87607712D01*
X141050000Y-87554662D01*
X140250000Y-87554662D01*
X140005270Y-87600711D01*
X139780501Y-87745346D01*
X139700001Y-87863162D01*
X139632654Y-87758501D01*
X139411966Y-87607712D01*
X139150000Y-87554662D01*
X138350000Y-87554662D01*
X138105270Y-87600711D01*
X137947187Y-87702435D01*
X137771966Y-87582712D01*
X137510000Y-87529662D01*
X136810000Y-87529662D01*
X136565270Y-87575711D01*
X136340501Y-87720346D01*
X136189712Y-87941034D01*
X136136662Y-88203000D01*
X136136662Y-88288600D01*
X135460000Y-88288600D01*
X135110074Y-88358205D01*
X134850837Y-88531422D01*
X134813422Y-88556422D01*
X133607960Y-89761884D01*
X133675233Y-89599873D01*
X133675566Y-89217803D01*
X133529662Y-88864688D01*
X133259733Y-88594288D01*
X133136937Y-88543299D01*
X133119163Y-88531422D01*
X132859926Y-88358205D01*
X132510000Y-88288600D01*
X131833338Y-88288600D01*
X131833338Y-88203000D01*
X131787289Y-87958270D01*
X131642654Y-87733501D01*
X131421966Y-87582712D01*
X131160000Y-87529662D01*
X130460000Y-87529662D01*
X130215270Y-87575711D01*
X130019501Y-87701685D01*
X129881966Y-87607712D01*
X129620000Y-87554662D01*
X128820000Y-87554662D01*
X128575270Y-87600711D01*
X128350501Y-87745346D01*
X128270001Y-87863162D01*
X128202654Y-87758501D01*
X127981966Y-87607712D01*
X127720000Y-87554662D01*
X126920000Y-87554662D01*
X126675270Y-87600711D01*
X126517187Y-87702435D01*
X126341966Y-87582712D01*
X126080000Y-87529662D01*
X125380000Y-87529662D01*
X125135270Y-87575711D01*
X124910501Y-87720346D01*
X124759712Y-87941034D01*
X124706662Y-88203000D01*
X124706662Y-88288600D01*
X124029004Y-88288600D01*
X124004662Y-88229688D01*
X123734733Y-87959288D01*
X123381873Y-87812767D01*
X122999803Y-87812434D01*
X122646688Y-87958338D01*
X122376288Y-88228267D01*
X122237339Y-88562892D01*
X122099662Y-88229688D01*
X121829733Y-87959288D01*
X121476873Y-87812767D01*
X121094803Y-87812434D01*
X120741688Y-87958338D01*
X120471288Y-88228267D01*
X120446235Y-88288600D01*
X120403338Y-88288600D01*
X120403338Y-88203000D01*
X120357289Y-87958270D01*
X120212654Y-87733501D01*
X119991966Y-87582712D01*
X119730000Y-87529662D01*
X119030000Y-87529662D01*
X118785270Y-87575711D01*
X118589501Y-87701685D01*
X118451966Y-87607712D01*
X118190000Y-87554662D01*
X117390000Y-87554662D01*
X117145270Y-87600711D01*
X116920501Y-87745346D01*
X116840001Y-87863162D01*
X116772654Y-87758501D01*
X116551966Y-87607712D01*
X116290000Y-87554662D01*
X115490000Y-87554662D01*
X115245270Y-87600711D01*
X115087187Y-87702435D01*
X114911966Y-87582712D01*
X114650000Y-87529662D01*
X113950000Y-87529662D01*
X113705270Y-87575711D01*
X113480501Y-87720346D01*
X113329712Y-87941034D01*
X113276662Y-88203000D01*
X113276662Y-88288600D01*
X112599004Y-88288600D01*
X112574662Y-88229688D01*
X112304733Y-87959288D01*
X111951873Y-87812767D01*
X111569803Y-87812434D01*
X111216688Y-87958338D01*
X110946288Y-88228267D01*
X110807339Y-88562892D01*
X110669662Y-88229688D01*
X110399733Y-87959288D01*
X110046873Y-87812767D01*
X109664803Y-87812434D01*
X109311688Y-87958338D01*
X109041288Y-88228267D01*
X109016235Y-88288600D01*
X108973338Y-88288600D01*
X108973338Y-88203000D01*
X108927289Y-87958270D01*
X108782654Y-87733501D01*
X108561966Y-87582712D01*
X108300000Y-87529662D01*
X107600000Y-87529662D01*
X107355270Y-87575711D01*
X107159501Y-87701685D01*
X107021966Y-87607712D01*
X106760000Y-87554662D01*
X105960000Y-87554662D01*
X105715270Y-87600711D01*
X105490501Y-87745346D01*
X105410001Y-87863162D01*
X105342654Y-87758501D01*
X105121966Y-87607712D01*
X104860000Y-87554662D01*
X104060000Y-87554662D01*
X103815270Y-87600711D01*
X103657187Y-87702435D01*
X103481966Y-87582712D01*
X103220000Y-87529662D01*
X102520000Y-87529662D01*
X102275270Y-87575711D01*
X102050501Y-87720346D01*
X101899712Y-87941034D01*
X101846662Y-88203000D01*
X101846662Y-88288600D01*
X92915000Y-88288600D01*
X92565074Y-88358205D01*
X92268421Y-88556422D01*
X88253422Y-92571422D01*
X88055205Y-92868074D01*
X87985600Y-93218000D01*
X87985600Y-93819708D01*
X87980270Y-93820711D01*
X87755501Y-93965346D01*
X87604712Y-94186034D01*
X87551662Y-94448000D01*
X84555400Y-94448000D01*
X84555400Y-88128884D01*
X85104053Y-88128884D01*
X85584181Y-89290884D01*
X86472440Y-90180695D01*
X87633600Y-90662850D01*
X88890884Y-90663947D01*
X90052884Y-90183819D01*
X90942695Y-89295560D01*
X91424850Y-88134400D01*
X91425947Y-86877116D01*
X90945819Y-85715116D01*
X90057560Y-84825305D01*
X88896400Y-84343150D01*
X87639116Y-84342053D01*
X86477116Y-84822181D01*
X85587305Y-85710440D01*
X85105150Y-86871600D01*
X85104053Y-88128884D01*
X84555400Y-88128884D01*
X84555400Y-78314093D01*
X86792468Y-78314093D01*
X86986103Y-78781589D01*
X87390973Y-79209832D01*
X87928906Y-79450540D01*
X88163400Y-79319887D01*
X88163400Y-78079600D01*
X88366600Y-78079600D01*
X88366600Y-79319887D01*
X88601094Y-79450540D01*
X89139027Y-79209832D01*
X89543897Y-78781589D01*
X89737532Y-78314093D01*
X89606458Y-78079600D01*
X88366600Y-78079600D01*
X88163400Y-78079600D01*
X86923542Y-78079600D01*
X86792468Y-78314093D01*
X84555400Y-78314093D01*
X84555400Y-75774093D01*
X86792468Y-75774093D01*
X86986103Y-76241589D01*
X87390973Y-76669832D01*
X87476271Y-76708000D01*
X87390973Y-76746168D01*
X86986103Y-77174411D01*
X86792468Y-77641907D01*
X86923542Y-77876400D01*
X88163400Y-77876400D01*
X88163400Y-75539600D01*
X88366600Y-75539600D01*
X88366600Y-77876400D01*
X89606458Y-77876400D01*
X89737532Y-77641907D01*
X89543897Y-77174411D01*
X89139027Y-76746168D01*
X89053729Y-76708000D01*
X89139027Y-76669832D01*
X89543897Y-76241589D01*
X89737532Y-75774093D01*
X89606458Y-75539600D01*
X88366600Y-75539600D01*
X88163400Y-75539600D01*
X86923542Y-75539600D01*
X86792468Y-75774093D01*
X84555400Y-75774093D01*
X84555400Y-73164700D01*
X86754600Y-73164700D01*
X86754600Y-73879361D01*
X86855140Y-74122086D01*
X87040913Y-74307860D01*
X87223377Y-74383439D01*
X86986103Y-74634411D01*
X86792468Y-75101907D01*
X86923542Y-75336400D01*
X88163400Y-75336400D01*
X88163400Y-72999600D01*
X88366600Y-72999600D01*
X88366600Y-75336400D01*
X89606458Y-75336400D01*
X89737532Y-75101907D01*
X89543897Y-74634411D01*
X89306623Y-74383439D01*
X89489087Y-74307860D01*
X89674860Y-74122086D01*
X89775400Y-73879361D01*
X89775400Y-73164700D01*
X89610300Y-72999600D01*
X88366600Y-72999600D01*
X88163400Y-72999600D01*
X86919700Y-72999600D01*
X86754600Y-73164700D01*
X84555400Y-73164700D01*
X84555400Y-71916639D01*
X86754600Y-71916639D01*
X86754600Y-72631300D01*
X86919700Y-72796400D01*
X88163400Y-72796400D01*
X88163400Y-71552700D01*
X88366600Y-71552700D01*
X88366600Y-72796400D01*
X89610300Y-72796400D01*
X89775400Y-72631300D01*
X89775400Y-71916639D01*
X89674860Y-71673914D01*
X89489087Y-71488140D01*
X89246362Y-71387600D01*
X88531700Y-71387600D01*
X88366600Y-71552700D01*
X88163400Y-71552700D01*
X87998300Y-71387600D01*
X87283638Y-71387600D01*
X87040913Y-71488140D01*
X86855140Y-71673914D01*
X86754600Y-71916639D01*
X84555400Y-71916639D01*
X84555400Y-68495820D01*
X90556757Y-68495820D01*
X90786697Y-69052319D01*
X90779600Y-69088000D01*
X90779600Y-75438000D01*
X90926543Y-76176732D01*
X91345001Y-76802999D01*
X93885001Y-79342999D01*
X94335600Y-79644079D01*
X94335600Y-81153000D01*
X94405205Y-81502926D01*
X94455505Y-81578205D01*
X94603422Y-81799578D01*
X95873421Y-83069578D01*
X96021748Y-83168686D01*
X96170074Y-83267795D01*
X96520000Y-83337400D01*
X100155368Y-83337400D01*
X100287346Y-83542499D01*
X100508034Y-83693288D01*
X100770000Y-83746338D01*
X101523506Y-83746338D01*
X101273422Y-83996422D01*
X101075205Y-84293074D01*
X101057164Y-84383772D01*
X100949712Y-84541034D01*
X100896662Y-84803000D01*
X100896662Y-86803000D01*
X100942711Y-87047730D01*
X101087346Y-87272499D01*
X101308034Y-87423288D01*
X101570000Y-87476338D01*
X102270000Y-87476338D01*
X102514730Y-87430289D01*
X102739499Y-87285654D01*
X102871498Y-87092466D01*
X102987346Y-87272499D01*
X103208034Y-87423288D01*
X103470000Y-87476338D01*
X104170000Y-87476338D01*
X104414730Y-87430289D01*
X104639499Y-87285654D01*
X104790288Y-87064966D01*
X104843338Y-86803000D01*
X104843338Y-86717400D01*
X105205000Y-86717400D01*
X105554926Y-86647795D01*
X105831500Y-86462994D01*
X105953312Y-86412662D01*
X105976662Y-86389353D01*
X105976662Y-86803000D01*
X106022711Y-87047730D01*
X106167346Y-87272499D01*
X106388034Y-87423288D01*
X106650000Y-87476338D01*
X107350000Y-87476338D01*
X107594730Y-87430289D01*
X107819499Y-87285654D01*
X107951498Y-87092466D01*
X108067346Y-87272499D01*
X108288034Y-87423288D01*
X108550000Y-87476338D01*
X109250000Y-87476338D01*
X109494730Y-87430289D01*
X109719499Y-87285654D01*
X109870288Y-87064966D01*
X109923338Y-86803000D01*
X109923338Y-86717400D01*
X110920000Y-86717400D01*
X111269926Y-86647795D01*
X111546500Y-86462994D01*
X111668312Y-86412662D01*
X111938712Y-86142733D01*
X112085233Y-85789873D01*
X112085566Y-85407803D01*
X111939662Y-85054688D01*
X111669733Y-84784288D01*
X111316873Y-84637767D01*
X110934803Y-84637434D01*
X110581688Y-84783338D01*
X110476242Y-84888600D01*
X109923338Y-84888600D01*
X109923338Y-84803000D01*
X109877289Y-84558270D01*
X109814400Y-84460538D01*
X109814400Y-83746338D01*
X110050000Y-83746338D01*
X110294730Y-83700289D01*
X110519499Y-83555654D01*
X110668625Y-83337400D01*
X111585368Y-83337400D01*
X111717346Y-83542499D01*
X111938034Y-83693288D01*
X112200000Y-83746338D01*
X112873506Y-83746338D01*
X112703422Y-83916422D01*
X112505205Y-84213074D01*
X112464716Y-84416626D01*
X112379712Y-84541034D01*
X112326662Y-84803000D01*
X112326662Y-86803000D01*
X112372711Y-87047730D01*
X112517346Y-87272499D01*
X112738034Y-87423288D01*
X113000000Y-87476338D01*
X113700000Y-87476338D01*
X113944730Y-87430289D01*
X114169499Y-87285654D01*
X114301498Y-87092466D01*
X114417346Y-87272499D01*
X114638034Y-87423288D01*
X114900000Y-87476338D01*
X115600000Y-87476338D01*
X115844730Y-87430289D01*
X116069499Y-87285654D01*
X116220288Y-87064966D01*
X116273338Y-86803000D01*
X116273338Y-86717400D01*
X116635000Y-86717400D01*
X116984926Y-86647795D01*
X117261500Y-86462994D01*
X117383312Y-86412662D01*
X117406662Y-86389353D01*
X117406662Y-86803000D01*
X117452711Y-87047730D01*
X117597346Y-87272499D01*
X117818034Y-87423288D01*
X118080000Y-87476338D01*
X118780000Y-87476338D01*
X119024730Y-87430289D01*
X119249499Y-87285654D01*
X119381498Y-87092466D01*
X119497346Y-87272499D01*
X119718034Y-87423288D01*
X119980000Y-87476338D01*
X120680000Y-87476338D01*
X120924730Y-87430289D01*
X121149499Y-87285654D01*
X121300288Y-87064966D01*
X121353338Y-86803000D01*
X121353338Y-84803000D01*
X121307289Y-84558270D01*
X121244400Y-84460538D01*
X121244400Y-83746338D01*
X121480000Y-83746338D01*
X121724730Y-83700289D01*
X121949499Y-83555654D01*
X122098625Y-83337400D01*
X123015368Y-83337400D01*
X123147346Y-83542499D01*
X123368034Y-83693288D01*
X123630000Y-83746338D01*
X124303506Y-83746338D01*
X124133422Y-83916422D01*
X123935205Y-84213074D01*
X123894716Y-84416626D01*
X123809712Y-84541034D01*
X123756662Y-84803000D01*
X123756662Y-86803000D01*
X123802711Y-87047730D01*
X123947346Y-87272499D01*
X124168034Y-87423288D01*
X124430000Y-87476338D01*
X125130000Y-87476338D01*
X125374730Y-87430289D01*
X125599499Y-87285654D01*
X125731498Y-87092466D01*
X125847346Y-87272499D01*
X126068034Y-87423288D01*
X126330000Y-87476338D01*
X127030000Y-87476338D01*
X127274730Y-87430289D01*
X127499499Y-87285654D01*
X127650288Y-87064966D01*
X127703338Y-86803000D01*
X127703338Y-86717400D01*
X128065000Y-86717400D01*
X128414926Y-86647795D01*
X128691500Y-86462994D01*
X128813312Y-86412662D01*
X128836662Y-86389353D01*
X128836662Y-86803000D01*
X128882711Y-87047730D01*
X129027346Y-87272499D01*
X129248034Y-87423288D01*
X129510000Y-87476338D01*
X130210000Y-87476338D01*
X130454730Y-87430289D01*
X130679499Y-87285654D01*
X130811498Y-87092466D01*
X130927346Y-87272499D01*
X131148034Y-87423288D01*
X131410000Y-87476338D01*
X132110000Y-87476338D01*
X132354730Y-87430289D01*
X132579499Y-87285654D01*
X132730288Y-87064966D01*
X132783338Y-86803000D01*
X132783338Y-86717400D01*
X133780000Y-86717400D01*
X134129926Y-86647795D01*
X134406500Y-86462994D01*
X134528312Y-86412662D01*
X134798712Y-86142733D01*
X134945233Y-85789873D01*
X134945566Y-85407803D01*
X134799662Y-85054688D01*
X134529733Y-84784288D01*
X134176873Y-84637767D01*
X133794803Y-84637434D01*
X133441688Y-84783338D01*
X133336242Y-84888600D01*
X132783338Y-84888600D01*
X132783338Y-84803000D01*
X132737289Y-84558270D01*
X132674400Y-84460538D01*
X132674400Y-83746338D01*
X132910000Y-83746338D01*
X133154730Y-83700289D01*
X133379499Y-83555654D01*
X133528625Y-83337400D01*
X134445368Y-83337400D01*
X134577346Y-83542499D01*
X134798034Y-83693288D01*
X135060000Y-83746338D01*
X135733506Y-83746338D01*
X135563422Y-83916422D01*
X135365205Y-84213074D01*
X135324716Y-84416626D01*
X135239712Y-84541034D01*
X135186662Y-84803000D01*
X135186662Y-86803000D01*
X135232711Y-87047730D01*
X135377346Y-87272499D01*
X135598034Y-87423288D01*
X135860000Y-87476338D01*
X136560000Y-87476338D01*
X136804730Y-87430289D01*
X137029499Y-87285654D01*
X137161498Y-87092466D01*
X137277346Y-87272499D01*
X137498034Y-87423288D01*
X137760000Y-87476338D01*
X138460000Y-87476338D01*
X138704730Y-87430289D01*
X138929499Y-87285654D01*
X139080288Y-87064966D01*
X139133338Y-86803000D01*
X139133338Y-86717400D01*
X139495000Y-86717400D01*
X139844926Y-86647795D01*
X140121500Y-86462994D01*
X140243312Y-86412662D01*
X140266662Y-86389353D01*
X140266662Y-86803000D01*
X140312711Y-87047730D01*
X140457346Y-87272499D01*
X140678034Y-87423288D01*
X140940000Y-87476338D01*
X141640000Y-87476338D01*
X141884730Y-87430289D01*
X142109499Y-87285654D01*
X142241498Y-87092466D01*
X142357346Y-87272499D01*
X142578034Y-87423288D01*
X142840000Y-87476338D01*
X143540000Y-87476338D01*
X143784730Y-87430289D01*
X144009499Y-87285654D01*
X144160288Y-87064966D01*
X144213338Y-86803000D01*
X144213338Y-84803000D01*
X144167289Y-84558270D01*
X144104400Y-84460538D01*
X144104400Y-83746338D01*
X144340000Y-83746338D01*
X144584730Y-83700289D01*
X144809499Y-83555654D01*
X144960288Y-83334966D01*
X145013338Y-83073000D01*
X145013338Y-81773000D01*
X144967289Y-81528270D01*
X144822654Y-81303501D01*
X144601966Y-81152712D01*
X144424400Y-81116754D01*
X144424400Y-81023288D01*
X144542659Y-80944270D01*
X144859234Y-80470482D01*
X144970400Y-79911611D01*
X144970400Y-79854389D01*
X144859234Y-79295518D01*
X144542659Y-78821730D01*
X144424400Y-78742712D01*
X144424400Y-78613000D01*
X144380836Y-78393989D01*
X144354796Y-78263075D01*
X144156579Y-77966422D01*
X143521578Y-77331422D01*
X143357004Y-77221457D01*
X143224926Y-77133205D01*
X142875000Y-77063600D01*
X97180400Y-77063600D01*
X97180400Y-69088000D01*
X97173353Y-69052570D01*
X97402055Y-68501794D01*
X97403243Y-67140180D01*
X96883274Y-65881757D01*
X95921307Y-64918110D01*
X94663794Y-64395945D01*
X93302180Y-64394757D01*
X92043757Y-64914726D01*
X91080110Y-65876693D01*
X90557945Y-67134206D01*
X90556757Y-68495820D01*
X84555400Y-68495820D01*
X84555400Y-62069887D01*
X92251797Y-62069887D01*
X92468786Y-62450861D01*
X93445952Y-62857689D01*
X94504423Y-62859604D01*
X95483055Y-62456313D01*
X95491214Y-62450861D01*
X95708203Y-62069887D01*
X93980000Y-60341684D01*
X92251797Y-62069887D01*
X84555400Y-62069887D01*
X84555400Y-60722423D01*
X91318396Y-60722423D01*
X91721687Y-61701055D01*
X91727139Y-61709214D01*
X92108113Y-61926203D01*
X93836316Y-60198000D01*
X94123684Y-60198000D01*
X95851887Y-61926203D01*
X96232861Y-61709214D01*
X96639689Y-60732048D01*
X96641604Y-59673577D01*
X96238313Y-58694945D01*
X96232861Y-58686786D01*
X95851887Y-58469797D01*
X94123684Y-60198000D01*
X93836316Y-60198000D01*
X92108113Y-58469797D01*
X91727139Y-58686786D01*
X91320311Y-59663952D01*
X91318396Y-60722423D01*
X84555400Y-60722423D01*
X84555400Y-58326113D01*
X92251797Y-58326113D01*
X93980000Y-60054316D01*
X95708203Y-58326113D01*
X95491214Y-57945139D01*
X94514048Y-57538311D01*
X93455577Y-57536396D01*
X92476945Y-57939687D01*
X92468786Y-57945139D01*
X92251797Y-58326113D01*
X84555400Y-58326113D01*
X84555400Y-50237432D01*
X84657741Y-49722926D01*
X84908156Y-49348156D01*
X85282926Y-49097741D01*
X85797432Y-48995400D01*
X97637600Y-48995400D01*
X97637600Y-76708000D01*
X97637600Y-76708000D01*
G37*
X97637600Y-76708000D02*
X97649607Y-76767292D01*
X97683736Y-76817242D01*
X97734609Y-76849977D01*
X97790000Y-76860400D01*
X145897600Y-76860400D01*
X145897600Y-96875600D01*
X84555400Y-96875600D01*
X84555400Y-94448000D01*
X87551662Y-94448000D01*
X87551662Y-95798000D01*
X87597711Y-96042730D01*
X87742346Y-96267499D01*
X87963034Y-96418288D01*
X88225000Y-96471338D01*
X89575000Y-96471338D01*
X89819730Y-96425289D01*
X90044499Y-96280654D01*
X90149211Y-96127402D01*
X90184122Y-96281175D01*
X90681829Y-96466969D01*
X91212751Y-96448156D01*
X91615878Y-96281175D01*
X91671128Y-96037812D01*
X90900000Y-95266684D01*
X90885858Y-95280827D01*
X90742174Y-95137143D01*
X90756316Y-95123000D01*
X91043684Y-95123000D01*
X91814812Y-95894128D01*
X92058175Y-95838878D01*
X92243969Y-95341171D01*
X92225156Y-94810249D01*
X92075108Y-94448000D01*
X94536662Y-94448000D01*
X94536662Y-95798000D01*
X94582711Y-96042730D01*
X94727346Y-96267499D01*
X94948034Y-96418288D01*
X95210000Y-96471338D01*
X96560000Y-96471338D01*
X96804730Y-96425289D01*
X97029499Y-96280654D01*
X97134211Y-96127402D01*
X97169122Y-96281175D01*
X97666829Y-96466969D01*
X98197751Y-96448156D01*
X98600878Y-96281175D01*
X98656128Y-96037812D01*
X97885000Y-95266684D01*
X97870858Y-95280827D01*
X97727174Y-95137143D01*
X97741316Y-95123000D01*
X98028684Y-95123000D01*
X98799812Y-95894128D01*
X99043175Y-95838878D01*
X99228969Y-95341171D01*
X99210156Y-94810249D01*
X99060108Y-94448000D01*
X101521662Y-94448000D01*
X101521662Y-95798000D01*
X101567711Y-96042730D01*
X101712346Y-96267499D01*
X101933034Y-96418288D01*
X102195000Y-96471338D01*
X103545000Y-96471338D01*
X103789730Y-96425289D01*
X104014499Y-96280654D01*
X104119211Y-96127402D01*
X104154122Y-96281175D01*
X104651829Y-96466969D01*
X105182751Y-96448156D01*
X105585878Y-96281175D01*
X105641128Y-96037812D01*
X104870000Y-95266684D01*
X104855858Y-95280827D01*
X104712174Y-95137143D01*
X104726316Y-95123000D01*
X105013684Y-95123000D01*
X105784812Y-95894128D01*
X106028175Y-95838878D01*
X106213969Y-95341171D01*
X106195156Y-94810249D01*
X106045108Y-94448000D01*
X108506662Y-94448000D01*
X108506662Y-95798000D01*
X108552711Y-96042730D01*
X108697346Y-96267499D01*
X108918034Y-96418288D01*
X109180000Y-96471338D01*
X110530000Y-96471338D01*
X110774730Y-96425289D01*
X110999499Y-96280654D01*
X111104211Y-96127402D01*
X111139122Y-96281175D01*
X111636829Y-96466969D01*
X112167751Y-96448156D01*
X112570878Y-96281175D01*
X112626128Y-96037812D01*
X111855000Y-95266684D01*
X111840858Y-95280827D01*
X111697174Y-95137143D01*
X111711316Y-95123000D01*
X111998684Y-95123000D01*
X112769812Y-95894128D01*
X113013175Y-95838878D01*
X113198969Y-95341171D01*
X113180156Y-94810249D01*
X113030108Y-94448000D01*
X115491662Y-94448000D01*
X115491662Y-95798000D01*
X115537711Y-96042730D01*
X115682346Y-96267499D01*
X115903034Y-96418288D01*
X116165000Y-96471338D01*
X117515000Y-96471338D01*
X117759730Y-96425289D01*
X117984499Y-96280654D01*
X118089211Y-96127402D01*
X118124122Y-96281175D01*
X118621829Y-96466969D01*
X119152751Y-96448156D01*
X119555878Y-96281175D01*
X119611128Y-96037812D01*
X118840000Y-95266684D01*
X118825858Y-95280827D01*
X118682174Y-95137143D01*
X118696316Y-95123000D01*
X118983684Y-95123000D01*
X119754812Y-95894128D01*
X119998175Y-95838878D01*
X120183969Y-95341171D01*
X120165156Y-94810249D01*
X120015108Y-94448000D01*
X122476662Y-94448000D01*
X122476662Y-95798000D01*
X122522711Y-96042730D01*
X122667346Y-96267499D01*
X122888034Y-96418288D01*
X123150000Y-96471338D01*
X124500000Y-96471338D01*
X124744730Y-96425289D01*
X124969499Y-96280654D01*
X125074211Y-96127402D01*
X125109122Y-96281175D01*
X125606829Y-96466969D01*
X126137751Y-96448156D01*
X126540878Y-96281175D01*
X126596128Y-96037812D01*
X125825000Y-95266684D01*
X125810858Y-95280827D01*
X125667174Y-95137143D01*
X125681316Y-95123000D01*
X125968684Y-95123000D01*
X126739812Y-95894128D01*
X126983175Y-95838878D01*
X127168969Y-95341171D01*
X127150156Y-94810249D01*
X126983175Y-94407122D01*
X126739812Y-94351872D01*
X125968684Y-95123000D01*
X125681316Y-95123000D01*
X125667174Y-95108858D01*
X125810858Y-94965174D01*
X125825000Y-94979316D01*
X126596128Y-94208188D01*
X126540878Y-93964825D01*
X126043171Y-93779031D01*
X125512249Y-93797844D01*
X125109122Y-93964825D01*
X125073844Y-94120215D01*
X124982654Y-93978501D01*
X124761966Y-93827712D01*
X124500000Y-93774662D01*
X123150000Y-93774662D01*
X122905270Y-93820711D01*
X122680501Y-93965346D01*
X122529712Y-94186034D01*
X122476662Y-94448000D01*
X120015108Y-94448000D01*
X119998175Y-94407122D01*
X119754812Y-94351872D01*
X118983684Y-95123000D01*
X118696316Y-95123000D01*
X118682174Y-95108858D01*
X118825858Y-94965174D01*
X118840000Y-94979316D01*
X119611128Y-94208188D01*
X119555878Y-93964825D01*
X119058171Y-93779031D01*
X118527249Y-93797844D01*
X118124122Y-93964825D01*
X118088844Y-94120215D01*
X117997654Y-93978501D01*
X117776966Y-93827712D01*
X117515000Y-93774662D01*
X117404527Y-93774662D01*
X117614086Y-93687860D01*
X117799860Y-93502087D01*
X117900400Y-93259362D01*
X117900400Y-92444700D01*
X127209600Y-92444700D01*
X127209600Y-93259362D01*
X127310140Y-93502087D01*
X127495914Y-93687860D01*
X127738639Y-93788400D01*
X128003300Y-93788400D01*
X128168400Y-93623300D01*
X128168400Y-92279600D01*
X128371600Y-92279600D01*
X128371600Y-93623300D01*
X128536700Y-93788400D01*
X128801361Y-93788400D01*
X129044086Y-93687860D01*
X129229860Y-93502087D01*
X129330400Y-93259362D01*
X129330400Y-92444700D01*
X129165300Y-92279600D01*
X128371600Y-92279600D01*
X128168400Y-92279600D01*
X127374700Y-92279600D01*
X127209600Y-92444700D01*
X117900400Y-92444700D01*
X117735300Y-92279600D01*
X116941600Y-92279600D01*
X116941600Y-92299600D01*
X116738400Y-92299600D01*
X116738400Y-92279600D01*
X115944700Y-92279600D01*
X115779600Y-92444700D01*
X115779600Y-93259362D01*
X115880140Y-93502087D01*
X116065914Y-93687860D01*
X116275473Y-93774662D01*
X116165000Y-93774662D01*
X115920270Y-93820711D01*
X115695501Y-93965346D01*
X115544712Y-94186034D01*
X115491662Y-94448000D01*
X113030108Y-94448000D01*
X113013175Y-94407122D01*
X112769812Y-94351872D01*
X111998684Y-95123000D01*
X111711316Y-95123000D01*
X111697174Y-95108858D01*
X111840858Y-94965174D01*
X111855000Y-94979316D01*
X112626128Y-94208188D01*
X112570878Y-93964825D01*
X112073171Y-93779031D01*
X111542249Y-93797844D01*
X111139122Y-93964825D01*
X111103844Y-94120215D01*
X111012654Y-93978501D01*
X110791966Y-93827712D01*
X110530000Y-93774662D01*
X109180000Y-93774662D01*
X108935270Y-93820711D01*
X108710501Y-93965346D01*
X108559712Y-94186034D01*
X108506662Y-94448000D01*
X106045108Y-94448000D01*
X106028175Y-94407122D01*
X105784812Y-94351872D01*
X105013684Y-95123000D01*
X104726316Y-95123000D01*
X104712174Y-95108858D01*
X104855858Y-94965174D01*
X104870000Y-94979316D01*
X105641128Y-94208188D01*
X105585878Y-93964825D01*
X105113269Y-93788400D01*
X105143300Y-93788400D01*
X105308400Y-93623300D01*
X105308400Y-92279600D01*
X105511600Y-92279600D01*
X105511600Y-93623300D01*
X105676700Y-93788400D01*
X105941361Y-93788400D01*
X106184086Y-93687860D01*
X106369860Y-93502087D01*
X106470400Y-93259362D01*
X106470400Y-92444700D01*
X106305300Y-92279600D01*
X105511600Y-92279600D01*
X105308400Y-92279600D01*
X104514700Y-92279600D01*
X104349600Y-92444700D01*
X104349600Y-93259362D01*
X104450140Y-93502087D01*
X104635914Y-93687860D01*
X104874315Y-93786609D01*
X104557249Y-93797844D01*
X104154122Y-93964825D01*
X104118844Y-94120215D01*
X104027654Y-93978501D01*
X103806966Y-93827712D01*
X103545000Y-93774662D01*
X102195000Y-93774662D01*
X101950270Y-93820711D01*
X101725501Y-93965346D01*
X101574712Y-94186034D01*
X101521662Y-94448000D01*
X99060108Y-94448000D01*
X99043175Y-94407122D01*
X98799812Y-94351872D01*
X98028684Y-95123000D01*
X97741316Y-95123000D01*
X97727174Y-95108858D01*
X97870858Y-94965174D01*
X97885000Y-94979316D01*
X98656128Y-94208188D01*
X98600878Y-93964825D01*
X98103171Y-93779031D01*
X97572249Y-93797844D01*
X97169122Y-93964825D01*
X97133844Y-94120215D01*
X97042654Y-93978501D01*
X96821966Y-93827712D01*
X96560000Y-93774662D01*
X95210000Y-93774662D01*
X94965270Y-93820711D01*
X94740501Y-93965346D01*
X94589712Y-94186034D01*
X94536662Y-94448000D01*
X92075108Y-94448000D01*
X92058175Y-94407122D01*
X91814812Y-94351872D01*
X91043684Y-95123000D01*
X90756316Y-95123000D01*
X90742174Y-95108858D01*
X90885858Y-94965174D01*
X90900000Y-94979316D01*
X91671128Y-94208188D01*
X91615878Y-93964825D01*
X91118171Y-93779031D01*
X90587249Y-93797844D01*
X90184122Y-93964825D01*
X90148844Y-94120215D01*
X90057654Y-93978501D01*
X89836966Y-93827712D01*
X89814400Y-93823142D01*
X89814400Y-93596756D01*
X93293757Y-90117400D01*
X101846662Y-90117400D01*
X101846662Y-90203000D01*
X101892711Y-90447730D01*
X102037346Y-90672499D01*
X102258034Y-90823288D01*
X102520000Y-90876338D01*
X103220000Y-90876338D01*
X103464730Y-90830289D01*
X103689499Y-90685654D01*
X103694867Y-90677797D01*
X103798034Y-90748288D01*
X104060000Y-90801338D01*
X104502715Y-90801338D01*
X104450140Y-90853913D01*
X104349600Y-91096638D01*
X104349600Y-91911300D01*
X104514700Y-92076400D01*
X105308400Y-92076400D01*
X105308400Y-90732700D01*
X105242400Y-90666700D01*
X105329499Y-90610654D01*
X105409999Y-90492838D01*
X105477346Y-90597499D01*
X105578016Y-90666284D01*
X105511600Y-90732700D01*
X105511600Y-92076400D01*
X106305300Y-92076400D01*
X106470400Y-91911300D01*
X106470400Y-91096638D01*
X106369860Y-90853913D01*
X106317285Y-90801338D01*
X106760000Y-90801338D01*
X107004730Y-90755289D01*
X107125127Y-90677816D01*
X107338034Y-90823288D01*
X107600000Y-90876338D01*
X108300000Y-90876338D01*
X108544730Y-90830289D01*
X108769499Y-90685654D01*
X108920288Y-90464966D01*
X108973338Y-90203000D01*
X108973338Y-90117400D01*
X109425000Y-90117400D01*
X109774926Y-90047795D01*
X110071578Y-89849578D01*
X110287854Y-89633302D01*
X110398312Y-89587662D01*
X110668712Y-89317733D01*
X110807661Y-88983108D01*
X110945338Y-89316312D01*
X111215267Y-89586712D01*
X111326917Y-89633073D01*
X111543422Y-89849579D01*
X111695677Y-89951312D01*
X111840074Y-90047795D01*
X112190000Y-90117400D01*
X113276662Y-90117400D01*
X113276662Y-90203000D01*
X113322711Y-90447730D01*
X113467346Y-90672499D01*
X113688034Y-90823288D01*
X113950000Y-90876338D01*
X114650000Y-90876338D01*
X114894730Y-90830289D01*
X115119499Y-90685654D01*
X115124867Y-90677797D01*
X115228034Y-90748288D01*
X115490000Y-90801338D01*
X115932715Y-90801338D01*
X115880140Y-90853913D01*
X115779600Y-91096638D01*
X115779600Y-91911300D01*
X115944700Y-92076400D01*
X116738400Y-92076400D01*
X116738400Y-90732700D01*
X116672400Y-90666700D01*
X116759499Y-90610654D01*
X116839999Y-90492838D01*
X116907346Y-90597499D01*
X117008016Y-90666284D01*
X116941600Y-90732700D01*
X116941600Y-92076400D01*
X117735300Y-92076400D01*
X117900400Y-91911300D01*
X117900400Y-91096638D01*
X117799860Y-90853913D01*
X117747285Y-90801338D01*
X118190000Y-90801338D01*
X118434730Y-90755289D01*
X118555127Y-90677816D01*
X118768034Y-90823288D01*
X119030000Y-90876338D01*
X119730000Y-90876338D01*
X119974730Y-90830289D01*
X120199499Y-90685654D01*
X120350288Y-90464966D01*
X120403338Y-90203000D01*
X120403338Y-90117400D01*
X120855000Y-90117400D01*
X121204926Y-90047795D01*
X121501578Y-89849578D01*
X121717854Y-89633302D01*
X121828312Y-89587662D01*
X122098712Y-89317733D01*
X122237661Y-88983108D01*
X122375338Y-89316312D01*
X122645267Y-89586712D01*
X122756917Y-89633073D01*
X122973422Y-89849579D01*
X123125677Y-89951312D01*
X123270074Y-90047795D01*
X123620000Y-90117400D01*
X124706662Y-90117400D01*
X124706662Y-90203000D01*
X124752711Y-90447730D01*
X124897346Y-90672499D01*
X125118034Y-90823288D01*
X125380000Y-90876338D01*
X126080000Y-90876338D01*
X126324730Y-90830289D01*
X126549499Y-90685654D01*
X126554867Y-90677797D01*
X126658034Y-90748288D01*
X126920000Y-90801338D01*
X127362715Y-90801338D01*
X127310140Y-90853913D01*
X127209600Y-91096638D01*
X127209600Y-91911300D01*
X127374700Y-92076400D01*
X128168400Y-92076400D01*
X128168400Y-90732700D01*
X128102400Y-90666700D01*
X128189499Y-90610654D01*
X128269999Y-90492838D01*
X128337346Y-90597499D01*
X128438016Y-90666284D01*
X128371600Y-90732700D01*
X128371600Y-92076400D01*
X129165300Y-92076400D01*
X129330400Y-91911300D01*
X129330400Y-91096638D01*
X129229860Y-90853913D01*
X129177285Y-90801338D01*
X129620000Y-90801338D01*
X129864730Y-90755289D01*
X129985127Y-90677816D01*
X130198034Y-90823288D01*
X130460000Y-90876338D01*
X131160000Y-90876338D01*
X131404730Y-90830289D01*
X131629499Y-90685654D01*
X131780288Y-90464966D01*
X131833338Y-90203000D01*
X131833338Y-90117400D01*
X132066137Y-90117400D01*
X132170267Y-90221712D01*
X132523127Y-90368233D01*
X132905197Y-90368566D01*
X133068932Y-90300912D01*
X130163422Y-93206422D01*
X129965205Y-93503074D01*
X129902480Y-93818414D01*
X129890270Y-93820711D01*
X129665501Y-93965346D01*
X129514712Y-94186034D01*
X129461662Y-94448000D01*
X129461662Y-95798000D01*
X129507711Y-96042730D01*
X129652346Y-96267499D01*
X129873034Y-96418288D01*
X130135000Y-96471338D01*
X131485000Y-96471338D01*
X131729730Y-96425289D01*
X131954499Y-96280654D01*
X132059211Y-96127402D01*
X132094122Y-96281175D01*
X132591829Y-96466969D01*
X133122751Y-96448156D01*
X133525878Y-96281175D01*
X133581128Y-96037812D01*
X132810000Y-95266684D01*
X132795858Y-95280827D01*
X132652174Y-95137143D01*
X132666316Y-95123000D01*
X132953684Y-95123000D01*
X133724812Y-95894128D01*
X133968175Y-95838878D01*
X134153969Y-95341171D01*
X134135156Y-94810249D01*
X133985108Y-94448000D01*
X136446662Y-94448000D01*
X136446662Y-95798000D01*
X136492711Y-96042730D01*
X136637346Y-96267499D01*
X136858034Y-96418288D01*
X137120000Y-96471338D01*
X138470000Y-96471338D01*
X138714730Y-96425289D01*
X138939499Y-96280654D01*
X139044211Y-96127402D01*
X139079122Y-96281175D01*
X139576829Y-96466969D01*
X140107751Y-96448156D01*
X140510878Y-96281175D01*
X140566128Y-96037812D01*
X139795000Y-95266684D01*
X139780858Y-95280827D01*
X139637174Y-95137143D01*
X139651316Y-95123000D01*
X139938684Y-95123000D01*
X140709812Y-95894128D01*
X140953175Y-95838878D01*
X141138969Y-95341171D01*
X141120156Y-94810249D01*
X140953175Y-94407122D01*
X140709812Y-94351872D01*
X139938684Y-95123000D01*
X139651316Y-95123000D01*
X139637174Y-95108858D01*
X139780858Y-94965174D01*
X139795000Y-94979316D01*
X140566128Y-94208188D01*
X140510878Y-93964825D01*
X140038269Y-93788400D01*
X140231361Y-93788400D01*
X140474086Y-93687860D01*
X140659860Y-93502087D01*
X140760400Y-93259362D01*
X140760400Y-92444700D01*
X140595300Y-92279600D01*
X139801600Y-92279600D01*
X139801600Y-93623300D01*
X139959242Y-93780942D01*
X139482249Y-93797844D01*
X139079122Y-93964825D01*
X139043844Y-94120215D01*
X138952654Y-93978501D01*
X138731966Y-93827712D01*
X138470000Y-93774662D01*
X137120000Y-93774662D01*
X136875270Y-93820711D01*
X136650501Y-93965346D01*
X136499712Y-94186034D01*
X136446662Y-94448000D01*
X133985108Y-94448000D01*
X133968175Y-94407122D01*
X133724812Y-94351872D01*
X132953684Y-95123000D01*
X132666316Y-95123000D01*
X132652174Y-95108858D01*
X132795858Y-94965174D01*
X132810000Y-94979316D01*
X133581128Y-94208188D01*
X133525878Y-93964825D01*
X133028171Y-93779031D01*
X132497249Y-93797844D01*
X132094122Y-93964825D01*
X132058844Y-94120215D01*
X131971570Y-93984586D01*
X133511456Y-92444700D01*
X138639600Y-92444700D01*
X138639600Y-93259362D01*
X138740140Y-93502087D01*
X138925914Y-93687860D01*
X139168639Y-93788400D01*
X139433300Y-93788400D01*
X139598400Y-93623300D01*
X139598400Y-92279600D01*
X138804700Y-92279600D01*
X138639600Y-92444700D01*
X133511456Y-92444700D01*
X135838756Y-90117400D01*
X136136662Y-90117400D01*
X136136662Y-90203000D01*
X136182711Y-90447730D01*
X136327346Y-90672499D01*
X136548034Y-90823288D01*
X136810000Y-90876338D01*
X137510000Y-90876338D01*
X137754730Y-90830289D01*
X137979499Y-90685654D01*
X137984867Y-90677797D01*
X138088034Y-90748288D01*
X138350000Y-90801338D01*
X138792715Y-90801338D01*
X138740140Y-90853913D01*
X138639600Y-91096638D01*
X138639600Y-91911300D01*
X138804700Y-92076400D01*
X139598400Y-92076400D01*
X139598400Y-90732700D01*
X139532400Y-90666700D01*
X139619499Y-90610654D01*
X139699999Y-90492838D01*
X139767346Y-90597499D01*
X139868016Y-90666284D01*
X139801600Y-90732700D01*
X139801600Y-92076400D01*
X140595300Y-92076400D01*
X140760400Y-91911300D01*
X140760400Y-91096638D01*
X140659860Y-90853913D01*
X140607285Y-90801338D01*
X141050000Y-90801338D01*
X141294730Y-90755289D01*
X141415127Y-90677816D01*
X141628034Y-90823288D01*
X141890000Y-90876338D01*
X142590000Y-90876338D01*
X142834730Y-90830289D01*
X143059499Y-90685654D01*
X143210288Y-90464966D01*
X143263338Y-90203000D01*
X143263338Y-90117400D01*
X143496137Y-90117400D01*
X143600267Y-90221712D01*
X143953127Y-90368233D01*
X144335197Y-90368566D01*
X144688312Y-90222662D01*
X144958712Y-89952733D01*
X145105233Y-89599873D01*
X145105566Y-89217803D01*
X144959662Y-88864688D01*
X144689733Y-88594288D01*
X144566937Y-88543299D01*
X144549163Y-88531422D01*
X144289926Y-88358205D01*
X143940000Y-88288600D01*
X143263338Y-88288600D01*
X143263338Y-88203000D01*
X143217289Y-87958270D01*
X143072654Y-87733501D01*
X142851966Y-87582712D01*
X142590000Y-87529662D01*
X141890000Y-87529662D01*
X141645270Y-87575711D01*
X141449501Y-87701685D01*
X141311966Y-87607712D01*
X141050000Y-87554662D01*
X140250000Y-87554662D01*
X140005270Y-87600711D01*
X139780501Y-87745346D01*
X139700001Y-87863162D01*
X139632654Y-87758501D01*
X139411966Y-87607712D01*
X139150000Y-87554662D01*
X138350000Y-87554662D01*
X138105270Y-87600711D01*
X137947187Y-87702435D01*
X137771966Y-87582712D01*
X137510000Y-87529662D01*
X136810000Y-87529662D01*
X136565270Y-87575711D01*
X136340501Y-87720346D01*
X136189712Y-87941034D01*
X136136662Y-88203000D01*
X136136662Y-88288600D01*
X135460000Y-88288600D01*
X135110074Y-88358205D01*
X134850837Y-88531422D01*
X134813422Y-88556422D01*
X133607960Y-89761884D01*
X133675233Y-89599873D01*
X133675566Y-89217803D01*
X133529662Y-88864688D01*
X133259733Y-88594288D01*
X133136937Y-88543299D01*
X133119163Y-88531422D01*
X132859926Y-88358205D01*
X132510000Y-88288600D01*
X131833338Y-88288600D01*
X131833338Y-88203000D01*
X131787289Y-87958270D01*
X131642654Y-87733501D01*
X131421966Y-87582712D01*
X131160000Y-87529662D01*
X130460000Y-87529662D01*
X130215270Y-87575711D01*
X130019501Y-87701685D01*
X129881966Y-87607712D01*
X129620000Y-87554662D01*
X128820000Y-87554662D01*
X128575270Y-87600711D01*
X128350501Y-87745346D01*
X128270001Y-87863162D01*
X128202654Y-87758501D01*
X127981966Y-87607712D01*
X127720000Y-87554662D01*
X126920000Y-87554662D01*
X126675270Y-87600711D01*
X126517187Y-87702435D01*
X126341966Y-87582712D01*
X126080000Y-87529662D01*
X125380000Y-87529662D01*
X125135270Y-87575711D01*
X124910501Y-87720346D01*
X124759712Y-87941034D01*
X124706662Y-88203000D01*
X124706662Y-88288600D01*
X124029004Y-88288600D01*
X124004662Y-88229688D01*
X123734733Y-87959288D01*
X123381873Y-87812767D01*
X122999803Y-87812434D01*
X122646688Y-87958338D01*
X122376288Y-88228267D01*
X122237339Y-88562892D01*
X122099662Y-88229688D01*
X121829733Y-87959288D01*
X121476873Y-87812767D01*
X121094803Y-87812434D01*
X120741688Y-87958338D01*
X120471288Y-88228267D01*
X120446235Y-88288600D01*
X120403338Y-88288600D01*
X120403338Y-88203000D01*
X120357289Y-87958270D01*
X120212654Y-87733501D01*
X119991966Y-87582712D01*
X119730000Y-87529662D01*
X119030000Y-87529662D01*
X118785270Y-87575711D01*
X118589501Y-87701685D01*
X118451966Y-87607712D01*
X118190000Y-87554662D01*
X117390000Y-87554662D01*
X117145270Y-87600711D01*
X116920501Y-87745346D01*
X116840001Y-87863162D01*
X116772654Y-87758501D01*
X116551966Y-87607712D01*
X116290000Y-87554662D01*
X115490000Y-87554662D01*
X115245270Y-87600711D01*
X115087187Y-87702435D01*
X114911966Y-87582712D01*
X114650000Y-87529662D01*
X113950000Y-87529662D01*
X113705270Y-87575711D01*
X113480501Y-87720346D01*
X113329712Y-87941034D01*
X113276662Y-88203000D01*
X113276662Y-88288600D01*
X112599004Y-88288600D01*
X112574662Y-88229688D01*
X112304733Y-87959288D01*
X111951873Y-87812767D01*
X111569803Y-87812434D01*
X111216688Y-87958338D01*
X110946288Y-88228267D01*
X110807339Y-88562892D01*
X110669662Y-88229688D01*
X110399733Y-87959288D01*
X110046873Y-87812767D01*
X109664803Y-87812434D01*
X109311688Y-87958338D01*
X109041288Y-88228267D01*
X109016235Y-88288600D01*
X108973338Y-88288600D01*
X108973338Y-88203000D01*
X108927289Y-87958270D01*
X108782654Y-87733501D01*
X108561966Y-87582712D01*
X108300000Y-87529662D01*
X107600000Y-87529662D01*
X107355270Y-87575711D01*
X107159501Y-87701685D01*
X107021966Y-87607712D01*
X106760000Y-87554662D01*
X105960000Y-87554662D01*
X105715270Y-87600711D01*
X105490501Y-87745346D01*
X105410001Y-87863162D01*
X105342654Y-87758501D01*
X105121966Y-87607712D01*
X104860000Y-87554662D01*
X104060000Y-87554662D01*
X103815270Y-87600711D01*
X103657187Y-87702435D01*
X103481966Y-87582712D01*
X103220000Y-87529662D01*
X102520000Y-87529662D01*
X102275270Y-87575711D01*
X102050501Y-87720346D01*
X101899712Y-87941034D01*
X101846662Y-88203000D01*
X101846662Y-88288600D01*
X92915000Y-88288600D01*
X92565074Y-88358205D01*
X92268421Y-88556422D01*
X88253422Y-92571422D01*
X88055205Y-92868074D01*
X87985600Y-93218000D01*
X87985600Y-93819708D01*
X87980270Y-93820711D01*
X87755501Y-93965346D01*
X87604712Y-94186034D01*
X87551662Y-94448000D01*
X84555400Y-94448000D01*
X84555400Y-88128884D01*
X85104053Y-88128884D01*
X85584181Y-89290884D01*
X86472440Y-90180695D01*
X87633600Y-90662850D01*
X88890884Y-90663947D01*
X90052884Y-90183819D01*
X90942695Y-89295560D01*
X91424850Y-88134400D01*
X91425947Y-86877116D01*
X90945819Y-85715116D01*
X90057560Y-84825305D01*
X88896400Y-84343150D01*
X87639116Y-84342053D01*
X86477116Y-84822181D01*
X85587305Y-85710440D01*
X85105150Y-86871600D01*
X85104053Y-88128884D01*
X84555400Y-88128884D01*
X84555400Y-78314093D01*
X86792468Y-78314093D01*
X86986103Y-78781589D01*
X87390973Y-79209832D01*
X87928906Y-79450540D01*
X88163400Y-79319887D01*
X88163400Y-78079600D01*
X88366600Y-78079600D01*
X88366600Y-79319887D01*
X88601094Y-79450540D01*
X89139027Y-79209832D01*
X89543897Y-78781589D01*
X89737532Y-78314093D01*
X89606458Y-78079600D01*
X88366600Y-78079600D01*
X88163400Y-78079600D01*
X86923542Y-78079600D01*
X86792468Y-78314093D01*
X84555400Y-78314093D01*
X84555400Y-75774093D01*
X86792468Y-75774093D01*
X86986103Y-76241589D01*
X87390973Y-76669832D01*
X87476271Y-76708000D01*
X87390973Y-76746168D01*
X86986103Y-77174411D01*
X86792468Y-77641907D01*
X86923542Y-77876400D01*
X88163400Y-77876400D01*
X88163400Y-75539600D01*
X88366600Y-75539600D01*
X88366600Y-77876400D01*
X89606458Y-77876400D01*
X89737532Y-77641907D01*
X89543897Y-77174411D01*
X89139027Y-76746168D01*
X89053729Y-76708000D01*
X89139027Y-76669832D01*
X89543897Y-76241589D01*
X89737532Y-75774093D01*
X89606458Y-75539600D01*
X88366600Y-75539600D01*
X88163400Y-75539600D01*
X86923542Y-75539600D01*
X86792468Y-75774093D01*
X84555400Y-75774093D01*
X84555400Y-73164700D01*
X86754600Y-73164700D01*
X86754600Y-73879361D01*
X86855140Y-74122086D01*
X87040913Y-74307860D01*
X87223377Y-74383439D01*
X86986103Y-74634411D01*
X86792468Y-75101907D01*
X86923542Y-75336400D01*
X88163400Y-75336400D01*
X88163400Y-72999600D01*
X88366600Y-72999600D01*
X88366600Y-75336400D01*
X89606458Y-75336400D01*
X89737532Y-75101907D01*
X89543897Y-74634411D01*
X89306623Y-74383439D01*
X89489087Y-74307860D01*
X89674860Y-74122086D01*
X89775400Y-73879361D01*
X89775400Y-73164700D01*
X89610300Y-72999600D01*
X88366600Y-72999600D01*
X88163400Y-72999600D01*
X86919700Y-72999600D01*
X86754600Y-73164700D01*
X84555400Y-73164700D01*
X84555400Y-71916639D01*
X86754600Y-71916639D01*
X86754600Y-72631300D01*
X86919700Y-72796400D01*
X88163400Y-72796400D01*
X88163400Y-71552700D01*
X88366600Y-71552700D01*
X88366600Y-72796400D01*
X89610300Y-72796400D01*
X89775400Y-72631300D01*
X89775400Y-71916639D01*
X89674860Y-71673914D01*
X89489087Y-71488140D01*
X89246362Y-71387600D01*
X88531700Y-71387600D01*
X88366600Y-71552700D01*
X88163400Y-71552700D01*
X87998300Y-71387600D01*
X87283638Y-71387600D01*
X87040913Y-71488140D01*
X86855140Y-71673914D01*
X86754600Y-71916639D01*
X84555400Y-71916639D01*
X84555400Y-68495820D01*
X90556757Y-68495820D01*
X90786697Y-69052319D01*
X90779600Y-69088000D01*
X90779600Y-75438000D01*
X90926543Y-76176732D01*
X91345001Y-76802999D01*
X93885001Y-79342999D01*
X94335600Y-79644079D01*
X94335600Y-81153000D01*
X94405205Y-81502926D01*
X94455505Y-81578205D01*
X94603422Y-81799578D01*
X95873421Y-83069578D01*
X96021748Y-83168686D01*
X96170074Y-83267795D01*
X96520000Y-83337400D01*
X100155368Y-83337400D01*
X100287346Y-83542499D01*
X100508034Y-83693288D01*
X100770000Y-83746338D01*
X101523506Y-83746338D01*
X101273422Y-83996422D01*
X101075205Y-84293074D01*
X101057164Y-84383772D01*
X100949712Y-84541034D01*
X100896662Y-84803000D01*
X100896662Y-86803000D01*
X100942711Y-87047730D01*
X101087346Y-87272499D01*
X101308034Y-87423288D01*
X101570000Y-87476338D01*
X102270000Y-87476338D01*
X102514730Y-87430289D01*
X102739499Y-87285654D01*
X102871498Y-87092466D01*
X102987346Y-87272499D01*
X103208034Y-87423288D01*
X103470000Y-87476338D01*
X104170000Y-87476338D01*
X104414730Y-87430289D01*
X104639499Y-87285654D01*
X104790288Y-87064966D01*
X104843338Y-86803000D01*
X104843338Y-86717400D01*
X105205000Y-86717400D01*
X105554926Y-86647795D01*
X105831500Y-86462994D01*
X105953312Y-86412662D01*
X105976662Y-86389353D01*
X105976662Y-86803000D01*
X106022711Y-87047730D01*
X106167346Y-87272499D01*
X106388034Y-87423288D01*
X106650000Y-87476338D01*
X107350000Y-87476338D01*
X107594730Y-87430289D01*
X107819499Y-87285654D01*
X107951498Y-87092466D01*
X108067346Y-87272499D01*
X108288034Y-87423288D01*
X108550000Y-87476338D01*
X109250000Y-87476338D01*
X109494730Y-87430289D01*
X109719499Y-87285654D01*
X109870288Y-87064966D01*
X109923338Y-86803000D01*
X109923338Y-86717400D01*
X110920000Y-86717400D01*
X111269926Y-86647795D01*
X111546500Y-86462994D01*
X111668312Y-86412662D01*
X111938712Y-86142733D01*
X112085233Y-85789873D01*
X112085566Y-85407803D01*
X111939662Y-85054688D01*
X111669733Y-84784288D01*
X111316873Y-84637767D01*
X110934803Y-84637434D01*
X110581688Y-84783338D01*
X110476242Y-84888600D01*
X109923338Y-84888600D01*
X109923338Y-84803000D01*
X109877289Y-84558270D01*
X109814400Y-84460538D01*
X109814400Y-83746338D01*
X110050000Y-83746338D01*
X110294730Y-83700289D01*
X110519499Y-83555654D01*
X110668625Y-83337400D01*
X111585368Y-83337400D01*
X111717346Y-83542499D01*
X111938034Y-83693288D01*
X112200000Y-83746338D01*
X112873506Y-83746338D01*
X112703422Y-83916422D01*
X112505205Y-84213074D01*
X112464716Y-84416626D01*
X112379712Y-84541034D01*
X112326662Y-84803000D01*
X112326662Y-86803000D01*
X112372711Y-87047730D01*
X112517346Y-87272499D01*
X112738034Y-87423288D01*
X113000000Y-87476338D01*
X113700000Y-87476338D01*
X113944730Y-87430289D01*
X114169499Y-87285654D01*
X114301498Y-87092466D01*
X114417346Y-87272499D01*
X114638034Y-87423288D01*
X114900000Y-87476338D01*
X115600000Y-87476338D01*
X115844730Y-87430289D01*
X116069499Y-87285654D01*
X116220288Y-87064966D01*
X116273338Y-86803000D01*
X116273338Y-86717400D01*
X116635000Y-86717400D01*
X116984926Y-86647795D01*
X117261500Y-86462994D01*
X117383312Y-86412662D01*
X117406662Y-86389353D01*
X117406662Y-86803000D01*
X117452711Y-87047730D01*
X117597346Y-87272499D01*
X117818034Y-87423288D01*
X118080000Y-87476338D01*
X118780000Y-87476338D01*
X119024730Y-87430289D01*
X119249499Y-87285654D01*
X119381498Y-87092466D01*
X119497346Y-87272499D01*
X119718034Y-87423288D01*
X119980000Y-87476338D01*
X120680000Y-87476338D01*
X120924730Y-87430289D01*
X121149499Y-87285654D01*
X121300288Y-87064966D01*
X121353338Y-86803000D01*
X121353338Y-84803000D01*
X121307289Y-84558270D01*
X121244400Y-84460538D01*
X121244400Y-83746338D01*
X121480000Y-83746338D01*
X121724730Y-83700289D01*
X121949499Y-83555654D01*
X122098625Y-83337400D01*
X123015368Y-83337400D01*
X123147346Y-83542499D01*
X123368034Y-83693288D01*
X123630000Y-83746338D01*
X124303506Y-83746338D01*
X124133422Y-83916422D01*
X123935205Y-84213074D01*
X123894716Y-84416626D01*
X123809712Y-84541034D01*
X123756662Y-84803000D01*
X123756662Y-86803000D01*
X123802711Y-87047730D01*
X123947346Y-87272499D01*
X124168034Y-87423288D01*
X124430000Y-87476338D01*
X125130000Y-87476338D01*
X125374730Y-87430289D01*
X125599499Y-87285654D01*
X125731498Y-87092466D01*
X125847346Y-87272499D01*
X126068034Y-87423288D01*
X126330000Y-87476338D01*
X127030000Y-87476338D01*
X127274730Y-87430289D01*
X127499499Y-87285654D01*
X127650288Y-87064966D01*
X127703338Y-86803000D01*
X127703338Y-86717400D01*
X128065000Y-86717400D01*
X128414926Y-86647795D01*
X128691500Y-86462994D01*
X128813312Y-86412662D01*
X128836662Y-86389353D01*
X128836662Y-86803000D01*
X128882711Y-87047730D01*
X129027346Y-87272499D01*
X129248034Y-87423288D01*
X129510000Y-87476338D01*
X130210000Y-87476338D01*
X130454730Y-87430289D01*
X130679499Y-87285654D01*
X130811498Y-87092466D01*
X130927346Y-87272499D01*
X131148034Y-87423288D01*
X131410000Y-87476338D01*
X132110000Y-87476338D01*
X132354730Y-87430289D01*
X132579499Y-87285654D01*
X132730288Y-87064966D01*
X132783338Y-86803000D01*
X132783338Y-86717400D01*
X133780000Y-86717400D01*
X134129926Y-86647795D01*
X134406500Y-86462994D01*
X134528312Y-86412662D01*
X134798712Y-86142733D01*
X134945233Y-85789873D01*
X134945566Y-85407803D01*
X134799662Y-85054688D01*
X134529733Y-84784288D01*
X134176873Y-84637767D01*
X133794803Y-84637434D01*
X133441688Y-84783338D01*
X133336242Y-84888600D01*
X132783338Y-84888600D01*
X132783338Y-84803000D01*
X132737289Y-84558270D01*
X132674400Y-84460538D01*
X132674400Y-83746338D01*
X132910000Y-83746338D01*
X133154730Y-83700289D01*
X133379499Y-83555654D01*
X133528625Y-83337400D01*
X134445368Y-83337400D01*
X134577346Y-83542499D01*
X134798034Y-83693288D01*
X135060000Y-83746338D01*
X135733506Y-83746338D01*
X135563422Y-83916422D01*
X135365205Y-84213074D01*
X135324716Y-84416626D01*
X135239712Y-84541034D01*
X135186662Y-84803000D01*
X135186662Y-86803000D01*
X135232711Y-87047730D01*
X135377346Y-87272499D01*
X135598034Y-87423288D01*
X135860000Y-87476338D01*
X136560000Y-87476338D01*
X136804730Y-87430289D01*
X137029499Y-87285654D01*
X137161498Y-87092466D01*
X137277346Y-87272499D01*
X137498034Y-87423288D01*
X137760000Y-87476338D01*
X138460000Y-87476338D01*
X138704730Y-87430289D01*
X138929499Y-87285654D01*
X139080288Y-87064966D01*
X139133338Y-86803000D01*
X139133338Y-86717400D01*
X139495000Y-86717400D01*
X139844926Y-86647795D01*
X140121500Y-86462994D01*
X140243312Y-86412662D01*
X140266662Y-86389353D01*
X140266662Y-86803000D01*
X140312711Y-87047730D01*
X140457346Y-87272499D01*
X140678034Y-87423288D01*
X140940000Y-87476338D01*
X141640000Y-87476338D01*
X141884730Y-87430289D01*
X142109499Y-87285654D01*
X142241498Y-87092466D01*
X142357346Y-87272499D01*
X142578034Y-87423288D01*
X142840000Y-87476338D01*
X143540000Y-87476338D01*
X143784730Y-87430289D01*
X144009499Y-87285654D01*
X144160288Y-87064966D01*
X144213338Y-86803000D01*
X144213338Y-84803000D01*
X144167289Y-84558270D01*
X144104400Y-84460538D01*
X144104400Y-83746338D01*
X144340000Y-83746338D01*
X144584730Y-83700289D01*
X144809499Y-83555654D01*
X144960288Y-83334966D01*
X145013338Y-83073000D01*
X145013338Y-81773000D01*
X144967289Y-81528270D01*
X144822654Y-81303501D01*
X144601966Y-81152712D01*
X144424400Y-81116754D01*
X144424400Y-81023288D01*
X144542659Y-80944270D01*
X144859234Y-80470482D01*
X144970400Y-79911611D01*
X144970400Y-79854389D01*
X144859234Y-79295518D01*
X144542659Y-78821730D01*
X144424400Y-78742712D01*
X144424400Y-78613000D01*
X144380836Y-78393989D01*
X144354796Y-78263075D01*
X144156579Y-77966422D01*
X143521578Y-77331422D01*
X143357004Y-77221457D01*
X143224926Y-77133205D01*
X142875000Y-77063600D01*
X97180400Y-77063600D01*
X97180400Y-69088000D01*
X97173353Y-69052570D01*
X97402055Y-68501794D01*
X97403243Y-67140180D01*
X96883274Y-65881757D01*
X95921307Y-64918110D01*
X94663794Y-64395945D01*
X93302180Y-64394757D01*
X92043757Y-64914726D01*
X91080110Y-65876693D01*
X90557945Y-67134206D01*
X90556757Y-68495820D01*
X84555400Y-68495820D01*
X84555400Y-62069887D01*
X92251797Y-62069887D01*
X92468786Y-62450861D01*
X93445952Y-62857689D01*
X94504423Y-62859604D01*
X95483055Y-62456313D01*
X95491214Y-62450861D01*
X95708203Y-62069887D01*
X93980000Y-60341684D01*
X92251797Y-62069887D01*
X84555400Y-62069887D01*
X84555400Y-60722423D01*
X91318396Y-60722423D01*
X91721687Y-61701055D01*
X91727139Y-61709214D01*
X92108113Y-61926203D01*
X93836316Y-60198000D01*
X94123684Y-60198000D01*
X95851887Y-61926203D01*
X96232861Y-61709214D01*
X96639689Y-60732048D01*
X96641604Y-59673577D01*
X96238313Y-58694945D01*
X96232861Y-58686786D01*
X95851887Y-58469797D01*
X94123684Y-60198000D01*
X93836316Y-60198000D01*
X92108113Y-58469797D01*
X91727139Y-58686786D01*
X91320311Y-59663952D01*
X91318396Y-60722423D01*
X84555400Y-60722423D01*
X84555400Y-58326113D01*
X92251797Y-58326113D01*
X93980000Y-60054316D01*
X95708203Y-58326113D01*
X95491214Y-57945139D01*
X94514048Y-57538311D01*
X93455577Y-57536396D01*
X92476945Y-57939687D01*
X92468786Y-57945139D01*
X92251797Y-58326113D01*
X84555400Y-58326113D01*
X84555400Y-50237432D01*
X84657741Y-49722926D01*
X84908156Y-49348156D01*
X85282926Y-49097741D01*
X85797432Y-48995400D01*
X97637600Y-48995400D01*
X97637600Y-76708000D01*
G36*
X100410901Y-79035159D02*
X100176961Y-79554746D01*
X100308231Y-79781400D01*
X101498400Y-79781400D01*
X101498400Y-79761400D01*
X101701600Y-79761400D01*
X101701600Y-79781400D01*
X101721600Y-79781400D01*
X101721600Y-79984600D01*
X101701600Y-79984600D01*
X101701600Y-80004600D01*
X101498400Y-80004600D01*
X101498400Y-79984600D01*
X100308231Y-79984600D01*
X100176961Y-80211254D01*
X100410901Y-80730841D01*
X100802823Y-81099662D01*
X100770000Y-81099662D01*
X100525270Y-81145711D01*
X100300501Y-81290346D01*
X100151375Y-81508600D01*
X96898757Y-81508600D01*
X96164400Y-80774244D01*
X96164400Y-79644079D01*
X96614999Y-79342999D01*
X96916079Y-78892400D01*
X100562601Y-78892400D01*
X100410901Y-79035159D01*
X100410901Y-79035159D01*
G37*
X100410901Y-79035159D02*
X100176961Y-79554746D01*
X100308231Y-79781400D01*
X101498400Y-79781400D01*
X101498400Y-79761400D01*
X101701600Y-79761400D01*
X101701600Y-79781400D01*
X101721600Y-79781400D01*
X101721600Y-79984600D01*
X101701600Y-79984600D01*
X101701600Y-80004600D01*
X101498400Y-80004600D01*
X101498400Y-79984600D01*
X100308231Y-79984600D01*
X100176961Y-80211254D01*
X100410901Y-80730841D01*
X100802823Y-81099662D01*
X100770000Y-81099662D01*
X100525270Y-81145711D01*
X100300501Y-81290346D01*
X100151375Y-81508600D01*
X96898757Y-81508600D01*
X96164400Y-80774244D01*
X96164400Y-79644079D01*
X96614999Y-79342999D01*
X96916079Y-78892400D01*
X100562601Y-78892400D01*
X100410901Y-79035159D01*
G36*
X123270901Y-79035159D02*
X123036961Y-79554746D01*
X123168231Y-79781400D01*
X124358400Y-79781400D01*
X124358400Y-79761400D01*
X124561600Y-79761400D01*
X124561600Y-79781400D01*
X124581600Y-79781400D01*
X124581600Y-79984600D01*
X124561600Y-79984600D01*
X124561600Y-80004600D01*
X124358400Y-80004600D01*
X124358400Y-79984600D01*
X123168231Y-79984600D01*
X123036961Y-80211254D01*
X123270901Y-80730841D01*
X123662823Y-81099662D01*
X123630000Y-81099662D01*
X123385270Y-81145711D01*
X123160501Y-81290346D01*
X123011375Y-81508600D01*
X122094632Y-81508600D01*
X121962654Y-81303501D01*
X121741966Y-81152712D01*
X121564400Y-81116754D01*
X121564400Y-81023288D01*
X121682659Y-80944270D01*
X121999234Y-80470482D01*
X122110400Y-79911611D01*
X122110400Y-79854389D01*
X121999234Y-79295518D01*
X121729879Y-78892400D01*
X123422601Y-78892400D01*
X123270901Y-79035159D01*
X123270901Y-79035159D01*
G37*
X123270901Y-79035159D02*
X123036961Y-79554746D01*
X123168231Y-79781400D01*
X124358400Y-79781400D01*
X124358400Y-79761400D01*
X124561600Y-79761400D01*
X124561600Y-79781400D01*
X124581600Y-79781400D01*
X124581600Y-79984600D01*
X124561600Y-79984600D01*
X124561600Y-80004600D01*
X124358400Y-80004600D01*
X124358400Y-79984600D01*
X123168231Y-79984600D01*
X123036961Y-80211254D01*
X123270901Y-80730841D01*
X123662823Y-81099662D01*
X123630000Y-81099662D01*
X123385270Y-81145711D01*
X123160501Y-81290346D01*
X123011375Y-81508600D01*
X122094632Y-81508600D01*
X121962654Y-81303501D01*
X121741966Y-81152712D01*
X121564400Y-81116754D01*
X121564400Y-81023288D01*
X121682659Y-80944270D01*
X121999234Y-80470482D01*
X122110400Y-79911611D01*
X122110400Y-79854389D01*
X121999234Y-79295518D01*
X121729879Y-78892400D01*
X123422601Y-78892400D01*
X123270901Y-79035159D01*
G36*
X111840901Y-79035159D02*
X111606961Y-79554746D01*
X111738231Y-79781400D01*
X112928400Y-79781400D01*
X112928400Y-79761400D01*
X113131600Y-79761400D01*
X113131600Y-79781400D01*
X113151600Y-79781400D01*
X113151600Y-79984600D01*
X113131600Y-79984600D01*
X113131600Y-80004600D01*
X112928400Y-80004600D01*
X112928400Y-79984600D01*
X111738231Y-79984600D01*
X111606961Y-80211254D01*
X111840901Y-80730841D01*
X112232823Y-81099662D01*
X112200000Y-81099662D01*
X111955270Y-81145711D01*
X111730501Y-81290346D01*
X111581375Y-81508600D01*
X110664632Y-81508600D01*
X110532654Y-81303501D01*
X110311966Y-81152712D01*
X110134400Y-81116754D01*
X110134400Y-81023288D01*
X110252659Y-80944270D01*
X110569234Y-80470482D01*
X110680400Y-79911611D01*
X110680400Y-79854389D01*
X110569234Y-79295518D01*
X110299879Y-78892400D01*
X111992601Y-78892400D01*
X111840901Y-79035159D01*
X111840901Y-79035159D01*
G37*
X111840901Y-79035159D02*
X111606961Y-79554746D01*
X111738231Y-79781400D01*
X112928400Y-79781400D01*
X112928400Y-79761400D01*
X113131600Y-79761400D01*
X113131600Y-79781400D01*
X113151600Y-79781400D01*
X113151600Y-79984600D01*
X113131600Y-79984600D01*
X113131600Y-80004600D01*
X112928400Y-80004600D01*
X112928400Y-79984600D01*
X111738231Y-79984600D01*
X111606961Y-80211254D01*
X111840901Y-80730841D01*
X112232823Y-81099662D01*
X112200000Y-81099662D01*
X111955270Y-81145711D01*
X111730501Y-81290346D01*
X111581375Y-81508600D01*
X110664632Y-81508600D01*
X110532654Y-81303501D01*
X110311966Y-81152712D01*
X110134400Y-81116754D01*
X110134400Y-81023288D01*
X110252659Y-80944270D01*
X110569234Y-80470482D01*
X110680400Y-79911611D01*
X110680400Y-79854389D01*
X110569234Y-79295518D01*
X110299879Y-78892400D01*
X111992601Y-78892400D01*
X111840901Y-79035159D01*
G36*
X134700901Y-79035159D02*
X134466961Y-79554746D01*
X134598231Y-79781400D01*
X135788400Y-79781400D01*
X135788400Y-79761400D01*
X135991600Y-79761400D01*
X135991600Y-79781400D01*
X136011600Y-79781400D01*
X136011600Y-79984600D01*
X135991600Y-79984600D01*
X135991600Y-80004600D01*
X135788400Y-80004600D01*
X135788400Y-79984600D01*
X134598231Y-79984600D01*
X134466961Y-80211254D01*
X134700901Y-80730841D01*
X135092823Y-81099662D01*
X135060000Y-81099662D01*
X134815270Y-81145711D01*
X134590501Y-81290346D01*
X134441375Y-81508600D01*
X133524632Y-81508600D01*
X133392654Y-81303501D01*
X133171966Y-81152712D01*
X132994400Y-81116754D01*
X132994400Y-81023288D01*
X133112659Y-80944270D01*
X133429234Y-80470482D01*
X133540400Y-79911611D01*
X133540400Y-79854389D01*
X133429234Y-79295518D01*
X133159879Y-78892400D01*
X134852601Y-78892400D01*
X134700901Y-79035159D01*
X134700901Y-79035159D01*
G37*
X134700901Y-79035159D02*
X134466961Y-79554746D01*
X134598231Y-79781400D01*
X135788400Y-79781400D01*
X135788400Y-79761400D01*
X135991600Y-79761400D01*
X135991600Y-79781400D01*
X136011600Y-79781400D01*
X136011600Y-79984600D01*
X135991600Y-79984600D01*
X135991600Y-80004600D01*
X135788400Y-80004600D01*
X135788400Y-79984600D01*
X134598231Y-79984600D01*
X134466961Y-80211254D01*
X134700901Y-80730841D01*
X135092823Y-81099662D01*
X135060000Y-81099662D01*
X134815270Y-81145711D01*
X134590501Y-81290346D01*
X134441375Y-81508600D01*
X133524632Y-81508600D01*
X133392654Y-81303501D01*
X133171966Y-81152712D01*
X132994400Y-81116754D01*
X132994400Y-81023288D01*
X133112659Y-80944270D01*
X133429234Y-80470482D01*
X133540400Y-79911611D01*
X133540400Y-79854389D01*
X133429234Y-79295518D01*
X133159879Y-78892400D01*
X134852601Y-78892400D01*
X134700901Y-79035159D01*
G36*
X156017074Y-49097741D02*
X156391844Y-49348156D01*
X156642259Y-49722926D01*
X156744600Y-50237432D01*
X156744600Y-102162568D01*
X156642259Y-102677074D01*
X156391844Y-103051844D01*
X156017074Y-103302259D01*
X155502568Y-103404600D01*
X85797432Y-103404600D01*
X85282926Y-103302259D01*
X84908156Y-103051844D01*
X84657741Y-102677074D01*
X84555400Y-102162568D01*
X84555400Y-98450400D01*
X126206128Y-98450400D01*
X125824800Y-98831728D01*
X125370933Y-98922008D01*
X124876512Y-99252369D01*
X124714000Y-99495586D01*
X124551488Y-99252369D01*
X124057067Y-98922008D01*
X123473857Y-98806000D01*
X123414143Y-98806000D01*
X122830933Y-98922008D01*
X122336512Y-99252369D01*
X122174000Y-99495586D01*
X122011488Y-99252369D01*
X121517067Y-98922008D01*
X120933857Y-98806000D01*
X120874143Y-98806000D01*
X120290933Y-98922008D01*
X119796512Y-99252369D01*
X119634000Y-99495586D01*
X119471488Y-99252369D01*
X118977067Y-98922008D01*
X118393857Y-98806000D01*
X118334143Y-98806000D01*
X117750933Y-98922008D01*
X117256512Y-99252369D01*
X117094000Y-99495586D01*
X116931488Y-99252369D01*
X116437067Y-98922008D01*
X115853857Y-98806000D01*
X115794143Y-98806000D01*
X115210933Y-98922008D01*
X114716512Y-99252369D01*
X114386151Y-99746790D01*
X114270143Y-100330000D01*
X114386151Y-100913210D01*
X114716512Y-101407631D01*
X115210933Y-101737992D01*
X115794143Y-101854000D01*
X115853857Y-101854000D01*
X116437067Y-101737992D01*
X116931488Y-101407631D01*
X117094000Y-101164414D01*
X117256512Y-101407631D01*
X117750933Y-101737992D01*
X118334143Y-101854000D01*
X118393857Y-101854000D01*
X118977067Y-101737992D01*
X119471488Y-101407631D01*
X119634000Y-101164414D01*
X119796512Y-101407631D01*
X120290933Y-101737992D01*
X120874143Y-101854000D01*
X120933857Y-101854000D01*
X121517067Y-101737992D01*
X122011488Y-101407631D01*
X122174000Y-101164414D01*
X122336512Y-101407631D01*
X122830933Y-101737992D01*
X123414143Y-101854000D01*
X123473857Y-101854000D01*
X124057067Y-101737992D01*
X124551488Y-101407631D01*
X124714000Y-101164414D01*
X124876512Y-101407631D01*
X125370933Y-101737992D01*
X125954143Y-101854000D01*
X126013857Y-101854000D01*
X126597067Y-101737992D01*
X127091488Y-101407631D01*
X127254692Y-101163379D01*
X127642852Y-101573453D01*
X128185774Y-101816002D01*
X128422400Y-101685517D01*
X128422400Y-100431600D01*
X128625600Y-100431600D01*
X128625600Y-101685517D01*
X128862226Y-101816002D01*
X129405148Y-101573453D01*
X129794000Y-101162648D01*
X130182852Y-101573453D01*
X130725774Y-101816002D01*
X130962400Y-101685517D01*
X130962400Y-100431600D01*
X128625600Y-100431600D01*
X128422400Y-100431600D01*
X128402400Y-100431600D01*
X128402400Y-100228400D01*
X128422400Y-100228400D01*
X128422400Y-100208400D01*
X128625600Y-100208400D01*
X128625600Y-100228400D01*
X130962400Y-100228400D01*
X130962400Y-100208400D01*
X131165600Y-100208400D01*
X131165600Y-100228400D01*
X131185600Y-100228400D01*
X131185600Y-100431600D01*
X131165600Y-100431600D01*
X131165600Y-101685517D01*
X131402226Y-101816002D01*
X131945148Y-101573453D01*
X132333308Y-101163379D01*
X132496512Y-101407631D01*
X132990933Y-101737992D01*
X133574143Y-101854000D01*
X133633857Y-101854000D01*
X134217067Y-101737992D01*
X134711488Y-101407631D01*
X135041849Y-100913210D01*
X135157857Y-100330000D01*
X135041849Y-99746790D01*
X134786612Y-99364800D01*
X137501388Y-99364800D01*
X137246151Y-99746790D01*
X137130143Y-100330000D01*
X137246151Y-100913210D01*
X137576512Y-101407631D01*
X138070933Y-101737992D01*
X138654143Y-101854000D01*
X138713857Y-101854000D01*
X139297067Y-101737992D01*
X139791488Y-101407631D01*
X139954000Y-101164414D01*
X140116512Y-101407631D01*
X140610933Y-101737992D01*
X141194143Y-101854000D01*
X141253857Y-101854000D01*
X141837067Y-101737992D01*
X142331488Y-101407631D01*
X142494000Y-101164414D01*
X142656512Y-101407631D01*
X143150933Y-101737992D01*
X143734143Y-101854000D01*
X143793857Y-101854000D01*
X144377067Y-101737992D01*
X144871488Y-101407631D01*
X145034000Y-101164414D01*
X145196512Y-101407631D01*
X145690933Y-101737992D01*
X146274143Y-101854000D01*
X146333857Y-101854000D01*
X146917067Y-101737992D01*
X147411488Y-101407631D01*
X147574000Y-101164414D01*
X147736512Y-101407631D01*
X148230933Y-101737992D01*
X148814143Y-101854000D01*
X148873857Y-101854000D01*
X149457067Y-101737992D01*
X149951488Y-101407631D01*
X150114000Y-101164414D01*
X150276512Y-101407631D01*
X150770933Y-101737992D01*
X151354143Y-101854000D01*
X151413857Y-101854000D01*
X151997067Y-101737992D01*
X152491488Y-101407631D01*
X152821849Y-100913210D01*
X152937857Y-100330000D01*
X152821849Y-99746790D01*
X152491488Y-99252369D01*
X151997067Y-98922008D01*
X151413857Y-98806000D01*
X151354143Y-98806000D01*
X150770933Y-98922008D01*
X150276512Y-99252369D01*
X150114000Y-99495586D01*
X149951488Y-99252369D01*
X149480684Y-98937788D01*
X151704736Y-96713737D01*
X151880929Y-96450045D01*
X151911204Y-96297843D01*
X152006609Y-96528741D01*
X152641914Y-97165157D01*
X153472406Y-97510007D01*
X154371649Y-97510792D01*
X155202741Y-97167391D01*
X155839157Y-96532086D01*
X156184007Y-95701594D01*
X156184792Y-94802351D01*
X155841391Y-93971259D01*
X155206086Y-93334843D01*
X154375594Y-92989993D01*
X153476351Y-92989208D01*
X152645259Y-93332609D01*
X152008843Y-93967914D01*
X151942800Y-94126963D01*
X151942800Y-71215000D01*
X151880929Y-70903955D01*
X151804561Y-70789662D01*
X151704737Y-70640264D01*
X148822122Y-67757649D01*
X151663208Y-67757649D01*
X152006609Y-68588741D01*
X152641914Y-69225157D01*
X153472406Y-69570007D01*
X154371649Y-69570792D01*
X155202741Y-69227391D01*
X155839157Y-68592086D01*
X156184007Y-67761594D01*
X156184792Y-66862351D01*
X155841391Y-66031259D01*
X155206086Y-65394843D01*
X154375594Y-65049993D01*
X153476351Y-65049208D01*
X152645259Y-65392609D01*
X152008843Y-66027914D01*
X151663993Y-66858406D01*
X151663208Y-67757649D01*
X148822122Y-67757649D01*
X147879872Y-66815400D01*
X149053300Y-66815400D01*
X149218400Y-66650300D01*
X149218400Y-65506600D01*
X149421600Y-65506600D01*
X149421600Y-66650300D01*
X149586700Y-66815400D01*
X151051362Y-66815400D01*
X151294087Y-66714860D01*
X151479860Y-66529086D01*
X151580400Y-66286361D01*
X151580400Y-65671700D01*
X151415300Y-65506600D01*
X149421600Y-65506600D01*
X149218400Y-65506600D01*
X149198400Y-65506600D01*
X149198400Y-65303400D01*
X149218400Y-65303400D01*
X149218400Y-65283400D01*
X149421600Y-65283400D01*
X149421600Y-65303400D01*
X151415300Y-65303400D01*
X151580400Y-65138300D01*
X151580400Y-64523639D01*
X151479860Y-64280914D01*
X151294087Y-64095140D01*
X151051362Y-63994600D01*
X149586700Y-63994600D01*
X149421602Y-64159698D01*
X149421602Y-63994600D01*
X149417173Y-63994600D01*
X149821832Y-63612027D01*
X150062540Y-63074094D01*
X149931887Y-62839600D01*
X148691600Y-62839600D01*
X148691600Y-62859600D01*
X148488400Y-62859600D01*
X148488400Y-62839600D01*
X148468400Y-62839600D01*
X148468400Y-62636400D01*
X148488400Y-62636400D01*
X148488400Y-61396542D01*
X148691600Y-61396542D01*
X148691600Y-62636400D01*
X149931887Y-62636400D01*
X150062540Y-62401906D01*
X149821832Y-61863973D01*
X149393589Y-61459103D01*
X148926093Y-61265468D01*
X148691600Y-61396542D01*
X148488400Y-61396542D01*
X148253907Y-61265468D01*
X147786411Y-61459103D01*
X147537003Y-61694898D01*
X147527289Y-61643270D01*
X147382654Y-61418501D01*
X147161966Y-61267712D01*
X146900000Y-61214662D01*
X145200000Y-61214662D01*
X144955270Y-61260711D01*
X144730501Y-61405346D01*
X144579712Y-61626034D01*
X144526662Y-61888000D01*
X144526662Y-63588000D01*
X144572711Y-63832730D01*
X144668546Y-63981662D01*
X143720000Y-63981662D01*
X143475270Y-64027711D01*
X143250501Y-64172346D01*
X143099712Y-64393034D01*
X143059379Y-64592200D01*
X142703673Y-64592200D01*
X139390565Y-61279093D01*
X139390566Y-61277803D01*
X139244662Y-60924688D01*
X138974733Y-60654288D01*
X138621873Y-60507767D01*
X138239803Y-60507434D01*
X137886688Y-60653338D01*
X137616288Y-60923267D01*
X137469767Y-61276127D01*
X137469434Y-61658197D01*
X137615338Y-62011312D01*
X137885267Y-62281712D01*
X138238127Y-62428233D01*
X138240763Y-62428235D01*
X141792264Y-65979737D01*
X142055955Y-66155929D01*
X142367000Y-66217800D01*
X143058479Y-66217800D01*
X143092711Y-66399730D01*
X143237346Y-66624499D01*
X143458034Y-66775288D01*
X143720000Y-66828338D01*
X145593866Y-66828338D01*
X150317200Y-71551673D01*
X150317200Y-95802327D01*
X148380328Y-97739200D01*
X147472400Y-97739200D01*
X147472400Y-75438000D01*
X147460393Y-75378708D01*
X147426264Y-75328758D01*
X147375391Y-75296023D01*
X147320000Y-75285600D01*
X99212400Y-75285600D01*
X99212400Y-72234389D01*
X100139600Y-72234389D01*
X100139600Y-72291611D01*
X100250766Y-72850482D01*
X100567341Y-73324270D01*
X101041129Y-73640845D01*
X101600000Y-73752011D01*
X102158871Y-73640845D01*
X102632659Y-73324270D01*
X102880196Y-72953804D01*
X102950901Y-73110841D01*
X103365870Y-73501351D01*
X103811747Y-73686032D01*
X104038400Y-73554309D01*
X104038400Y-72364600D01*
X104241600Y-72364600D01*
X104241600Y-73554309D01*
X104468253Y-73686032D01*
X104914130Y-73501351D01*
X105329099Y-73110841D01*
X105410000Y-72931158D01*
X105490901Y-73110841D01*
X105905870Y-73501351D01*
X106351747Y-73686032D01*
X106578400Y-73554309D01*
X106578400Y-72364600D01*
X104241600Y-72364600D01*
X104038400Y-72364600D01*
X104018400Y-72364600D01*
X104018400Y-72161400D01*
X104038400Y-72161400D01*
X104038400Y-70971691D01*
X104241600Y-70971691D01*
X104241600Y-72161400D01*
X106578400Y-72161400D01*
X106578400Y-70971691D01*
X106351747Y-70839968D01*
X105905870Y-71024649D01*
X105490901Y-71415159D01*
X105410000Y-71594842D01*
X105329099Y-71415159D01*
X104914130Y-71024649D01*
X104468253Y-70839968D01*
X104241600Y-70971691D01*
X104038400Y-70971691D01*
X103811747Y-70839968D01*
X103365870Y-71024649D01*
X102950901Y-71415159D01*
X102880196Y-71572196D01*
X102632659Y-71201730D01*
X102412800Y-71054825D01*
X102412800Y-70694672D01*
X104396673Y-68710800D01*
X112988479Y-68710800D01*
X113022711Y-68892730D01*
X113033953Y-68910200D01*
X111760000Y-68910200D01*
X111448955Y-68972071D01*
X111185263Y-69148264D01*
X109543866Y-70789662D01*
X108420000Y-70789662D01*
X108175270Y-70835711D01*
X107950501Y-70980346D01*
X107799712Y-71201034D01*
X107774398Y-71326039D01*
X107454130Y-71024649D01*
X107008253Y-70839968D01*
X106781600Y-70971691D01*
X106781600Y-72161400D01*
X106801600Y-72161400D01*
X106801600Y-72364600D01*
X106781600Y-72364600D01*
X106781600Y-73554309D01*
X107008253Y-73686032D01*
X107454130Y-73501351D01*
X107772728Y-73201531D01*
X107792711Y-73307730D01*
X107937346Y-73532499D01*
X108158034Y-73683288D01*
X108420000Y-73736338D01*
X110020000Y-73736338D01*
X110264730Y-73690289D01*
X110489499Y-73545654D01*
X110640288Y-73324966D01*
X110693338Y-73063000D01*
X110693338Y-71939134D01*
X112096673Y-70535800D01*
X112972728Y-70535800D01*
X112661175Y-70847353D01*
X112471129Y-70885155D01*
X111997341Y-71201730D01*
X111680766Y-71675518D01*
X111569600Y-72234389D01*
X111569600Y-72291611D01*
X111680766Y-72850482D01*
X111997341Y-73324270D01*
X112471129Y-73640845D01*
X113030000Y-73752011D01*
X113588871Y-73640845D01*
X114062659Y-73324270D01*
X114310196Y-72953804D01*
X114380901Y-73110841D01*
X114795870Y-73501351D01*
X115241747Y-73686032D01*
X115468400Y-73554309D01*
X115468400Y-72364600D01*
X115671600Y-72364600D01*
X115671600Y-73554309D01*
X115898253Y-73686032D01*
X116344130Y-73501351D01*
X116759099Y-73110841D01*
X116840000Y-72931158D01*
X116920901Y-73110841D01*
X117335870Y-73501351D01*
X117781747Y-73686032D01*
X118008400Y-73554309D01*
X118008400Y-72364600D01*
X115671600Y-72364600D01*
X115468400Y-72364600D01*
X115448400Y-72364600D01*
X115448400Y-72161400D01*
X115468400Y-72161400D01*
X115468400Y-72141400D01*
X115671600Y-72141400D01*
X115671600Y-72161400D01*
X118008400Y-72161400D01*
X118008400Y-70971691D01*
X117781747Y-70839968D01*
X117335870Y-71024649D01*
X116920901Y-71415159D01*
X116840000Y-71594842D01*
X116759099Y-71415159D01*
X116499435Y-71170800D01*
X116840000Y-71170800D01*
X117151045Y-71108929D01*
X117414736Y-70932736D01*
X119026135Y-69321338D01*
X120030000Y-69321338D01*
X120274730Y-69275289D01*
X120499499Y-69130654D01*
X120650288Y-68909966D01*
X120651129Y-68905812D01*
X120787346Y-69117499D01*
X121008034Y-69268288D01*
X121107200Y-69288370D01*
X121107200Y-70656327D01*
X120973865Y-70789662D01*
X119850000Y-70789662D01*
X119605270Y-70835711D01*
X119380501Y-70980346D01*
X119229712Y-71201034D01*
X119204398Y-71326039D01*
X118884130Y-71024649D01*
X118438253Y-70839968D01*
X118211600Y-70971691D01*
X118211600Y-72161400D01*
X118231600Y-72161400D01*
X118231600Y-72364600D01*
X118211600Y-72364600D01*
X118211600Y-73554309D01*
X118438253Y-73686032D01*
X118884130Y-73501351D01*
X119202728Y-73201531D01*
X119222711Y-73307730D01*
X119367346Y-73532499D01*
X119588034Y-73683288D01*
X119850000Y-73736338D01*
X121450000Y-73736338D01*
X121694730Y-73690289D01*
X121919499Y-73545654D01*
X122070288Y-73324966D01*
X122123338Y-73063000D01*
X122123338Y-71939135D01*
X122494736Y-71567737D01*
X122670929Y-71304045D01*
X122688641Y-71215000D01*
X122732800Y-70993000D01*
X122732800Y-69290705D01*
X122814730Y-69275289D01*
X123039499Y-69130654D01*
X123190288Y-68909966D01*
X123191129Y-68905812D01*
X123327346Y-69117499D01*
X123548034Y-69268288D01*
X123647200Y-69288370D01*
X123647200Y-71054825D01*
X123427341Y-71201730D01*
X123110766Y-71675518D01*
X122999600Y-72234389D01*
X122999600Y-72291611D01*
X123110766Y-72850482D01*
X123427341Y-73324270D01*
X123901129Y-73640845D01*
X124460000Y-73752011D01*
X125018871Y-73640845D01*
X125492659Y-73324270D01*
X125740196Y-72953804D01*
X125810901Y-73110841D01*
X126225870Y-73501351D01*
X126671747Y-73686032D01*
X126898400Y-73554309D01*
X126898400Y-72364600D01*
X127101600Y-72364600D01*
X127101600Y-73554309D01*
X127328253Y-73686032D01*
X127774130Y-73501351D01*
X128189099Y-73110841D01*
X128270000Y-72931158D01*
X128350901Y-73110841D01*
X128765870Y-73501351D01*
X129211747Y-73686032D01*
X129438400Y-73554309D01*
X129438400Y-72364600D01*
X127101600Y-72364600D01*
X126898400Y-72364600D01*
X126878400Y-72364600D01*
X126878400Y-72161400D01*
X126898400Y-72161400D01*
X126898400Y-70971691D01*
X126671747Y-70839968D01*
X126225870Y-71024649D01*
X125810901Y-71415159D01*
X125740196Y-71572196D01*
X125492659Y-71201730D01*
X125272800Y-71054825D01*
X125272800Y-69290705D01*
X125354730Y-69275289D01*
X125579499Y-69130654D01*
X125730288Y-68909966D01*
X125731129Y-68905812D01*
X125867346Y-69117499D01*
X126088034Y-69268288D01*
X126350000Y-69321338D01*
X126718866Y-69321338D01*
X128330264Y-70932737D01*
X128593955Y-71108929D01*
X128661941Y-71122452D01*
X128350901Y-71415159D01*
X128270000Y-71594842D01*
X128189099Y-71415159D01*
X127774130Y-71024649D01*
X127328253Y-70839968D01*
X127101600Y-70971691D01*
X127101600Y-72161400D01*
X129438400Y-72161400D01*
X129438400Y-72141400D01*
X129641600Y-72141400D01*
X129641600Y-72161400D01*
X129661600Y-72161400D01*
X129661600Y-72364600D01*
X129641600Y-72364600D01*
X129641600Y-73554309D01*
X129868253Y-73686032D01*
X130314130Y-73501351D01*
X130632728Y-73201531D01*
X130652711Y-73307730D01*
X130797346Y-73532499D01*
X131018034Y-73683288D01*
X131280000Y-73736338D01*
X132880000Y-73736338D01*
X133124730Y-73690289D01*
X133349499Y-73545654D01*
X133500288Y-73324966D01*
X133553338Y-73063000D01*
X133553338Y-71463000D01*
X133507289Y-71218270D01*
X133362654Y-70993501D01*
X133141966Y-70842712D01*
X132880000Y-70789662D01*
X132391135Y-70789662D01*
X132137273Y-70535800D01*
X133013328Y-70535800D01*
X134476439Y-71998912D01*
X134429600Y-72234389D01*
X134429600Y-72291611D01*
X134540766Y-72850482D01*
X134857341Y-73324270D01*
X135331129Y-73640845D01*
X135890000Y-73752011D01*
X136448871Y-73640845D01*
X136922659Y-73324270D01*
X137170196Y-72953804D01*
X137240901Y-73110841D01*
X137655870Y-73501351D01*
X138101747Y-73686032D01*
X138328400Y-73554309D01*
X138328400Y-72364600D01*
X138531600Y-72364600D01*
X138531600Y-73554309D01*
X138758253Y-73686032D01*
X139204130Y-73501351D01*
X139619099Y-73110841D01*
X139700000Y-72931158D01*
X139780901Y-73110841D01*
X140195870Y-73501351D01*
X140641747Y-73686032D01*
X140868400Y-73554309D01*
X140868400Y-72364600D01*
X138531600Y-72364600D01*
X138328400Y-72364600D01*
X138308400Y-72364600D01*
X138308400Y-72161400D01*
X138328400Y-72161400D01*
X138328400Y-70971691D01*
X138531600Y-70971691D01*
X138531600Y-72161400D01*
X140868400Y-72161400D01*
X140868400Y-70971691D01*
X140641747Y-70839968D01*
X140195870Y-71024649D01*
X139780901Y-71415159D01*
X139700000Y-71594842D01*
X139619099Y-71415159D01*
X139204130Y-71024649D01*
X138758253Y-70839968D01*
X138531600Y-70971691D01*
X138328400Y-70971691D01*
X138101747Y-70839968D01*
X137655870Y-71024649D01*
X137240901Y-71415159D01*
X137170196Y-71572196D01*
X136922659Y-71201730D01*
X136448871Y-70885155D01*
X135890000Y-70773989D01*
X135606795Y-70830322D01*
X133924736Y-69148264D01*
X133661045Y-68972071D01*
X133350113Y-68910222D01*
X133350288Y-68909966D01*
X133390621Y-68710800D01*
X140713328Y-68710800D01*
X142697200Y-70694673D01*
X142697200Y-70792070D01*
X142465270Y-70835711D01*
X142240501Y-70980346D01*
X142089712Y-71201034D01*
X142064398Y-71326039D01*
X141744130Y-71024649D01*
X141298253Y-70839968D01*
X141071600Y-70971691D01*
X141071600Y-72161400D01*
X141091600Y-72161400D01*
X141091600Y-72364600D01*
X141071600Y-72364600D01*
X141071600Y-73554309D01*
X141298253Y-73686032D01*
X141744130Y-73501351D01*
X142062728Y-73201531D01*
X142082711Y-73307730D01*
X142227346Y-73532499D01*
X142448034Y-73683288D01*
X142710000Y-73736338D01*
X144310000Y-73736338D01*
X144554730Y-73690289D01*
X144779499Y-73545654D01*
X144930288Y-73324966D01*
X144983338Y-73063000D01*
X144983338Y-71463000D01*
X144937289Y-71218270D01*
X144792654Y-70993501D01*
X144571966Y-70842712D01*
X144322800Y-70792254D01*
X144322800Y-70358000D01*
X144260929Y-70046955D01*
X144252303Y-70034045D01*
X144084736Y-69783263D01*
X141624736Y-67323264D01*
X141361045Y-67147071D01*
X141050000Y-67085200D01*
X133391521Y-67085200D01*
X133357289Y-66903270D01*
X133212654Y-66678501D01*
X133019466Y-66546502D01*
X133199499Y-66430654D01*
X133350288Y-66209966D01*
X133403338Y-65948000D01*
X133403338Y-64448000D01*
X133357289Y-64203270D01*
X133212654Y-63978501D01*
X133003618Y-63835674D01*
X133269099Y-63585841D01*
X133503039Y-63066254D01*
X133371769Y-62839600D01*
X132181600Y-62839600D01*
X132181600Y-62859600D01*
X131978400Y-62859600D01*
X131978400Y-62839600D01*
X131958400Y-62839600D01*
X131958400Y-62636400D01*
X131978400Y-62636400D01*
X131978400Y-61446691D01*
X132181600Y-61446691D01*
X132181600Y-62636400D01*
X133371769Y-62636400D01*
X133503039Y-62409746D01*
X133269099Y-61890159D01*
X132854130Y-61499649D01*
X132408253Y-61314968D01*
X132181600Y-61446691D01*
X131978400Y-61446691D01*
X131751747Y-61314968D01*
X131305870Y-61499649D01*
X130890901Y-61890159D01*
X130820196Y-62047196D01*
X130572659Y-61676730D01*
X130098871Y-61360155D01*
X129540000Y-61248989D01*
X128981129Y-61360155D01*
X128507341Y-61676730D01*
X128270000Y-62031936D01*
X128032659Y-61676730D01*
X127558871Y-61360155D01*
X127000000Y-61248989D01*
X126441129Y-61360155D01*
X125967341Y-61676730D01*
X125730000Y-62031936D01*
X125492659Y-61676730D01*
X125018871Y-61360155D01*
X124460000Y-61248989D01*
X123901129Y-61360155D01*
X123427341Y-61676730D01*
X123190000Y-62031936D01*
X122952659Y-61676730D01*
X122478871Y-61360155D01*
X121920000Y-61248989D01*
X121361129Y-61360155D01*
X120887341Y-61676730D01*
X120650000Y-62031936D01*
X120412659Y-61676730D01*
X119938871Y-61360155D01*
X119380000Y-61248989D01*
X118821129Y-61360155D01*
X118347341Y-61676730D01*
X118110000Y-62031936D01*
X117872659Y-61676730D01*
X117398871Y-61360155D01*
X116840000Y-61248989D01*
X116281129Y-61360155D01*
X115807341Y-61676730D01*
X115570000Y-62031936D01*
X115332659Y-61676730D01*
X114858871Y-61360155D01*
X114300000Y-61248989D01*
X113741129Y-61360155D01*
X113267341Y-61676730D01*
X112950766Y-62150518D01*
X112839600Y-62709389D01*
X112839600Y-62766611D01*
X112950766Y-63325482D01*
X113267341Y-63799270D01*
X113351353Y-63855405D01*
X113180501Y-63965346D01*
X113053172Y-64151700D01*
X112572800Y-63671328D01*
X112572800Y-60534672D01*
X116556794Y-56550678D01*
X116840000Y-56607011D01*
X117398871Y-56495845D01*
X117872659Y-56179270D01*
X118110000Y-55824064D01*
X118347341Y-56179270D01*
X118821129Y-56495845D01*
X119380000Y-56607011D01*
X119663206Y-56550678D01*
X120805264Y-57692736D01*
X121068955Y-57868929D01*
X121380000Y-57930800D01*
X139259488Y-57930800D01*
X139577569Y-58249437D01*
X140068207Y-58453168D01*
X140599462Y-58453631D01*
X141090455Y-58250757D01*
X141466437Y-57875431D01*
X141670168Y-57384793D01*
X141670631Y-56853538D01*
X141467757Y-56362545D01*
X141419536Y-56314239D01*
X141479499Y-56275654D01*
X141630288Y-56054966D01*
X141683338Y-55793000D01*
X141683338Y-54443000D01*
X141637289Y-54198270D01*
X141492654Y-53973501D01*
X141271966Y-53822712D01*
X141010000Y-53769662D01*
X139660000Y-53769662D01*
X139415270Y-53815711D01*
X139190501Y-53960346D01*
X139039712Y-54181034D01*
X139014567Y-54305200D01*
X133278681Y-54305200D01*
X133112659Y-54056730D01*
X132638871Y-53740155D01*
X132080000Y-53628989D01*
X131521129Y-53740155D01*
X131047341Y-54056730D01*
X130810000Y-54411936D01*
X130572659Y-54056730D01*
X130352800Y-53909825D01*
X130352800Y-53344535D01*
X130647488Y-53147631D01*
X130977849Y-52653210D01*
X131093857Y-52070000D01*
X132050143Y-52070000D01*
X132166151Y-52653210D01*
X132496512Y-53147631D01*
X132990933Y-53477992D01*
X133574143Y-53594000D01*
X133633857Y-53594000D01*
X134217067Y-53477992D01*
X134711488Y-53147631D01*
X134874000Y-52904414D01*
X135036512Y-53147631D01*
X135530933Y-53477992D01*
X136114143Y-53594000D01*
X136173857Y-53594000D01*
X136757067Y-53477992D01*
X137251488Y-53147631D01*
X137414000Y-52904414D01*
X137576512Y-53147631D01*
X138070933Y-53477992D01*
X138654143Y-53594000D01*
X138713857Y-53594000D01*
X139297067Y-53477992D01*
X139791488Y-53147631D01*
X139954000Y-52904414D01*
X140116512Y-53147631D01*
X140610933Y-53477992D01*
X141194143Y-53594000D01*
X141253857Y-53594000D01*
X141837067Y-53477992D01*
X142331488Y-53147631D01*
X142494000Y-52904414D01*
X142656512Y-53147631D01*
X143150933Y-53477992D01*
X143734143Y-53594000D01*
X143793857Y-53594000D01*
X144377067Y-53477992D01*
X144871488Y-53147631D01*
X145034000Y-52904414D01*
X145196512Y-53147631D01*
X145690933Y-53477992D01*
X146274143Y-53594000D01*
X146333857Y-53594000D01*
X146917067Y-53477992D01*
X147411488Y-53147631D01*
X147574000Y-52904414D01*
X147736512Y-53147631D01*
X148230933Y-53477992D01*
X148814143Y-53594000D01*
X148873857Y-53594000D01*
X149457067Y-53477992D01*
X149951488Y-53147631D01*
X150114000Y-52904414D01*
X150276512Y-53147631D01*
X150770933Y-53477992D01*
X151354143Y-53594000D01*
X151413857Y-53594000D01*
X151997067Y-53477992D01*
X152491488Y-53147631D01*
X152821849Y-52653210D01*
X152937857Y-52070000D01*
X152821849Y-51486790D01*
X152491488Y-50992369D01*
X151997067Y-50662008D01*
X151413857Y-50546000D01*
X151354143Y-50546000D01*
X150770933Y-50662008D01*
X150276512Y-50992369D01*
X150114000Y-51235586D01*
X149951488Y-50992369D01*
X149457067Y-50662008D01*
X148873857Y-50546000D01*
X148814143Y-50546000D01*
X148230933Y-50662008D01*
X147736512Y-50992369D01*
X147574000Y-51235586D01*
X147411488Y-50992369D01*
X146917067Y-50662008D01*
X146333857Y-50546000D01*
X146274143Y-50546000D01*
X145690933Y-50662008D01*
X145196512Y-50992369D01*
X145034000Y-51235586D01*
X144871488Y-50992369D01*
X144377067Y-50662008D01*
X143793857Y-50546000D01*
X143734143Y-50546000D01*
X143150933Y-50662008D01*
X142656512Y-50992369D01*
X142494000Y-51235586D01*
X142331488Y-50992369D01*
X141837067Y-50662008D01*
X141253857Y-50546000D01*
X141194143Y-50546000D01*
X140610933Y-50662008D01*
X140116512Y-50992369D01*
X139954000Y-51235586D01*
X139791488Y-50992369D01*
X139297067Y-50662008D01*
X138713857Y-50546000D01*
X138654143Y-50546000D01*
X138070933Y-50662008D01*
X137576512Y-50992369D01*
X137414000Y-51235586D01*
X137251488Y-50992369D01*
X136757067Y-50662008D01*
X136173857Y-50546000D01*
X136114143Y-50546000D01*
X135530933Y-50662008D01*
X135036512Y-50992369D01*
X134874000Y-51235586D01*
X134711488Y-50992369D01*
X134217067Y-50662008D01*
X133633857Y-50546000D01*
X133574143Y-50546000D01*
X132990933Y-50662008D01*
X132496512Y-50992369D01*
X132166151Y-51486790D01*
X132050143Y-52070000D01*
X131093857Y-52070000D01*
X130977849Y-51486790D01*
X130647488Y-50992369D01*
X130153067Y-50662008D01*
X129569857Y-50546000D01*
X129510143Y-50546000D01*
X128926933Y-50662008D01*
X128432512Y-50992369D01*
X128270000Y-51235586D01*
X128107488Y-50992369D01*
X127613067Y-50662008D01*
X127029857Y-50546000D01*
X126970143Y-50546000D01*
X126386933Y-50662008D01*
X125892512Y-50992369D01*
X125730000Y-51235586D01*
X125567488Y-50992369D01*
X125073067Y-50662008D01*
X124489857Y-50546000D01*
X124430143Y-50546000D01*
X123846933Y-50662008D01*
X123352512Y-50992369D01*
X123190000Y-51235586D01*
X123027488Y-50992369D01*
X122533067Y-50662008D01*
X121949857Y-50546000D01*
X121890143Y-50546000D01*
X121306933Y-50662008D01*
X120812512Y-50992369D01*
X120650000Y-51235586D01*
X120487488Y-50992369D01*
X119993067Y-50662008D01*
X119409857Y-50546000D01*
X119350143Y-50546000D01*
X118766933Y-50662008D01*
X118272512Y-50992369D01*
X118110000Y-51235586D01*
X117947488Y-50992369D01*
X117453067Y-50662008D01*
X116869857Y-50546000D01*
X116810143Y-50546000D01*
X116226933Y-50662008D01*
X115732512Y-50992369D01*
X115569308Y-51236621D01*
X115181148Y-50826547D01*
X114638226Y-50583998D01*
X114401600Y-50714483D01*
X114401600Y-51968400D01*
X114421600Y-51968400D01*
X114421600Y-52171600D01*
X114401600Y-52171600D01*
X114401600Y-53425517D01*
X114638226Y-53556002D01*
X115181148Y-53313453D01*
X115569308Y-52903379D01*
X115732512Y-53147631D01*
X116226933Y-53477992D01*
X116810143Y-53594000D01*
X116869857Y-53594000D01*
X117453067Y-53477992D01*
X117947488Y-53147631D01*
X118110000Y-52904414D01*
X118272512Y-53147631D01*
X118567200Y-53344535D01*
X118567200Y-53909825D01*
X118347341Y-54056730D01*
X118110000Y-54411936D01*
X117872659Y-54056730D01*
X117398871Y-53740155D01*
X116840000Y-53628989D01*
X116281129Y-53740155D01*
X115807341Y-54056730D01*
X115570000Y-54411936D01*
X115332659Y-54056730D01*
X114858871Y-53740155D01*
X114300000Y-53628989D01*
X113741129Y-53740155D01*
X113267341Y-54056730D01*
X112950766Y-54530518D01*
X112839600Y-55089389D01*
X112839600Y-55146611D01*
X112950766Y-55705482D01*
X113267341Y-56179270D01*
X113741129Y-56495845D01*
X114217856Y-56590672D01*
X111185264Y-59623264D01*
X111009071Y-59886955D01*
X110947200Y-60198000D01*
X110947200Y-64008000D01*
X110997592Y-64261338D01*
X111009071Y-64319045D01*
X111185264Y-64582736D01*
X112375264Y-65772736D01*
X112638955Y-65948929D01*
X112950000Y-66010800D01*
X112988479Y-66010800D01*
X113022711Y-66192730D01*
X113167346Y-66417499D01*
X113360534Y-66549498D01*
X113180501Y-66665346D01*
X113029712Y-66886034D01*
X112989379Y-67085200D01*
X104060000Y-67085200D01*
X103748955Y-67147071D01*
X103485263Y-67323264D01*
X101025265Y-69783263D01*
X101025264Y-69783264D01*
X100849071Y-70046955D01*
X100787200Y-70358000D01*
X100787200Y-71054825D01*
X100567341Y-71201730D01*
X100250766Y-71675518D01*
X100139600Y-72234389D01*
X99212400Y-72234389D01*
X99212400Y-52517649D01*
X100863208Y-52517649D01*
X101206609Y-53348741D01*
X101841914Y-53985157D01*
X102672406Y-54330007D01*
X103571649Y-54330792D01*
X104402741Y-53987391D01*
X105039157Y-53352086D01*
X105295933Y-52733700D01*
X105572512Y-53147631D01*
X106066933Y-53477992D01*
X106650143Y-53594000D01*
X106709857Y-53594000D01*
X107293067Y-53477992D01*
X107787488Y-53147631D01*
X107950000Y-52904414D01*
X108112512Y-53147631D01*
X108606933Y-53477992D01*
X109190143Y-53594000D01*
X109249857Y-53594000D01*
X109833067Y-53477992D01*
X110327488Y-53147631D01*
X110490000Y-52904414D01*
X110652512Y-53147631D01*
X111146933Y-53477992D01*
X111730143Y-53594000D01*
X111789857Y-53594000D01*
X112373067Y-53477992D01*
X112867488Y-53147631D01*
X113030692Y-52903379D01*
X113418852Y-53313453D01*
X113961774Y-53556002D01*
X114198400Y-53425517D01*
X114198400Y-52171600D01*
X114178400Y-52171600D01*
X114178400Y-51968400D01*
X114198400Y-51968400D01*
X114198400Y-50714483D01*
X113961774Y-50583998D01*
X113418852Y-50826547D01*
X113030692Y-51236621D01*
X112867488Y-50992369D01*
X112373067Y-50662008D01*
X111789857Y-50546000D01*
X111730143Y-50546000D01*
X111146933Y-50662008D01*
X110652512Y-50992369D01*
X110490000Y-51235586D01*
X110327488Y-50992369D01*
X109833067Y-50662008D01*
X109249857Y-50546000D01*
X109190143Y-50546000D01*
X108606933Y-50662008D01*
X108112512Y-50992369D01*
X107950000Y-51235586D01*
X107787488Y-50992369D01*
X107293067Y-50662008D01*
X106709857Y-50546000D01*
X106650143Y-50546000D01*
X106066933Y-50662008D01*
X105572512Y-50992369D01*
X105295678Y-51406680D01*
X105041391Y-50791259D01*
X104406086Y-50154843D01*
X103575594Y-49809993D01*
X102676351Y-49809208D01*
X101845259Y-50152609D01*
X101208843Y-50787914D01*
X100863993Y-51618406D01*
X100863208Y-52517649D01*
X99212400Y-52517649D01*
X99212400Y-48995400D01*
X155502568Y-48995400D01*
X156017074Y-49097741D01*
X156017074Y-49097741D01*
G37*
X156017074Y-49097741D02*
X156391844Y-49348156D01*
X156642259Y-49722926D01*
X156744600Y-50237432D01*
X156744600Y-102162568D01*
X156642259Y-102677074D01*
X156391844Y-103051844D01*
X156017074Y-103302259D01*
X155502568Y-103404600D01*
X85797432Y-103404600D01*
X85282926Y-103302259D01*
X84908156Y-103051844D01*
X84657741Y-102677074D01*
X84555400Y-102162568D01*
X84555400Y-98450400D01*
X126206128Y-98450400D01*
X125824800Y-98831728D01*
X125370933Y-98922008D01*
X124876512Y-99252369D01*
X124714000Y-99495586D01*
X124551488Y-99252369D01*
X124057067Y-98922008D01*
X123473857Y-98806000D01*
X123414143Y-98806000D01*
X122830933Y-98922008D01*
X122336512Y-99252369D01*
X122174000Y-99495586D01*
X122011488Y-99252369D01*
X121517067Y-98922008D01*
X120933857Y-98806000D01*
X120874143Y-98806000D01*
X120290933Y-98922008D01*
X119796512Y-99252369D01*
X119634000Y-99495586D01*
X119471488Y-99252369D01*
X118977067Y-98922008D01*
X118393857Y-98806000D01*
X118334143Y-98806000D01*
X117750933Y-98922008D01*
X117256512Y-99252369D01*
X117094000Y-99495586D01*
X116931488Y-99252369D01*
X116437067Y-98922008D01*
X115853857Y-98806000D01*
X115794143Y-98806000D01*
X115210933Y-98922008D01*
X114716512Y-99252369D01*
X114386151Y-99746790D01*
X114270143Y-100330000D01*
X114386151Y-100913210D01*
X114716512Y-101407631D01*
X115210933Y-101737992D01*
X115794143Y-101854000D01*
X115853857Y-101854000D01*
X116437067Y-101737992D01*
X116931488Y-101407631D01*
X117094000Y-101164414D01*
X117256512Y-101407631D01*
X117750933Y-101737992D01*
X118334143Y-101854000D01*
X118393857Y-101854000D01*
X118977067Y-101737992D01*
X119471488Y-101407631D01*
X119634000Y-101164414D01*
X119796512Y-101407631D01*
X120290933Y-101737992D01*
X120874143Y-101854000D01*
X120933857Y-101854000D01*
X121517067Y-101737992D01*
X122011488Y-101407631D01*
X122174000Y-101164414D01*
X122336512Y-101407631D01*
X122830933Y-101737992D01*
X123414143Y-101854000D01*
X123473857Y-101854000D01*
X124057067Y-101737992D01*
X124551488Y-101407631D01*
X124714000Y-101164414D01*
X124876512Y-101407631D01*
X125370933Y-101737992D01*
X125954143Y-101854000D01*
X126013857Y-101854000D01*
X126597067Y-101737992D01*
X127091488Y-101407631D01*
X127254692Y-101163379D01*
X127642852Y-101573453D01*
X128185774Y-101816002D01*
X128422400Y-101685517D01*
X128422400Y-100431600D01*
X128625600Y-100431600D01*
X128625600Y-101685517D01*
X128862226Y-101816002D01*
X129405148Y-101573453D01*
X129794000Y-101162648D01*
X130182852Y-101573453D01*
X130725774Y-101816002D01*
X130962400Y-101685517D01*
X130962400Y-100431600D01*
X128625600Y-100431600D01*
X128422400Y-100431600D01*
X128402400Y-100431600D01*
X128402400Y-100228400D01*
X128422400Y-100228400D01*
X128422400Y-100208400D01*
X128625600Y-100208400D01*
X128625600Y-100228400D01*
X130962400Y-100228400D01*
X130962400Y-100208400D01*
X131165600Y-100208400D01*
X131165600Y-100228400D01*
X131185600Y-100228400D01*
X131185600Y-100431600D01*
X131165600Y-100431600D01*
X131165600Y-101685517D01*
X131402226Y-101816002D01*
X131945148Y-101573453D01*
X132333308Y-101163379D01*
X132496512Y-101407631D01*
X132990933Y-101737992D01*
X133574143Y-101854000D01*
X133633857Y-101854000D01*
X134217067Y-101737992D01*
X134711488Y-101407631D01*
X135041849Y-100913210D01*
X135157857Y-100330000D01*
X135041849Y-99746790D01*
X134786612Y-99364800D01*
X137501388Y-99364800D01*
X137246151Y-99746790D01*
X137130143Y-100330000D01*
X137246151Y-100913210D01*
X137576512Y-101407631D01*
X138070933Y-101737992D01*
X138654143Y-101854000D01*
X138713857Y-101854000D01*
X139297067Y-101737992D01*
X139791488Y-101407631D01*
X139954000Y-101164414D01*
X140116512Y-101407631D01*
X140610933Y-101737992D01*
X141194143Y-101854000D01*
X141253857Y-101854000D01*
X141837067Y-101737992D01*
X142331488Y-101407631D01*
X142494000Y-101164414D01*
X142656512Y-101407631D01*
X143150933Y-101737992D01*
X143734143Y-101854000D01*
X143793857Y-101854000D01*
X144377067Y-101737992D01*
X144871488Y-101407631D01*
X145034000Y-101164414D01*
X145196512Y-101407631D01*
X145690933Y-101737992D01*
X146274143Y-101854000D01*
X146333857Y-101854000D01*
X146917067Y-101737992D01*
X147411488Y-101407631D01*
X147574000Y-101164414D01*
X147736512Y-101407631D01*
X148230933Y-101737992D01*
X148814143Y-101854000D01*
X148873857Y-101854000D01*
X149457067Y-101737992D01*
X149951488Y-101407631D01*
X150114000Y-101164414D01*
X150276512Y-101407631D01*
X150770933Y-101737992D01*
X151354143Y-101854000D01*
X151413857Y-101854000D01*
X151997067Y-101737992D01*
X152491488Y-101407631D01*
X152821849Y-100913210D01*
X152937857Y-100330000D01*
X152821849Y-99746790D01*
X152491488Y-99252369D01*
X151997067Y-98922008D01*
X151413857Y-98806000D01*
X151354143Y-98806000D01*
X150770933Y-98922008D01*
X150276512Y-99252369D01*
X150114000Y-99495586D01*
X149951488Y-99252369D01*
X149480684Y-98937788D01*
X151704736Y-96713737D01*
X151880929Y-96450045D01*
X151911204Y-96297843D01*
X152006609Y-96528741D01*
X152641914Y-97165157D01*
X153472406Y-97510007D01*
X154371649Y-97510792D01*
X155202741Y-97167391D01*
X155839157Y-96532086D01*
X156184007Y-95701594D01*
X156184792Y-94802351D01*
X155841391Y-93971259D01*
X155206086Y-93334843D01*
X154375594Y-92989993D01*
X153476351Y-92989208D01*
X152645259Y-93332609D01*
X152008843Y-93967914D01*
X151942800Y-94126963D01*
X151942800Y-71215000D01*
X151880929Y-70903955D01*
X151804561Y-70789662D01*
X151704737Y-70640264D01*
X148822122Y-67757649D01*
X151663208Y-67757649D01*
X152006609Y-68588741D01*
X152641914Y-69225157D01*
X153472406Y-69570007D01*
X154371649Y-69570792D01*
X155202741Y-69227391D01*
X155839157Y-68592086D01*
X156184007Y-67761594D01*
X156184792Y-66862351D01*
X155841391Y-66031259D01*
X155206086Y-65394843D01*
X154375594Y-65049993D01*
X153476351Y-65049208D01*
X152645259Y-65392609D01*
X152008843Y-66027914D01*
X151663993Y-66858406D01*
X151663208Y-67757649D01*
X148822122Y-67757649D01*
X147879872Y-66815400D01*
X149053300Y-66815400D01*
X149218400Y-66650300D01*
X149218400Y-65506600D01*
X149421600Y-65506600D01*
X149421600Y-66650300D01*
X149586700Y-66815400D01*
X151051362Y-66815400D01*
X151294087Y-66714860D01*
X151479860Y-66529086D01*
X151580400Y-66286361D01*
X151580400Y-65671700D01*
X151415300Y-65506600D01*
X149421600Y-65506600D01*
X149218400Y-65506600D01*
X149198400Y-65506600D01*
X149198400Y-65303400D01*
X149218400Y-65303400D01*
X149218400Y-65283400D01*
X149421600Y-65283400D01*
X149421600Y-65303400D01*
X151415300Y-65303400D01*
X151580400Y-65138300D01*
X151580400Y-64523639D01*
X151479860Y-64280914D01*
X151294087Y-64095140D01*
X151051362Y-63994600D01*
X149586700Y-63994600D01*
X149421602Y-64159698D01*
X149421602Y-63994600D01*
X149417173Y-63994600D01*
X149821832Y-63612027D01*
X150062540Y-63074094D01*
X149931887Y-62839600D01*
X148691600Y-62839600D01*
X148691600Y-62859600D01*
X148488400Y-62859600D01*
X148488400Y-62839600D01*
X148468400Y-62839600D01*
X148468400Y-62636400D01*
X148488400Y-62636400D01*
X148488400Y-61396542D01*
X148691600Y-61396542D01*
X148691600Y-62636400D01*
X149931887Y-62636400D01*
X150062540Y-62401906D01*
X149821832Y-61863973D01*
X149393589Y-61459103D01*
X148926093Y-61265468D01*
X148691600Y-61396542D01*
X148488400Y-61396542D01*
X148253907Y-61265468D01*
X147786411Y-61459103D01*
X147537003Y-61694898D01*
X147527289Y-61643270D01*
X147382654Y-61418501D01*
X147161966Y-61267712D01*
X146900000Y-61214662D01*
X145200000Y-61214662D01*
X144955270Y-61260711D01*
X144730501Y-61405346D01*
X144579712Y-61626034D01*
X144526662Y-61888000D01*
X144526662Y-63588000D01*
X144572711Y-63832730D01*
X144668546Y-63981662D01*
X143720000Y-63981662D01*
X143475270Y-64027711D01*
X143250501Y-64172346D01*
X143099712Y-64393034D01*
X143059379Y-64592200D01*
X142703673Y-64592200D01*
X139390565Y-61279093D01*
X139390566Y-61277803D01*
X139244662Y-60924688D01*
X138974733Y-60654288D01*
X138621873Y-60507767D01*
X138239803Y-60507434D01*
X137886688Y-60653338D01*
X137616288Y-60923267D01*
X137469767Y-61276127D01*
X137469434Y-61658197D01*
X137615338Y-62011312D01*
X137885267Y-62281712D01*
X138238127Y-62428233D01*
X138240763Y-62428235D01*
X141792264Y-65979737D01*
X142055955Y-66155929D01*
X142367000Y-66217800D01*
X143058479Y-66217800D01*
X143092711Y-66399730D01*
X143237346Y-66624499D01*
X143458034Y-66775288D01*
X143720000Y-66828338D01*
X145593866Y-66828338D01*
X150317200Y-71551673D01*
X150317200Y-95802327D01*
X148380328Y-97739200D01*
X147472400Y-97739200D01*
X147472400Y-75438000D01*
X147460393Y-75378708D01*
X147426264Y-75328758D01*
X147375391Y-75296023D01*
X147320000Y-75285600D01*
X99212400Y-75285600D01*
X99212400Y-72234389D01*
X100139600Y-72234389D01*
X100139600Y-72291611D01*
X100250766Y-72850482D01*
X100567341Y-73324270D01*
X101041129Y-73640845D01*
X101600000Y-73752011D01*
X102158871Y-73640845D01*
X102632659Y-73324270D01*
X102880196Y-72953804D01*
X102950901Y-73110841D01*
X103365870Y-73501351D01*
X103811747Y-73686032D01*
X104038400Y-73554309D01*
X104038400Y-72364600D01*
X104241600Y-72364600D01*
X104241600Y-73554309D01*
X104468253Y-73686032D01*
X104914130Y-73501351D01*
X105329099Y-73110841D01*
X105410000Y-72931158D01*
X105490901Y-73110841D01*
X105905870Y-73501351D01*
X106351747Y-73686032D01*
X106578400Y-73554309D01*
X106578400Y-72364600D01*
X104241600Y-72364600D01*
X104038400Y-72364600D01*
X104018400Y-72364600D01*
X104018400Y-72161400D01*
X104038400Y-72161400D01*
X104038400Y-70971691D01*
X104241600Y-70971691D01*
X104241600Y-72161400D01*
X106578400Y-72161400D01*
X106578400Y-70971691D01*
X106351747Y-70839968D01*
X105905870Y-71024649D01*
X105490901Y-71415159D01*
X105410000Y-71594842D01*
X105329099Y-71415159D01*
X104914130Y-71024649D01*
X104468253Y-70839968D01*
X104241600Y-70971691D01*
X104038400Y-70971691D01*
X103811747Y-70839968D01*
X103365870Y-71024649D01*
X102950901Y-71415159D01*
X102880196Y-71572196D01*
X102632659Y-71201730D01*
X102412800Y-71054825D01*
X102412800Y-70694672D01*
X104396673Y-68710800D01*
X112988479Y-68710800D01*
X113022711Y-68892730D01*
X113033953Y-68910200D01*
X111760000Y-68910200D01*
X111448955Y-68972071D01*
X111185263Y-69148264D01*
X109543866Y-70789662D01*
X108420000Y-70789662D01*
X108175270Y-70835711D01*
X107950501Y-70980346D01*
X107799712Y-71201034D01*
X107774398Y-71326039D01*
X107454130Y-71024649D01*
X107008253Y-70839968D01*
X106781600Y-70971691D01*
X106781600Y-72161400D01*
X106801600Y-72161400D01*
X106801600Y-72364600D01*
X106781600Y-72364600D01*
X106781600Y-73554309D01*
X107008253Y-73686032D01*
X107454130Y-73501351D01*
X107772728Y-73201531D01*
X107792711Y-73307730D01*
X107937346Y-73532499D01*
X108158034Y-73683288D01*
X108420000Y-73736338D01*
X110020000Y-73736338D01*
X110264730Y-73690289D01*
X110489499Y-73545654D01*
X110640288Y-73324966D01*
X110693338Y-73063000D01*
X110693338Y-71939134D01*
X112096673Y-70535800D01*
X112972728Y-70535800D01*
X112661175Y-70847353D01*
X112471129Y-70885155D01*
X111997341Y-71201730D01*
X111680766Y-71675518D01*
X111569600Y-72234389D01*
X111569600Y-72291611D01*
X111680766Y-72850482D01*
X111997341Y-73324270D01*
X112471129Y-73640845D01*
X113030000Y-73752011D01*
X113588871Y-73640845D01*
X114062659Y-73324270D01*
X114310196Y-72953804D01*
X114380901Y-73110841D01*
X114795870Y-73501351D01*
X115241747Y-73686032D01*
X115468400Y-73554309D01*
X115468400Y-72364600D01*
X115671600Y-72364600D01*
X115671600Y-73554309D01*
X115898253Y-73686032D01*
X116344130Y-73501351D01*
X116759099Y-73110841D01*
X116840000Y-72931158D01*
X116920901Y-73110841D01*
X117335870Y-73501351D01*
X117781747Y-73686032D01*
X118008400Y-73554309D01*
X118008400Y-72364600D01*
X115671600Y-72364600D01*
X115468400Y-72364600D01*
X115448400Y-72364600D01*
X115448400Y-72161400D01*
X115468400Y-72161400D01*
X115468400Y-72141400D01*
X115671600Y-72141400D01*
X115671600Y-72161400D01*
X118008400Y-72161400D01*
X118008400Y-70971691D01*
X117781747Y-70839968D01*
X117335870Y-71024649D01*
X116920901Y-71415159D01*
X116840000Y-71594842D01*
X116759099Y-71415159D01*
X116499435Y-71170800D01*
X116840000Y-71170800D01*
X117151045Y-71108929D01*
X117414736Y-70932736D01*
X119026135Y-69321338D01*
X120030000Y-69321338D01*
X120274730Y-69275289D01*
X120499499Y-69130654D01*
X120650288Y-68909966D01*
X120651129Y-68905812D01*
X120787346Y-69117499D01*
X121008034Y-69268288D01*
X121107200Y-69288370D01*
X121107200Y-70656327D01*
X120973865Y-70789662D01*
X119850000Y-70789662D01*
X119605270Y-70835711D01*
X119380501Y-70980346D01*
X119229712Y-71201034D01*
X119204398Y-71326039D01*
X118884130Y-71024649D01*
X118438253Y-70839968D01*
X118211600Y-70971691D01*
X118211600Y-72161400D01*
X118231600Y-72161400D01*
X118231600Y-72364600D01*
X118211600Y-72364600D01*
X118211600Y-73554309D01*
X118438253Y-73686032D01*
X118884130Y-73501351D01*
X119202728Y-73201531D01*
X119222711Y-73307730D01*
X119367346Y-73532499D01*
X119588034Y-73683288D01*
X119850000Y-73736338D01*
X121450000Y-73736338D01*
X121694730Y-73690289D01*
X121919499Y-73545654D01*
X122070288Y-73324966D01*
X122123338Y-73063000D01*
X122123338Y-71939135D01*
X122494736Y-71567737D01*
X122670929Y-71304045D01*
X122688641Y-71215000D01*
X122732800Y-70993000D01*
X122732800Y-69290705D01*
X122814730Y-69275289D01*
X123039499Y-69130654D01*
X123190288Y-68909966D01*
X123191129Y-68905812D01*
X123327346Y-69117499D01*
X123548034Y-69268288D01*
X123647200Y-69288370D01*
X123647200Y-71054825D01*
X123427341Y-71201730D01*
X123110766Y-71675518D01*
X122999600Y-72234389D01*
X122999600Y-72291611D01*
X123110766Y-72850482D01*
X123427341Y-73324270D01*
X123901129Y-73640845D01*
X124460000Y-73752011D01*
X125018871Y-73640845D01*
X125492659Y-73324270D01*
X125740196Y-72953804D01*
X125810901Y-73110841D01*
X126225870Y-73501351D01*
X126671747Y-73686032D01*
X126898400Y-73554309D01*
X126898400Y-72364600D01*
X127101600Y-72364600D01*
X127101600Y-73554309D01*
X127328253Y-73686032D01*
X127774130Y-73501351D01*
X128189099Y-73110841D01*
X128270000Y-72931158D01*
X128350901Y-73110841D01*
X128765870Y-73501351D01*
X129211747Y-73686032D01*
X129438400Y-73554309D01*
X129438400Y-72364600D01*
X127101600Y-72364600D01*
X126898400Y-72364600D01*
X126878400Y-72364600D01*
X126878400Y-72161400D01*
X126898400Y-72161400D01*
X126898400Y-70971691D01*
X126671747Y-70839968D01*
X126225870Y-71024649D01*
X125810901Y-71415159D01*
X125740196Y-71572196D01*
X125492659Y-71201730D01*
X125272800Y-71054825D01*
X125272800Y-69290705D01*
X125354730Y-69275289D01*
X125579499Y-69130654D01*
X125730288Y-68909966D01*
X125731129Y-68905812D01*
X125867346Y-69117499D01*
X126088034Y-69268288D01*
X126350000Y-69321338D01*
X126718866Y-69321338D01*
X128330264Y-70932737D01*
X128593955Y-71108929D01*
X128661941Y-71122452D01*
X128350901Y-71415159D01*
X128270000Y-71594842D01*
X128189099Y-71415159D01*
X127774130Y-71024649D01*
X127328253Y-70839968D01*
X127101600Y-70971691D01*
X127101600Y-72161400D01*
X129438400Y-72161400D01*
X129438400Y-72141400D01*
X129641600Y-72141400D01*
X129641600Y-72161400D01*
X129661600Y-72161400D01*
X129661600Y-72364600D01*
X129641600Y-72364600D01*
X129641600Y-73554309D01*
X129868253Y-73686032D01*
X130314130Y-73501351D01*
X130632728Y-73201531D01*
X130652711Y-73307730D01*
X130797346Y-73532499D01*
X131018034Y-73683288D01*
X131280000Y-73736338D01*
X132880000Y-73736338D01*
X133124730Y-73690289D01*
X133349499Y-73545654D01*
X133500288Y-73324966D01*
X133553338Y-73063000D01*
X133553338Y-71463000D01*
X133507289Y-71218270D01*
X133362654Y-70993501D01*
X133141966Y-70842712D01*
X132880000Y-70789662D01*
X132391135Y-70789662D01*
X132137273Y-70535800D01*
X133013328Y-70535800D01*
X134476439Y-71998912D01*
X134429600Y-72234389D01*
X134429600Y-72291611D01*
X134540766Y-72850482D01*
X134857341Y-73324270D01*
X135331129Y-73640845D01*
X135890000Y-73752011D01*
X136448871Y-73640845D01*
X136922659Y-73324270D01*
X137170196Y-72953804D01*
X137240901Y-73110841D01*
X137655870Y-73501351D01*
X138101747Y-73686032D01*
X138328400Y-73554309D01*
X138328400Y-72364600D01*
X138531600Y-72364600D01*
X138531600Y-73554309D01*
X138758253Y-73686032D01*
X139204130Y-73501351D01*
X139619099Y-73110841D01*
X139700000Y-72931158D01*
X139780901Y-73110841D01*
X140195870Y-73501351D01*
X140641747Y-73686032D01*
X140868400Y-73554309D01*
X140868400Y-72364600D01*
X138531600Y-72364600D01*
X138328400Y-72364600D01*
X138308400Y-72364600D01*
X138308400Y-72161400D01*
X138328400Y-72161400D01*
X138328400Y-70971691D01*
X138531600Y-70971691D01*
X138531600Y-72161400D01*
X140868400Y-72161400D01*
X140868400Y-70971691D01*
X140641747Y-70839968D01*
X140195870Y-71024649D01*
X139780901Y-71415159D01*
X139700000Y-71594842D01*
X139619099Y-71415159D01*
X139204130Y-71024649D01*
X138758253Y-70839968D01*
X138531600Y-70971691D01*
X138328400Y-70971691D01*
X138101747Y-70839968D01*
X137655870Y-71024649D01*
X137240901Y-71415159D01*
X137170196Y-71572196D01*
X136922659Y-71201730D01*
X136448871Y-70885155D01*
X135890000Y-70773989D01*
X135606795Y-70830322D01*
X133924736Y-69148264D01*
X133661045Y-68972071D01*
X133350113Y-68910222D01*
X133350288Y-68909966D01*
X133390621Y-68710800D01*
X140713328Y-68710800D01*
X142697200Y-70694673D01*
X142697200Y-70792070D01*
X142465270Y-70835711D01*
X142240501Y-70980346D01*
X142089712Y-71201034D01*
X142064398Y-71326039D01*
X141744130Y-71024649D01*
X141298253Y-70839968D01*
X141071600Y-70971691D01*
X141071600Y-72161400D01*
X141091600Y-72161400D01*
X141091600Y-72364600D01*
X141071600Y-72364600D01*
X141071600Y-73554309D01*
X141298253Y-73686032D01*
X141744130Y-73501351D01*
X142062728Y-73201531D01*
X142082711Y-73307730D01*
X142227346Y-73532499D01*
X142448034Y-73683288D01*
X142710000Y-73736338D01*
X144310000Y-73736338D01*
X144554730Y-73690289D01*
X144779499Y-73545654D01*
X144930288Y-73324966D01*
X144983338Y-73063000D01*
X144983338Y-71463000D01*
X144937289Y-71218270D01*
X144792654Y-70993501D01*
X144571966Y-70842712D01*
X144322800Y-70792254D01*
X144322800Y-70358000D01*
X144260929Y-70046955D01*
X144252303Y-70034045D01*
X144084736Y-69783263D01*
X141624736Y-67323264D01*
X141361045Y-67147071D01*
X141050000Y-67085200D01*
X133391521Y-67085200D01*
X133357289Y-66903270D01*
X133212654Y-66678501D01*
X133019466Y-66546502D01*
X133199499Y-66430654D01*
X133350288Y-66209966D01*
X133403338Y-65948000D01*
X133403338Y-64448000D01*
X133357289Y-64203270D01*
X133212654Y-63978501D01*
X133003618Y-63835674D01*
X133269099Y-63585841D01*
X133503039Y-63066254D01*
X133371769Y-62839600D01*
X132181600Y-62839600D01*
X132181600Y-62859600D01*
X131978400Y-62859600D01*
X131978400Y-62839600D01*
X131958400Y-62839600D01*
X131958400Y-62636400D01*
X131978400Y-62636400D01*
X131978400Y-61446691D01*
X132181600Y-61446691D01*
X132181600Y-62636400D01*
X133371769Y-62636400D01*
X133503039Y-62409746D01*
X133269099Y-61890159D01*
X132854130Y-61499649D01*
X132408253Y-61314968D01*
X132181600Y-61446691D01*
X131978400Y-61446691D01*
X131751747Y-61314968D01*
X131305870Y-61499649D01*
X130890901Y-61890159D01*
X130820196Y-62047196D01*
X130572659Y-61676730D01*
X130098871Y-61360155D01*
X129540000Y-61248989D01*
X128981129Y-61360155D01*
X128507341Y-61676730D01*
X128270000Y-62031936D01*
X128032659Y-61676730D01*
X127558871Y-61360155D01*
X127000000Y-61248989D01*
X126441129Y-61360155D01*
X125967341Y-61676730D01*
X125730000Y-62031936D01*
X125492659Y-61676730D01*
X125018871Y-61360155D01*
X124460000Y-61248989D01*
X123901129Y-61360155D01*
X123427341Y-61676730D01*
X123190000Y-62031936D01*
X122952659Y-61676730D01*
X122478871Y-61360155D01*
X121920000Y-61248989D01*
X121361129Y-61360155D01*
X120887341Y-61676730D01*
X120650000Y-62031936D01*
X120412659Y-61676730D01*
X119938871Y-61360155D01*
X119380000Y-61248989D01*
X118821129Y-61360155D01*
X118347341Y-61676730D01*
X118110000Y-62031936D01*
X117872659Y-61676730D01*
X117398871Y-61360155D01*
X116840000Y-61248989D01*
X116281129Y-61360155D01*
X115807341Y-61676730D01*
X115570000Y-62031936D01*
X115332659Y-61676730D01*
X114858871Y-61360155D01*
X114300000Y-61248989D01*
X113741129Y-61360155D01*
X113267341Y-61676730D01*
X112950766Y-62150518D01*
X112839600Y-62709389D01*
X112839600Y-62766611D01*
X112950766Y-63325482D01*
X113267341Y-63799270D01*
X113351353Y-63855405D01*
X113180501Y-63965346D01*
X113053172Y-64151700D01*
X112572800Y-63671328D01*
X112572800Y-60534672D01*
X116556794Y-56550678D01*
X116840000Y-56607011D01*
X117398871Y-56495845D01*
X117872659Y-56179270D01*
X118110000Y-55824064D01*
X118347341Y-56179270D01*
X118821129Y-56495845D01*
X119380000Y-56607011D01*
X119663206Y-56550678D01*
X120805264Y-57692736D01*
X121068955Y-57868929D01*
X121380000Y-57930800D01*
X139259488Y-57930800D01*
X139577569Y-58249437D01*
X140068207Y-58453168D01*
X140599462Y-58453631D01*
X141090455Y-58250757D01*
X141466437Y-57875431D01*
X141670168Y-57384793D01*
X141670631Y-56853538D01*
X141467757Y-56362545D01*
X141419536Y-56314239D01*
X141479499Y-56275654D01*
X141630288Y-56054966D01*
X141683338Y-55793000D01*
X141683338Y-54443000D01*
X141637289Y-54198270D01*
X141492654Y-53973501D01*
X141271966Y-53822712D01*
X141010000Y-53769662D01*
X139660000Y-53769662D01*
X139415270Y-53815711D01*
X139190501Y-53960346D01*
X139039712Y-54181034D01*
X139014567Y-54305200D01*
X133278681Y-54305200D01*
X133112659Y-54056730D01*
X132638871Y-53740155D01*
X132080000Y-53628989D01*
X131521129Y-53740155D01*
X131047341Y-54056730D01*
X130810000Y-54411936D01*
X130572659Y-54056730D01*
X130352800Y-53909825D01*
X130352800Y-53344535D01*
X130647488Y-53147631D01*
X130977849Y-52653210D01*
X131093857Y-52070000D01*
X132050143Y-52070000D01*
X132166151Y-52653210D01*
X132496512Y-53147631D01*
X132990933Y-53477992D01*
X133574143Y-53594000D01*
X133633857Y-53594000D01*
X134217067Y-53477992D01*
X134711488Y-53147631D01*
X134874000Y-52904414D01*
X135036512Y-53147631D01*
X135530933Y-53477992D01*
X136114143Y-53594000D01*
X136173857Y-53594000D01*
X136757067Y-53477992D01*
X137251488Y-53147631D01*
X137414000Y-52904414D01*
X137576512Y-53147631D01*
X138070933Y-53477992D01*
X138654143Y-53594000D01*
X138713857Y-53594000D01*
X139297067Y-53477992D01*
X139791488Y-53147631D01*
X139954000Y-52904414D01*
X140116512Y-53147631D01*
X140610933Y-53477992D01*
X141194143Y-53594000D01*
X141253857Y-53594000D01*
X141837067Y-53477992D01*
X142331488Y-53147631D01*
X142494000Y-52904414D01*
X142656512Y-53147631D01*
X143150933Y-53477992D01*
X143734143Y-53594000D01*
X143793857Y-53594000D01*
X144377067Y-53477992D01*
X144871488Y-53147631D01*
X145034000Y-52904414D01*
X145196512Y-53147631D01*
X145690933Y-53477992D01*
X146274143Y-53594000D01*
X146333857Y-53594000D01*
X146917067Y-53477992D01*
X147411488Y-53147631D01*
X147574000Y-52904414D01*
X147736512Y-53147631D01*
X148230933Y-53477992D01*
X148814143Y-53594000D01*
X148873857Y-53594000D01*
X149457067Y-53477992D01*
X149951488Y-53147631D01*
X150114000Y-52904414D01*
X150276512Y-53147631D01*
X150770933Y-53477992D01*
X151354143Y-53594000D01*
X151413857Y-53594000D01*
X151997067Y-53477992D01*
X152491488Y-53147631D01*
X152821849Y-52653210D01*
X152937857Y-52070000D01*
X152821849Y-51486790D01*
X152491488Y-50992369D01*
X151997067Y-50662008D01*
X151413857Y-50546000D01*
X151354143Y-50546000D01*
X150770933Y-50662008D01*
X150276512Y-50992369D01*
X150114000Y-51235586D01*
X149951488Y-50992369D01*
X149457067Y-50662008D01*
X148873857Y-50546000D01*
X148814143Y-50546000D01*
X148230933Y-50662008D01*
X147736512Y-50992369D01*
X147574000Y-51235586D01*
X147411488Y-50992369D01*
X146917067Y-50662008D01*
X146333857Y-50546000D01*
X146274143Y-50546000D01*
X145690933Y-50662008D01*
X145196512Y-50992369D01*
X145034000Y-51235586D01*
X144871488Y-50992369D01*
X144377067Y-50662008D01*
X143793857Y-50546000D01*
X143734143Y-50546000D01*
X143150933Y-50662008D01*
X142656512Y-50992369D01*
X142494000Y-51235586D01*
X142331488Y-50992369D01*
X141837067Y-50662008D01*
X141253857Y-50546000D01*
X141194143Y-50546000D01*
X140610933Y-50662008D01*
X140116512Y-50992369D01*
X139954000Y-51235586D01*
X139791488Y-50992369D01*
X139297067Y-50662008D01*
X138713857Y-50546000D01*
X138654143Y-50546000D01*
X138070933Y-50662008D01*
X137576512Y-50992369D01*
X137414000Y-51235586D01*
X137251488Y-50992369D01*
X136757067Y-50662008D01*
X136173857Y-50546000D01*
X136114143Y-50546000D01*
X135530933Y-50662008D01*
X135036512Y-50992369D01*
X134874000Y-51235586D01*
X134711488Y-50992369D01*
X134217067Y-50662008D01*
X133633857Y-50546000D01*
X133574143Y-50546000D01*
X132990933Y-50662008D01*
X132496512Y-50992369D01*
X132166151Y-51486790D01*
X132050143Y-52070000D01*
X131093857Y-52070000D01*
X130977849Y-51486790D01*
X130647488Y-50992369D01*
X130153067Y-50662008D01*
X129569857Y-50546000D01*
X129510143Y-50546000D01*
X128926933Y-50662008D01*
X128432512Y-50992369D01*
X128270000Y-51235586D01*
X128107488Y-50992369D01*
X127613067Y-50662008D01*
X127029857Y-50546000D01*
X126970143Y-50546000D01*
X126386933Y-50662008D01*
X125892512Y-50992369D01*
X125730000Y-51235586D01*
X125567488Y-50992369D01*
X125073067Y-50662008D01*
X124489857Y-50546000D01*
X124430143Y-50546000D01*
X123846933Y-50662008D01*
X123352512Y-50992369D01*
X123190000Y-51235586D01*
X123027488Y-50992369D01*
X122533067Y-50662008D01*
X121949857Y-50546000D01*
X121890143Y-50546000D01*
X121306933Y-50662008D01*
X120812512Y-50992369D01*
X120650000Y-51235586D01*
X120487488Y-50992369D01*
X119993067Y-50662008D01*
X119409857Y-50546000D01*
X119350143Y-50546000D01*
X118766933Y-50662008D01*
X118272512Y-50992369D01*
X118110000Y-51235586D01*
X117947488Y-50992369D01*
X117453067Y-50662008D01*
X116869857Y-50546000D01*
X116810143Y-50546000D01*
X116226933Y-50662008D01*
X115732512Y-50992369D01*
X115569308Y-51236621D01*
X115181148Y-50826547D01*
X114638226Y-50583998D01*
X114401600Y-50714483D01*
X114401600Y-51968400D01*
X114421600Y-51968400D01*
X114421600Y-52171600D01*
X114401600Y-52171600D01*
X114401600Y-53425517D01*
X114638226Y-53556002D01*
X115181148Y-53313453D01*
X115569308Y-52903379D01*
X115732512Y-53147631D01*
X116226933Y-53477992D01*
X116810143Y-53594000D01*
X116869857Y-53594000D01*
X117453067Y-53477992D01*
X117947488Y-53147631D01*
X118110000Y-52904414D01*
X118272512Y-53147631D01*
X118567200Y-53344535D01*
X118567200Y-53909825D01*
X118347341Y-54056730D01*
X118110000Y-54411936D01*
X117872659Y-54056730D01*
X117398871Y-53740155D01*
X116840000Y-53628989D01*
X116281129Y-53740155D01*
X115807341Y-54056730D01*
X115570000Y-54411936D01*
X115332659Y-54056730D01*
X114858871Y-53740155D01*
X114300000Y-53628989D01*
X113741129Y-53740155D01*
X113267341Y-54056730D01*
X112950766Y-54530518D01*
X112839600Y-55089389D01*
X112839600Y-55146611D01*
X112950766Y-55705482D01*
X113267341Y-56179270D01*
X113741129Y-56495845D01*
X114217856Y-56590672D01*
X111185264Y-59623264D01*
X111009071Y-59886955D01*
X110947200Y-60198000D01*
X110947200Y-64008000D01*
X110997592Y-64261338D01*
X111009071Y-64319045D01*
X111185264Y-64582736D01*
X112375264Y-65772736D01*
X112638955Y-65948929D01*
X112950000Y-66010800D01*
X112988479Y-66010800D01*
X113022711Y-66192730D01*
X113167346Y-66417499D01*
X113360534Y-66549498D01*
X113180501Y-66665346D01*
X113029712Y-66886034D01*
X112989379Y-67085200D01*
X104060000Y-67085200D01*
X103748955Y-67147071D01*
X103485263Y-67323264D01*
X101025265Y-69783263D01*
X101025264Y-69783264D01*
X100849071Y-70046955D01*
X100787200Y-70358000D01*
X100787200Y-71054825D01*
X100567341Y-71201730D01*
X100250766Y-71675518D01*
X100139600Y-72234389D01*
X99212400Y-72234389D01*
X99212400Y-52517649D01*
X100863208Y-52517649D01*
X101206609Y-53348741D01*
X101841914Y-53985157D01*
X102672406Y-54330007D01*
X103571649Y-54330792D01*
X104402741Y-53987391D01*
X105039157Y-53352086D01*
X105295933Y-52733700D01*
X105572512Y-53147631D01*
X106066933Y-53477992D01*
X106650143Y-53594000D01*
X106709857Y-53594000D01*
X107293067Y-53477992D01*
X107787488Y-53147631D01*
X107950000Y-52904414D01*
X108112512Y-53147631D01*
X108606933Y-53477992D01*
X109190143Y-53594000D01*
X109249857Y-53594000D01*
X109833067Y-53477992D01*
X110327488Y-53147631D01*
X110490000Y-52904414D01*
X110652512Y-53147631D01*
X111146933Y-53477992D01*
X111730143Y-53594000D01*
X111789857Y-53594000D01*
X112373067Y-53477992D01*
X112867488Y-53147631D01*
X113030692Y-52903379D01*
X113418852Y-53313453D01*
X113961774Y-53556002D01*
X114198400Y-53425517D01*
X114198400Y-52171600D01*
X114178400Y-52171600D01*
X114178400Y-51968400D01*
X114198400Y-51968400D01*
X114198400Y-50714483D01*
X113961774Y-50583998D01*
X113418852Y-50826547D01*
X113030692Y-51236621D01*
X112867488Y-50992369D01*
X112373067Y-50662008D01*
X111789857Y-50546000D01*
X111730143Y-50546000D01*
X111146933Y-50662008D01*
X110652512Y-50992369D01*
X110490000Y-51235586D01*
X110327488Y-50992369D01*
X109833067Y-50662008D01*
X109249857Y-50546000D01*
X109190143Y-50546000D01*
X108606933Y-50662008D01*
X108112512Y-50992369D01*
X107950000Y-51235586D01*
X107787488Y-50992369D01*
X107293067Y-50662008D01*
X106709857Y-50546000D01*
X106650143Y-50546000D01*
X106066933Y-50662008D01*
X105572512Y-50992369D01*
X105295678Y-51406680D01*
X105041391Y-50791259D01*
X104406086Y-50154843D01*
X103575594Y-49809993D01*
X102676351Y-49809208D01*
X101845259Y-50152609D01*
X101208843Y-50787914D01*
X100863993Y-51618406D01*
X100863208Y-52517649D01*
X99212400Y-52517649D01*
X99212400Y-48995400D01*
X155502568Y-48995400D01*
X156017074Y-49097741D01*
G36*
X123352512Y-53147631D02*
X123647200Y-53344535D01*
X123647200Y-53909825D01*
X123427341Y-54056730D01*
X123179804Y-54427196D01*
X123109099Y-54270159D01*
X122694130Y-53879649D01*
X122248253Y-53694968D01*
X122021600Y-53826691D01*
X122021600Y-55016400D01*
X122041600Y-55016400D01*
X122041600Y-55219600D01*
X122021600Y-55219600D01*
X122021600Y-55239600D01*
X121818400Y-55239600D01*
X121818400Y-55219600D01*
X121798400Y-55219600D01*
X121798400Y-55016400D01*
X121818400Y-55016400D01*
X121818400Y-53826691D01*
X121591747Y-53694968D01*
X121145870Y-53879649D01*
X120730901Y-54270159D01*
X120660196Y-54427196D01*
X120412659Y-54056730D01*
X120192800Y-53909825D01*
X120192800Y-53344535D01*
X120487488Y-53147631D01*
X120650000Y-52904414D01*
X120812512Y-53147631D01*
X121306933Y-53477992D01*
X121890143Y-53594000D01*
X121949857Y-53594000D01*
X122533067Y-53477992D01*
X123027488Y-53147631D01*
X123190000Y-52904414D01*
X123352512Y-53147631D01*
X123352512Y-53147631D01*
G37*
X123352512Y-53147631D02*
X123647200Y-53344535D01*
X123647200Y-53909825D01*
X123427341Y-54056730D01*
X123179804Y-54427196D01*
X123109099Y-54270159D01*
X122694130Y-53879649D01*
X122248253Y-53694968D01*
X122021600Y-53826691D01*
X122021600Y-55016400D01*
X122041600Y-55016400D01*
X122041600Y-55219600D01*
X122021600Y-55219600D01*
X122021600Y-55239600D01*
X121818400Y-55239600D01*
X121818400Y-55219600D01*
X121798400Y-55219600D01*
X121798400Y-55016400D01*
X121818400Y-55016400D01*
X121818400Y-53826691D01*
X121591747Y-53694968D01*
X121145870Y-53879649D01*
X120730901Y-54270159D01*
X120660196Y-54427196D01*
X120412659Y-54056730D01*
X120192800Y-53909825D01*
X120192800Y-53344535D01*
X120487488Y-53147631D01*
X120650000Y-52904414D01*
X120812512Y-53147631D01*
X121306933Y-53477992D01*
X121890143Y-53594000D01*
X121949857Y-53594000D01*
X122533067Y-53477992D01*
X123027488Y-53147631D01*
X123190000Y-52904414D01*
X123352512Y-53147631D01*
M02*
